<svg width="16" height="16" viewBox="0 0 16 16" fill="none" xmlns="http://www.w3.org/2000/svg">
<path d="M5.76309 1H9.5327L9.55602 1.22734V1.59264H10.4013L10.4226 1.61596L10.446 2.18723L11.0639 2.21055V2.8032L11.6798 2.82651L11.7031 4.03706L12.3191 4.06038V6.75546L11.7031 6.77878L11.6798 7.3481H11.0639V7.96601H10.4226V8.58197H9.55602V9.19988L8.93811 9.22125L8.91674 10.9351H6.40237V8.0107H7.02027V7.48606L7.04359 7.39474L7.65955 7.37142L7.68287 6.77878H8.32215V6.16087L8.93811 6.13755L8.96143 4.63165H8.34547L8.32215 4.03706H6.99695V4.58502L6.97364 4.63165H6.35768V6.11618L5.76309 6.13755L5.74171 6.75546H3.63928L3.61596 6.13755L3 6.11618V4.06038L3.61596 4.03706L3.63928 2.82651L4.23387 2.8032L4.25524 2.21055H4.89646V1.59264H5.76309V1Z" fill="#025EA2"/>
<path d="M7.02028 11.4829H8.29884L8.32215 12.0542L8.91674 12.0775V12.6701H9.55602V14.384H8.91674V14.9999H6.40237V14.384H5.76309V12.6701L6.381 12.6488L6.40237 12.0775L6.99696 12.0542L7.02028 11.4829Z" fill="#0366A8"/>
<path d="M5.76309 1H9.5327L9.55602 1.22734V2.18723H5.76309V1Z" fill="#82CDEB"/>
<path d="M7.02031 11.4829H8.29887L8.32219 12.0542L8.91677 12.0775V12.6488H8.32219V13.8593H6.99699L6.97368 13.836V12.6488H6.4024V12.0775L6.99699 12.0542L7.02031 11.4829Z" fill="#0C3677"/>
<path d="M6.4024 8.01074H7.02031V10.3405H8.32219V9.22129H8.91677V10.9351H6.4024V8.01074Z" fill="#0A2C7C"/>
<path d="M7.65957 7.37134H8.29885V7.98924H7.65957V10.3404H7.02029V7.48598L7.04361 7.39466L7.65957 7.37134Z" fill="#6DB1D8"/>
<path d="M5.76309 1H9.5327L9.55602 1.22734V1.59264H5.76309V1Z" fill="#092B78"/>
<path d="M4.89648 1.59265H5.76311V2.8032H4.87317V3.42111H4.23389V2.8032L4.25526 2.21056H4.89648V1.59265Z" fill="#5F9ECB"/>
<path d="M11.7032 4.06042H12.3191V6.7555H11.7032V4.06042Z" fill="#082B79"/>
<path d="M6.99695 12.6488H8.32214V13.8127H6.99695V12.6488Z" fill="#F5E02F"/>
<path d="M6.4024 14.4073H8.91677V15H6.4024V14.4073Z" fill="#0A2D7C"/>
<path d="M9.5774 2.18726H10.446L11.0639 2.21057L11.0852 2.80322V3.42112H10.446V2.80322H9.55603L9.5774 2.18726Z" fill="#467EB5"/>
<path d="M3.63928 6.13757H5.74171V6.75548H3.63928V6.13757Z" fill="#0A2C79"/>
<path d="M3 4.06042H3.61596V6.11622H3V4.06042Z" fill="#072B7A"/>
<path d="M8.93814 6.13757H9.55604V6.75548H8.93814V7.37144H8.32217V6.16089L8.93814 6.13757Z" fill="#5B98C6"/>
<path d="M8.93811 12.6703H9.55602V14.3841H8.93811V12.6703Z" fill="#092B7B"/>
<path d="M5.76309 12.6703H6.381V14.3841H5.76309V12.6703Z" fill="#082A7A"/>
<path d="M8.96143 4.65283H9.55601V6.13736H8.96143V4.65283Z" fill="#0A2B7A"/>
<path d="M5.76309 4.65307H6.35768V6.11622H5.76309V4.65307ZM7.02028 3.42114H8.32215V4.01379H7.02028V3.42114Z" fill="#092B7A"/>
<path d="M7.02029 11.4829H8.29885V12.0542H7.02029V11.4829Z" fill="#072A79"/>
<path d="M11.0852 2.80322L11.6798 2.82654V4.03709H11.0852V2.80322Z" fill="#092977"/>
<path d="M3.63928 2.82654H4.23387V4.03709H3.63928V2.82654Z" fill="#092A77"/>
<path d="M7.02029 12.0542H8.29885V12.6022H7.02029V12.0542Z" fill="#0367A9"/>
<path d="M9.5774 2.18726H10.446V2.80322H9.55603L9.5774 2.18726Z" fill="#82CCEC"/>
<path d="M4.89645 1.59265H5.76308V2.18724H4.89645V1.59265Z" fill="#092B79"/>
<path d="M9.57739 7.98938H10.4226V8.58203H9.57739V7.98938Z" fill="#082B77"/>
<path d="M9.57739 1.59265H10.4013L10.4226 1.61597V2.18724H9.57739V1.59265Z" fill="#092979"/>
</svg>
