<svg width="32" height="32" viewBox="0 0 32 32" fill="none" xmlns="http://www.w3.org/2000/svg">
<path d="M12.9386 5H19.3899L19.4305 6.28435L22.0361 6.32495L22.0767 7.6056L23.3573 7.6462V8.97115H24.6823L24.7229 10.2518L26.0035 10.2924V12.9829H27.3285V19.9693L26.0478 20.0099L26.0035 22.7816H24.6823V24.1877L22.0767 24.2283L22.0361 25.5939H20.7554V26.8745L20.7111 27H12.9386L12.898 25.6345L10.2924 25.5939V24.1877H8.96746L8.92686 22.8222L7.6462 22.7816V21.3754H6.32125V19.9693H5V12.9829H6.32125V10.2924H7.6462V8.97115H8.96746V7.6462H10.2924V6.32495H12.9386V5Z" fill="#640D23"/>
<path d="M12.9386 5H19.3899L19.4305 6.28435V7.6056H20.7554V8.93055H22.0767V10.2518H23.3573L23.4016 10.3773V14.3447H24.7229L24.7635 15.6697L24.7229 15.7509H23.4016L23.4422 16.9097L23.4016 18.4414L23.3167 18.6038H22.7373L22.1578 18.6886L22.1172 18.7292V19.9693L22.0767 20.0099H20.7554V21.2536L20.5893 21.3754H19.5116L19.1832 21.416L18.3971 21.4603L18.1498 21.416V22.8222L17.6922 22.8628H13.1859L12.898 22.741V21.416H10.2518V20.0099H8.92684L8.88625 19.6408L8.92684 18.6038L7.68678 18.648L7.60559 18.6038V11.4919L7.64619 11.5767H8.92684V12.9386H10.2518V15.7509H16.8248V14.3447H18.1498V8.93055H15.5036V7.6056H12.898V6.32495L12.9386 5Z" fill="#CA2424"/>
<path d="M19.4305 6.32495H22.0361L22.0767 7.60561L23.3573 7.64621V8.97115H24.6823L24.7229 10.2518L26.0035 10.2924V12.9829H27.3285V19.9693L26.0478 20.0099L26.0035 22.7816L24.6823 22.8222H20.7554V24.2283H12.898V22.8222L12.278 22.8628L11.8646 22.9071L11.8203 22.8628L10.2518 22.8222V21.416L10.8718 21.3754H11.4919L12.898 21.416L12.9386 22.741L13.2265 22.8222H18.1498V21.416L19.3899 21.3754L19.5117 21.3348H20.5893L20.7554 21.2537V20.0099L22.0767 19.9693V18.7292L22.1579 18.6481L22.7373 18.5632H23.2761L23.3573 18.4414L23.4016 16.8692V15.7509L24.3501 15.7103L24.7229 15.7509V14.3447H23.4016L23.3573 11.4107V10.2518H22.0767V8.93055H20.7554V7.60561H19.4305V6.32495Z" fill="#94224D"/>
<path d="M7.64621 21.4159H10.2518V22.822H11.8203L11.8646 22.8626L12.5253 22.822H12.898V24.2282H20.7554V22.822H24.6823V24.1876L22.0767 24.2282L22.0361 25.5937H20.7554V26.8744L20.7111 26.9999H12.9386L12.898 25.6343L10.2924 25.5937V24.1876H8.96746L8.92687 22.822L7.64621 22.7814V21.4159Z" fill="#711145"/>
<path d="M12.898 8.93054H15.5036V10.2518H16.8249V12.9386H15.5036V14.3447H11.5731V10.2518H12.898V8.93054Z" fill="#A11A2D"/>
<path d="M19.4305 6.32495H22.0361L22.0767 7.60561L23.3573 7.64621V8.97115H24.6823L24.7229 10.2518L26.0035 10.2924V12.9386H24.7229L24.7634 13.9757L24.7229 14.3447H23.4016L23.3573 11.4107V10.2518H22.0767V8.93055H20.7554V7.60561H19.4305V6.32495Z" fill="#A91216"/>
<path d="M20.7554 12.9386H22.0767V17.157L21.9512 17.2013L20.7554 17.157V18.6038H18.1498V17.157H19.4305V14.3447H20.7554V12.9386Z" fill="#E34240"/>
<path d="M6.28064 15.6292H6.36553V15.7509H7.60559V18.6038H8.92684V20.01H10.2518V21.4161H7.64618L6.32124 21.3755L6.28064 19.9694V15.6292Z" fill="#701141"/>
<path d="M26.0478 12.9829H27.3285V19.9693L26.0478 20.0099L26.0035 22.7816H24.7229V20.0099L25.9629 19.9693L26.0035 19.9287L26.0478 12.9829Z" fill="#4F0815"/>
<path d="M12.9792 25.6344H20.7554V26.8745L20.7111 26.9999H12.9386V25.675L12.9792 25.6344Z" fill="#500713"/>
<path d="M12.898 8.93054H15.5036V10.2518H16.8248V12.9386H15.5036V11.5767L14.2192 11.6579L12.898 11.6173V8.93054Z" fill="#A21A29"/>
<path d="M5 12.9829H6.28066V19.9693H5V12.9829Z" fill="#4E0814"/>
<path d="M23.3167 10.0857L23.4016 10.13V10.2518H24.7229L26.0035 10.2924V12.9386H24.7229L24.7634 13.9756L24.7229 14.3447H23.4016L23.3573 11.4106V10.3773L23.3167 10.0857Z" fill="#A41827"/>
<path d="M12.9386 5H19.3899V6.28435H12.9386V5Z" fill="#510814"/>
<path d="M11.5731 15.751H16.8249V17.2014H11.5731V15.751Z" fill="#E74B48"/>
<path d="M20.7554 22.8221H24.6823V24.1877L22.0767 24.2283L22.0361 25.5938H20.7554V22.8221Z" fill="#6F1246"/>
<path d="M15.5036 8.93054H18.1498V13.518H18.1055V12.9386H16.8249V10.2518H15.5036V8.93054Z" fill="#55091B"/>
<path d="M18.1498 8.93054H19.4305V14.3447H18.1498V8.93054Z" fill="#E64C48"/>
<path d="M20.7554 12.9386H22.0767V15.7509H19.471L19.4305 15.6697V14.3447H20.7554V12.9386Z" fill="#F15F5E"/>
<path d="M7.60559 18.6038H8.92684V20.0099H10.2518V21.416H7.64619L7.60559 21.3754V18.6038Z" fill="#701146"/>
<path d="M10.5803 21.3754H11.4919L12.898 21.416L12.9386 22.7409L13.0641 22.8221L12.278 22.8627L11.8646 22.907L11.8203 22.8627L10.2518 22.8221V21.416L10.5803 21.3754Z" fill="#A11931"/>
<path d="M6.32124 12.9386H7.60559V15.7509H6.36553V15.6291H6.28064V12.9829L6.32124 12.9386Z" fill="#AB1217"/>
<path d="M10.2924 24.1877L12.898 24.2283L12.9386 25.6345L10.2924 25.5939V24.1877Z" fill="#4E0813"/>
<path d="M22.0767 22.8221H24.6823V24.1877H22.0767V22.8221Z" fill="#500715"/>
<path d="M15.5036 8.93054H18.1498V10.2518H15.5036V8.93054Z" fill="#58081F"/>
<path d="M15.5036 7.60571H18.1498V8.93066H15.5036V7.60571Z" fill="#E44A49"/>
<path d="M8.96745 10.2518H10.2518V12.898H9.01173L8.96745 12.8574V12.3186L8.92685 12.1968V10.2924L8.96745 10.2518Z" fill="#6B123D"/>
<path d="M15.0053 11.5768H15.5036V12.9386H12.898V11.6174H14.4259L15.0053 11.5768Z" fill="#6C133D"/>
<path d="M24.7229 10.2924H26.0035V12.9386H24.7229V10.2924Z" fill="#4E0816"/>
<path d="M6.32126 10.2924H7.60561V12.9386H6.32126V10.2924Z" fill="#4D0914"/>
<path d="M22.0767 8.93054H23.3573L24.6823 8.97114V10.2518H23.4016L23.3573 10.13L23.3167 10.2518H22.0767V8.93054Z" fill="#A91316"/>
<path d="M19.4305 6.32495H22.0361V7.60561H19.4305V6.32495Z" fill="#520813"/>
<path d="M10.2924 6.32495H12.898V7.60561H10.2924V6.32495Z" fill="#500915"/>
<path d="M11.5731 14.3447H12.9386L12.898 15.7103H13.518V15.7509H11.5731V14.3447Z" fill="#58081A"/>
<path d="M23.4016 21.4159H24.7229V22.7814L24.6823 22.822H23.2761L23.4016 22.7814V21.4159Z" fill="#711248"/>
<path d="M8.92685 20.0099H10.2518V21.416H8.92685V20.0099Z" fill="#93214B"/>
<path d="M16.8249 14.3447H18.1498V15.7509H16.8249V14.3447Z" fill="#E34B49"/>
<path d="M8.92685 12.9386H10.2518V14.3447H8.92685V12.9386Z" fill="#E54945"/>
<path d="M24.7229 18.6038H26.0478V19.9287L25.9629 20.0099H24.7229V18.6038Z" fill="#6E1146"/>
<path d="M10.333 14.3447H11.5731V15.7509H10.2518V14.4702L10.333 14.3447Z" fill="#6E103E"/>
<path d="M7.60559 18.6038H8.92684V20.0099H7.60559V18.6038Z" fill="#94224C"/>
<path d="M12.9386 14.3447H15.5036V14.389H14.1786V15.7509H13.518L12.898 15.7103V14.389L12.9386 14.3447Z" fill="#6E103E"/>
<path d="M18.1498 17.1571L19.4305 17.2014V18.6038H18.1498V17.1571Z" fill="#F05F5F"/>
<path d="M14.1786 14.389H15.5036V15.7509H14.1786V14.389Z" fill="#56071B"/>
<path d="M7.64621 21.4159H8.92687L8.96746 22.822L7.64621 22.7814V21.4159Z" fill="#4D0816"/>
<path d="M8.96744 22.8221H10.2518V24.1877H8.96744V22.8221Z" fill="#4E0715"/>
<path d="M6.32126 20.0099H7.60561V21.3754H6.32126V20.0099Z" fill="#4D0715"/>
<path d="M16.8249 12.9386H18.1055L18.1498 13.5623L18.1055 14.2635L18.0649 14.3041H16.8249V12.9386Z" fill="#6A123D"/>
<path d="M7.64619 10.2518H8.96744L8.92684 11.5768L8.34741 11.6174L7.64619 11.5768L7.60559 11.4919V10.2924L7.64619 10.2518Z" fill="#A81319"/>
<path d="M10.2924 7.60571H11.5731V8.93066H10.2518V7.64631L10.2924 7.60571Z" fill="#C32426"/>
<path d="M20.8772 24.2283H22.0361V25.5938H20.7554V24.3132L20.8772 24.2283Z" fill="#4F0715"/>
<path d="M11.5731 7.60571H12.898V8.93066H11.6137V8.43242L11.5731 8.39182V7.60571Z" fill="#6B113D"/>
<path d="M12.898 11.6173H14.1786V12.9386H12.898V11.6173Z" fill="#58091E"/>
<path d="M16.8249 8.97107H18.1498V10.2517H16.8249V8.97107Z" fill="#6A133C"/>
<path d="M23.4016 8.97107H24.6823V10.2517H23.4016V8.97107Z" fill="#500816"/>
<path d="M7.64621 8.97107H8.92687V10.2517H7.64621V8.97107Z" fill="#4D0814"/>
<path d="M22.0767 7.64624H23.3573V8.93059H22.0767V7.64624Z" fill="#530813"/>
<path d="M8.96744 7.64624H10.2518V8.93059H8.96744V7.64624Z" fill="#500914"/>
</svg>
