<svg width="32" height="32" viewBox="0 0 32 32" fill="none" xmlns="http://www.w3.org/2000/svg">
<path d="M13.2153 6H19.0808L19.1199 6.07402V7.16699L21.4496 7.20183L21.4888 7.24102V8.40365H22.6514L22.6906 8.44284L22.7254 9.57064L23.8532 9.60983L23.8924 9.64467L23.9316 10.7725L25.0594 10.8117L25.0942 10.8508L25.1334 13.2153L26.2612 13.2545L26.3004 13.2937V19.5684L25.7735 19.6076L25.1334 19.6468L25.0942 22.1245L25.0594 22.1637L23.9316 22.2029L23.8924 23.4439H21.5236L21.4888 24.7197H20.3218V25.7735L20.2826 25.9999H13.2153L13.1805 24.7589L10.8117 24.7197L10.7725 23.4787L9.60983 23.4439L9.57064 22.2029L8.44284 22.1637L8.40365 22.1245V20.8835H7.27585L7.20183 20.8486L7.16264 19.6468L6.03919 19.6076L6 19.5684V13.2937L6.03919 13.2545L7.16264 13.2153L7.20183 10.8508L7.24102 10.8117L8.36882 10.7725L8.40365 9.60983L9.57064 9.57064L9.60983 8.44284L9.64467 8.40365L10.7725 8.36882L10.8117 7.24102L10.8465 7.20183L13.1805 7.16699L13.2153 6Z" fill="#3F059D"/>
<path d="M13.2153 6H19.0807L19.1199 6.07402V7.16699L21.4496 7.20183L21.4887 7.24102L21.5236 8.40365L21.5628 10.7725L22.6906 10.8117V11.9786L22.7254 12.0135L22.7646 14.4955H23.8924V15.7714L22.7646 15.8106L22.7254 15.8846L22.6906 18.2534L22.4641 18.3274L21.5236 18.3666L21.4887 19.5336L21.2623 19.5684H20.435L20.2826 19.6076L20.2477 20.8095L20.0953 20.8486H18.4798L17.9921 20.8835L17.9137 20.9967L17.8789 22.0897L17.7265 22.1245H13.1805V20.9227H12.0135L11.9743 20.8835L10.9249 20.8486L10.8465 20.6614V19.7208L10.7376 19.6468V19.5336L10.4372 19.6076H10.0583V19.5336H9.68385L9.64466 19.4552V19.0416L9.60982 18.3274L9.08293 18.2926L8.78248 18.2534L8.48202 18.2186L8.44283 18.027V15.9238L8.3688 15.6973V13.2937L8.44283 13.1805V12.0527L8.48202 12.0135H9.53144L9.57063 13.2153H10.7725V15.7714H16.7511V14.4955H17.9529V9.57064H15.5493V8.36882H13.1805V7.16699L13.2153 6Z" fill="#0378F4"/>
<path d="M6.03919 13.2545H7.16264L7.20183 15.7714H8.36882L8.40365 19.6076L9.57064 19.6468V20.9227H10.7725V22.2029H12.0135L12.3531 22.2377L12.5404 22.2029L13.1805 22.1637V23.4787H20.3218V22.2029L23.8532 22.1637L23.8924 22.1245L23.9316 20.435V19.6468H25.0942V22.1245L25.0594 22.1637L23.9316 22.2029L23.8924 23.4439H21.5236L21.4888 24.7198H20.3218V25.7735L20.2826 26H13.2153L13.1805 24.7589L10.8117 24.7198L10.7725 23.4787L9.60983 23.4439L9.57064 22.2029L8.44284 22.1637L8.40365 22.1245V20.8835H7.27585L7.20183 20.8487L7.16264 19.6468L6.03919 19.6076L6 19.5685V13.2937L6.03919 13.2545Z" fill="#5605AC"/>
<path d="M23.8924 13.2155H25.1334L26.2612 13.2546L26.3004 13.2938V19.5686L25.7735 19.6078L25.1334 19.647H23.9316L23.9664 20.4351L23.9316 22.1246L23.8532 22.203H20.3218V23.4789H13.1805V22.203H17.953L17.9921 21.036L18.1054 20.962L20.361 20.9228V19.6818L20.3958 19.647L21.5628 19.6078V18.4408L21.6368 18.3668H22.7254L22.7646 15.8499L22.8386 15.8107L23.9316 15.7715V14.5697L23.8532 13.6291L23.8924 13.2155Z" fill="#7F17DB"/>
<path d="M21.5236 8.40369H22.6514L22.6906 8.44288L22.7254 9.57068L23.8532 9.60987L23.8924 9.6447L23.9316 10.7725L25.0594 10.8117L25.0943 10.8509V13.2153H23.8924V13.7074L23.9665 14.5696V15.7714L23.9316 15.8106L22.7646 15.8498V18.2926L22.7254 18.3666L21.6368 18.4058L21.5976 18.4407L21.5628 19.6077L21.4888 19.6469L20.3958 19.6817L20.361 20.9227L20.2826 20.9619L18.1054 20.9967L17.9922 21.0359V22.0505L17.953 22.2029H12.5404L12.5012 22.2769H12.2007L12.0135 22.2377L10.7725 22.2029V20.9227H9.57067V19.6469H8.40367L8.36884 19.6077V15.7714L7.20185 15.8106L7.16266 15.7714V13.2153L7.20185 10.8509L7.24104 10.8117H9.53148L9.57067 10.8509V13.1413H9.53148V12.0135L8.48205 12.0527V13.2153H8.40367V15.6974L8.48205 15.963V18.2186H8.96975L9.23102 18.2534L9.60986 18.3275L9.64469 18.4407L9.68388 19.12V19.4944L10.0584 19.5336V19.6077L10.4372 19.5685L10.6244 19.5336H10.7377V19.6469L10.8857 19.7209V20.6963L10.9249 20.8487L11.1862 20.8095L11.9743 20.8487L12.0135 20.8835L13.1805 20.9227V22.1245L15.1705 22.0897H17.8398L17.8789 20.9967L17.9138 20.8835L17.9922 20.8487L18.5539 20.8095H20.2478V19.6817L20.2826 19.6077L20.435 19.5336H21.4888V18.4799L21.5236 18.3666L21.5976 18.3275L22.4642 18.2926L22.6514 18.2534L22.6906 15.8846L22.7646 15.7714H23.8924V14.4956L22.8778 14.5347L22.7646 14.4956L22.7254 14.4215L22.6906 12.0135L22.6514 11.9787V10.8509L21.5628 10.8117L21.5236 10.7725V8.40369Z" fill="#1547D8"/>
<path d="M15.5493 9.57068H17.9529V14.4956H16.7511V15.7714H11.4126V15.7366L11.9743 15.6974H13.1021L14.3431 15.7366V14.5696L14.4215 14.4956H15.5493V13.2153H16.7511V10.7725H15.5493V9.57068Z" fill="#3B069B"/>
<path d="M15.5101 10.6593L15.5493 10.7725H16.7511V13.2154H15.5493V12.0135H13.1805V13.2154H14.3823V14.3083L14.3431 14.4956H11.9743V11.9395L13.1021 11.9003L13.0672 11.1514L13.1021 10.8117L13.2937 10.6985H15.3577L15.5101 10.7377V10.6593Z" fill="#1C54D9"/>
<path d="M17.9529 9.57068H19.1548V14.4956H20.3218V13.2153H21.5236V15.7714L21.4104 15.8106H20.0953L19.1199 15.7714V14.4956H17.9529V9.57068Z" fill="#0DAAF4"/>
<path d="M6.03919 13.2545H7.16264L7.20183 19.5685L7.27585 19.6076L8.36882 19.6468L8.40365 20.8835H7.27585L7.20183 20.8487L7.16264 19.6468L6.03919 19.6076L6 19.5685V13.2937L6.03919 13.2545Z" fill="#10076A"/>
<path d="M13.2153 24.759H20.3218V25.7736L20.2826 26H13.2153V24.759Z" fill="#11066D"/>
<path d="M7.24104 10.8116H9.53148L9.57067 10.8508V13.1413H9.53148V12.0135L8.48205 12.0527V13.2153H8.40367L8.36884 15.7714L7.20185 15.8105L7.16266 15.7714V13.2153L7.20185 10.8508L7.24104 10.8116Z" fill="#1845D2"/>
<path d="M25.1334 13.2545H26.2612L26.3004 13.2937V19.5685L25.7735 19.6076L25.0942 19.6468V18.8935L25.1726 18.027L25.1334 17.7657V13.2545Z" fill="#11066D"/>
<path d="M8.3688 15.6974L8.44283 15.7366L8.48202 16.1502V18.2186H8.96972L9.23098 18.2534L9.60982 18.3275L9.64466 18.4407L9.68385 19.12V19.4945L10.0583 19.5337V19.6077L10.4372 19.5685L10.6244 19.5337H10.7376V19.6469L10.8857 19.7209V20.6963L10.9249 20.8487L11.1861 20.8095L11.9743 20.8487L12.0135 20.8835L13.1805 20.9227V22.1637L13.1021 22.2029H12.5404L12.5012 22.2769H12.2007L12.0135 22.2378L10.7725 22.2029V20.9227H9.57063V19.6469H8.40364L8.3688 19.6077V15.6974Z" fill="#1F4EDF"/>
<path d="M13.2153 6H19.0807L19.1199 6.07402V6.94056L19.0807 7.16699H13.2153V6Z" fill="#10086C"/>
<path d="M11.9743 15.7714H16.7511V17.0516H11.9743V15.7714Z" fill="#0BADF5"/>
<path d="M23.9316 19.6467H25.0942V22.1244L25.0594 22.1636L23.9316 22.2028L23.8924 23.4438H21.5236V22.2028L23.8532 22.1636L23.8924 22.1244L23.9316 20.4349V19.6467Z" fill="#12066F"/>
<path d="M7.16266 15.7714H8.36884L8.40367 19.8689H8.36884V19.6468H7.27587L7.16266 19.5684V15.7714Z" fill="#5307A8"/>
<path d="M20.3218 13.2155H21.5236V15.7715L21.4104 15.8107H20.0953L19.1548 15.7715V14.4957H20.3218V13.2155Z" fill="#16CAF7"/>
<path d="M21.5236 8.40369H22.6514L22.6906 8.44288L22.7254 9.57068L23.8532 9.60987L23.8924 9.6447V10.7725H21.5236V8.40369Z" fill="#1544CF"/>
<path d="M12.88 22.1638H13.1805V23.4789H10.7725V22.203H12.0135L12.3531 22.2378L12.5404 22.203L12.88 22.1638Z" fill="#5406AC"/>
<path d="M10.8117 23.4788H13.1805V24.7198H10.8117V23.4788Z" fill="#11076E"/>
<path d="M13.1805 12.0134H15.5493V13.2153H13.1805V12.0134Z" fill="#4206A1"/>
<path d="M23.9316 10.8116H25.0594L25.0942 10.8508V13.2153H23.9316V10.8116Z" fill="#110569"/>
<path d="M7.241 10.8116H8.3688V13.2153H7.20181V10.8508L7.241 10.8116Z" fill="#0D0768"/>
<path d="M10.8465 7.20178H13.1805V8.36877H10.8117V7.24097L10.8465 7.20178Z" fill="#0F0669"/>
<path d="M19.1199 7.20178H21.4496L21.4888 7.24097V8.36877H19.1199V7.20178Z" fill="#120E6E"/>
<path d="M13.1805 9.57068H15.5493V10.6593L15.5101 10.7377H13.1805V9.57068Z" fill="#7D16D8"/>
<path d="M15.6233 8.3689H17.9529V9.45751L17.6525 9.4967H15.6581L15.6233 9.27027V8.3689Z" fill="#07ADF5"/>
<path d="M13.1805 7.16699H19.1199V8.36882H21.4888L21.5236 8.40365V9.57064H20.361L20.3218 8.78249L20.361 8.40365H19.0808L19.0416 7.24102H16.7511L15.9238 7.27585H13.4417L13.2937 7.31504V8.18158L13.3285 8.29479L13.8946 8.2556H15.2097L15.5493 8.29479V8.36882H13.1805V7.16699Z" fill="#1B4ED4"/>
<path d="M23.9316 20.4349H23.9664L23.9316 22.1245L23.8532 22.2028H21.5236V22.1636L22.5773 22.1245L22.7254 22.1636V20.9226H23.8924L23.9316 20.4349Z" fill="#5506AC"/>
<path d="M25.1334 17.7656H25.1726L25.2074 18.0661L25.1334 18.9326V19.5684L25.0942 19.6467H23.9316V18.3273H25.1334V17.7656Z" fill="#5605AC"/>
<path d="M10.7725 20.9226H11.9395L12.0135 20.9618L12.0527 21.5235V22.0896L12.0135 22.2028H10.7725V20.9226Z" fill="#761CD7"/>
<path d="M23.8532 13.8206L23.9316 13.9686L23.9664 14.5695V15.7713L23.9316 15.8105L22.7646 15.8497V18.2926L22.7254 18.3666L21.6368 18.4058L21.5976 18.4406L21.5628 19.6076L21.4888 19.6468L20.3958 19.6816L20.361 20.9227L20.2826 20.9618L18.1054 20.9967L17.9921 21.0359V22.0505L17.953 22.2029H13.1805V22.1245L15.1705 22.0896H17.8397L17.8789 20.9967L17.9138 20.8835L17.9921 20.8486L18.5539 20.8094H20.2477V19.6816L20.2826 19.6076L20.435 19.5336H21.4888V18.4798L21.5236 18.3666L21.5976 18.3274L22.4642 18.2926L22.6514 18.2534L22.6906 15.8846L22.7646 15.7713H23.8924L23.8532 14.4955V13.8206Z" fill="#334FEE"/>
<path d="M20.3217 22.2029H21.5236V23.4787H20.3217V22.2029Z" fill="#5906B1"/>
<path d="M8.3688 18.3666H9.57063V19.6468H8.40364L8.3688 19.6076V18.3666Z" fill="#781CD9"/>
<path d="M9.57062 19.6467H10.6244L10.7376 19.6816L10.7724 19.7948V20.9226H9.57062V19.6467Z" fill="#791BD8"/>
<path d="M17.9529 17.0515H19.1199L19.1548 17.0907V18.0661L19.1199 18.3274H17.9529V17.0515Z" fill="#18C9F8"/>
<path d="M14.3823 13.2155H15.5493V14.4957H14.3431L14.3823 13.2155Z" fill="#7C16DA"/>
<path d="M9.57062 13.2155H10.7376V14.4957H9.57062V13.2155Z" fill="#0DA8F5"/>
<path d="M10.7725 8.3689H11.9743V9.57072H10.7725V8.3689Z" fill="#0F6DEE"/>
<path d="M9.6098 22.2029H10.7724V23.4439H9.6098V22.2029Z" fill="#13076E"/>
<path d="M22.7254 10.7725H23.9316V11.9003L23.8184 12.0135H22.8038L22.7646 11.9786L22.7254 10.7725Z" fill="#7819D8"/>
<path d="M20.6222 23.4788H21.5236L21.4887 24.7198H20.3217V23.6312L20.3958 23.5179L20.6222 23.4788Z" fill="#13066E"/>
<path d="M9.57062 9.57068H10.3239L10.7724 9.60987V10.7725H9.57062V9.57068Z" fill="#0E6EEF"/>
<path d="M8.40369 20.8835L9.53149 20.9227L9.60987 22.2029L8.44288 22.1638L8.40369 22.1246V20.8835Z" fill="#11076A"/>
<path d="M8.40369 9.60974H9.57068V10.7724H8.40369V9.60974Z" fill="#0D0667"/>
<path d="M22.7254 9.60974H23.8532L23.8924 9.64458V10.7724H22.7254V9.60974Z" fill="#12076A"/>
<path d="M9.64464 8.40369H10.7724V9.57068H9.6098V8.44288L9.64464 8.40369Z" fill="#0C0869"/>
<path d="M21.5236 8.40369H22.6514L22.6906 8.44288V9.57068H21.5236V8.40369Z" fill="#140C6C"/>
<path d="M16.9776 14.5695H17.953V15.7713H16.8992L16.8644 15.7364L16.8252 15.4708V14.6435L16.9776 14.5695Z" fill="#0DADF4"/>
<path d="M11.9743 10.7725H13.1413L13.1021 11.3734L13.1413 11.9003L12.954 11.9395H11.9743V10.7725Z" fill="#7C1BD7"/>
</svg>
