<svg width="24" height="24" viewBox="0 0 24 24" fill="none" xmlns="http://www.w3.org/2000/svg">
<path d="M7.99219 1.07282C8.29935 0.959736 8.64097 0.978306 8.93672 1.12892L15.6 4.52223L22.2633 1.12892C22.6352 0.939526 23.0767 0.960085 23.4305 1.18263C23.7842 1.40532 24 1.79863 24 2.22222V18.111C24 18.574 23.7433 18.9973 23.3367 19.2043L16.1367 22.871C15.7989 23.043 15.4011 23.043 15.0633 22.871L8.4 19.4777L1.73672 22.871C1.36482 23.0604 0.923267 23.0398 0.569531 22.8173C0.215751 22.5946 0 22.2012 0 21.7777V5.88887C0 5.42593 0.25674 5.00259 0.663281 4.79556L7.86328 1.12892L7.99219 1.07282ZM2.4 6.6444V19.7999L7.86328 17.0177C8.20111 16.8457 8.59889 16.8457 8.93672 17.0177L15.6 20.411L21.6 17.3555V4.19997L16.1367 6.98218C15.7989 7.15422 15.4011 7.15422 15.0633 6.98218L8.4 3.58886L2.4 6.6444ZM17.1516 9.91358C17.6202 9.43628 18.3798 9.43628 18.8484 9.91358C19.3171 10.3909 19.3171 11.1646 18.8484 11.6419L17.2969 13.2222L18.8484 14.8024C19.3171 15.2797 19.3171 16.0534 18.8484 16.5307C18.3798 17.008 17.6202 17.008 17.1516 16.5307L15.6 14.9504L14.0484 16.5307C13.5798 17.008 12.8202 17.008 12.3516 16.5307C11.8829 16.0534 11.8829 15.2797 12.3516 14.8024L13.9031 13.2222L12.3516 11.6419C11.8829 11.1646 11.8829 10.3909 12.3516 9.91358C12.8202 9.43628 13.5798 9.43628 14.0484 9.91358L15.6 11.4939L17.1516 9.91358ZM3.6 13.2341V13.2222C3.6 12.5471 4.13726 11.9999 4.8 11.9999C5.46274 11.9999 6 12.5471 6 13.2222V13.2341C6 13.9091 5.46274 14.4563 4.8 14.4563C4.13726 14.4563 3.6 13.9091 3.6 13.2341ZM7.2 12.0119V11.9999C7.2 11.3249 7.73726 10.7777 8.4 10.7777C9.06274 10.7777 9.6 11.3249 9.6 11.9999V12.0119C9.6 12.6869 9.06274 13.2341 8.4 13.2341C7.73726 13.2341 7.2 12.6869 7.2 12.0119Z" fill="#522508"/>
</svg>
