<svg width="48" height="48" viewBox="0 0 48 48" fill="none" xmlns="http://www.w3.org/2000/svg">
<g clip-path="url(#clip0_95_704)">
<path d="M19.4958 0H28.5092V1.52381H31.497V2.98786H33.0159V4.50669H34.4799V6.03049H37.4678V7.49455H38.9866V9.01337H40.5104V12.0012H41.9745L42.0342 13.4653L43.4933 13.5201V16.5079H41.9745V18.0317H43.4933V19.4908H45.0171V21.0146H46.4812V22.4787H48.005V28.5092H46.4812V29.9732H44.9573V31.492H41.9745V33.0158H43.4933V35.9987H44.9573V41.9695H43.4933V44.9573H42.0342V46.4811H40.5104V48H9.01836V46.4811H7.55431V44.9573H10.5372V46.4811H28.5092V44.9573H29.9732V38.9866H28.5092V34.4799H26.9903V31.492H28.5092V29.9732H37.4678V28.5092H10.5372V29.9732H9.01836V31.492H12.0012V29.9732H18.0317V31.492H21.0146V32.9561H22.4787V40.5104H21.0146V41.9695H19.4958V43.4933H10.5372V41.9695H9.01836V40.5104H7.49455V33.0158H6.0305V43.4933H7.49455V44.9573H4.51167V41.9695H3.04762V35.9987H4.51167V32.9561H6.0305V31.492H3.04762V29.9732H1.52381V28.5092H0V22.4787H1.52381V21.0146H3.04762V19.4908H4.51167V7.49455H3.04762V3.04264H10.4824V7.49455H9.01836V12.0012H10.5372V9.01337H12.0012V6.03049H13.525V4.50669H14.9891V2.98786H16.5079V1.52381H19.4958V0Z" fill="#1B5467"/>
<path d="M19.4958 0H28.5092V1.52381H31.497V2.98786H33.0158V7.49455H34.4799V10.5372H33.0158V13.4653L32.9611 13.5201H31.497V14.9841H25.5263V13.5201H24.0025V14.9841L22.5384 15.0439L22.4787 18.0317H24.0025V19.4908H25.4665L25.5263 19.5506V21.0146H26.9903V25.5213H10.5372V26.9853H7.5543V28.4494L7.49454 28.5092H4.56644L4.51166 28.4494V26.9853H3.04761V19.4908H4.51166V7.49455H3.04761V3.04264H10.4824V7.49455H9.01835V12.0012H10.5372V9.01337H12.0012V6.03049H13.525V4.50669H14.9891V2.98786H16.5079V1.52381H19.4958V0Z" fill="#468390"/>
<path d="M1.52381 21.0146H3.04762V26.9854H4.51167L4.56645 28.4494H7.49455L7.55431 26.9854H37.4678V28.5092H10.5372V29.9732H9.01836V31.4921H12.0012V29.9732H18.0317V31.4921H21.0146V32.9561H22.4787V40.5104H21.0146V41.9695H19.4958V43.4933H10.5372V41.9695H9.01836V40.5104H7.49455V33.0159H6.0305V43.4933H7.49455V44.9574H4.51167V41.9695H3.04762V35.9988H4.51167V32.9561H6.0305V31.4921H3.04762V29.9732H1.52381V28.5092H0V22.4787H1.52381V21.0146Z" fill="#734A27"/>
<path d="M28.5092 29.9733H37.4678V31.4921H38.9866V34.48H37.4678V37.4628H38.9866V44.9574H41.9744V33.0159H43.4933V35.9988H44.9573V41.9695H43.4933V44.9574H42.0342V46.4812H40.5104V48H9.01834V46.4812H7.55429V44.9574H10.5372V46.4812H28.5092V44.9574H29.9732V38.9866H28.5092V34.48H26.9903V31.4921H28.5092V29.9733Z" fill="#040403"/>
<path d="M10.5372 28.5092H37.4678V29.9732H28.5092V31.492H26.9904V34.4799H28.5092V38.9866H29.9732V44.9573H28.5092V46.4811H10.5372V44.9573H7.55432V46.4811H7.49457V45.0171H4.51169V44.9573H7.49457V43.4933H6.03052V33.0158H7.49457V40.5104H9.01838V41.9695H10.5372V43.4933H19.4958V41.9695H21.0146V40.5104H22.4787V32.9561H21.0146V31.492H18.0318V29.9732H12.0013V31.492H9.01838V29.9732H10.5372V28.5092Z" fill="#E8D2A6"/>
<path d="M33.0159 4.50684H34.4799V6.03064H37.4678V7.49469H38.9866V9.01352H40.5104V12.0014H41.9745L42.0342 13.4654L43.4933 13.5202V16.5081H41.9745V18.0319H43.4385V19.4362L43.3788 19.4909H40.5104V18.0319H38.9866V21.0148H37.4678V14.9843H36.0635L36.0037 14.9295V13.5202H34.4799V14.9843H36.0037V21.0148H31.4971V16.5081H29.9732V21.0148H28.5092V22.4788H40.5104V21.0148H41.9745V24.0026H26.9904V21.0148H25.5263L25.4666 19.5507L24.0025 19.4909V18.0319H22.4787V15.044L22.5385 14.9843H24.0025V13.5202H25.5263V14.9843H31.4971V13.5202L32.9611 13.4654L33.0159 10.5373H34.4799V7.49469H33.0159V4.50684Z" fill="#174E60"/>
<path d="M3.04761 3.04272H10.4824V7.49464H9.01835V12.0013H10.5372V9.01346H12.0012V6.03058H13.525V12.0013H12.0012V16.508H10.5372V18.0318H7.49454V19.4909H6.03049V21.0147H3.04761V19.4909H4.51166V7.49464H3.04761V3.04272Z" fill="#397887"/>
<path d="M41.9745 21.0146H43.4933V22.4787H44.9574V26.9854H43.4933V28.5092H37.5226V29.9732H38.9866V31.4921H37.4678V26.9854H10.5372V25.5213H26.9904V24.0025H41.9745V21.0146Z" fill="#1C5D76"/>
<path d="M18.0318 31.4922H21.0147V32.9562H22.4787V40.5105H21.0147V41.9696H19.4958V43.4934H10.5372V41.9696H18.0318V40.5105H16.508V37.4629H18.0318V35.9989H16.508V33.016H18.0318V31.4922Z" fill="#7A481E"/>
<path d="M29.9733 35.9988H36.0038V40.5104H34.48V41.9695H36.0038V46.4812H29.9733V45.0171H28.5092V44.9574H29.9733V35.9988Z" fill="#7A481D"/>
<path d="M3.04761 3.04272H10.4824V7.49464H9.01835V12.0013H7.49454V5.97083H9.01835V4.50678H4.51166V6.09034H5.97073V16.5678H7.49454V17.9721H6.03049V21.0147H3.04761V19.4909H4.51166V7.49464H3.04761V3.04272Z" fill="#020506"/>
<path d="M28.5092 29.9733H37.4678V31.4921H38.9866V34.48H26.9904V31.4921H28.5092V29.9733Z" fill="#AF7840"/>
<path d="M24.0025 16.5078H29.9732V21.0145H28.5092V22.4786H40.5104V21.0145H41.9745V24.0024H26.9904V21.0145H25.5263V17.9719H24.0025V16.5078Z" fill="#040505"/>
<path d="M28.5092 7.49463H32.9611L33.0159 7.54941V9.01346H34.4799V10.5373H33.0159V13.4654L32.9611 13.5201H31.497V14.9842H25.5263V10.5373H26.9904V9.01346H28.5092V7.49463Z" fill="#39727F"/>
<path d="M19.4958 0H28.5092V1.52381H31.4971V2.98786H33.0159V4.50669H31.4971V3.04264H16.508V6.03049H13.5251V4.50669H14.9891V2.98786H16.508V1.52381H19.4958V0Z" fill="#164958"/>
<path d="M10.5372 28.5092H37.4678V29.9732H28.5092V31.492H28.4494V29.9732H12.0013V31.492H9.01837V29.9732H10.5372V28.5092Z" fill="#C39E73"/>
<path d="M38.9866 31.4922H40.5104V33.016H41.9745V44.9575H38.9866V37.4629H37.4678V34.48H38.9866V31.4922Z" fill="#E5D0A4"/>
<path d="M12.0013 14.9841H14.9891V16.5079H16.5079V21.0146H14.9891V22.4787H10.5372V21.0146H9.01837V18.0317H10.5372V16.5079H12.0013V14.9841Z" fill="#FAFCFB"/>
<path d="M10.5372 26.9854H37.4678V28.5092H10.5372V26.9854Z" fill="#040505"/>
<path d="M12.061 31.4922H18.0318V33.016H16.508V35.9989H18.0318V37.4629H16.508V40.5105H18.0318V41.9696H10.5372V40.5105H14.9891V37.4629H12.0013V35.9989H14.9891V33.016H12.061V31.4922Z" fill="#AA733D"/>
<path d="M1.52381 21.0146H3.04762V26.9854H4.51167L4.56645 28.4494H7.49455L7.55431 26.9854H10.5372V29.9732H10.4824V28.5092H7.55431V29.9732H1.52381V28.5092H0V22.4787H1.52381V21.0146Z" fill="#194C5F"/>
<path d="M41.9745 21.0146H43.4933V22.4787H44.9573V26.9854H43.4933V28.5092H37.5226V29.9732H38.9866V31.4921H37.4678V25.5213H40.5104V24.0025H41.9745V21.0146Z" fill="#47838E"/>
<path d="M34.48 13.5201H36.0038L36.0635 14.9294L37.4678 14.9842V21.0147H40.4507L40.5105 21.0744V22.4787H28.5092V21.0147H29.9733V16.508H31.4971V21.0147H36.0038V14.9842H34.48V13.5201Z" fill="#AC743C"/>
<path d="M41.9745 33.0159H43.4933V35.9987H44.9573V41.9695H43.4933V44.9573H42.0342V46.4812H41.9745V45.0171H38.9866V46.4812H37.4678V44.9573H41.9745V33.0159Z" fill="#BB9A6F"/>
<path d="M16.508 3.04272H19.4958V7.49464H18.0318V9.01346H16.508V10.5373H13.5251V6.03058H16.508V3.04272Z" fill="#F5F6F5"/>
<path d="M10.5372 44.9573H28.5092V46.4811H10.5372V44.9573Z" fill="#BE9E75"/>
<path d="M6.03052 33.0159H7.49457V40.5104H9.01838V41.9695H10.5372V44.9573H7.55432V46.4812H7.49457V45.0171H4.51169V44.9573H7.49457V43.4933H6.03052V33.0159Z" fill="#E3CC9F"/>
<path d="M4.51169 4.50684H9.01838V5.97089H7.49457V12.0014H9.01838V14.9843L7.55433 15.044L7.49457 16.5081H6.03052L5.97076 6.03064L4.51169 5.97089V4.50684Z" fill="#068EF0"/>
<path d="M33.0158 13.5201H34.4799V14.9842H36.0037V21.0147H31.497V18.0318H33.0158V13.5201Z" fill="#6A421E"/>
<path d="M3.04761 35.9988H6.03049V43.4933H7.49454V44.9574H4.51166V41.9695H3.04761V35.9988Z" fill="#BC996F"/>
<path d="M26.9904 31.4922H28.5092V33.016H37.4678V31.4922H38.9866V34.48H26.9904V31.4922Z" fill="#7D491C"/>
<path d="M37.5225 13.5201H38.9866V15.044H40.4506V16.508H41.9744V18.0318H43.4385V19.4361L43.3787 19.4909H40.5104V18.0318H38.9866V21.0147H37.5225V13.5201Z" fill="#030403"/>
<path d="M24.0025 13.5201H25.5263V14.9842H29.9732V16.508H24.0025V17.9721H25.5263V19.5506L24.0025 19.4909V18.0318H22.4787V15.044L22.5385 14.9842H24.0025V13.5201Z" fill="#174E60"/>
<path d="M18.0318 40.5105H21.0147V41.9696H19.4958V43.4934H10.5372V41.9696H18.0318V40.5105Z" fill="#060504"/>
<path d="M24.0025 16.5078H29.9732V21.0145H28.5092V18.0316H26.9904V21.0145H25.5263V17.9719H24.0025V16.5078Z" fill="#030403"/>
<path d="M40.4506 9.01343H40.5104V12.0013H41.9744L42.0342 13.4653L43.4933 13.5201V16.508H40.4506V15.0439H38.9866V12.0013H40.4506V9.01343Z" fill="#477F8A"/>
<path d="M37.5225 28.5092H40.5104V29.9732H44.9573V31.492H41.9744V33.0158H40.5104V31.492H38.9866V29.9732H37.5225V28.5092Z" fill="#050605"/>
<path d="M7.5543 28.5092H10.4824V29.9732H9.01835V31.492H7.49454V32.9561H6.03049V31.492H3.04761V29.9732H7.5543V28.5092Z" fill="#040504"/>
<path d="M31.497 37.4629H33.0158V46.4812H31.497V37.4629Z" fill="#AE753E"/>
<path d="M28.5092 29.9733H37.4678V31.4921H28.5092V29.9733Z" fill="#070604"/>
<path d="M33.0158 10.5371H34.4799V13.52H33.0158V18.0317H31.497V16.5078H29.9732V14.984H31.497V13.52L32.9611 13.4652L33.0158 10.5371Z" fill="#050504"/>
<path d="M22.4786 10.5371H25.5263V13.52H24.0024V14.984H22.4786V13.52H21.0146V12.0012H22.4786V10.5371Z" fill="#F8FAF9"/>
<path d="M12.0013 6.03052H13.5251V12.0013H10.5372V9.0134H12.0013V6.03052Z" fill="#1B5C6F"/>
<path d="M19.5555 0.0596924H28.5092V1.52374H19.5555V0.0596924Z" fill="#020504"/>
<path d="M9.01837 33.0159H10.5372V40.4507H9.01837V33.0159Z" fill="#AD733C"/>
<path d="M12.061 31.4922H18.0317V33.016H16.5079V34.48H14.9891V33.016H12.061V31.4922Z" fill="#A26C36"/>
<path d="M19.4958 33.0159H20.9598V40.4507H19.4958V33.0159Z" fill="#AF733C"/>
<path d="M21.0146 33.0159H22.4786V40.4507H21.0146V33.0159Z" fill="#040302"/>
<path d="M7.55429 33.0159H9.01834V40.4507H7.55429V33.0159Z" fill="#050302"/>
<path d="M4.51169 4.50684H9.01838V5.97089H7.49457V12.0014H9.01838V14.9843L7.55433 15.044L7.49457 16.5081H6.03052L5.97076 6.03064L4.51169 5.97089V4.50684ZM6.09027 7.4947V15.9802L6.15003 16.3886H7.38003L7.43481 16.274V14.9295H8.72457L8.89886 14.7502V12.2952L8.83911 12.1159L7.49457 12.0611L7.43481 11.8819V7.66899L7.32027 7.4947H6.09027Z" fill="#078CEE"/>
<path d="M38.9866 18.0317H40.5104V19.4908L43.3787 19.436L43.4385 18.0317H43.4933V21.0146L40.4506 21.0744L38.9866 21.0146V18.0317Z" fill="#266375"/>
<path d="M12.0013 29.9733H18.0318V31.4921H12.061L12.0013 29.9733Z" fill="#080605"/>
<path d="M4.51169 22.4788H7.49457V25.5214H4.51169V22.4788Z" fill="#F7FBFA"/>
<path d="M28.5092 3.04272H31.4971V4.50678H33.0159V6.03058H29.9733V4.50678H28.5092V3.04272Z" fill="#E5E8E7"/>
<path d="M19.4958 21.0146H22.4787V24.0025H19.4958V21.0146Z" fill="#F8FCFB"/>
<path d="M30.033 38.9866H31.4971V44.9573H30.033V38.9866Z" fill="#040302"/>
<path d="M43.4933 35.9988H44.9573V41.9695H43.4933V35.9988Z" fill="#030303"/>
<path d="M3.04761 35.9988H4.51166V41.9695H3.04761V35.9988Z" fill="#030402"/>
<path d="M46.4811 22.5385H47.9452V28.5092H46.4811V22.5385Z" fill="#030605"/>
<path d="M0.0597534 22.5385H1.52381V28.5092H0.0597534V22.5385Z" fill="#020504"/>
<path d="M33.0159 4.50684H34.4799V6.03064H37.4678V7.4947H33.0159V4.50684Z" fill="#020403"/>
<path d="M12.061 37.5225H14.9891V40.4506H12.061V37.5225Z" fill="#030302"/>
<path d="M12.061 33.0159H14.9891V35.944H12.061V33.0159Z" fill="#040303"/>
<path d="M34.4799 9.01343H37.408V13.4653H36.0037V10.5372H34.4799V9.01343Z" fill="#020303"/>
<path d="M4.51169 5.97095H5.97076L6.03052 6.0307V16.5081H7.49457V15.0441H9.01838V18.0319H7.49457V19.491H6.03052V17.9722H7.49457V16.5679L6.91194 16.6227H6.09027L5.97076 16.5679V6.09046H4.51169V5.97095Z" fill="#113D51"/>
<path d="M37.408 9.01343H37.4677L37.5225 13.4653V21.0147H37.4677V14.9842H36.0634L36.0037 14.9294V13.5201H34.4799V10.5372H36.0037V13.4653H37.408V9.01343Z" fill="#6F401A"/>
<path d="M41.9745 41.9695H43.4933V44.9573H42.0342V46.4811H41.9745V45.0171H38.9866V46.4811H37.4678V44.9573H41.9745V41.9695Z" fill="#44392B"/>
<path d="M37.4678 26.9854H40.5104V28.5092H37.5226V29.9732H38.9866V31.492H37.4678V26.9854Z" fill="#517071"/>
<path d="M22.4787 15.0439H24.0025V17.972H25.5263V19.5506L24.0025 19.4909V18.0318H22.4787V15.0439Z" fill="#13404F"/>
<path d="M34.4799 41.9695H36.0037V46.4811H34.4799V41.9695Z" fill="#AA7641"/>
<path d="M28.5092 7.49463H32.9611L33.0159 7.54941V9.01346H28.5092V7.49463Z" fill="#030707"/>
<path d="M29.9733 10.5371H31.4971V13.52H28.5092V12.0012H29.9733V10.5371Z" fill="#B9D3D7"/>
<path d="M40.5104 12.061H41.9744L42.0342 13.4653L43.4933 13.5201V16.508H41.9744V13.5201H40.5104V12.061Z" fill="#040706"/>
<path d="M4.51169 41.9695H6.03052V43.4933H7.49457V44.9573H4.51169V41.9695Z" fill="#060605"/>
<path d="M43.4933 19.4908H45.0171V21.0147H46.4811V22.4787H43.4933V19.4908Z" fill="#0C2329"/>
<path d="M40.5104 41.9695H41.9744V44.9573H38.9866V43.4933H40.5104V41.9695Z" fill="#BF9970"/>
<path d="M4.51166 7.49463H4.56644V19.4909H6.03049V21.0147H3.04761V19.4909H4.51166V7.49463Z" fill="#17343D"/>
<path d="M4.51169 4.50684H9.01838V5.97089H7.49457V12.0014H9.01838V14.9843L7.55433 15.044L7.49457 16.5081H6.03052L5.97076 6.03064L4.51169 5.97089V4.50684ZM4.80051 4.62635L4.68598 4.80064V4.91518L4.62622 4.97494V5.7966L4.92003 5.91113L6.03052 5.97089L6.26457 6.03064H7.38003L7.43481 5.97089L8.95862 5.91113V4.80064L8.83911 4.62635H4.80051ZM6.09027 7.4947V15.9802L6.15003 16.3886H7.38003L7.43481 16.274V14.9295H8.72457L8.89886 14.7502V12.2952L8.83911 12.1159L7.49457 12.0611L7.43481 11.8819V7.66899L7.32027 7.4947H6.09027Z" fill="#1969C6"/>
<path d="M9.01838 41.9695H10.5372V44.9573H7.55432V46.4811H7.49457V45.0171H4.51169V44.9573H7.49457V43.4933H10.4824V42.0292H9.01838V41.9695Z" fill="#B99871"/>
<path d="M7.55433 26.9854H10.5372V29.9732H10.4824V28.5092H7.55433V29.9732H7.49457V28.4494L7.55433 26.9854Z" fill="#1D5A6F"/>
<path d="M34.4799 14.9841H36.0037V18.0317H34.4799V14.9841Z" fill="#090604"/>
<path d="M34.4799 37.4629H36.0037V40.4507H34.4799V37.4629Z" fill="#AA7440"/>
<path d="M41.9745 33.0159H43.4933V35.9987H41.9745V33.0159Z" fill="#080806"/>
<path d="M16.5079 33.0159H18.0317V35.9987H16.5079V33.0159Z" fill="#070403"/>
<path d="M37.4678 31.4922H38.9866V34.48H37.4678V31.4922Z" fill="#050503"/>
<path d="M26.9904 31.4922H28.5092V34.48H26.9904V31.4922Z" fill="#070604"/>
<path d="M26.9904 18.0317H28.5092V21.0146H26.9904V18.0317Z" fill="#77441D"/>
<path d="M9.01837 12.0012H10.5372V14.9841H9.01837V12.0012Z" fill="#03080C"/>
<path d="M13.5251 4.50684H16.508V6.03064H13.5251V4.50684Z" fill="#6F706E"/>
<path d="M38.9866 13.5201H40.4506L40.5104 14.9842H41.9744V16.508H40.4506V15.044H38.9866V13.5201Z" fill="#1B596E"/>
<path d="M43.4933 22.4788H44.9573V25.5214H43.4933V22.4788Z" fill="#F6FBF8"/>
<path d="M40.5104 33.0159H41.9744V35.9987H40.5104V33.0159Z" fill="#C19E71"/>
<path d="M6.03049 33.0159H7.49454V35.9987H6.03049V33.0159Z" fill="#C09B72"/>
<path d="M18.0317 31.4922H21.0146V32.9562H18.0317V31.4922Z" fill="#040403"/>
<path d="M9.01837 31.4922H12.0013V32.9562H9.01837V31.4922Z" fill="#050302"/>
<path d="M10.5372 12.0012H12.0013V14.9841H10.5372V12.0012Z" fill="#195E75"/>
<path d="M25.5263 10.5371H26.9904V13.52H25.5263V10.5371Z" fill="#020404"/>
<path d="M38.9866 9.01343H40.4506V12.0013H38.9866V9.01343Z" fill="#020605"/>
<path d="M10.5372 9.01343H12.0013V12.0013H10.5372V9.01343Z" fill="#020504"/>
<path d="M12.061 6.03052H13.525V9.0134H12.061V6.03052Z" fill="#030605"/>
<path d="M28.5092 1.5238H31.497V2.98786H28.5092V1.5238ZM16.5079 1.5238H19.4958V2.98786H16.5079V1.5238Z" fill="#030604"/>
<path d="M16.5079 37.5225H17.972V40.4506H16.5079V37.5225Z" fill="#040202"/>
<path d="M4.56647 33.0159H6.03052V35.944H4.56647V33.0159Z" fill="#050503"/>
</g>
<defs>
<clipPath id="clip0_95_704">
<rect width="48" height="48" fill="white"/>
</clipPath>
</defs>
</svg>
