<svg width="48" height="48" viewBox="0 0 48 48" fill="none" xmlns="http://www.w3.org/2000/svg">
<g clip-path="url(#clip0_198_1067)">
<mask id="mask0_198_1067" style="mask-type:luminance" maskUnits="userSpaceOnUse" x="0" y="0" width="48" height="48">
<path d="M0 0H47.9998V47.9998H0V0Z" fill="white"/>
</mask>
<g mask="url(#mask0_198_1067)">
<path d="M19.4944 0H28.4956V1.50183H31.4993V2.99385H33.0011V4.49569H34.4931V5.99753H37.4968V7.49936H38.9986V9.0012H40.5005V11.9951H41.9925V13.4969H43.4943V16.5006H41.9925V18.0024H43.4943V19.4944H44.9962V20.9963H46.498V22.4981H47.9998V28.4956H46.498V29.9974H44.9962V31.4993H41.9925V33.0011H43.4943V35.995H44.9962V42.0023H43.4943V44.9962H41.9925V46.498H40.5005V47.9998H8.99138V46.498H7.49936V44.9962H4.49569V42.0023H2.99385V35.995H4.49569V33.0011H5.99753V31.4993H2.99385V29.9974H1.49202V28.4956H0V22.4981H1.49202V20.9963H2.99385V19.4944H4.49569V7.49936H2.99385V2.99385H10.4932V7.49936H8.99138V11.9951H10.4932V9.0012H11.9951V5.99753H13.4969V4.49569H14.9987V2.99385H16.5006V1.50183H19.4944V0Z" fill="#CDA219"/>
</g>
<mask id="mask1_198_1067" style="mask-type:luminance" maskUnits="userSpaceOnUse" x="0" y="1" width="35" height="28">
<path d="M0 1.0896H34.9447V28.7312H0V1.0896Z" fill="white"/>
</mask>
<g mask="url(#mask1_198_1067)">
<path d="M17.9927 2.99402H29.9976V4.49586H31.4995V7.49953H28.4958V9.00136H34.4933V10.4934H33.0013V13.4971H31.4995V14.9989H29.9976V16.5007H24.0001V18.0026H25.4921V20.9964H26.9939V24.0001H28.4958V25.5019H19.4946V26.9939H10.4934V28.4958H7.49953V26.9939H5.99769V28.4958H4.49586V26.9939H1.49219V22.4983H4.49586V20.9964H5.99769V16.5007H7.49953V14.9989H10.4934V13.4971H13.4971V10.4934H14.9989V5.99769H16.5007V4.49586H17.9927V2.99402Z" fill="#F0C63E"/>
</g>
<mask id="mask2_198_1067" style="mask-type:luminance" maskUnits="userSpaceOnUse" x="0" y="21" width="43" height="27">
<path d="M0 21.1927H42.4833V48H0V21.1927Z" fill="white"/>
</mask>
<g mask="url(#mask2_198_1067)">
<path d="M0 22.4982H1.49202V26.9939H4.49569V28.4957H5.99753V26.9939H7.49936V28.4957H10.4932V29.9975H8.99138V31.4994H7.49936V35.9951H5.99753V40.5006H7.49936V42.0024H10.4932V37.4969H11.9951V34.503H10.4932V31.4994H11.9951V29.9975H20.9963V31.4994H22.4981V34.503H20.9963V38.9987H19.4944V44.9963H20.9963V46.4981H38.9986V44.9963H41.9925V46.4981H40.5005V47.9999H8.99138V46.4981H7.49936V44.9963H4.49569V42.0024H2.99385V35.9951H4.49569V33.0012H5.99753V31.4994H2.99385V29.9975H1.49202V28.4957H0V22.4982Z" fill="#030302"/>
</g>
<mask id="mask3_198_1067" style="mask-type:luminance" maskUnits="userSpaceOnUse" x="4" y="21" width="41" height="27">
<path d="M4.79031 21.1927H44.9963V48H4.79031V21.1927Z" fill="white"/>
</mask>
<g mask="url(#mask3_198_1067)">
<path d="M41.9927 22.4982H43.4945V24H44.9964V26.9939H43.4945V28.4957H38.9988V31.4994H35.9952V29.9975H28.4958V31.4994H25.4921V33.0012H24.0001V40.5006H25.4921V42.0024H26.994V43.4944H37.497V42.0024H38.9988V40.5006H40.5007V33.0012H43.4945V35.9951H44.9964V42.0024H43.4945V44.9963H38.9988V46.4981H20.9964V44.9963H19.4946V38.9987H20.9964V34.503H22.4983V31.4994H20.9964V29.9975H11.9952V31.4994H10.4934V34.503H11.9952V37.4969H10.4934V42.0024H7.49955V40.5006H5.99771V35.9951H7.49955V31.4994H8.99157V29.9975H10.4934V28.4957H37.497V26.9939H34.4933V25.5018H40.5007V24H41.9927V22.4982Z" fill="#C49E74"/>
</g>
<mask id="mask4_198_1067" style="mask-type:luminance" maskUnits="userSpaceOnUse" x="22" y="21" width="26" height="23">
<path d="M22.3803 21.1927H47.9999V43.8086H22.3803V21.1927Z" fill="white"/>
</mask>
<g mask="url(#mask4_198_1067)">
<path d="M43.4943 22.4982H47.9998V28.4957H46.498V29.9975H44.9961V31.4994H41.9925V33.0012H40.5004V40.5006H38.9986V42.0024H37.4968V43.4944H26.9937V42.0024H25.4919V40.5006H23.9999V33.0012H25.4919V31.4994H28.4956V29.9975H35.9949V31.4994H38.9986V28.4957H43.4943V26.9939H44.9961V24H43.4943V22.4982Z" fill="#A26C36"/>
</g>
<path d="M23.9998 16.5004H29.9973V20.9961H28.4955V22.4979H40.5003V20.9961H41.9924V23.9997H40.5003V25.5016H34.493V26.9936H37.4967V28.4954H10.4931V26.9936H19.4943V25.5016H28.4955V23.9997H26.9936V20.9961H25.4918V18.0022H23.9998V16.5004Z" fill="#CCA218"/>
<path d="M33.0013 10.493H35.9952V13.4967H37.497V20.9961H38.9988V18.0022H40.5007V19.4942H44.9964V20.9961H46.4982V22.4979H41.9927V20.9961H40.5007V22.4979H28.4958V20.9961H29.9976V14.9985H31.4995V13.4967H33.0013V10.493Z" fill="#A26C36"/>
<mask id="mask5_198_1067" style="mask-type:luminance" maskUnits="userSpaceOnUse" x="32" y="21" width="16" height="21">
<path d="M32.4316 21.1927H47.9997V41.2958H32.4316V21.1927Z" fill="white"/>
</mask>
<g mask="url(#mask5_198_1067)">
<path d="M43.494 22.4982H47.9995V28.4957H46.4977V29.9975H44.9958V31.4994H41.9922V33.0012H40.5002V40.5006H38.9983V33.0012H37.4965V40.5006H33.0008V37.4969H35.9946V35.9951H33.0008V33.0012H35.9946V31.4994H38.9983V28.4957H43.494V26.9939H44.9958V24H43.494V22.4982Z" fill="#78461E"/>
</g>
<mask id="mask6_198_1067" style="mask-type:luminance" maskUnits="userSpaceOnUse" x="0" y="21" width="45" height="27">
<path d="M0 21.1927H44.9962V48H0V21.1927Z" fill="white"/>
</mask>
<g mask="url(#mask6_198_1067)">
<path d="M40.5005 33.0012H43.4943V35.9951H44.9962V42.0024H43.4943V44.9963H38.9986V46.4981H20.9963V44.9963H19.4944V43.4944H22.4981V44.9963H37.4968V42.0024H38.9986V40.5006H40.5005V33.0012ZM0 22.4982H1.49202V26.9939H4.49569V28.4957H5.99753V26.9939H7.49936V28.4957H10.4932V29.9975H8.99138V31.4994H7.49936V35.9951H5.99753V40.5006H7.49936V42.0024H10.4932V44.9963H4.49569V42.0024H2.99385V35.9951H4.49569V33.0012H5.99753V31.4994H2.99385V29.9975H1.49202V28.4957H0V22.4982Z" fill="#C49E74"/>
</g>
<mask id="mask7_198_1067" style="mask-type:luminance" maskUnits="userSpaceOnUse" x="0" y="1" width="13" height="23">
<path d="M0 1.0896H12.3288V23.7055H0V1.0896Z" fill="white"/>
</mask>
<g mask="url(#mask7_198_1067)">
<path d="M2.99402 2.99402H10.4934V7.49953H8.99155V14.9989H7.49953V16.5007H5.99769V20.9964H4.49586V22.4983H1.49219V20.9964H2.99402V19.4946H4.49586V7.49953H2.99402V2.99402Z" fill="#87837E"/>
</g>
<mask id="mask8_198_1067" style="mask-type:luminance" maskUnits="userSpaceOnUse" x="7" y="0" width="28" height="17">
<path d="M7.30304 0H34.9447V16.1668H7.30304V0Z" fill="white"/>
</mask>
<g mask="url(#mask8_198_1067)">
<path d="M19.4943 0H28.4955V1.50183H31.4992V2.99385H33.001V7.49936H31.4992V4.49569H29.9974V2.99385H17.9925V4.49569H16.5005V5.99753H14.9986V10.4932H13.4968V13.4969H10.4931V14.9987H8.9913V11.9951H10.4931V9.0012H11.995V5.99753H13.4968V4.49569H14.9986V2.99385H16.5005V1.50183H19.4943V0Z" fill="#CCA218"/>
</g>
<path d="M22.4981 29.9976H28.4956V31.4994H25.4919V33.0012H23.9999V40.5006H25.4919V42.0024H26.9938V43.4944H37.4968V44.9963H22.4981V43.4944H19.4944V38.9988H20.9962V34.5031H22.4981V29.9976Z" fill="#E8D2A6"/>
<mask id="mask9_198_1067" style="mask-type:luminance" maskUnits="userSpaceOnUse" x="12" y="33" width="8" height="15">
<path d="M12.3289 33.7568H19.8676V47.9997H12.3289V33.7568Z" fill="white"/>
</mask>
<g mask="url(#mask9_198_1067)">
<path d="M13.4973 35.9949H19.4948V46.4979H13.4973V42.0022H14.9991V40.5004H13.4973V35.9949Z" fill="#78461E"/>
</g>
<path d="M11.9949 29.9976H20.9961V31.4994H22.4979V34.5031H10.4931V31.4994H11.9949V29.9976Z" fill="#A26C36"/>
<path d="M23.9999 16.5004H29.9975V20.9961H28.4956V22.4979H40.5005V20.9961H41.9925V23.9997H26.9938V20.9961H25.492V18.0022H23.9999V16.5004Z" fill="#030302"/>
<path d="M13.497 20.9962H16.5007V22.4981H17.9927V25.5017H19.4946V26.9937H10.4934V28.4956H7.49951V25.5017H10.4934V23.9999H11.9952V22.4981H13.497V20.9962Z" fill="#FEF4CF"/>
<path d="M7.49952 31.4994H10.4934V34.5031H11.9952V37.4969H10.4934V42.0024H7.49952V40.5006H5.99768V35.9951H7.49952V31.4994Z" fill="#E8D2A6"/>
<path d="M23.9999 2.99402H29.9975V4.49586H31.4993V7.49953H28.4956V9.00136H23.9999V7.49953H22.4981V4.49586H23.9999V2.99402Z" fill="#FEF4CF"/>
<mask id="mask10_198_1067" style="mask-type:luminance" maskUnits="userSpaceOnUse" x="0" y="21" width="13" height="13">
<path d="M0 21.1927H12.3288V33.7571H0V21.1927Z" fill="white"/>
</mask>
<g mask="url(#mask10_198_1067)">
<path d="M0 22.4982H1.49202V26.9939H4.49569V28.4957H5.99753V26.9939H7.49936V28.4957H10.4932V29.9975H8.99138V31.4994H7.49936V33.0012H5.99753V31.4994H2.99385V29.9975H1.49202V28.4957H0V22.4982Z" fill="#AB8300"/>
</g>
<path d="M33.0012 10.493H34.4933V14.9985H35.9951V20.9961H31.4994V16.5004H29.9976V14.9985H31.4994V13.4967H33.0012V10.493ZM25.4921 31.4991H28.4957V33.0009H31.4994V35.9948H28.4957V37.4966H31.4994V40.5003H26.9939V33.0009H25.4921V31.4991Z" fill="#78471E"/>
<path d="M10.4931 26.9939H31.4991V28.4957H10.4931V26.9939Z" fill="#030302"/>
<path d="M41.9925 33.0012H43.4943V35.9951H44.9962V42.0024H43.4943V44.9963H41.9925V33.0012Z" fill="#C49E74"/>
<mask id="mask11_198_1067" style="mask-type:luminance" maskUnits="userSpaceOnUse" x="0" y="6" width="8" height="18">
<path d="M0 6.11548H7.30304V23.7056H0V6.11548Z" fill="white"/>
</mask>
<g mask="url(#mask11_198_1067)">
<path d="M4.49586 7.49951H5.99769V20.9964H4.49586V22.4982H1.49219V20.9964H2.99402V19.4946H4.49586V7.49951Z" fill="#030302"/>
</g>
<path d="M2.99402 2.99402H10.4934V7.49953H8.99155V10.4934H7.49953V5.99769H8.99155V4.49586H4.49585V7.49953H2.99402V2.99402Z" fill="#030402"/>
<path d="M40.5003 33.0012H41.9923V43.4944H37.4966V42.0024H38.9985V40.5006H40.5003V33.0012Z" fill="#E8D2A6"/>
<path d="M23.9999 33.0012H26.9938V40.5006H23.9999V33.0012Z" fill="#A26C36"/>
<path d="M10.4931 31.4994H11.9949V33.0012H20.9961V31.4994H22.4979V34.5031H10.4931V31.4994Z" fill="#78471E"/>
<mask id="mask12_198_1067" style="mask-type:luminance" maskUnits="userSpaceOnUse" x="42" y="21" width="6" height="11">
<path d="M42.4835 21.1927H48V31.2443H42.4835V21.1927Z" fill="white"/>
</mask>
<g mask="url(#mask12_198_1067)">
<path d="M43.4944 22.4982H47.9999V28.4957H46.4981V29.9975H44.9962V24H43.4944V22.4982Z" fill="#CCA218"/>
</g>
<path d="M23.9999 16.5004H29.9975V20.9961H25.492V18.0022H23.9999V16.5004ZM37.4968 13.4967H38.9987V14.9985H40.5005V16.5004H41.9925V18.0022H43.4944V19.4942H40.5005V18.0022H38.9987V20.9961H37.4968V13.4967Z" fill="#030302"/>
<path d="M28.4958 9.00134H34.4933V10.4934H33.0013V13.497H28.4958V9.00134Z" fill="#F0C63F"/>
<path d="M41.9927 22.4979H43.4945V23.9997H44.9963V26.9936H43.4945V28.4954H40.5006V23.9997H41.9927V22.4979ZM7.49952 14.9985H10.4934V19.4942H8.99154V20.9961H7.49952V19.4942H5.99768V16.5004H7.49952V14.9985Z" fill="#FEF4CF"/>
<path d="M26.994 42.0022H37.497V43.4942H26.994V42.0022Z" fill="#030302"/>
<mask id="mask13_198_1067" style="mask-type:luminance" maskUnits="userSpaceOnUse" x="14" y="36" width="6" height="12">
<path d="M14.8417 36.27H19.8674V48H14.8417V36.27Z" fill="white"/>
</mask>
<g mask="url(#mask13_198_1067)">
<path d="M16.5005 37.4971H17.9925V44.9964H19.4944V46.4983H16.5005V37.4971Z" fill="#A26C36"/>
</g>
<path d="M7.49953 28.4957H10.4934V29.9976H8.99155V31.4994H7.49953V33.0012H5.99769V31.4994H2.99402V29.9976H7.49953V28.4957Z" fill="#030302"/>
<path d="M23.9999 13.4967H25.492V14.9985H29.9975V16.5004H23.9999V18.0022H22.4981V14.9985H23.9999V13.4967Z" fill="#AB8300"/>
<path d="M25.4921 2.99402H29.9976V4.49586H31.4994V7.49953H28.4957V4.49586H25.4921V2.99402Z" fill="#F0C63E"/>
<path d="M11.9949 29.9976H20.9961V31.4994H11.9949V29.9976Z" fill="#030302"/>
<path d="M34.493 25.5017H40.5003V28.4956H37.4967V26.9937H34.493V25.5017Z" fill="#F0C63E"/>
<path d="M40.5003 19.4944H44.996V20.9962H46.4978V22.4981H41.9923V20.9962H40.5003V19.4944Z" fill="#AB8300"/>
<path d="M4.49585 4.49585H8.99154V5.99769H7.49952V9.00136H5.99769V7.49952H4.49585V4.49585Z" fill="#87837F"/>
<path d="M16.5004 23.9999H17.9924V25.5017H19.4943V26.9545H11.9949V25.5017H16.5004V23.9999Z" fill="#EEE0B2"/>
<path d="M37.4966 33.0012H38.9985V40.5006H37.4966V33.0012Z" fill="#A26C36"/>
<path d="M38.9987 33.0012H40.5005V40.5006H38.9987V33.0012ZM23.9999 33.0012H25.492V40.5006H23.9999V33.0012ZM28.4956 29.9976H35.995V31.4994H28.4956V29.9976Z" fill="#030302"/>
<path d="M31.4995 25.5017H33.0013V26.9937H37.497V28.4956H31.4995V25.5017Z" fill="#AA8200"/>
<path d="M38.9985 13.4967H43.4942V16.5004H40.5003V14.9985H38.9985V13.4967Z" fill="#F1C73F"/>
<mask id="mask14_198_1067" style="mask-type:luminance" maskUnits="userSpaceOnUse" x="17" y="0" width="11" height="4">
<path d="M17.3544 0H27.4059V3.60244H17.3544V0Z" fill="white"/>
</mask>
<g mask="url(#mask14_198_1067)">
<path d="M19.4943 0H26.9937V1.50183H19.4943V0Z" fill="#040402"/>
</g>
<path d="M17.9926 38.9985H19.4944V44.9961H17.9926V38.9985ZM33.0011 37.4967H35.995V40.5004H33.0011V37.4967ZM28.4956 37.4967H31.4993V40.5004H28.4956V37.4967ZM43.4943 35.9949H44.9962V42.0022H43.4943V35.9949Z" fill="#030302"/>
<path d="M2.99402 35.9949H4.49585V42.0022H2.99402V35.9949Z" fill="#040402"/>
<path d="M33.0013 33.0012H35.9952V35.9951H33.0013V33.0012ZM28.4958 33.0012H31.4995V35.9951H28.4958V33.0012ZM40.5007 29.9976H44.9963V31.4994H41.9927V33.0012H40.5007V29.9976Z" fill="#030302"/>
<path d="M43.4942 26.9939H44.996V29.9976H40.5003V28.4957H43.4942V26.9939Z" fill="#CCA318"/>
<mask id="mask15_198_1067" style="mask-type:luminance" maskUnits="userSpaceOnUse" x="44" y="21" width="4" height="8">
<path d="M44.9962 21.1927H47.9998V28.7314H44.9962V21.1927Z" fill="white"/>
</mask>
<g mask="url(#mask15_198_1067)">
<path d="M46.498 22.4982H47.9999V28.4957H46.498V22.4982Z" fill="#030302"/>
</g>
<mask id="mask16_198_1067" style="mask-type:luminance" maskUnits="userSpaceOnUse" x="0" y="18" width="8" height="6">
<path d="M0 18.6796H7.30304V23.7053H0V18.6796Z" fill="white"/>
</mask>
<g mask="url(#mask16_198_1067)">
<path d="M2.99402 19.4945H5.99769V20.9963H4.49586V22.4982H1.49219V20.9963H2.99402V19.4945Z" fill="#CDA218"/>
</g>
<path d="M22.4981 19.4944H25.492V22.4981H22.4981V19.4944Z" fill="#FEF4D0"/>
<path d="M31.4995 13.4967H33.0013V18.0022H31.4995V16.5004H29.9976V14.9985H31.4995V13.4967Z" fill="#030302"/>
<path d="M38.9985 9.00134H40.5003V11.9952H41.9923V13.497H38.9985V9.00134Z" fill="#F1C73F"/>
<path d="M28.4958 10.493H31.4995V13.4967H28.4958V10.493Z" fill="#FFF5CF"/>
<path d="M34.493 10.493H35.9948V13.4967H37.4967V14.9985H34.493V10.493Z" fill="#78471E"/>
<path d="M34.493 9.00134H37.4967V13.497H35.9948V10.4934H34.493V9.00134Z" fill="#030302"/>
<path d="M33.0013 4.49585H34.4933V5.99769H37.497V7.49952H33.0013V4.49585Z" fill="#AB8300"/>
<path d="M4.49585 42.0022H5.99769V43.4942H7.49952V44.9961H4.49585V42.0022Z" fill="#463C2D"/>
<mask id="mask17_198_1067" style="mask-type:luminance" maskUnits="userSpaceOnUse" x="12" y="41" width="6" height="7">
<path d="M12.3289 41.2954H17.3547V47.9997H12.3289V41.2954Z" fill="white"/>
</mask>
<g mask="url(#mask17_198_1067)">
<path d="M13.4973 42.0022H14.9991V46.4979H13.4973V42.0022Z" fill="#A36C36"/>
</g>
<mask id="mask18_198_1067" style="mask-type:luminance" maskUnits="userSpaceOnUse" x="0" y="21" width="5" height="8">
<path d="M0 21.1927H4.79017V28.7314H0V21.1927Z" fill="white"/>
</mask>
<g mask="url(#mask18_198_1067)">
<path d="M1.49219 22.4982H2.99402V26.9939H1.49219V22.4982Z" fill="#CDA218"/>
</g>
<mask id="mask19_198_1067" style="mask-type:luminance" maskUnits="userSpaceOnUse" x="0" y="21" width="3" height="8">
<path d="M0 21.1927H2.27729V28.7314H0V21.1927Z" fill="white"/>
</mask>
<g mask="url(#mask19_198_1067)">
<path d="M0 22.4982H1.49202V26.9939H0V22.4982Z" fill="#030302"/>
</g>
<path d="M40.5006 19.4942H43.4945V22.4979H41.9926V20.9961H40.5006V19.4942ZM25.4921 14.9985H29.9976V16.5004H25.4921V14.9985Z" fill="#CCA218"/>
<path d="M13.4967 10.493H14.9986V11.9949H16.5004V13.4967H13.4967V10.493Z" fill="#FFF4D0"/>
<path d="M7.49951 10.493H8.99153V14.9985H7.49951V10.493Z" fill="#6B6B6C"/>
<path d="M37.4966 9.00134H38.9985V13.497H37.4966V9.00134Z" fill="#CDA319"/>
<path d="M28.4958 7.49951H33.0013V9.00135H28.4958V7.49951Z" fill="#030302"/>
<path d="M41.9925 42.0022H43.4943V44.9961H41.9925V42.0022Z" fill="#463C2C"/>
<path d="M13.4967 37.4967H14.9986V40.5004H13.4967V37.4967Z" fill="#A36D36"/>
<path d="M40.5003 33.0012H41.9923V35.9951H40.5003V33.0012Z" fill="#C59F74"/>
<path d="M5.99768 33.0012H7.49952V35.9951H5.99768V33.0012Z" fill="#C49F74"/>
<path d="M41.9925 33.0012H43.4943V35.9951H41.9925V33.0012Z" fill="#030402"/>
<path d="M4.49585 33.0012H5.99769V35.9951H4.49585V33.0012ZM25.4921 31.4994H28.4958V33.0012H25.4921V31.4994ZM20.9964 31.4994H22.4982V34.5031H20.9964V31.4994ZM10.4934 31.4994H11.9952V34.5031H10.4934V31.4994Z" fill="#030302"/>
<path d="M38.9985 28.4957H40.5003V31.4994H38.9985V28.4957Z" fill="#443B2C"/>
<path d="M34.493 26.9939H37.4967V28.4957H34.493V26.9939Z" fill="#CBA118"/>
<path d="M5.99768 26.9939H7.49952V29.9976H5.99768V26.9939Z" fill="#CCA218"/>
<path d="M26.994 18.0022H28.4958V20.9961H26.994V18.0022Z" fill="#79471E"/>
<path d="M34.493 14.9985H35.9948V18.0022H34.493V14.9985Z" fill="#030302"/>
<path d="M22.4981 14.9985H23.9999V18.0022H22.4981V14.9985Z" fill="#CCA218"/>
<path d="M41.9924 13.497H43.4942V16.5007H41.9924V13.497ZM33.001 10.4934H34.493V13.497H33.001V10.4934ZM25.4918 10.4934H26.9936V13.497H25.4918V10.4934ZM38.9985 9.00135H40.5003V11.9952H38.9985V9.00135ZM10.4931 9.00135H11.9949V11.9952H10.4931V9.00135ZM34.493 5.99768H37.4967V7.49952H34.493V5.99768ZM11.9949 5.99768H13.4967V9.00135H11.9949V5.99768Z" fill="#030302"/>
<path d="M4.49585 4.49585H5.99769V7.49952H4.49585V4.49585Z" fill="#6D6C6C"/>
<path d="M31.4995 4.49585H33.0013V7.49952H31.4995V4.49585Z" fill="#CCA219"/>
<path d="M14.9986 2.99402H17.9924V4.49586H14.9986V2.99402Z" fill="#CDA218"/>
<path d="M7.49951 26.9939H10.4443V28.4565H7.49951V26.9939Z" fill="#EDE0B2"/>
<path d="M6.04645 16.5497H7.4992V19.4945H6.04645V16.5497Z" fill="#EDDFB2"/>
<mask id="mask20_198_1067" style="mask-type:luminance" maskUnits="userSpaceOnUse" x="17" y="43" width="3" height="5">
<path d="M17.3544 43.8086H19.8673V48H17.3544V43.8086Z" fill="white"/>
</mask>
<g mask="url(#mask20_198_1067)">
<path d="M17.9925 44.9962H19.4943V46.4981H17.9925V44.9962Z" fill="#79461E"/>
</g>
<mask id="mask21_198_1067" style="mask-type:luminance" maskUnits="userSpaceOnUse" x="9" y="43" width="4" height="5">
<path d="M9.81577 43.8086H12.3286V48H9.81577V43.8086Z" fill="white"/>
</mask>
<g mask="url(#mask21_198_1067)">
<path d="M10.4932 44.9962H11.995V46.4981H10.4932V44.9962Z" fill="#463C2D"/>
</g>
<path d="M4.49585 42.0022H5.99769V43.4942H4.49585V42.0022Z" fill="#030302"/>
<path d="M43.4943 40.5004H44.9962V42.0022H43.4943V40.5004Z" fill="#463C2D"/>
<path d="M37.4966 40.5004H38.9985V42.0022H37.4966V40.5004Z" fill="#040302"/>
<path d="M25.4921 40.5004H26.9939V42.0022H25.4921V40.5004Z" fill="#76451C"/>
<path d="M38.9985 31.4994H40.5003V33.0012H38.9985V31.4994Z" fill="#C69F75"/>
<path d="M7.49951 31.4994H8.99153V33.0012H7.49951V31.4994Z" fill="#C59E74"/>
<path d="M37.4966 31.4994H38.9985V33.0012H37.4966V31.4994Z" fill="#030302"/>
<path d="M8.99124 28.4957H10.4931V29.9976H8.99124V28.4957Z" fill="#443B2C"/>
<path d="M44.9962 28.4957H46.498V29.9976H44.9962V28.4957Z" fill="#030302"/>
<path d="M43.4943 26.9939H44.9962V28.4957H43.4943V26.9939Z" fill="#F0C53E"/>
<path d="M2.99402 26.9939H4.49585V28.4957H2.99402V26.9939Z" fill="#CBA118"/>
<path d="M34.493 25.5017H35.9948V26.9937H34.493V25.5017Z" fill="#FFF4D1"/>
<path d="M33.0013 25.5017H34.4933V26.9937H33.0013V25.5017Z" fill="#F1C63F"/>
<path d="M25.4921 20.9962H26.9939V22.4981H25.4921V20.9962Z" fill="#CDA218"/>
<mask id="mask22_198_1067" style="mask-type:luminance" maskUnits="userSpaceOnUse" x="0" y="18" width="5" height="6">
<path d="M0 18.6796H4.79017V23.7053H0V18.6796Z" fill="white"/>
</mask>
<g mask="url(#mask22_198_1067)">
<path d="M1.49219 20.9963H2.99402V22.4982H1.49219V20.9963ZM2.99402 19.4945H4.49586V20.9963H2.99402V19.4945Z" fill="#030302"/>
</g>
<path d="M38.9985 18.0022H40.5003V19.4942H38.9985V18.0022Z" fill="#CEA319"/>
<path d="M23.9999 18.0022H25.492V19.4942H23.9999V18.0022Z" fill="#CDA218"/>
<path d="M40.5003 14.9985H41.9923V16.5004H40.5003V14.9985Z" fill="#CDA318"/>
<path d="M5.99768 14.9985H7.49952V16.5004H5.99768V14.9985Z" fill="#6C6B6B"/>
<path d="M38.9985 13.4967H40.5003V14.9985H38.9985V13.4967Z" fill="#CDA218"/>
<path d="M35.9948 13.4967H37.4966V14.9985H35.9948V13.4967Z" fill="#78471E"/>
<path d="M34.493 13.4967H35.9948V14.9985H34.493V13.4967Z" fill="#A26C36"/>
<path d="M23.9999 13.4967H25.492V14.9985H23.9999V13.4967Z" fill="#CBA118"/>
<path d="M8.99124 13.4967H10.4931V14.9985H8.99124V13.4967Z" fill="#CCA118"/>
<path d="M8.99124 11.9949H10.4931V13.4967H8.99124V11.9949Z" fill="#AB8300"/>
<path d="M40.5003 11.9949H41.9923V13.4967H40.5003V11.9949Z" fill="#040302"/>
<path d="M29.9976 11.9949H31.4995V13.4967H29.9976V11.9949Z" fill="#EEE1B3"/>
<path d="M20.9963 10.493H22.4981V11.9949H20.9963V10.493Z" fill="#FFF4D0"/>
<path d="M26.994 9.00134H28.4958V10.4934H26.994V9.00134Z" fill="#030302"/>
<path d="M5.99768 9.00134H7.49952V10.4934H5.99768V9.00134Z" fill="#6D6C6C"/>
<path d="M37.4966 7.49951H38.9985V9.00135H37.4966V7.49951Z" fill="#030302"/>
<path d="M26.994 7.49951H28.4958V9.00135H26.994V7.49951Z" fill="#F0C63E"/>
<path d="M14.9986 4.49585H16.5004V5.99769H14.9986V4.49585Z" fill="#CDA218"/>
<path d="M33.001 4.49585H34.493V5.99769H33.001V4.49585ZM13.4967 4.49585H14.9986V5.99769H13.4967V4.49585Z" fill="#030302"/>
<path d="M31.4995 2.99402H33.0013V4.49586H31.4995V2.99402Z" fill="#AB8300"/>
<path d="M29.9976 2.99402H31.4995V4.49586H29.9976V2.99402Z" fill="#CCA218"/>
<path d="M14.9986 2.99385H16.5004V4.49569H14.9986V2.99385ZM29.9973 1.50183H31.4991V2.99385H29.9973V1.50183ZM16.5004 1.50183H17.9924V2.99385H16.5004V1.50183Z" fill="#030302"/>
<mask id="mask23_198_1067" style="mask-type:luminance" maskUnits="userSpaceOnUse" x="24" y="0" width="6" height="4">
<path d="M24.893 0H29.9188V3.60244H24.893V0Z" fill="white"/>
</mask>
<g mask="url(#mask23_198_1067)">
<path d="M26.9934 0H28.4952V1.50183H26.9934V0Z" fill="#AC8300"/>
</g>
<path d="M40.5003 24.0492H41.9923V25.502H40.5003V24.0492Z" fill="#EDE0B2"/>
<path d="M42.0417 22.498H43.4945V23.9999H42.0417V22.498Z" fill="#EEE0B2"/>
<path d="M7.53864 15.0479H8.99139V16.5006H7.53864V15.0479Z" fill="#EDDFB1"/>
</g>
<defs>
<clipPath id="clip0_198_1067">
<rect width="48" height="48" fill="white"/>
</clipPath>
</defs>
</svg>
