<svg width="32" height="32" viewBox="0 0 32 32" fill="none" xmlns="http://www.w3.org/2000/svg">
<g clip-path="url(#clip0_95_704)">
<path d="M12.9972 0H19.0061V1.01587H20.998V1.99191H22.0106V3.00446H22.9866V4.02033H24.9785V4.99636H25.9911V6.00892H27.0069V8.00082H27.983L28.0228 8.97686L28.9955 9.01337V11.0053H27.983V12.0212H28.9955V12.9939H30.0114V14.0097H30.9874V14.9858H32.0033V19.0061H30.9874V19.9821H29.9716V20.9947H27.983V22.0106H28.9955V23.9991H29.9716V27.9796H28.9955V29.9715H28.0228V30.9874H27.0069V32H6.01224V30.9874H5.0362V29.9715H7.02479V30.9874H19.0061V29.9715H19.9821V25.9911H19.0061V22.9866H17.9936V20.9947H19.0061V19.9821H24.9785V19.0061H7.02479V19.9821H6.01224V20.9947H8.00083V19.9821H12.0212V20.9947H14.0097V21.9707H14.9858V27.0069H14.0097V27.9796H12.9972V28.9955H7.02479V27.9796H6.01224V27.0069H4.99637V22.0106H4.02033V28.9955H4.99637V29.9715H3.00778V27.9796H2.03175V23.9991H3.00778V21.9707H4.02033V20.9947H2.03175V19.9821H1.01587V19.0061H0V14.9858H1.01587V14.0097H2.03175V12.9939H3.00778V4.99636H2.03175V2.02842H6.98827V4.99636H6.01224V8.00082H7.02479V6.00892H8.00083V4.02033H9.0167V3.00446H9.99273V1.99191H11.0053V1.01587H12.9972V0Z" fill="#1B5467"/>
<path d="M12.9972 0H19.0061V1.01587H20.998V1.99191H22.0106V4.99636H22.9866V7.02479H22.0106V8.97686L21.974 9.01337H20.998V9.98941H17.0175V9.01337H16.0016V9.98941L15.0256 10.0292L14.9858 12.0212H16.0016V12.9939H16.9777L17.0175 13.0337V14.0097H17.9936V17.0142H7.02478V17.9902H5.0362V18.9663L4.99636 19.0061H3.04429L3.00777 18.9663V17.9902H2.03174V12.9939H3.00777V4.99636H2.03174V2.02842H6.98827V4.99636H6.01223V8.00082H7.02478V6.00892H8.00082V4.02033H9.01669V3.00446H9.99273V1.99191H11.0053V1.01587H12.9972V0Z" fill="#468390"/>
<path d="M1.01587 14.0098H2.03175V17.9903H3.00778L3.0443 18.9663H4.99637L5.0362 17.9903H24.9785V19.0061H7.02479V19.9822H6.01224V20.9947H8.00083V19.9822H12.0212V20.9947H14.0097V21.9708H14.9858V27.007H14.0097V27.9797H12.9972V28.9955H7.02479V27.9797H6.01224V27.007H4.99637V22.0106H4.02033V28.9955H4.99637V29.9716H3.00778V27.9797H2.03175V23.9992H3.00778V21.9708H4.02033V20.9947H2.03175V19.9822H1.01587V19.0061H0V14.9858H1.01587V14.0098Z" fill="#734A27"/>
<path d="M19.0061 19.9822H24.9785V20.9947H25.9911V22.9866H24.9785V24.9752H25.9911V29.9716H27.983V22.0106H28.9955V23.9992H29.9716V27.9797H28.9955V29.9716H28.0228V30.9875H27.0069V32H6.01223V30.9875H5.03619V29.9716H7.02478V30.9875H19.0061V29.9716H19.9821V25.9911H19.0061V22.9866H17.9935V20.9947H19.0061V19.9822Z" fill="#040403"/>
<path d="M7.02479 19.0061H24.9785V19.9821H19.0061V20.9947H17.9936V22.9866H19.0061V25.9911H19.9821V29.9715H19.0061V30.9874H7.02479V29.9715H5.03621V30.9874H4.99637V30.0114H3.00778V29.9715H4.99637V28.9955H4.02033V22.0106H4.99637V27.0069H6.01224V27.9796H7.02479V28.9955H12.9972V27.9796H14.0097V27.0069H14.9858V21.9707H14.0097V20.9947H12.0212V19.9821H8.00083V20.9947H6.01224V19.9821H7.02479V19.0061Z" fill="#E8D2A6"/>
<path d="M22.0106 3.00452H22.9866V4.02039H24.9785V4.99642H25.9911V6.00898H27.0069V8.00088H27.983L28.0228 8.97692L28.9955 9.01343V11.0053H27.983V12.0212H28.959V12.9574L28.9192 12.9939H27.0069V12.0212H25.9911V14.0098H24.9785V9.98947H24.0423L24.0025 9.95295V9.01343H22.9866V9.98947H24.0025V14.0098H20.998V11.0053H19.9821V14.0098H19.0061V14.9858H27.0069V14.0098H27.983V16.0017H17.9936V14.0098H17.0175L16.9777 13.0338L16.0017 12.9939V12.0212H14.9858V10.0293L15.0256 9.98947H16.0017V9.01343H17.0175V9.98947H20.998V9.01343L21.9741 8.97692L22.0106 7.02485H22.9866V4.99642H22.0106V3.00452Z" fill="#174E60"/>
<path d="M2.03174 2.02844H6.98827V4.99638H6.01223V8.00084H7.02479V6.00894H8.00082V4.02035H9.01669V8.00084H8.00082V11.0053H7.02479V12.0212H4.99636V12.9939H4.02033V14.0098H2.03174V12.9939H3.00777V4.99638H2.03174V2.02844Z" fill="#397887"/>
<path d="M27.983 14.0098H28.9955V14.9858H29.9716V17.9903H28.9955V19.0061H25.015V19.9822H25.9911V20.9947H24.9785V17.9903H7.02481V17.0142H17.9936V16.0017H27.983V14.0098Z" fill="#1C5D76"/>
<path d="M12.0212 20.9948H14.0098V21.9708H14.9858V27.007H14.0098V27.9797H12.9972V28.9956H7.02481V27.9797H12.0212V27.007H11.0053V24.9752H12.0212V23.9992H11.0053V22.0106H12.0212V20.9948Z" fill="#7A481E"/>
<path d="M19.9822 23.9991H24.0025V27.0069H22.9866V27.9796H24.0025V30.9874H19.9822V30.0114H19.0061V29.9715H19.9822V23.9991Z" fill="#7A481D"/>
<path d="M2.03174 2.02844H6.98827V4.99638H6.01223V8.00084H4.99636V3.98051H6.01223V3.00448H3.00777V4.06019H3.98049V11.0451H4.99636V11.9813H4.02033V14.0098H2.03174V12.9939H3.00777V4.99638H2.03174V2.02844Z" fill="#020506"/>
<path d="M19.0061 19.9822H24.9785V20.9947H25.9911V22.9866H17.9936V20.9947H19.0061V19.9822Z" fill="#AF7840"/>
<path d="M16.0016 11.0052H19.9821V14.0097H19.0061V14.9857H27.0069V14.0097H27.983V16.0016H17.9936V14.0097H17.0175V11.9813H16.0016V11.0052Z" fill="#040505"/>
<path d="M19.0061 4.99646H21.974L22.0106 5.03298V6.00901H22.9866V7.02488H22.0106V8.97695L21.974 9.01347H20.998V9.9895H17.0175V7.02488H17.9936V6.00901H19.0061V4.99646Z" fill="#39727F"/>
<path d="M12.9972 0H19.0061V1.01587H20.998V1.99191H22.0106V3.00446H20.998V2.02842H11.0053V4.02033H9.01672V3.00446H9.99276V1.99191H11.0053V1.01587H12.9972V0Z" fill="#164958"/>
<path d="M7.02479 19.0061H24.9785V19.9821H19.0061V20.9947H18.9663V19.9821H8.00083V20.9947H6.01224V19.9821H7.02479V19.0061Z" fill="#C39E73"/>
<path d="M25.9911 20.9948H27.0069V22.0106H27.983V29.9716H25.9911V24.9752H24.9785V22.9867H25.9911V20.9948Z" fill="#E5D0A4"/>
<path d="M8.00083 9.98938H9.99273V11.0053H11.0053V14.0097H9.99273V14.9857H7.02479V14.0097H6.01224V12.0211H7.02479V11.0053H8.00083V9.98938Z" fill="#FAFCFB"/>
<path d="M7.02481 17.9902H24.9785V19.0061H7.02481V17.9902Z" fill="#040505"/>
<path d="M8.04068 20.9948H12.0212V22.0106H11.0053V23.9992H12.0212V24.9752H11.0053V27.007H12.0212V27.9797H7.02481V27.007H9.99275V24.9752H8.00085V23.9992H9.99275V22.0106H8.04068V20.9948Z" fill="#AA733D"/>
<path d="M1.01587 14.0098H2.03175V17.9903H3.00778L3.0443 18.9663H4.99637L5.0362 17.9903H7.02479V19.9822H6.98827V19.0061H5.0362V19.9822H1.01587V19.0061H0V14.9858H1.01587V14.0098Z" fill="#194C5F"/>
<path d="M27.983 14.0098H28.9955V14.9858H29.9716V17.9903H28.9955V19.0061H25.015V19.9822H25.9911V20.9947H24.9785V17.0142H27.0069V16.0017H27.983V14.0098Z" fill="#47838E"/>
<path d="M22.9866 9.01343H24.0025L24.0423 9.95294L24.9785 9.98946V14.0098H26.9671L27.007 14.0496V14.9858H19.0061V14.0098H19.9822V11.0053H20.998V14.0098H24.0025V9.98946H22.9866V9.01343Z" fill="#AC743C"/>
<path d="M27.983 22.0106H28.9955V23.9992H29.9716V27.9797H28.9955V29.9716H28.0228V30.9875H27.983V30.0114H25.9911V30.9875H24.9785V29.9716H27.983V22.0106Z" fill="#BB9A6F"/>
<path d="M11.0053 2.02844H12.9972V4.99638H12.0212V6.00894H11.0053V7.02481H9.01672V4.02035H11.0053V2.02844Z" fill="#F5F6F5"/>
<path d="M7.02481 29.9716H19.0061V30.9874H7.02481V29.9716Z" fill="#BE9E75"/>
<path d="M4.02033 22.0106H4.99637V27.007H6.01224V27.9797H7.02479V29.9716H5.03621V30.9875H4.99637V30.0114H3.00778V29.9716H4.99637V28.9956H4.02033V22.0106Z" fill="#E3CC9F"/>
<path d="M3.00778 3.00452H6.01224V3.98055H4.99637V8.00088H6.01224V9.98947L5.03621 10.0293L4.99637 11.0053H4.02033L3.9805 4.02039L3.00778 3.98055V3.00452Z" fill="#068EF0"/>
<path d="M22.0106 9.01343H22.9866V9.98946H24.0025V14.0098H20.998V12.0212H22.0106V9.01343Z" fill="#6A421E"/>
<path d="M2.03174 23.9991H4.02033V28.9955H4.99636V29.9715H3.00777V27.9796H2.03174V23.9991Z" fill="#BC996F"/>
<path d="M17.9936 20.9948H19.0061V22.0106H24.9785V20.9948H25.9911V22.9867H17.9936V20.9948Z" fill="#7D491C"/>
<path d="M25.015 9.01343H25.991V10.0293H26.9671V11.0053H27.983V12.0212H28.959V12.9574L28.9192 12.9939H27.0069V12.0212H25.991V14.0098H25.015V9.01343Z" fill="#030403"/>
<path d="M16.0017 9.01343H17.0175V9.98946H19.9821V11.0053H16.0017V11.9814H17.0175V13.0338L16.0017 12.9939V12.0212H14.9858V10.0293L15.0256 9.98946H16.0017V9.01343Z" fill="#174E60"/>
<path d="M12.0212 27.007H14.0098V27.9797H12.9972V28.9955H7.02481V27.9797H12.0212V27.007Z" fill="#060504"/>
<path d="M16.0016 11.0052H19.9821V14.0097H19.0061V12.0211H17.9936V14.0097H17.0175V11.9813H16.0016V11.0052Z" fill="#030403"/>
<path d="M26.9671 6.00891H27.0069V8.00082H27.983L28.0228 8.97685L28.9955 9.01337V11.0053H26.9671V10.0292H25.9911V8.00082H26.9671V6.00891Z" fill="#477F8A"/>
<path d="M25.015 19.0061H27.0069V19.9821H29.9715V20.9947H27.983V22.0106H27.0069V20.9947H25.991V19.9821H25.015V19.0061Z" fill="#050605"/>
<path d="M5.0362 19.0061H6.98827V19.9821H6.01223V20.9947H4.99636V21.9707H4.02033V20.9947H2.03174V19.9821H5.0362V19.0061Z" fill="#040504"/>
<path d="M20.998 24.9752H22.0106V30.9875H20.998V24.9752Z" fill="#AE753E"/>
<path d="M19.0061 19.9822H24.9785V20.9947H19.0061V19.9822Z" fill="#070604"/>
<path d="M22.0106 7.02478H22.9866V9.01337H22.0106V12.0211H20.998V11.0053H19.9821V9.9894H20.998V9.01337L21.9741 8.97685L22.0106 7.02478Z" fill="#050504"/>
<path d="M14.9858 7.02478H17.0175V9.01337H16.0016V9.9894H14.9858V9.01337H14.0097V8.00081H14.9858V7.02478Z" fill="#F8FAF9"/>
<path d="M8.00085 4.02039H9.01672V8.00088H7.02481V6.00897H8.00085V4.02039Z" fill="#1B5C6F"/>
<path d="M13.037 0.0397949H19.0061V1.01583H13.037V0.0397949Z" fill="#020504"/>
<path d="M6.01224 22.0106H7.02479V26.9671H6.01224V22.0106Z" fill="#AD733C"/>
<path d="M8.04065 20.9948H12.0211V22.0106H11.0053V22.9867H9.99272V22.0106H8.04065V20.9948Z" fill="#A26C36"/>
<path d="M12.9972 22.0106H13.9732V26.9671H12.9972V22.0106Z" fill="#AF733C"/>
<path d="M14.0097 22.0106H14.9858V26.9671H14.0097V22.0106Z" fill="#040302"/>
<path d="M5.03619 22.0106H6.01223V26.9671H5.03619V22.0106Z" fill="#050302"/>
<path d="M3.00778 3.00452H6.01224V3.98055H4.99637V8.00088H6.01224V9.98947L5.03621 10.0293L4.99637 11.0053H4.02033L3.9805 4.02039L3.00778 3.98055V3.00452ZM4.06017 4.99642V10.6534L4.10001 10.9257H4.92001L4.95653 10.8493V9.95295H5.81637L5.93256 9.83344V8.19675L5.89273 8.07724L4.99637 8.04072L4.95653 7.92121V5.11262L4.88017 4.99642H4.06017Z" fill="#078CEE"/>
<path d="M25.9911 12.0211H27.0069V12.9938L28.9192 12.9573L28.959 12.0211H28.9955V14.0097L26.9671 14.0495L25.9911 14.0097V12.0211Z" fill="#266375"/>
<path d="M8.00085 19.9822H12.0212V20.9947H8.04069L8.00085 19.9822Z" fill="#080605"/>
<path d="M3.00778 14.9858H4.99637V17.0143H3.00778V14.9858Z" fill="#F7FBFA"/>
<path d="M19.0061 2.02844H20.998V3.00448H22.0106V4.02035H19.9822V3.00448H19.0061V2.02844Z" fill="#E5E8E7"/>
<path d="M12.9972 14.0098H14.9858V16.0017H12.9972V14.0098Z" fill="#F8FCFB"/>
<path d="M20.022 25.9911H20.998V29.9716H20.022V25.9911Z" fill="#040302"/>
<path d="M28.9955 23.9991H29.9715V27.9796H28.9955V23.9991Z" fill="#030303"/>
<path d="M2.03174 23.9991H3.00777V27.9796H2.03174V23.9991Z" fill="#030402"/>
<path d="M30.9874 15.0256H31.9635V19.0061H30.9874V15.0256Z" fill="#030605"/>
<path d="M0.0398254 15.0256H1.01586V19.0061H0.0398254V15.0256Z" fill="#020504"/>
<path d="M22.0106 3.00452H22.9866V4.02039H24.9785V4.99642H22.0106V3.00452Z" fill="#020403"/>
<path d="M8.04065 25.015H9.99272V26.9671H8.04065V25.015Z" fill="#030302"/>
<path d="M8.04065 22.0106H9.99272V23.9627H8.04065V22.0106Z" fill="#040303"/>
<path d="M22.9866 6.00891H24.9386V8.97685H24.0024V7.02478H22.9866V6.00891Z" fill="#020303"/>
<path d="M3.00778 3.98059H3.9805L4.02033 4.02043V11.0054H4.99637V10.0293H6.01224V12.0213H4.99637V12.994H4.02033V11.9814H4.99637V11.0452L4.60795 11.0817H4.06017L3.9805 11.0452V4.06027H3.00778V3.98059Z" fill="#113D51"/>
<path d="M24.9386 6.00891H24.9785L25.015 8.97685V14.0097H24.9785V9.9894H24.0423L24.0024 9.95289V9.01337H22.9866V7.02478H24.0024V8.97685H24.9386V6.00891Z" fill="#6F401A"/>
<path d="M27.983 27.9796H28.9955V29.9715H28.0228V30.9874H27.983V30.0114H25.9911V30.9874H24.9785V29.9715H27.983V27.9796Z" fill="#44392B"/>
<path d="M24.9785 17.9902H27.0069V19.0061H25.015V19.9821H25.9911V20.9947H24.9785V17.9902Z" fill="#517071"/>
<path d="M14.9858 10.0293H16.0017V11.9814H17.0175V13.0338L16.0017 12.9939V12.0212H14.9858V10.0293Z" fill="#13404F"/>
<path d="M22.9866 27.9796H24.0024V30.9874H22.9866V27.9796Z" fill="#AA7641"/>
<path d="M19.0061 4.99646H21.9741L22.0106 5.03298V6.00901H19.0061V4.99646Z" fill="#030707"/>
<path d="M19.9822 7.02478H20.998V9.01337H19.0061V8.00081H19.9822V7.02478Z" fill="#B9D3D7"/>
<path d="M27.0069 8.04065H27.983L28.0228 8.97685L28.9955 9.01336V11.0053H27.983V9.01336H27.0069V8.04065Z" fill="#040706"/>
<path d="M3.00778 27.9796H4.02033V28.9955H4.99637V29.9715H3.00778V27.9796Z" fill="#060605"/>
<path d="M28.9955 12.9939H30.0114V14.0098H30.9874V14.9858H28.9955V12.9939Z" fill="#0C2329"/>
<path d="M27.0069 27.9796H27.983V29.9715H25.9911V28.9955H27.0069V27.9796Z" fill="#BF9970"/>
<path d="M3.00777 4.99646H3.04429V12.994H4.02033V14.0098H2.03174V12.994H3.00777V4.99646Z" fill="#17343D"/>
<path d="M3.00778 3.00452H6.01224V3.98055H4.99637V8.00088H6.01224V9.98947L5.03621 10.0293L4.99637 11.0053H4.02033L3.9805 4.02039L3.00778 3.98055V3.00452ZM3.20033 3.08419L3.12398 3.20039V3.27674L3.08414 3.31658V3.86436L3.28001 3.94071L4.02033 3.98055L4.17637 4.02039H4.92001L4.95653 3.98055L5.9724 3.94071V3.20039L5.89273 3.08419H3.20033ZM4.06017 4.99642V10.6534L4.10001 10.9257H4.92001L4.95653 10.8493V9.95295H5.81637L5.93256 9.83344V8.19675L5.89273 8.07724L4.99637 8.04072L4.95653 7.92121V5.11262L4.88017 4.99642H4.06017Z" fill="#1969C6"/>
<path d="M6.01224 27.9796H7.02479V29.9715H5.03621V30.9874H4.99637V30.0114H3.00778V29.9715H4.99637V28.9955H6.98828V28.0195H6.01224V27.9796Z" fill="#B99871"/>
<path d="M5.03621 17.9902H7.02479V19.9821H6.98828V19.0061H5.03621V19.9821H4.99637V18.9663L5.03621 17.9902Z" fill="#1D5A6F"/>
<path d="M22.9866 9.98938H24.0024V12.0211H22.9866V9.98938Z" fill="#090604"/>
<path d="M22.9866 24.9752H24.0024V26.9671H22.9866V24.9752Z" fill="#AA7440"/>
<path d="M27.983 22.0106H28.9955V23.9992H27.983V22.0106Z" fill="#080806"/>
<path d="M11.0053 22.0106H12.0212V23.9992H11.0053V22.0106Z" fill="#070403"/>
<path d="M24.9785 20.9948H25.9911V22.9867H24.9785V20.9948Z" fill="#050503"/>
<path d="M17.9936 20.9948H19.0061V22.9867H17.9936V20.9948Z" fill="#070604"/>
<path d="M17.9936 12.0211H19.0061V14.0097H17.9936V12.0211Z" fill="#77441D"/>
<path d="M6.01224 8.00085H7.02479V9.98944H6.01224V8.00085Z" fill="#03080C"/>
<path d="M9.01672 3.00452H11.0053V4.02039H9.01672V3.00452Z" fill="#6F706E"/>
<path d="M25.9911 9.01343H26.9671L27.0069 9.98946H27.983V11.0053H26.9671V10.0293H25.9911V9.01343Z" fill="#1B596E"/>
<path d="M28.9955 14.9858H29.9715V17.0143H28.9955V14.9858Z" fill="#F6FBF8"/>
<path d="M27.0069 22.0106H27.983V23.9992H27.0069V22.0106Z" fill="#C19E71"/>
<path d="M4.02032 22.0106H4.99636V23.9992H4.02032V22.0106Z" fill="#C09B72"/>
<path d="M12.0211 20.9948H14.0097V21.9708H12.0211V20.9948Z" fill="#040403"/>
<path d="M6.01224 20.9948H8.00083V21.9708H6.01224V20.9948Z" fill="#050302"/>
<path d="M7.02481 8.00085H8.00085V9.98944H7.02481V8.00085Z" fill="#195E75"/>
<path d="M17.0175 7.02478H17.9936V9.01337H17.0175V7.02478Z" fill="#020404"/>
<path d="M25.9911 6.00891H26.9671V8.00082H25.9911V6.00891Z" fill="#020605"/>
<path d="M7.02481 6.00891H8.00085V8.00082H7.02481V6.00891Z" fill="#020504"/>
<path d="M8.04065 4.02039H9.01668V6.00897H8.04065V4.02039Z" fill="#030605"/>
<path d="M19.0061 1.01587H20.998V1.9919H19.0061V1.01587ZM11.0053 1.01587H12.9972V1.9919H11.0053V1.01587Z" fill="#030604"/>
<path d="M11.0053 25.015H11.9813V26.9671H11.0053V25.015Z" fill="#040202"/>
<path d="M3.04431 22.0106H4.02035V23.9627H3.04431V22.0106Z" fill="#050503"/>
</g>
<defs>
<clipPath id="clip0_95_704">
<rect width="32" height="32" fill="white"/>
</clipPath>
</defs>
</svg>
