<svg width="16" height="16" viewBox="0 0 16 16" fill="none" xmlns="http://www.w3.org/2000/svg">
<path d="M5.35095 2H7.30705V2.65277H9.34308V2H10.6486V2.65277H11.3014L11.3269 3.33219H13.3108V4.00938L13.3641 3.98274H13.9635L13.9902 4.00938L14.0146 5.31493L14.643 5.34157L14.6674 5.9677L15.3202 5.99434V7.95044L15.0848 7.97708H14.643L14.6674 9.30705L15.3202 9.33369V10.6659H15.9729L15.9996 10.8213V11.9181L15.9729 11.9714H15.3202V12.6486L14.6674 12.6753L14.643 13.3014H13.9902L13.9635 13.9808H13.3108V14.6336L12.0052 14.658L11.9808 15.3108H3.99212L3.9677 14.658L2.66215 14.6336L2.63551 14.0052L2.00938 13.9808L1.98274 13.8498V13.3014H1.32997V11.9714H0.652772V11.3187H0.0777115L0 11.292V9.36034L0.0266438 9.33369H0.652772V6.67154L1.30554 6.6449L1.32997 5.99434H1.98274V3.33219H2.66215V2.65277H3.94106L3.9677 2.67942V3.33219L4.6449 3.30554L4.67154 2.65277H5.32431V2.131L5.35095 2Z" fill="#3F7A3E"/>
<path d="M0.652772 6.67163H1.30554V8.65659H3.9677V9.98656H5.32431V10.666H5.97708V9.98656H6.65428V9.33379H7.30705V10.666H9.31865V9.33379H9.99585V8.65659H12.0052V9.33379H12.658V11.9959H14.6674V11.3187H15.3202V10.666H15.9729L15.9996 10.8214V11.9182L15.9729 11.9715H15.3202V12.6487L14.6674 12.6754L14.643 13.3015H13.9902L13.9635 13.9809H13.3108V14.6337L12.0052 14.6581L11.9808 15.3109H3.99212L3.9677 14.6581L2.66215 14.6337L2.63551 14.0053L2.00938 13.9809L1.98274 13.8499V13.3015H1.32997V11.9715H0.652772V11.3187H0.0777115L0 11.2921V9.36043L0.0266438 9.33379H0.652772V6.67163Z" fill="#1E4E31"/>
<path d="M9.34308 2H10.6486V2.65277H11.3286V3.33219H13.3108V4.00938L13.3641 3.98274H13.9636L13.9902 4.00938L14.0146 5.31493L14.643 5.34157L14.6674 5.9677L15.3202 5.99434V7.95044L15.0848 7.97708H14.643L14.6674 9.30705L15.3202 9.33369V11.3187H14.6674V11.9958H12.658V9.33369H12.0052V8.6565H8.66588V8.00373H9.31866V7.32431H10.6486V6.64489H9.31866V3.30554H7.30705V2.65277H9.34308V2Z" fill="#4E8942"/>
<path d="M5.35094 2H7.30704V2.65277H5.97707V3.98274H6.65427V4.63551H7.30704V5.31493H6.65427V5.99434H7.30704V7.97708H6.65427V8.6565H4.64488V7.97708H3.99211V5.99434H4.64488V4.63551H2.6355V5.99434H1.98273V3.33219H2.66214V2.65277H3.94104L3.96769 2.67942V3.33219L4.64488 3.30554L4.67153 2.65277H5.3243V2.131L5.35094 2Z" fill="#346938"/>
<path d="M0.652772 6.67163H1.30554V8.65659H2.63551V9.30714H3.31493V11.3187H2.63551V11.9959H1.98274V13.3015H1.32997V11.9715H0.652772V11.3187H0.0777115L0 11.2921V9.36043L0.0266438 9.33379H0.652772V6.67163Z" fill="#981C2F"/>
<path d="M9.34308 2H10.6486V2.65277H11.328V3.33219C12.1023 3.33219 12.5365 3.33219 13.3108 3.33219V3.98274H11.328V5.99434H10.6753V6.6449H9.31866V3.30554H7.30705V2.65277H9.34308V2Z" fill="#8AC450"/>
<path d="M4.64488 5.31482H6.65427V5.99424H7.30704V7.97697H6.65427V8.65639H4.64488V7.97697H3.99211V5.99424H4.64488V5.31482Z" fill="#9B1A2F"/>
<path d="M13.3641 3.98291H13.9635L13.9902 4.00955L14.0146 5.3151L14.643 5.34174L14.6674 5.96787L15.3202 5.99451V7.95061L15.0848 7.97725H14.643L14.6674 9.30722L15.3202 9.33387V10.6661H14.6674V9.98664H13.3374V9.33387H13.9902V7.97725H13.3374V7.32448H12.658V5.99451H13.3374V4.00955L13.3641 3.98291Z" fill="#7E1424"/>
<path d="M13.3374 7.97717H13.9902V9.33378H13.3374V9.98656H14.6674V10.666H15.3201V11.3187H14.6674V11.9959H12.658V9.33378H12.0052V8.65659H13.3374V7.97717Z" fill="#417D3F"/>
<path d="M9.99586 8.65649H12.0052V11.3186H9.99586V8.65649Z" fill="#991B2E"/>
<path d="M3.99211 14.6581H11.9808V15.3109H3.99211V14.6581Z" fill="#010302"/>
<path d="M2.66214 2.65283H3.94104L3.96769 2.67948V3.33225H4.64488V3.9828H3.31491V4.63557H2.6355V5.9944H1.98273V3.33225H2.66214V2.65283Z" fill="#4B0D15"/>
<path d="M5.97707 11.3187H7.98645V13.3281H5.97707V11.3187Z" fill="#D72C2F"/>
<path d="M9.31866 9.33374H9.99586V11.3187H12.0052V9.33374H12.658V11.3431H12.0052V11.9959H9.99586L9.96922 11.3431L9.31866 11.3187V9.33374Z" fill="#43080E"/>
<path d="M0.652771 6.67163H1.30554V8.65659H2.63551V9.30714H3.31493V11.3187H2.63551V9.33379H0.652771V6.67163Z" fill="#43090E"/>
<path d="M1.32996 5.99451H3.31493V7.32447H1.98274V7.97725H2.63551V8.65666H1.30554V6.64506L1.32996 5.99451Z" fill="#336537"/>
<path d="M5.97707 2.65283H7.30703V3.3056H7.98645V5.31499H7.33368V4.63557H6.65426V3.9828H5.97707V2.65283Z" fill="#88C34F"/>
<path d="M3.9677 8.65649H5.32431V9.33369H6.65428V9.98646H5.97708V10.6659H5.32431V9.98646H3.9677V8.65649Z" fill="#407C40"/>
<path d="M2.63551 11.996H4.6449V13.3282H2.63551V11.996Z" fill="#5A9546"/>
<path d="M9.31866 3.98291H10.6486V5.99451H9.31866V3.98291Z" fill="#DA2F32"/>
<path d="M13.9902 7.97717H14.643L14.6674 9.30714L15.3202 9.33378V10.666H14.6674V9.98656H13.3374V9.33378H13.9902V7.97717Z" fill="#1D4E32"/>
<path d="M10.6486 3.98291H11.328V5.99451H10.6753V6.64507H9.31866V5.99451H10.6486V3.98291Z" fill="#45080E"/>
<path d="M7.98647 5.31482H8.66588V7.3242H7.33369V5.99424H7.98647V5.31482Z" fill="#88C34F"/>
<path d="M2.63551 4.6355H4.6449V5.96769H3.31493V5.31491H2.63551V4.6355Z" fill="#88C34E"/>
<path d="M12.0052 3.98291H13.3108L13.3374 4.00955V5.99451H12.658L12.0052 5.96787V5.3151H12.658V4.63568H12.0052V3.98291Z" fill="#89C350"/>
<path d="M0.652771 9.33374H2.63551V9.98651H1.98274V10.6659H0.652771V9.33374Z" fill="#D72D2F"/>
<path d="M9.99586 9.33374H11.9808V9.98651H11.3281V10.6659H9.99586V9.33374Z" fill="#D72C2F"/>
<path d="M4.6449 5.99451H6.62986V6.64506H5.97709V7.32447H4.6449V5.99451Z" fill="#D92D30"/>
<path d="M0.652771 11.3187H2.63551V11.9959H1.98274V13.3015H1.32997V11.9715H0.652771V11.3187Z" fill="#30060B"/>
<path d="M1.98273 3.33228H2.6355V3.98283H3.31491V4.6356H2.6355V5.99443H1.98273V3.33228Z" fill="#0F0304"/>
<path d="M13.3374 7.97717H13.9902V9.33378H12.6846V11.3187H12.658V9.33378H12.0052V8.65659H13.3374V7.97717Z" fill="#316537"/>
<path d="M11.328 3.98291H12.0052V4.63568H12.658V5.3151H12.0052V5.96787H12.658V5.99451H12.0052V6.64507H11.9808V5.99451H11.328V3.98291Z" fill="#3B743D"/>
<path d="M7.98647 3.30566H9.31865V3.98286H8.66588V5.31505H7.98647V3.30566Z" fill="#4A823F"/>
<path d="M5.97707 11.996H6.00371V12.6754H7.33368V11.996H7.98645V13.3282H5.97707V11.996Z" fill="#991B30"/>
<path d="M12.0052 7.32434H13.3374V8.65653H12.0052V7.32434ZM13.3374 10.6659H15.3201V11.3187H14.6674V11.9959H13.9902V11.3187H13.3374V10.6659Z" fill="#89C450"/>
<path d="M9.31864 7.32434H10.6486V7.97711H9.99584V8.65653H8.66587V8.00376H9.31864V7.32434ZM1.98273 7.32434H3.31491V8.00376H3.96769V8.65653H2.6355V7.97711H1.98273V7.32434Z" fill="#88C44F"/>
<path d="M13.3641 3.98291H13.9635L13.9902 4.00955L14.0146 5.3151L14.643 5.34174L14.6674 5.99451H13.3374V4.00955L13.3641 3.98291Z" fill="#030202"/>
<path d="M0.652771 6.67163H1.30554V9.30714H0.652771V6.67163Z" fill="#010201"/>
<path d="M5.97707 13.328H7.98645V14.0052H5.97707V13.328Z" fill="#46080F"/>
<path d="M7.98647 11.3187H8.66588V13.3281H7.98647V11.3187Z" fill="#43090E"/>
<path d="M9.99586 8.65649H12.0052V9.33369H9.99586V8.65649Z" fill="#44080D"/>
<path d="M3.9677 8.65649H5.32518V9.33412H4.64533V9.98732H3.9677V8.65649Z" fill="#88C350"/>
<path d="M4.6449 7.97717H6.65428V8.65659H4.6449V7.97717Z" fill="#44070E"/>
<path d="M4.6449 5.31482H6.65428V5.99424H4.6449V5.31482Z" fill="#45080E"/>
<path d="M7.33369 9.33374H8.66674V10.6668H7.98689V9.98693H7.33369V9.33374Z" fill="#87C34F"/>
<path d="M13.3374 5.99451H14.6682V6.64548L14.0417 6.67214L14.015 7.29867H13.3374V5.99451Z" fill="#D93335"/>
<path d="M5.97707 10.6659H7.98645V11.3187H5.97707V10.6659Z" fill="#42080D"/>
<path d="M8.66588 3.98291H9.31865V5.99451H8.66588V3.98291Z" fill="#44080D"/>
<path d="M7.30705 2.65283H9.31866V3.3056H7.30705V2.65283Z" fill="#020402"/>
<path d="M5.95044 11.3187H5.97708V13.3281H5.32431V11.3431L5.95044 11.3187Z" fill="#44070E"/>
<path d="M6.65427 5.99451H7.30704V7.97725H6.65427V5.99451Z" fill="#44060D"/>
<path d="M3.99211 5.99451H4.64488V7.97725H3.99211V5.99451Z" fill="#45070D"/>
<path d="M11.328 3.33228H13.3108V3.98283H11.328V3.33228Z" fill="#020402"/>
<path d="M5.35095 2H7.30705V2.65277H5.32431V2.131L5.35095 2Z" fill="#030503"/>
<path d="M14.6674 5.99451H15.3202V7.9506L15.0848 7.97725H14.6674V5.99451ZM0.0266438 9.33386H0.626128V11.3188H0.0777115L0 11.2922V9.3605L0.0266438 9.33386Z" fill="#030201"/>
<path d="M2.63551 5.31482H3.31493V5.96759H4.6449V5.99424H3.9677V6.64479H3.31493V5.99424H2.63551V5.31482Z" fill="#437B3F"/>
<path d="M11.328 12.6753H12.0057V14.0061H11.328V12.6753Z" fill="#89C251"/>
<path d="M5.32431 8.65649H6.65513V9.33412H5.32431V8.65649Z" fill="#1E5033"/>
<path d="M12.658 5.99451H13.3379V7.32533H12.658V5.99451Z" fill="#44080D"/>
<path d="M9.31866 5.31482H10.6495V5.99467H9.31866V5.31482Z" fill="#9A1C2F"/>
<path d="M9.31866 3.30566H10.6495V3.98329H9.31866V3.30566Z" fill="#46090E"/>
<path d="M12.0052 5.31482H13.3383V5.99467H12.6584L12.0052 5.96801V5.31482Z" fill="#649D46"/>
<path d="M10.6486 2.65283H11.3285V3.30602V3.98365H10.6486V2.65283Z" fill="#244022"/>
<path d="M2.63551 8.65649H3.96856V9.33412H3.31537L2.63551 9.30746V8.65649Z" fill="#417B3E"/>
<path d="M13.3374 7.97717H13.9906V9.33466H13.3374V7.97717Z" fill="#407A3F"/>
<path d="M12.0052 12.6753H12.6584V14.0061H12.0052V12.6753Z" fill="#407C3F"/>
<path d="M14.6674 9.33374H15.3206V10.6668H14.6674V9.33374Z" fill="#020302"/>
<path d="M3.31493 3.98291H4.64575V4.6361H3.31493V3.98291Z" fill="#427C41"/>
<path d="M1.32996 11.996H1.98315V13.3024H1.32996V11.996Z" fill="#020403"/>
<path d="M13.9902 7.97717H14.6434L14.6678 9.33466H14.0146L13.9902 7.97717Z" fill="#030302"/>
<path d="M9.34308 2H10.6495V2.65319H9.34308V2Z" fill="#030503"/>
<path d="M2.66214 2.65283H3.94186L3.96852 2.67949V3.30602H2.66214V2.65283Z" fill="#030302"/>
<path d="M15.3468 10.6659H15.9733L16 10.8214V11.919L15.9733 11.9723H15.3468V10.6659Z" fill="#010201"/>
<path d="M12.0052 14.0052H13.3108V14.6336H12.0052V14.0052ZM2.66214 14.0052H3.96768V14.6336H2.66214V14.0052Z" fill="#020302"/>
</svg>
