<svg width="16" height="16" viewBox="0 0 16 16" fill="none" xmlns="http://www.w3.org/2000/svg">
<path d="M6.83644 4H9.16354L9.17561 4.47314H10.4671V5.06216H10.9282L10.9402 5.07181L10.9499 5.4653L11.5268 5.47737L11.5389 6.10983L12 6.1219V7.97826L11.9879 7.99033L11.5389 7.99999L11.5268 8.39347L11.3892 8.40554H10.9402V8.80868L9.66082 8.81834L9.64875 8.83041V9.47736L10.0978 9.48701L10.1098 9.49908V10.9282L10.064 10.9402L9.64875 10.9523L9.63668 11.3434L9.61254 11.3554H9.16354L9.17561 11.4255L9.16354 12H6.83644L6.82437 11.4834V11.3554H6.37537L6.3633 11.3434L6.35123 10.9523L5.92395 10.9402L5.89016 10.9282V9.48701L6.35123 9.47736V8.83041L6.31744 8.81834L5.05974 8.80868V8.40554H4.51901L4.47314 8.39347L4.46107 7.99999L4.02173 7.99033L4 7.97826V6.1219L4.46107 6.10983L4.47314 5.47737L5.04767 5.4653L5.05974 5.07181L5.07181 5.06216L5.52082 5.05009L5.53289 4.47314H6.82437L6.83644 4Z" fill="#5A2711"/>
<path d="M6.83649 4H9.16358L9.17565 4.45142V5.05009H9.6488V5.4653H10.1219V6.10983H10.4792V6.94025H10.1219V7.58478H6.35128V7.99999H5.52086V7.58478H4.46112V6.10983L4.47319 5.47737L5.04772 5.4653L5.05979 5.07181L5.07186 5.06216L5.52086 5.05009L5.53293 4.47314H6.82442L6.83649 4Z" fill="#974E2B"/>
<path d="M6.81228 8.41516H9.17558V9.47732H9.64873L10.0977 9.48698L10.1098 9.49905V10.9281L10.0639 10.9402L9.64873 10.9523L9.63666 11.3433L9.61252 11.3554H9.16351L9.17558 11.4254L9.16351 11.9999H6.83642L6.82435 11.4833V11.3554H6.37535L6.36328 11.3433L6.35121 10.9523L5.92393 10.9402L5.89014 10.9281V9.48698L6.35121 9.47732H6.81228V8.41516Z" fill="#C2C1B1"/>
<path d="M4 6.12195H4.46107V7.58483H5.52082V8.00004H9.64875L9.66082 8.01211L9.67048 8.40559L10.9402 8.41524V8.80873L9.66082 8.81838L9.64875 8.83045L9.63668 9.4774H9.17561V8.41524H6.8123V9.4774H6.3633L6.35123 8.83045L6.31744 8.81838L5.05974 8.80873V8.40559H4.51901L4.47314 8.39352L4.46107 8.00004L4.02173 7.99038L4 7.97831V6.12195Z" fill="#270C08"/>
<path d="M6.8244 8.83044H8.22935V9.4774H8.70249V10.5371H8.22935V10.9523H6.8244V10.5371H6.35126V9.4774H6.8244V8.83044Z" fill="#EEECD8"/>
<path d="M5.52086 5.05005H6.81235V5.46526H6.35128V5.81046H5.90228V6.10979H5.52086V6.5588H5.04772V6.94021H4.46112V6.10979L4.47319 5.47733L5.04772 5.46526L5.05979 5.07177L5.07186 5.06212L5.52086 5.05005Z" fill="#B56D42"/>
<path d="M4 6.12195H4.46107V7.58483H5.52082V8.00004H6.35123V8.41524H5.05974L5.03802 8.40559H4.51901L4.47314 8.39352L4.46107 8.00004L4.02173 7.99038L4 7.97831V6.12195Z" fill="#5C2A14"/>
<path d="M6.8244 11.3676H9.16356L9.17563 11.4255L9.16356 12H6.83647L6.8244 11.4834V11.3676Z" fill="#240A07"/>
<path d="M10.95 5.47742H11.5269L11.539 6.10988L12 6.12195V7.97832L11.988 7.99039H11.539L11.5269 6.12195L10.95 6.10988V5.47742Z" fill="#270B07"/>
<path d="M6.83647 4H9.16356L9.17563 4.46107H6.8244L6.83647 4Z" fill="#280B08"/>
<path d="M6.8244 4.46106H8.32349V5.05007H6.8244V4.46106Z" fill="#B56E41"/>
<path d="M4 6.12195H4.46107V7.99038H4.02173L4 7.97831V6.12195Z" fill="#290D09"/>
<path d="M9.17566 4.47314H10.4671V5.05009H9.17566V4.47314Z" fill="#280C08"/>
<path d="M5.5329 4.47314H6.81232V5.05009H5.5329V4.47314Z" fill="#2A0E0A"/>
<path d="M5.89014 9.48694H6.35121V10.9402H5.92393L5.89014 10.9281V9.48694Z" fill="#270B07"/>
<path d="M9.64874 9.48694H10.0977L10.1098 9.49901V10.9281L10.0639 10.9402H9.64874V9.48694Z" fill="#260B07"/>
<path d="M4.47314 5.47742H5.04768V6.10988H4.47314V5.47742Z" fill="#2C0F0B"/>
<path d="M4.47314 8H5.04768V8.40555H4.51901L4.47314 8.39348V8Z" fill="#260B07"/>
<path d="M10.95 8H11.5269V8.39348L11.3893 8.40555H10.95V8Z" fill="#250A06"/>
<path d="M6.35126 10.5371H6.8244V10.9523H6.35126V10.5371Z" fill="#C3C1B2"/>
<path d="M6.36334 10.9523H6.82442V11.3554H6.37541L6.36334 11.3433V10.9523Z" fill="#260C08"/>
<path d="M10.4792 5.06213H10.9282L10.9403 5.07179V5.46527H10.4792V5.06213Z" fill="#260B06"/>
<path d="M5.07182 5.06213H5.52083V5.46527H5.05975V5.07179L5.07182 5.06213Z" fill="#2F110C"/>
<path d="M9.17566 10.9523H9.63673V11.3433L9.61259 11.3554H9.17566V10.9523Z" fill="#260C08"/>
<path d="M6.81232 8.41516H9.17562L9.16355 8.46103H9.12975L9.11768 8.56483H9.10561V8.46103H6.89198V8.83037H6.82439V9.47732H6.81232V8.41516Z" fill="#D0C8BD"/>
</svg>
