<svg width="16" height="16" viewBox="0 0 16 16" fill="none" xmlns="http://www.w3.org/2000/svg">
<g clip-path="url(#clip0_171_230)">
<path d="M5.35513 3H7.31286V3.02181H7.33468V3.67075H9.31422V3.64349H9.35785V3H10.6448V3.02181H10.6666V3.67075H11.3101V3.69257H11.3319V4.29243H11.3538V4.31424H11.381V4.33606H13.3333V5.00136H13.3987V4.97954H13.4478V5.00136H13.9332V4.97954H13.9768V5.00136H13.9986V6.33741H14.6694V6.9809H14.713V7.00272H15.3347V8.97681H14.6912V9.00407H14.6694V10.3129H14.6912V10.3347H15.3347V11.6217H15.3565V11.6435H15.4219V11.6707H15.9345V11.6435H15.9781V11.6707H16V12.9795H15.3565V13.0013H15.3347V13.6448H14.6912V13.6666H14.6694V14.3101H14.0204V14.3374H13.9986V14.5119H13.9768V14.5773H13.9986V14.6264H13.9768V14.7137H13.9986V14.9809H13.3551V15.0027H13.3333V15.6462H12.0027V16.3115H4.02453V15.668H4.00272V15.6462H2.68847V15.0027H2.66666V14.9809H2.02317V14.3374H2.00136V14.3101H1.35787V13.0013H1.33606V12.9795H0.687115V12.8486H0.665302V12.7559H0.687115V12.6687H0.665302V12.3142H0.0218132V12.2706H0V12.1561H0.0218132V11.5562H0V11.3544H0.0218132V11.3108H0V11H0.0218132V10.3347H0.665302V9.73481H0.687115V9.51123H0.665302V7.66802H1.30879V7.6462H1.33606V7.62439H1.35787V7.00272H1.97954V6.9809H2.00136V6.95909H2.02317V4.33606H2.64485V4.31424H2.66666V4.29243H2.68847V3.67075H4.00272V4.04703H3.9809V4.11247H4.00272V4.31424H4.04634V4.33606H4.6462V4.31424H4.66802V4.29243H4.68983V3.67075H5.35513V3Z" fill="#427A40"/>
<path d="M2.68847 3.67078H4.00272V4.04705H3.9809V4.11249H4.00272V4.31426H3.95364V4.33608H2.68847V6.31017H3.04294V6.33744H3.06475V6.31017H3.17927V6.33744H3.33196V6.91003H3.35377V6.98092H4.33537V7.00274H4.66802V7.04636H4.68983V7.08999H4.66802V7.64623H4.62439V7.66804H4.5535V7.64623H4.13359V7.66804H4.00272V8.24609H3.95364V8.31153H3.35377V8.33334H3.33196V8.31153H3.09202V8.33334H3.04294V8.31153H2.02317V8.78051H2.00136V8.95502H2.02317V8.97683H2.3122V8.95502H2.37764V8.97683H2.66666V9.02591H2.68847V9.20041H2.66666V9.35856H2.68847V9.64758H3.93182V9.6694H3.9809V9.62577H4.04634V9.64758H4.02453V9.6694H4.00272V10.9782H4.02453V11H4.17722V10.9782H4.48806V11H4.66802V10.9782H5.24607V11H5.33332V11.1581H5.35513V11.6217H5.37695V11.6435H5.42057V11.6708H5.73141V11.6435H5.7096V11.6217H5.78049V11.6435H5.8023V11.6708H5.88955V11.6435H5.91137V11.6708H5.99862V11.578H6.02043V10.9782H6.6203V11H6.64756V10.9782H6.69119V10.5365H6.66938V10.3565H6.64756V10.3347H5.33332V10.2911H5.35513V9.6694H5.31151V9.64758H5.18063V9.62577H4.84252V9.64758H4.66802V9.51125H4.68983V9.0041H4.91342V8.97683H5.10973V9.0041H5.26788V8.97683H6.17858V9.0041H6.38035V8.97683H6.69119V9.0041H6.66938V10.2038H6.69119V10.3347H7.29105V10.3565H7.33468V10.9564H7.31286V10.9782H7.35649V11.6708H6.75663V11.6435H6.69119V11.6708H6.64756V11.6435H6.44579V11.6217H6.06951V11.6435H6.04225V11.6708H6.02043V11.758H5.99862V11.9325H6.02043V11.9598H5.99862V12.0034H6.02043V12.0907H5.99862V12.1125H6.02043V12.1343H5.99862V12.2706H6.02043V12.3361H5.37695V12.3579H5.35513V12.9577H5.37695V12.9795H5.35513V13.3558H5.33332V13.3776H5.35513V13.6667H5.91137V13.6448H5.97681V13.6667H5.99862V13.6885H6.02043V13.7812H5.99862V14.4029H6.02043V14.5337H5.99862V14.9155H6.02043V14.9809H6.11314V15.0027H6.35854V14.9809H6.55486V15.0027H6.6203V14.9809H6.66938V14.9591H6.69119V14.381H6.66938V14.3592H6.69119V14.3374H7.04565V14.3101H7.17653V14.3374H7.31286V14.3101H7.33468V14.3374H7.40012V14.3101H7.44374V14.3374H7.46556V14.3101H7.53645V14.3374H7.97817V14.3101H7.99998V14.2011H8.02179V14.0266H7.99998V13.9775H8.02179V13.8248H7.99998V13.6667H8.66528V13.6448H8.68709V11.6708H8.75799V11.6435H9.42329V11.6708H9.4451V11.6435H9.53235V11.6708H9.57598V11.6435H9.62506V11.6708H9.82138V11.6435H9.97952V11.6708H10.0231V11.6926H10.0013V12.2488H9.97952V12.2706H10.0231V12.3142H10.803V12.3361H10.8248V12.3142H11.092V12.3361H11.4246V12.3142H12.0245V11.6708H12.0463V11.6435H12.1336V11.6708H12.2426V11.6435H12.6462V11.6926H12.668V11.9107H12.6898V12.2706H12.668V12.2924H12.6898V12.6905H12.668V12.9795H12.6898V13.0014H12.8425V12.9795H13.2242V13.0014H13.2897V12.9795H13.6659V13.0014H13.6878V12.9795H13.7805V13.0014H13.955V12.9795H13.9986V13.0014H14.2222V12.9795H14.6694V12.9359H14.6912V12.6687H14.6694V12.6469H14.6912V12.4233H14.6694V12.3797H14.6912V12.3142H15.3128V12.3361H15.3347V12.2924H15.3565V11.7798H15.3347V11.6926H15.3128V11.6708H14.8439V11.6435H14.6475V11.6217H14.6694V11.469H14.6912V11.18H14.6694V11.0436H14.6475V11H13.5351V10.9782H13.3551V10.4928H13.3333V10.4001H13.3551V10.3565H13.3333V10.3347H12.7334V10.3565H12.668V10.3347H12.6462V10.3129H12.6244V10.2474H12.668V9.93661H12.6898V9.6694H12.7116V9.64758H13.3333V10.2693H13.3551V10.3129H13.3987V10.3347H13.955V10.3129H13.9768V10.2911H13.9986V9.89298H13.9768V9.80028H13.9986V9.73484H13.9768V9.6694H13.9986V9.60396H13.9768V9.48944H13.9986V9.44581H13.9768V9.38037H13.9986V9.29312H13.9768V9.24404H13.9986V9.0041H14.0204V8.97683H14.6475V9.0041H14.6694V10.3129H14.6912V10.3347H15.3347V11.6217H15.3565V11.6435H15.4219V11.6708H15.9345V11.6435H15.9781V11.6708H16V12.9795H15.3565V13.0014H15.3347V13.6448H14.6912V13.6667H14.6694V14.3101H14.0204V14.3374H13.9986V14.5119H13.9768V14.5774H13.9986V14.6264H13.9768V14.7137H13.9986V14.9809H13.3551V15.0027H13.3333V15.6462H12.0027V16.3115H4.02453V15.668H4.00272V15.6462H2.68847V15.0027H2.66666V14.9809H2.02317V14.3374H2.00136V14.3101H1.35787V13.0014H1.33606V12.9795H0.687115V12.8487H0.665302V12.756H0.687115V12.6687H0.665302V12.3142H0.0218132V12.2706H0V12.1561H0.0218132V11.5562H0V11.3545H0.0218132V11.3108H0V11H0.0218132V10.3347H0.665302V9.73484H0.687115V9.51125H0.665302V7.66804H1.30879V7.64623H1.33606V7.62441H1.35787V7.00274H1.97954V6.98092H2.00136V6.95911H2.02317V4.33608H2.64485V4.31426H2.66666V4.29245H2.68847V3.67078ZM10.0013 12.3142V12.3361H10.0231V12.3142H10.0013ZM5.86774 11.6217H5.88955V11.6435H5.86774V11.6217Z" fill="#215137"/>
<path d="M2.68847 3.67078H4.00272V4.04705H3.9809V4.11249H4.00272V4.31426H3.95364V4.33608H2.68847V6.31017H3.04294V6.33744H3.06475V6.31017H3.17927V6.33744H3.33196V6.91003H3.35377V6.98092H4.33537V7.00274H4.66802V7.04636H4.68983V7.08999H4.66802V7.64623H4.62439V7.66804H4.5535V7.64623H4.13359V7.66804H4.00272V8.24609H3.95364V8.31153H3.35377V8.33334H3.33196V8.31153H3.09202V8.33334H3.04294V8.31153H2.02317V8.78051H2.00136V8.95502H2.02317V8.97683H2.3122V8.95502H2.37764V8.97683H2.66666V9.02591H2.68847V9.20041H2.66666V9.35856H2.68847V9.64758H3.93182V9.6694H3.9809V9.62577H4.04634V9.64758H4.02453V9.6694H4.00272V10.3129H3.95364V10.3347H2.7321V10.3129H2.68847V10.2256H2.66666V10.182H2.68847V10.1329H2.66666V9.71302H2.68847V9.6694H2.66666V9.64758H2.60122V9.6694H2.26857V9.64758H1.97954V9.48944H2.00136V9.1786H2.02317V9.0041H2.00136V8.97683H1.95773V9.0041H1.91411V8.97683H1.86503V9.0041H1.8214V8.97683H1.53237V9.0041H1.35787V10.2038H1.33606V10.2474H1.35787V10.3129H1.33606V10.3347H0.665302V9.73484H0.687115V9.51125H0.665302V7.66804H1.30879V7.64623H1.33606V7.62441H1.35787V7.00274H1.97954V6.98092H2.00136V6.95911H2.02317V4.33608H2.64485V4.31426H2.66666V4.29245H2.68847V3.67078ZM0.0218132 10.3347H0.665302V11.2236H0.643488V11.3108H0.665302V11.6217H0.643488V11.6708H0.665302V12.2706H0.687115V12.2924H0.708928V12.3142H1.33606V12.3361H1.35787V12.5106H1.33606V12.8214H1.35787V12.9577H1.30879V12.9795H0.687115V12.8487H0.665302V12.756H0.687115V12.6687H0.665302V12.3142H0.0218132V12.2706H0V12.1561H0.0218132V11.5562H0V11.3545H0.0218132V11.3108H0V11H0.0218132V10.3347Z" fill="#427A40"/>
<path d="M13.7587 14.3101H13.955V14.4246H13.9986V14.5118H13.9768V14.5773H13.9986V14.6263H13.9768V14.7136H13.9986V14.9808H13.3551V15.0026H13.3333V15.6461H12.0027V16.3114H4.02454V15.6461H6.06952V15.6243H7.79821V15.6461H8.22357V15.6243H8.37626V15.6461H9.91409V15.6243H10.0886V15.6461H11.9536V15.6243H11.9809V15.6025H12.0027V15.537H12.0245V15.1335H12.0027V15.0026H12.2917V14.9808H13.2679V14.959H13.3115V14.9372H13.3333V14.6918H13.3551V14.3373H13.7587V14.3101Z" fill="#000101"/>
<path d="M13.3551 7.00269H14.6693V7.04631H14.6912V7.06813H14.6693V7.58073H14.6912V7.62436H14.6693V7.6898H14.6912V7.73343H14.6693V8.95496H14.6912V9.00404H14.6475V8.97678H14.0204V9.00404H13.9986V9.24399H13.9768V9.29307H13.9986V9.38032H13.9768V9.44576H13.9986V9.48939H13.9768V9.60391H13.9986V9.66934H13.9768V9.73478H13.9986V9.80022H13.9768V9.89293H13.9986V10.291H13.9768V10.3128H13.955V10.3346H13.3987V10.3128H13.3551V10.2692H13.3333V9.64753H12.7116V9.66934H12.668V9.64753H12.0245V8.78046H12.0027V8.64413H12.0245V8.33329H12.0463V8.31148H12.668V8.26785H12.6898V8.24604H12.668V7.6898H12.6898V7.66799H13.3115V7.64617H13.3333V7.0245H13.3551V7.00269Z" fill="#88C34B"/>
<path d="M10.6885 9.64746H11.332V9.66927H11.3538V9.7129H11.332V9.98011H11.3538V10.2473H11.332V10.2909H11.3538V10.3128H11.381V10.3346H11.4901V10.3128H11.9536V10.3346H11.9809V10.3564H12.0245V10.9563H12.0682V10.9781H12.0463V10.9999H12.0245V11.6216H12.0682V11.6434H12.0463V11.6706H12.0245V12.3141H11.4247V12.3359H11.092V12.3141H10.8248V12.3359H10.803V12.3141H10.0232V12.2705H9.97955V12.2487H10.0014V11.7143H10.0232V11.6924H10.045V11.6706H10.0232V11.6434H10.0014V11.4689H10.0232V11.0435H10.0014V10.9999H9.79959V10.9781H9.44513V10.9999H9.35787V10.9563H9.33606V10.9344H9.35787V10.58H9.33606V10.3564H9.42331V10.3346H10.1104V10.3128H10.4213V10.3346H10.6448V10.2909H10.6667V9.66927H10.6885V9.64746ZM10.0014 12.3141H10.0232V12.3359H10.0014V12.3141Z" fill="#437B41"/>
<path d="M1.35794 9.64746H1.9578V9.66927H2.00142V9.69109H2.02324V10.2909H2.00142V10.3128H2.02324V10.3346H2.64491V10.3128H2.66673V10.3564H2.71035V10.3782H2.68854V10.869H2.66673V10.9563H2.68854V10.9999H3.33203V11.0217H3.35384V11.2453H3.33203V11.3107H3.35384V11.5997H3.33203V11.6706H2.82487V11.6434H2.68854V11.6706H2.66673V11.6924H2.68854V11.9815H2.66673V12.3359H2.44314V12.3141H2.42133V12.3359H2.31226V12.3141H2.2032V12.3359H2.15412V12.3141H2.1323V12.3359H1.7124V12.3141H1.37975V12.3359H1.33612V12.3141H0.708994V12.2923H0.687181V12.2705H0.665368V11.6706H0.643555V11.6216H0.665368V11.3107H0.643555V11.2235H0.665368V10.3346H1.33612V10.3128H1.35794V10.2473H1.33612V10.2037H1.35794V9.64746Z" fill="#427A40"/>
<path d="M12.0245 4.97949H12.1554V5.00131H12.3353V4.97949H12.4226V5.00131H12.488V4.97949H12.5535V5.00131H12.6026V4.97949H13.3333V6.22284H13.3551V6.28828H13.3333V6.33736H13.0879V6.3101H12.8698V6.33736H12.6898V6.38099H12.668V6.51187H12.6898V6.95904H12.6462V6.98085H12.6244V7.00266H12.5535V6.98085H12.09V7.00266H12.0245V7.58071H12.0027V7.64615H11.9536V7.66796H11.8882V7.64615H11.5119V7.66796H11.3538V8.31145H10.6885V8.33327H10.6666V8.31145H10.6448V8.26783H10.6666V7.68978H10.6448V7.66796H10.6885V7.64615H11.3319V7.26987H11.3538V7.24806H11.3319V7.00266H11.3538V6.98085H11.4901V7.00266H11.9536V6.98085H12.0027V6.90996H12.0245V6.3101H12.668V6.09196H12.6898V5.66661H12.668V5.64479H12.1336V5.66661H12.0027V5.64479H12.0245V5.62298H12.0027V5.4921H12.0245V5.02312H12.0027V5.00131H12.0245V4.97949ZM9.37966 8.31145H10.6448V8.33327H10.6666V8.97676H10.0232V9.44574H10.0013V9.64751H9.95771V9.66932H9.91409V9.64751H8.75799V9.66932H8.6871V9.64751H8.66528V9.42392H8.6871V9.04765H8.66528V9.00402H8.6871V8.97676H8.86705V9.00402H9.0252V8.97676H9.17789V9.00402H9.33604V8.95494H9.35785V8.91132H9.33604V8.4696H9.35785V8.33327H9.37966V8.31145Z" fill="#88C34B"/>
<path d="M5.35518 3H7.31291V3.02181H7.33473V3.67075H5.35518V3ZM9.3579 3H10.6449V3.02181H10.6667V3.67075H9.33608V3.69257H9.3579V4.31424H9.33608V4.33606H7.35654V4.31424H7.33473V3.67075H9.31427V3.64349H9.3579V3ZM4.68988 3.67075H5.35518V3.93251H5.33337V4.31424H5.31156V4.33606H4.71169V4.29243H4.68988V3.67075ZM10.6667 3.67075H11.3102V3.69257H11.332V4.29243H11.3102V4.31424H11.2884V4.33606H10.6885V4.31424H10.6667V3.67075Z" fill="#000101"/>
<path d="M2.68854 5.62292H2.80306V5.64474H4.66808V5.68836H4.6899V5.9992H4.66808V6.2446H4.6899V6.42456H4.66808V6.44637H4.6899V6.53362H4.66808V6.55544H4.6899V6.62633H4.66808V6.7354H4.6899V6.93717H4.66808V6.95898H4.6899V6.98079H4.71171V7.00261H5.31157V6.98079H5.33338V7.00261H5.3552V8.28958H5.31157V8.3114H5.26794V8.33321H4.95711V8.3114H4.6899V8.33321H4.66808V8.3114H4.00278V7.66791H4.13366V7.6461H4.55356V7.66791H4.62446V7.6461H4.66808V7.08986H4.6899V7.04623H4.66808V7.00261H4.33543V6.98079H3.35384V6.9099H3.33203V6.33731H3.17933V6.31004H3.06481V6.33731H3.043V6.31004H2.68854V5.62292ZM5.3552 6.31004H5.99869V6.51181H6.0205V6.93717H5.99869V6.98079H5.97687V7.00261H5.51334V6.98079H5.33338V6.95898H5.3552V6.75721H5.33338V6.33731H5.3552V6.31004Z" fill="#88C34B"/>
<path d="M14.0204 8.97668H14.6476V9.00395H14.6694V10.3127H14.6912V10.3346H15.3347V11.6215H15.3565V11.6433H15.4219V11.6706H15.9345V11.6433H15.9782V11.6706H16V12.9794H15.3565V11.7797H15.3347V11.6924H15.3129V11.6706H14.8439V11.6433H14.6476V11.6215H14.6694V11.4688H14.6912V11.1798H14.6694V11.0435H14.6476V10.9999H13.5351V10.978H13.3551V10.4927H13.3333V10.4H13.3551V10.3564H13.3333V10.3346H12.7335V10.3564H12.668V10.3346H12.6462V10.3127H12.6244V10.2473H12.668V9.93646H12.6898V9.66925H12.7116V9.64744H13.3333V10.2691H13.3551V10.3127H13.3988V10.3346H13.955V10.3127H13.9768V10.2909H13.9986V9.89284H13.9768V9.80013H13.9986V9.73469H13.9768V9.66925H13.9986V9.60381H13.9768V9.48929H13.9986V9.44567H13.9768V9.38023H13.9986V9.29298H13.9768V9.2439H13.9986V9.00395H14.0204V8.97668Z" fill="#215137"/>
<path d="M0.665302 7.66797H1.33606V7.68978H1.35787V10.2037H1.33606V10.2474H1.35787V10.3128H1.33606V10.3346H0.665302V9.73477H0.687115V9.51118H0.665302V7.66797ZM0.0218132 10.3346H0.665302V11.2235H0.643488V11.3108H0.665302V11.6216H0.643488V11.6707H0.665302V12.2705H0.687115V12.2924H0.708928V12.3142H1.33606V12.336H1.35787V12.5105H1.33606V12.8213H1.35787V12.9577H1.30879V12.9795H0.687115V12.8486H0.665302V12.7559H0.687115V12.6686H0.665302V12.3142H0.0218132V12.2705H0V12.156H0.0218132V11.5562H0V11.3544H0.0218132V11.3108H0V10.9999H0.0218132V10.3346Z" fill="#000101"/>
<path d="M8.02181 4.33606H8.68711V4.97955H9.17791V5.00136H9.19972V4.97955H9.33605V5.00136H9.35787V5.04499H9.33605V5.22495H9.35787V5.60122H9.33605V5.64485H8.68711V6.31015H9.31424V6.33742H9.33605V6.55555H9.35787V6.95909H9.33605V6.98091H9.31424V7.00272H9.24335V6.98091H8.71438V6.95909H8.68711V6.59918H8.6653V6.51192H8.68711V6.4683H8.6653V6.44648H8.68711V6.33742H8.62167V6.31015H8.02181V6.33742H8V6.42467H7.95637V6.35923H7.91274V6.38104H7.89093V6.31015H7.97818V6.28834H8.02181V6.20109H8V6.07021H8.02181V5.0668H8V5.04499H8.02181V5.02317H8V5.00136H8.02181V4.33606ZM11.0429 6.31015H11.1575V6.33742H11.332V6.93728H11.3101V6.98091H11.2883V7.00272H11.0647V6.98091H10.9993V7.00272H10.6885V7.02453H10.6667V7.60258H10.623V7.64621H10.6012V7.62439H10.5576V7.64621H10.3122V7.66802H9.48874V7.64621H9.35787V7.04635H9.33605V6.98091H9.42331V7.00272H10.514V6.98091H10.623V6.95909H10.6667V6.35923H10.6885V6.33742H11.0429V6.31015Z" fill="#437B41"/>
<path d="M5.99866 3.67078H7.33471V4.31426H7.35653V4.33608H8.02183V5.00138H8.00002V5.02319H8.02183V5.04501H8.00002V5.06682H8.02183V6.07022H8.00002V6.2011H8.02183V6.28836H7.9782V6.31017H7.35653V6.28836H7.33471V5.66668H7.19838V5.64487H7.15476V5.62305H6.90936V5.64487H6.69123V5.60124H6.66941V4.97957H6.02047V4.31426H5.99866V4.19975H6.02047V3.7144H5.99866V3.67078ZM9.33607 3.67078H10.6667V4.31426H10.6449V4.33608H10.0232V4.3797H10.0014V4.69054H10.0232V4.97957H10.0668V5.00138H10.1541V4.97957H10.1759V5.00138H10.2904V4.97957H10.334V5.00138H10.3558V4.97957H10.6449V5.00138H10.6667V5.64487H10.623V5.66668H10.6012V5.64487H10.0232V6.28836H10.0014V6.31017H9.97956V6.33744H9.86504V6.31017H9.35788V6.33744H9.31426V6.31017H8.68713V5.64487H9.33607V5.60124H9.35788V5.22496H9.33607V5.04501H9.35788V5.00138H9.33607V4.97957H9.19974V5.00138H9.17793V4.97957H8.68713V4.33608H9.33607V4.31426H9.35788V3.69259H9.33607V3.67078Z" fill="#88C34B"/>
<path d="M13.3988 4.97957H13.4478V5.00138H13.9332V4.97957H13.9768V5.00138H13.9986V6.33744H14.6694V6.98092H14.713V7.00274H15.3347V8.97683H14.6912V8.95502H14.6694V7.73348H14.6912V7.68985H14.6694V7.62441H14.6912V7.58079H14.6694V7.06818H14.6912V7.04636H14.6694V7.00274H13.3551V6.98092H13.3333V6.28836H13.3551V6.22292H13.3333V5.00138H13.3988V4.97957ZM2.68849 3.67078H4.00274V4.04705H3.98092V4.11249H4.00274V4.31426H3.95366V4.33608H2.68849V6.9373H2.66668V6.98092H2.60124V7.00274H2.06682V6.98092H2.02319V4.33608H2.64487V4.31426H2.66668V4.29245H2.68849V3.67078Z" fill="#000101"/>
<path d="M8.02183 6.31006H8.62169V6.33733H8.68713V6.44639H8.66532V6.4682H8.68713V6.51183H8.66532V6.59908H8.68713V6.959H8.7144V6.98081H8.68713V8.31142H8.28904V8.33323H8.26723V8.31142H8.15816V8.33323H8.13635V8.31142H7.75462V8.33323H7.40016V8.31142H7.35653V7.93514H7.33472V7.68974H7.35653V7.29165H7.33472V7.00263H7.35653V6.98081H7.37834V7.00263H8.00002V6.959H8.02183V6.86629H8.00002V6.33733H8.02183V6.31006Z" fill="#88C34B"/>
<path d="M3.37561 12.9795H3.57739V13.0013H3.62101V12.9795H4.00274V13.0013H4.02456V12.9795H4.66805V13.0013H4.68986V13.2685H4.66805V13.3776H4.68986V14.201H4.66805V14.2228H4.68986V14.2665H4.66805V14.2883H4.64623V14.3101H4.58079V14.3374H4.55353V14.3101H3.31018V14.3374H3.24474V14.3101H2.82483V14.3374H2.6885V13.7375H2.66669V13.6666H3.1793V13.6448H3.3538V13.623H3.33199V13.0013H3.37561V12.9795Z" fill="#437B41"/>
<path d="M14.1786 7.64624H14.4894V7.66805H14.6694V7.68987H14.6912V7.73349H14.6694V8.95503H14.6912V9.00411H14.6476V8.97684H14.0204V9.00411H13.9986V9.24405H13.9768V9.29313H13.9986V9.38039H13.9768V9.44583H13.9986V9.48945H13.9768V9.60397H13.9986V9.66941H13.9768V9.73485H13.9986V9.80029H13.9768V9.893H13.9986V10.2911H13.9768V10.3129H13.955V10.3347H13.3988V10.3129H13.3551V10.2693H13.3333V9.35857H13.3551V8.40425H13.3333V8.33335H13.6223V8.31154H13.8023V8.33335H13.955V8.31154H13.9986V7.66805H14.1786V7.64624Z" fill="#427A40"/>
<path d="M14.5767 11.6216H14.6476V11.6434H14.8439V11.6707H15.3129V11.6925H15.3347V11.7797H15.3565V12.2924H15.3347V12.336H15.3129V12.3142H14.6912V12.3796H14.6694V12.4232H14.6912V12.6468H14.6694V12.6686H14.6912V12.9358H14.6694V12.9795H14.2222V13.0013H13.9986V12.6032H14.0205V12.5596H13.9986V12.336H13.9768V12.3142H13.3333V11.6707H13.3552V11.6434H14.5767V11.6216ZM12.0246 4.97949H12.1554V5.00131H12.3354V4.97949H12.4226V5.00131H12.4881V4.97949H12.5535V5.00131H12.6026V4.97949H13.3333V6.22284H13.3552V6.28828H13.3333V6.33736H13.0879V6.3101H12.8698V6.33736H12.6899V6.38099H12.668V6.51187H12.6899V6.95904H12.6462V6.98085H12.6244V7.00266H12.5535V6.98085H12.09V7.00266H12.0246V7.0681H11.9809V7.11173H11.9537V7.13354H11.9318V7.08992H11.91V7.0681H11.9318V7.04629H11.8882V7.02448H11.91V7.00266H11.9537V6.98085H12.0027V6.90996H12.0246V6.3101H12.668V6.09196H12.6899V5.66661H12.668V5.64479H12.1336V5.66661H12.0027V5.64479H12.0246V5.62298H12.0027V5.4921H12.0246V5.02312H12.0027V5.00131H12.0246V4.97949ZM2.02322 8.31145H3.04298V8.33327H3.09206V8.31145H3.33201V8.33327H3.35382V8.82406H3.33201V8.93313H3.35382V8.97675H4.00276V9.6257H3.98095V9.66932H3.93187V9.64751H2.68852V9.35849H2.66671V9.20034H2.68852V9.02583H2.66671V8.97675H2.37768V8.95494H2.31224V8.97675H2.02322V8.95494H2.0014V8.78044H2.02322V8.31145Z" fill="#88C34B"/>
<path d="M8.71436 6.31006H9.31422V6.33733H9.33604V6.55546H9.35785V6.959H9.33604V6.98081H9.31422V7.00263H9.24333V6.98081H8.71436V6.959H8.6871V6.59908H8.66528V6.51183H8.6871V6.4682H8.66528V6.44639H8.6871V6.33733H8.71436V6.31006ZM11.0429 6.31006H11.1574V6.33733H11.3319V6.93719H11.3101V6.98081H11.2883V7.00263H11.0647V6.98081H10.9993V7.00263H10.6885V7.02444H10.6666V7.60249H10.623V7.64612H10.6012V7.6243H10.5576V7.64612H10.3122V7.66793H9.48873V7.64612H9.35785V7.04625H9.33604V6.98081H9.42329V7.00263H10.5139V6.98081H10.623V6.959H10.6666V6.35914H10.6885V6.33733H11.0429V6.31006Z" fill="#215137"/>
<path d="M5.04437 10.3129H5.10981V10.3347H6.64764V10.3565H6.66945V10.5365H6.69126V10.9782H6.64764V11H6.62037V10.9782H6.02051V11.578H5.99869V11.6707H5.91144V11.6435H5.88963V11.6707H5.80238V11.6435H5.78056V11.6217H5.70967V11.6435H5.73148V11.6707H5.42065V11.6435H5.37702V11.6217H5.35521V11.1581H5.33339V11H5.24614V10.9782H4.6899V10.8473H4.66809V10.7818H4.6899V10.3347H5.04437V10.3129ZM5.86782 11.6217V11.6435H5.88963V11.6217H5.86782Z" fill="#437B41"/>
<path d="M14.6912 10.3346H15.3347V11.6216H15.3565V11.6434H15.422V11.6707H15.9346V11.6434H15.9782V11.6707H16V12.9794H15.3565V11.7797H15.3347V11.6925H15.3129V11.6707H14.8439V11.6434H14.6476V11.6216H14.6694V11.4689H14.6912V11.1799H14.6694V11.0435H14.6476V10.9999H14.6694V10.6891H14.6912V10.3782H14.6694V10.3564H14.6912V10.3346Z" fill="#000101"/>
<path d="M4.84259 9.62573H5.18069V9.64755H5.31157V9.66936H5.3552V10.291H5.33339V10.3347H5.1098V10.3128H5.04436V10.3347H4.6899V10.7818H4.66808V10.8473H4.6899V10.9781H4.66808V11H4.48813V10.9781H4.17729V11H4.0246V10.9781H4.00278V9.66936H4.0246V9.64755H4.58083V9.66936H4.62446V9.64755H4.84259V9.62573ZM0.665368 10.3347H2.02324V10.9781H1.97961V11H1.35794V11.289H1.33612V11.4471H1.35794V11.5998H1.37975V11.6435H1.35794V11.6707H0.888953V11.6435H0.687181V11.6216H0.665368V11.3108H0.643555V11.2235H0.665368V10.3347ZM7.33474 10.3347H8.68716V11.6435H8.64353V11.6707H8.15819V11.6435H8.00005V11H7.79827V10.9781H7.422V11H7.40018V10.9781H7.35656V10.9563H7.33474V10.3347ZM10.1105 10.3128H10.4213V10.3347H10.6449V10.3565H10.6667V11.6435H10.6231V11.6707H10.0232V11.6435H10.0014V11.4689H10.0232V11.0436H10.0014V11H9.79963V10.9781H9.44517V11H9.35791V10.9563H9.3361V10.9345H9.35791V10.5801H9.3361V10.3565H9.42335V10.3347H10.1105V10.3128Z" fill="#88C34B"/>
<path d="M11.332 4.33606H13.3333V4.97955H12.6026V5.00136H12.5535V4.97955H12.4881V5.00136H12.4226V4.97955H12.3354V5.00136H12.1554V4.97955H12.0245V5.00136H12.0027V4.97955H11.5992V5.00136H11.5337V4.97955H11.3538V4.93592H11.332V4.33606Z" fill="#000101"/>
<path d="M2.68854 6.31006H3.043V6.33733H3.06481V6.31006H3.17933V6.33733H3.33203V6.90992H3.35384V6.98081H3.31021V6.959H3.2884V6.98081H3.22296V7.00263H2.91212V6.98081H2.89031V6.959H3.02119V6.93719H2.99938V6.90992H2.97756V6.88811H2.93394V6.86629H2.91212V6.84448H2.89031V6.82267H2.91212V6.80085H2.89031V6.77904H2.91212V6.69179H2.89031V6.64816H2.80306V6.59908H2.75398V6.57727H2.71035V6.59908H2.68854V6.31006ZM3.35384 6.98081H4.33543V7.00263H4.66808V7.04625H4.6899V7.08988H4.66808V7.64612H4.62446V7.66793H4.55356V7.64612H4.13366V7.66793H3.98097V7.64612H3.84464V7.66793H3.80101V7.64612H3.44655V7.66793H3.42473V7.64612H3.35384V7.6243H3.33203V7.06807H3.35384V6.98081Z" fill="#437B41"/>
<path d="M14.0204 8.97668H14.6476V9.00395H14.6694V10.3127H14.6203V10.3346H14.0204V10.2909H13.9986V9.89284H13.9768V9.80013H13.9986V9.73469H13.9768V9.66925H13.9986V9.60381H13.9768V9.48929H13.9986V9.44567H13.9768V9.38023H13.9986V9.29298H13.9768V9.2439H13.9986V9.00395H14.0204V8.97668Z" fill="#000101"/>
<path d="M11.332 13.6447H11.7137V13.6665H12.0245V14.9807H11.4029V15.0026H11.3538V14.9371H11.332V14.4027H11.3538V14.3373H11.332V14.2882H11.3538V14.2227H11.332V14.1791H11.3538V14.1355H11.332V13.6447ZM7.37833 12.3141H8.00001V12.3359H8.02182V12.3795H8.00001V12.6686H8.02182V13.5574H8.00001V13.5793H8.02182V13.6447H7.95638V13.6665H7.40014V13.6447H7.35652V13.6011H7.3347V13.5574H7.35652V12.3359H7.37833V12.3141ZM3.37561 12.9794H3.57739V13.0012H3.62101V12.9794H4.00274V13.0012H4.02456V13.0448H4.00274V13.6229H3.98093V13.6447H3.82278V13.6665H3.75735V13.6447H3.49013V13.6665H3.3538V14.2664H3.33199V14.31H3.31018V14.3373H3.24474V14.31H2.82483V14.3373H2.6885V13.7374H2.66669V13.6665H3.1793V13.6447H3.3538V13.6229H3.33199V13.0012H3.37561V12.9794Z" fill="#88C34B"/>
<path d="M2.68854 14.9808H3.98097V15.0026H4.00278V15.199H4.02459V15.6025H4.00278V15.6461H2.68854V14.9808Z" fill="#000101"/>
<path d="M3.28836 6.95911H3.31018V6.98092H3.3538V7.06817H3.33199V7.62441H3.3538V7.64622H3.42469V7.66803H3.44651V7.64622H3.80097V7.66803H3.8446V7.64622H3.98093V7.66803H4.00274V8.24608H3.95366V8.31152H3.3538V8.33334H3.33199V8.18064H3.3538V7.97887H3.33199V7.68985H3.31018V7.66803H2.84665V7.64622H2.73213V7.66803H2.71031V7.64622H2.66669V7.53716H2.6885V7.33538H2.66669V7.06817H2.6885V7.02455H2.66669V7.00273H3.22292V6.98092H3.28836V6.95911Z" fill="#215137"/>
<path d="M1.35785 12.9795H1.88682V13.0013H2.00134V13.1813H2.02315V13.9993H2.00134V14.2883H1.97952V14.3101H1.35785V12.9795Z" fill="#000101"/>
<path d="M12.6244 13.6229H12.668V13.6447H12.6898V13.7374H12.668V13.7593H12.6898V14.7136H12.668V14.9808H12.2917V15.0026H12.1118V14.9808H12.0245V13.6666H12.6462V13.6447H12.6244V13.6229Z" fill="#437B41"/>
<path d="M10.6884 9.64746H11.3319V9.66927H11.3537V9.7129H11.3319V9.98011H11.3537V10.2473H11.3319V10.2909H11.2883V10.3128H11.3101V10.3346H10.7539V10.3128H10.6884V10.2909H10.6666V9.66927H10.6884V9.64746ZM11.4901 10.3128H11.9536V10.3346H11.9809V10.3564H12.0245V10.9563H12.0027V10.9999H11.3537V10.9563H11.3319V10.8908H11.3537V10.869H11.3319V10.8472H11.3537V10.689H11.3319V10.4436H11.3537V10.4H11.3319V10.3564H11.3537V10.3346H11.4901V10.3128Z" fill="#88C34B"/>
<path d="M1.35787 9.64746H1.95773V9.66927H2.00136V9.69109H2.02317V10.2909H2.00136V10.3128H2.02317V10.3346H1.33606V10.3128H1.35787V10.2473H1.33606V10.2037H1.35787V9.64746ZM2.02317 10.3346H2.04499V10.3564H2.02317V10.3346Z" fill="#437B41"/>
<path d="M6.02043 12.3142H6.59848V12.336H6.66937V12.3796H6.69118V12.8704H6.66937V12.9795H6.64756V13.0013H6.13495V12.9795H5.99861V12.9577H6.02043V12.6032H5.99861V12.336H6.02043V12.3142ZM11.3537 11.6434H11.8445V11.6707H12.0245V12.3142H11.3537V12.2924H11.3319V11.6707H11.3537V11.6434ZM5.35513 12.9795H5.93318V13.0013H5.99861V13.0231H6.02043V13.6012H5.99861V13.6448H5.91136V13.6666H5.35513V13.3776H5.33331V13.3558H5.35513V12.9795Z" fill="#88C34B"/>
<path d="M4.00277 4.33606H4.66807V4.35787H4.68988V4.95773H4.66807V4.97955H4.00277V4.8214H3.98096V4.37969H4.00277V4.33606Z" fill="#000101"/>
<path d="M15.3347 12.2924H15.3565V13.0013H15.3129V12.9795H14.8657V13.0013H14.713V12.9795H14.6694V12.9358H14.6912V12.6686H14.6694V12.6468H14.6912V12.4232H14.6694V12.3796H14.6912V12.3142H15.3129V12.336H15.3347V12.2924Z" fill="#427A40"/>
<path d="M6.69124 8.31145H7.06752V8.33327H7.31292V8.31145H7.33473V8.33327H7.35654V8.4696H7.31292V8.49141H7.35654V8.51323H7.31292V8.55685H7.35654V8.93313H7.33473V8.97675H7.26929V9.00402H7.15477V8.97675H7.08933V9.00402H7.04571V8.97675H6.71306V8.95494H6.66943V8.33327H6.69124V8.31145ZM4.00277 8.31145H4.58082V8.33327H4.55355V8.35508H4.66807V8.62229H4.68988V8.6441H4.66807V8.95494H4.68988V8.97675H4.64626V9.00402H4.48811V8.97675H4.00277V8.8895H3.98096V8.62229H4.00277V8.31145ZM4.66807 4.97949H5.20249V5.00131H5.26793V4.97949H5.31156V5.00131H5.35519V5.2467H5.33337V5.26852H5.35519V5.64479H5.33337V5.62298H5.31156V5.55754H5.28975V5.60117H5.24612V5.62298H5.28975V5.64479H5.26793V5.66661H5.24612V5.64479H4.7117V5.62298H4.66807V5.18126H4.68988V5.11037H4.66807V5.06674H4.68988V5.02312H4.66807V4.97949ZM13.1098 6.98085H13.2243V7.00266H13.2679V6.98085H13.3552V7.02448H13.3334V7.64615H13.3115V7.66796H12.668V7.00266H13.1098V6.98085Z" fill="#215137"/>
<path d="M6.38039 6.98083H6.57671V7.00265H6.66941V7.02446H6.69123V7.64614H6.6476V7.66795H6.42401V7.64614H6.33131V7.66795H6.30949V7.64614H6.11318V7.66795H6.02047V7.46618H5.99866V7.44436H6.02047V7.35711H5.99866V7.3353H6.02047V7.22623H5.99866V7.00265H6.38039V6.98083Z" fill="#88C34B"/>
<path d="M4.6899 11.6434H5.1807V11.6707H5.28977V11.6925H5.33339V11.7143H5.31158V11.8016H5.35521V12.2706H5.33339V12.3142H5.31158V12.2924H5.26795V12.3142H5.28977V12.336H5.22433V12.3142H4.6899V12.2706H4.66809V12.0906H4.6899V12.0252H4.66809V11.6707H4.6899V11.6434Z" fill="#4D8C45"/>
<path d="M6.90934 5.62292H7.15474V5.64474H7.19837V5.66655H7.3347V6.28823H7.31288V6.31004H7.29107V6.33731H6.95842V6.31004H6.69121V5.84651H6.6694V5.68836H6.64758V5.64474H6.90934V5.62292Z" fill="#215137"/>
<path d="M3.02115 12.9795H3.33199V13.623H3.3538V13.6448H3.1793V13.6666H2.66669V13.2031H2.6885V13.0013H3.02115V12.9795Z" fill="#437B41"/>
<path d="M14.424 13.6229H14.4676V13.6447H14.6203V13.6666H14.6694V14.31H14.0477V14.2882H13.9768V14.2664H13.9986V13.6666H14.0204V13.6447H14.424V13.6229Z" fill="#000101"/>
<path d="M11.2883 13.6448H11.3319V14.1356H11.3537V14.1792H11.3319V14.2228H11.3537V14.2883H11.3319V14.3373H11.3537V14.4028H11.3101V14.3592H11.2883V14.3373H11.0211V14.3101H10.6884V14.2883H10.6666V13.6666H11.2883V13.6448Z" fill="#437B41"/>
<path d="M11.3538 4.97949H11.5337V5.00131H11.5992V4.97949H12.0027V5.02312H12.0245V5.4921H12.0027V5.62298H11.9809V5.64479H11.3538V5.57935H11.332V5.51391H11.3538V5.22489H11.332V5.20308H11.3538V5.02312H11.332V5.00131H11.3538V4.97949Z" fill="#215137"/>
<path d="M5.35513 8.31152H5.9768V8.33334H5.99861V8.5133H6.02043V8.9332H5.99861V8.95501H6.02043V8.97682H5.33331V8.95501H5.35513V8.35515H5.33331V8.33334H5.35513V8.31152ZM7.17653 13.6448H7.24742V13.6667H7.31286V13.6448H7.33467V13.6667H7.35648V13.7103H7.33467V14.0702H7.31286V14.2665H7.35648V14.3101H7.31286V14.3374H7.17653V14.3101H7.04565V14.3374H6.713V14.3101H6.66937V13.6667H7.17653V13.6448Z" fill="#88C34B"/>
<path d="M14.8657 12.9795H15.3128V13.0013H15.3346V13.6448H14.6911V13.623H14.6693V13.6012H14.6475V13.5139H14.6693V13.4921H14.6911V13.4703H14.6693V13.0449H14.6911V13.0013H14.8657V12.9795ZM1.35785 7.00269H2.00134V7.0245H2.02315V7.40078H2.00134V7.55892H2.02315V7.64617H2.00134V7.66799H1.37966V7.64617H1.35785V7.00269Z" fill="#000101"/>
<path d="M6.69119 11.6434H6.75663V11.6707H7.35649V11.7361H7.33467V11.9106H7.35649V12.2215H7.33467V12.2924H7.31286V12.3142H6.713V12.2924H6.69119V12.2487H6.66937V11.8234H6.69119V11.7798H6.66937V11.6707H6.69119V11.6434Z" fill="#88C34B"/>
<path d="M12.8698 6.31006H13.0879V6.33733H13.3333V6.98081H13.2679V7.00263H13.2243V6.98081H13.1097V7.00263H12.6244V6.98081H12.6462V6.959H12.6898V6.51183H12.668V6.38095H12.6898V6.33733H12.8698V6.31006Z" fill="#437B41"/>
<path d="M2.68854 4.33606H3.35384V4.4015H3.33203V4.60327H3.35384V4.91411H3.33203V4.97955H3.31021V5.00136H2.93394V4.97955H2.89031V5.00136H2.84668V4.97955H2.71035V5.00136H2.68854V4.33606Z" fill="#88C34B"/>
<path d="M2.57943 14.3101H2.68849V14.9372H2.66668V14.959H2.64487V14.9808H2.02319V14.3373H2.57943V14.3101Z" fill="#000101"/>
<path d="M12.3354 10.9563H12.3572V10.9781H12.4226V10.9563H12.4444V10.9781H12.6026V10.9999H12.668V11.5125H12.6898V11.6434H12.668V11.6707H12.6462V11.6434H12.2427V11.6707H12.1336V11.6434H12.0682V11.6216H12.0245V10.9999H12.0463V10.9781H12.1118V10.9999H12.1336V10.9781H12.1772V10.9999H12.2917V10.9781H12.3354V10.9563Z" fill="#88C34B"/>
<path d="M8.02185 4.33606H8.68715V4.95773H8.64353V5.00136H8.57809V4.97955H8.02185V4.33606Z" fill="#215137"/>
<path d="M2.68854 6.31006H3.043V6.33733H3.06481V6.31006H3.17933V6.33733H3.33203V6.90992H3.35384V6.98081H3.31021V6.959H3.2884V6.98081H3.22296V7.00263H2.91212V6.98081H2.89031V6.959H3.02119V6.93719H2.99938V6.90992H2.97756V6.88811H2.93394V6.86629H2.91212V6.84448H2.89031V6.82267H2.91212V6.80085H2.89031V6.77904H2.91212V6.69179H2.89031V6.64816H2.80306V6.59908H2.75398V6.57727H2.71035V6.59908H2.68854V6.31006ZM3.35384 6.98081H3.37565V7.00263H3.35384V6.98081ZM5.08799 11.7361H5.1098V11.7579H5.13161V11.7361H5.24613V11.8015H5.22432V11.8451H5.20251V11.8888H5.18069V11.9324H5.15343V11.9815H5.13161V12.0251H5.1098V12.0687H5.06617V12.0905H5.04436V12.1124H5.00073V12.1342H4.97892V12.156H5.00073V12.1778H4.95711V12.156H4.86985V12.0905H4.82077V11.9597H4.84259V11.9324H4.82077V11.8888H4.86985V11.867H4.89167V11.8451H4.91348V11.8233H4.95711V11.8015H4.93529V11.7797H4.97892V11.8233H5.00073V11.7579H5.02255V11.7797H5.04436V11.7579H5.08799V11.7361ZM4.84259 11.8233H4.86985V11.867H4.84259V11.8233Z" fill="#437B41"/>
<path d="M12.0245 4.97949H12.1554V5.00131H12.3353V4.97949H12.4226V5.00131H12.488V4.97949H12.5535V5.00131H12.6025V4.97949H13.3333V5.42121H13.2897V5.31214H13.2678V5.29033H13.2897V5.2467H13.2678V5.20308H13.2242V5.13218H13.2024V5.11037H13.1806V5.08856H13.1588V5.06674H13.1315V5.04493H12.0899V5.02312H12.0027V5.00131H12.0245V4.97949Z" fill="#9FD862"/>
<path d="M3.49017 13.6447H3.75738V13.6884H3.7792V13.7102H3.73557V13.7374H3.75738V13.7593H3.64286V13.7811H3.62105V13.7593H3.59924V13.7811H3.55561V13.8029H3.5338V13.8247H3.51198V13.8683H3.49017V13.8901H3.46836V13.9119H3.44655V13.9774H3.42473V14.0265H3.40292V14.201H3.46836V14.2228H3.49017V14.2446H3.51198V14.2882H3.5338V14.31H3.33203V14.2664H3.35384V13.6665H3.49017V13.6447ZM3.49017 13.7811V13.8029H3.5338V13.7811H3.49017ZM3.51198 14.2228H3.5338V14.2446H3.51198V14.2228ZM2.71035 6.57727H2.75398V6.59908H2.80306V6.64816H2.89031V6.69179H2.91212V6.77904H2.89031V6.80086H2.91212V6.82267H2.89031V6.84448H2.91212V6.86629H2.93394V6.88811H2.97756V6.90992H2.99938V6.93719H3.02119V6.959H2.89031V6.98081H2.91212V7.00263H2.73216V6.98081H2.71035V6.959H2.68854V6.59908H2.71035V6.57727Z" fill="#4D8C45"/>
<path d="M15.2474 12.6687H15.2692V12.6905H15.291V12.6687H15.3565V13.0014H15.3128V12.9795H14.8657V13.0014H14.7566V12.9359H14.8438V12.9141H14.9366V12.8923H15.1547V12.8487H15.1329V12.8214H15.1765V12.7996H15.2256V12.756H15.2474V12.7123H15.2256V12.6905H15.2474V12.6687Z" fill="#4B8A44"/>
<path d="M9.33606 3.67078H10.6012V3.69259H10.5794V3.7144H10.5576V3.69259H10.4431V3.7144H10.3558V3.69259H9.84322V3.7144H9.6469V3.73622H9.62508V3.7144H9.48875V3.73622H9.46694V3.77984H9.44513V3.80166H9.46694V3.82347H9.44513V3.88891H9.42331V3.93253H9.4015V3.95435H9.37969V4.00343H9.4015V4.02524H9.37969V4.06887H9.35787V3.69259H9.33606V3.67078ZM10.514 3.7144H10.5576V3.75803H10.4922V3.73622H10.514V3.7144Z" fill="#9FD862"/>
<path d="M4.13361 4.97949H4.64622V5.00131H4.66803V5.02312H4.68984V5.06674H4.66803V5.08856H4.6244V5.15945H4.58078V5.13218H4.50988V5.11037H4.46626V5.13218H4.42263V5.11037H4.35719V5.08856H4.31356V5.06674H4.26448V5.04493H4.24267V5.02312H4.15542V5.00131H4.13361V4.97949Z" fill="#4D8C45"/>
<path d="M2.68854 5.62304H2.71035V5.64485H2.73216V5.66666H2.77579V6.04839H2.75398V6.2229H2.77579V6.26652H2.80306V6.28834H2.82487V6.31015H2.68854V5.62304ZM8.68716 4.33606H9.31429V4.35787H9.26521V4.37969H9.19977V4.4015H9.17795V4.42331H8.77986V4.44513H8.73624V4.46694H8.71442V4.48875H8.68716V4.33606Z" fill="#9FD862"/>
<path d="M2.68854 6.31006H3.043V6.38095H2.99938V6.40276H2.95575V6.42458H2.93394V6.4682H2.89031V6.49002H2.75398V6.4682H2.73216V6.44639H2.68854V6.31006Z" fill="#215137"/>
<path d="M10.6884 4.33606H11.1792V4.35787H11.1574V4.37969H11.1356V4.42331H11.092V4.44513H11.0647V4.42331H11.0429V4.44513H10.8248V4.42331H10.7321V4.4015H10.7103V4.37969H10.6666V4.35787H10.6884V4.33606Z" fill="#4D8C45"/>
<path d="M4.02459 10.8472H4.04641V10.869H4.06822V10.8908H4.13366V10.9344H4.48812V10.9126H4.50994V10.9344H4.53175V10.9126H4.55356V10.9344H4.64627V10.9562H4.62446V10.978H4.64627V10.9998H4.48812V10.978H4.17729V10.9998H4.02459V10.978H4.00278V10.869H4.02459V10.8472ZM4.46631 10.8908H4.48812V10.9126H4.46631V10.8908ZM4.50994 10.8908H4.53175V10.9126H4.50994V10.8908ZM2.68854 14.1573H2.71035V14.1791H2.73216V14.2009H2.75398V14.2227H2.82487V14.2664H3.2884V14.2882H3.33203V14.31H3.31021V14.3373H3.24477V14.31H2.82487V14.3373H2.68854V14.1573ZM13.2679 5.80286H13.2897V5.91192H13.3334V6.22276H13.3552V6.2882H13.3334V6.33728H13.2679V6.31001H13.2461V6.2882H13.2025V6.26639H13.2243V6.24457H13.2025V6.22276H13.2243V6.17913H13.2461V6.07007H13.2679V5.80286Z" fill="#9FD862"/>
<path d="M12.668 12.7341H12.7335V12.7559H12.7553V12.7778H12.7771V12.7996H12.7989V12.8486H12.8207V12.8923H12.8425V12.9359H12.8698V12.9577H12.8916V12.9795H12.8425V13.0013H12.6898V12.9795H12.668V12.7341Z" fill="#4D8C45"/>
<path d="M3.20112 9.57666H3.22294V9.60393H3.26656V9.57666H3.28838V9.60393H3.31019V9.57666H3.332V9.60393H3.35382V9.57666H3.4029V9.60393H3.42471V9.57666H3.44652V9.60393H3.46834V9.57666H3.49015V9.60393H3.71373V9.62574H3.73555V9.64755H2.97754V9.62574H2.95573V9.60393H3.20112V9.57666ZM3.73555 9.60393H3.75736V9.62574H3.73555V9.60393ZM3.75736 9.62574H3.77917V9.64755H3.75736V9.62574ZM0.665344 10.3347H1.22158V10.3783H1.19977V10.3565H1.17795V10.3783H0.867116V10.3565H0.779863V10.3783H0.75805V10.4001H0.736237V10.4219H0.708971V10.4437H0.736237V10.4928H0.708971V10.6891H0.687157V10.6237H0.665344V10.3347Z" fill="#9FD862"/>
<path d="M4.75531 4.33606H5.28973V4.35787H5.26792V4.37969H5.24611V4.4015H5.22429V4.42331H5.13159V4.44513H5.08796V4.42331H5.06615V4.44513H5.04433V4.42331H4.9789V4.4015H4.86983V4.37969H4.82075V4.35787H4.75531V4.33606Z" fill="#4D8C45"/>
<path d="M7.3783 4.33606H8.02178V4.48875H7.97816V4.42331H7.93453V4.4015H7.84728V4.37969H7.77639V4.4015H7.75457V4.37969H7.71095V4.4015H7.66732V4.37969H7.50917V4.35787H7.3783V4.33606Z" fill="#9FD862"/>
<path d="M3.02114 12.9795H3.33198V13.0886H3.28835V13.1104H3.22291V13.1595H3.2011V13.1104H3.17929V13.0886H3.11385V13.0449H3.02114V13.0231H2.99933V13.0013H3.02114V12.9795ZM3.28835 13.1104H3.33198V13.1376H3.28835V13.1104Z" fill="#4C8B44"/>
<path d="M13.846 7.00269H14.6694V7.04631H14.6912V7.06813H14.6694V7.24808H14.6203V7.17719H14.5985V7.08994H14.5767V7.06813H14.5985V7.0245H14.5331V7.04631H14.424V7.0245H13.846V7.00269ZM13.3552 7.00269H13.8023V7.0245H13.4697V7.04631H13.4479V7.06813H13.4206V7.11175H13.3988V7.53711H13.377V7.51529H13.3552V7.42259H13.377V7.37896H13.3552V7.29171H13.377V7.24808H13.3552V7.04631H13.377V7.0245H13.3552V7.00269ZM13.4206 7.0245V7.04631H13.4479V7.0245H13.4206Z" fill="#9FD862"/>
<path d="M13.955 12.7996H13.9987V12.9795H13.955V13.0013H13.7805V12.9795H13.7096V12.9577H13.666V12.9359H13.7315V12.9141H13.8023V12.8923H13.9114V12.9141H13.9332V12.8923H13.955V12.8705H13.9332V12.8486H13.955V12.7996Z" fill="#4D8C45"/>
<path d="M10.5575 7.62439H10.6012V7.6462H10.6666V7.66802H10.6448V7.68983H10.6666V7.77708H10.5357V7.75527H10.4921V7.73346H10.4212V7.68983H10.3558V7.66802H10.4212V7.6462H10.5575V7.62439Z" fill="#4C8B44"/>
<path d="M10.623 3.6925H10.6667V4.31418H10.6448V4.33599H10.6012V4.31418H10.5794V4.27055H10.623V3.6925ZM14.6694 11.6434H14.8439V11.6707H15.3129V11.6925H15.2474V11.7143H14.7566V11.6707H14.6694V11.6434Z" fill="#9FD862"/>
<path d="M10.7539 14.2665H11.2229V14.3101H11.2447V14.3374H11.0211V14.3101H10.7539V14.2665Z" fill="#4D8C45"/>
<path d="M11.332 13.6447H11.6646V13.6665H11.6919V13.6884H11.4901V13.7102H11.4465V13.7374H11.4247V13.7593H11.4029V13.7811H11.381V13.8247H11.3538V13.7811H11.332V13.6447ZM5.95502 6.31006H5.99864V6.51183H6.02046V6.86629H5.97683V6.84448H5.95502V6.82267H5.97683V6.53364H5.95502V6.31006Z" fill="#9FD862"/>
<path d="M3.31016 11.4471H3.35379V11.5998H3.33198V11.6707H3.17928V11.6435H3.15747V11.5998H3.22291V11.578H3.24472V11.5562H3.26654V11.4908H3.28835V11.5344H3.31016V11.4471ZM3.98092 9.62573H4.04636V9.64755H4.02454V9.66936H4.00273V10.0674H3.95365V9.93657H3.93184V9.80024H3.95365V9.77842H3.93184V9.75661H3.95365V9.66936H3.98092V9.62573Z" fill="#4D8C45"/>
<path d="M14.3803 8.88945H14.4239V8.91126H14.3803V8.88945ZM14.6203 8.84583H14.6693V8.95489H14.6911V9.00397H14.6475V8.9767H14.5112V8.95489H14.4894V8.93308H14.4239V8.91126H14.4457V8.88945H14.4894V8.86764H14.5112V8.88945H14.5766V8.91126H14.6203V8.84583ZM14.3803 8.93308H14.4239V8.95489H14.4457V8.9767H14.4021V8.95489H14.3803V8.93308Z" fill="#215137"/>
<path d="M13.2024 6.33734H13.3333V6.51185H13.2897V6.53366H13.2242V6.4246H13.2024V6.33734ZM11.6646 5.64478H11.8882V5.66659H11.9809V5.6884H11.9536V5.71021H11.9809V5.73203H11.9318V5.71021H11.8227V5.73203H11.8009V5.71021H11.5991V5.6884H11.5773V5.66659H11.6646V5.64478ZM13.2897 12.2214H13.3333V12.3142H13.5787V12.336H13.5133V12.3578H13.4914V12.4014H13.3551V12.3796H13.3115V12.336H13.2897V12.2214Z" fill="#4D8C45"/>
<path d="M4.0682 9.64746H4.58081V9.66927H4.4881V9.69109H4.33541V9.7129H4.3136V9.69109H4.24271V9.7129H4.22089V9.69109H4.17727V9.66927H4.15545V9.69109H4.13364V9.66927H4.11183V9.69109H4.09001V9.66927H4.0682V9.64746ZM4.04639 9.66927H4.0682V9.7129H4.04639V9.66927ZM15.2911 11.7361H15.3347V11.7797H15.3565V12.0687H15.3129V12.0469H15.2911V11.7361Z" fill="#9FD862"/>
<path d="M1.37966 8.53503H1.40148V8.75862H1.42329V8.78043H1.40148V8.80225H1.42329V8.95494H1.35785V8.66591H1.37966V8.53503ZM6.69117 8.97675H6.75661V9.00402H6.88749V9.02583H6.84386V9.04764H6.80023V9.06946H6.77842V9.09127H6.75661V9.1349H6.71298V9.11308H6.69117V9.06946H6.66935V9.00402H6.69117V8.97675ZM3.71367 10.2256H3.7573V10.2474H3.80092V10.2256H3.84455V10.2474H3.86636V10.2692H3.88818V10.2474H3.90999V10.2692H3.9318V10.291H3.62097V10.2692H3.66459V10.2474H3.71367V10.2256Z" fill="#4D8C45"/>
<path d="M10.6449 7.66797H10.8248V7.68978H10.803V7.7116H10.7758V7.73341H10.7539V7.75522H10.7321V7.77703H10.6885V7.82611H10.6667V7.68978H10.6449V7.66797ZM5.24612 9.64751H5.31156V9.66933H5.35518V9.75658H5.24612V9.71295H5.2243V9.66933H5.24612V9.64751Z" fill="#9FD862"/>
<path d="M11.2884 4.44507H11.332V4.71228H11.2884V4.55959H11.2665V4.53232H11.2884V4.44507Z" fill="#215137"/>
<path d="M14.5985 7.53711H14.6203V7.55892H14.6694V7.58073H14.6912V7.62436H14.6694V7.66799H14.6203V7.64617H14.5985V7.62436H14.533V7.60255H14.5548V7.55892H14.5985V7.53711ZM13.3551 12.1997H13.3769V12.2215H13.3987V12.2488H13.4206V12.2706H13.4915V12.2924H13.5133V12.3142H13.3333V12.2488H13.3551V12.1997ZM13.3551 11.6434H13.6223V11.6707H13.4696V11.6925H13.4478V11.7143H13.3987V11.7361H13.3769V11.6925H13.3551V11.6434ZM11.91 7.00269H12.0245V7.06813H11.9809V7.11175H11.9536V7.13356H11.9318V7.08994H11.91V7.06813H11.9318V7.04631H11.8882V7.0245H11.91V7.00269Z" fill="#9FD862"/>
<path d="M7.97818 6.28833H8.04362V6.31014H8.02181V6.33741H8V6.42466H7.95637V6.35922H7.91274V6.38104H7.89093V6.31014H7.97818V6.28833Z" fill="#4D8C45"/>
<path d="M1.37966 8.53503H1.40148V8.75862H1.42329V8.78043H1.40148V8.80225H1.37966V8.82406H1.35785V8.66591H1.37966V8.53503Z" fill="#4C8A44"/>
<path d="M11.3538 14.8664H11.4028V14.8882H11.4247V14.9373H11.4465V14.9591H11.4683V14.9809H11.4028V15.0027H11.3538V14.8664ZM13.9986 12.8487H14.0695V12.9141H14.0913V12.9359H14.1349V12.9577H13.9986V12.8487ZM3.15747 8.31152H3.33198V8.33334H3.35379V8.35515H3.31016V8.37696H3.28835V8.40423H3.26654V8.37696H3.24472V8.35515H3.22291V8.33334H3.15747V8.31152ZM3.24472 8.40423H3.26654V8.42604H3.24472V8.40423Z" fill="#9FD862"/>
<path d="M6.66938 6.93726H6.69119V6.95907H6.71301V7.19901H6.69119V7.02451H6.66938V7.0027H6.64757V6.98088H6.6203V6.95907H6.66938V6.93726Z" fill="#4D8C45"/>
<path d="M7.35651 6.98083H7.37832V7.00265H7.53646V7.02446H7.42195V7.04627H7.40013V7.0899H7.37832V7.11171H7.35651V6.98083Z" fill="#9FD862"/>
</g>
<defs>
<clipPath id="clip0_171_230">
<rect width="16" height="16" fill="white"/>
</clipPath>
</defs>
</svg>
