<svg width="16" height="16" viewBox="0 0 16 16" fill="none" xmlns="http://www.w3.org/2000/svg">
<path d="M5.35513 1H7.31286V1.02181H7.33468V1.67075H9.31422V1.64349H9.35785V1H10.6448V1.02181H10.6666V1.67075H11.3101V1.69257H11.3319V2.29243H11.3538V2.31424H11.381V2.33606H13.3333V3.00136H13.3987V2.97954H13.4478V3.00136H13.9332V2.97954H13.9768V3.00136H13.9986V4.33741H14.6694V4.9809H14.713V5.00272H15.3347V6.97681H14.6912V7.00407H14.6694V8.31286H14.6912V8.33468H15.3347V9.62165H15.3565V9.64347H15.4219V9.67073H15.9345V9.64347H15.9781V9.67073H16V10.9795H15.3565V11.0013H15.3347V11.6448H14.6912V11.6666H14.6694V12.3101H14.0204V12.3374H13.9986V12.5119H13.9768V12.5773H13.9986V12.6264H13.9768V12.7137H13.9986V12.9809H13.3551V13.0027H13.3333V13.6462H12.0027V14.3115H4.02453V13.668H4.00272V13.6462H2.68847V13.0027H2.66666V12.9809H2.02317V12.3374H2.00136V12.3101H1.35787V11.0013H1.33606V10.9795H0.687115V10.8486H0.665302V10.7559H0.687115V10.6687H0.665302V10.3142H0.0218132V10.2706H0V10.1561H0.0218132V9.55621H0V9.35444H0.0218132V9.31082H0V8.99998H0.0218132V8.33468H0.665302V7.73481H0.687115V7.51123H0.665302V5.66802H1.30879V5.6462H1.33606V5.62439H1.35787V5.00272H1.97954V4.9809H2.00136V4.95909H2.02317V2.33606H2.64485V2.31424H2.66666V2.29243H2.68847V1.67075H4.00272V2.04703H3.9809V2.11247H4.00272V2.31424H4.04634V2.33606H4.6462V2.31424H4.66802V2.29243H4.68983V1.67075H5.35513V1Z" fill="#427A40"/>
<path d="M2.68847 1.67078H4.00272V2.04705H3.9809V2.11249H4.00272V2.31426H3.95364V2.33608H2.68847V4.31017H3.04294V4.33744H3.06475V4.31017H3.17927V4.33744H3.33196V4.91003H3.35377V4.98092H4.33537V5.00274H4.66802V5.04636H4.68983V5.08999H4.66802V5.64623H4.62439V5.66804H4.5535V5.64623H4.13359V5.66804H4.00272V6.24609H3.95364V6.31153H3.35377V6.33334H3.33196V6.31153H3.09202V6.33334H3.04294V6.31153H2.02317V6.78051H2.00136V6.95502H2.02317V6.97683H2.3122V6.95502H2.37764V6.97683H2.66666V7.02591H2.68847V7.20041H2.66666V7.35856H2.68847V7.64758H3.93182V7.6694H3.9809V7.62577H4.04634V7.64758H4.02453V7.6694H4.00272V8.97819H4.02453V9H4.17722V8.97819H4.48806V9H4.66802V8.97819H5.24607V9H5.33332V9.15815H5.35513V9.62168H5.37695V9.64349H5.42057V9.67076H5.73141V9.64349H5.7096V9.62168H5.78049V9.64349H5.8023V9.67076H5.88955V9.64349H5.91137V9.67076H5.99862V9.57805H6.02043V8.97819H6.6203V9H6.64756V8.97819H6.69119V8.53647H6.66938V8.35651H6.64756V8.3347H5.33332V8.29107H5.35513V7.6694H5.31151V7.64758H5.18063V7.62577H4.84252V7.64758H4.66802V7.51125H4.68983V7.0041H4.91342V6.97683H5.10973V7.0041H5.26788V6.97683H6.17858V7.0041H6.38035V6.97683H6.69119V7.0041H6.66938V8.20382H6.69119V8.3347H7.29105V8.35651H7.33468V8.95637H7.31286V8.97819H7.35649V9.67076H6.75663V9.64349H6.69119V9.67076H6.64756V9.64349H6.44579V9.62168H6.06951V9.64349H6.04225V9.67076H6.02043V9.75801H5.99862V9.93251H6.02043V9.95978H5.99862V10.0034H6.02043V10.0907H5.99862V10.1125H6.02043V10.1343H5.99862V10.2706H6.02043V10.3361H5.37695V10.3579H5.35513V10.9577H5.37695V10.9795H5.35513V11.3558H5.33332V11.3776H5.35513V11.6667H5.91137V11.6448H5.97681V11.6667H5.99862V11.6885H6.02043V11.7812H5.99862V12.4029H6.02043V12.5337H5.99862V12.9155H6.02043V12.9809H6.11314V13.0027H6.35854V12.9809H6.55486V13.0027H6.6203V12.9809H6.66938V12.9591H6.69119V12.381H6.66938V12.3592H6.69119V12.3374H7.04565V12.3101H7.17653V12.3374H7.31286V12.3101H7.33468V12.3374H7.40012V12.3101H7.44374V12.3374H7.46556V12.3101H7.53645V12.3374H7.97817V12.3101H7.99998V12.2011H8.02179V12.0266H7.99998V11.9775H8.02179V11.8248H7.99998V11.6667H8.66528V11.6448H8.68709V9.67076H8.75799V9.64349H9.42329V9.67076H9.4451V9.64349H9.53235V9.67076H9.57598V9.64349H9.62506V9.67076H9.82138V9.64349H9.97952V9.67076H10.0231V9.69257H10.0013V10.2488H9.97952V10.2706H10.0231V10.3142H10.803V10.3361H10.8248V10.3142H11.092V10.3361H11.4246V10.3142H12.0245V9.67076H12.0463V9.64349H12.1336V9.67076H12.2426V9.64349H12.6462V9.69257H12.668V9.9107H12.6898V10.2706H12.668V10.2924H12.6898V10.6905H12.668V10.9795H12.6898V11.0014H12.8425V10.9795H13.2242V11.0014H13.2897V10.9795H13.6659V11.0014H13.6878V10.9795H13.7805V11.0014H13.955V10.9795H13.9986V11.0014H14.2222V10.9795H14.6694V10.9359H14.6912V10.6687H14.6694V10.6469H14.6912V10.4233H14.6694V10.3797H14.6912V10.3142H15.3128V10.3361H15.3347V10.2924H15.3565V9.77982H15.3347V9.69257H15.3128V9.67076H14.8439V9.64349H14.6475V9.62168H14.6694V9.46898H14.6912V9.17996H14.6694V9.04363H14.6475V9H13.5351V8.97819H13.3551V8.49284H13.3333V8.40014H13.3551V8.35651H13.3333V8.3347H12.7334V8.35651H12.668V8.3347H12.6462V8.31289H12.6244V8.24745H12.668V7.93661H12.6898V7.6694H12.7116V7.64758H13.3333V8.26926H13.3551V8.31289H13.3987V8.3347H13.955V8.31289H13.9768V8.29107H13.9986V7.89298H13.9768V7.80028H13.9986V7.73484H13.9768V7.6694H13.9986V7.60396H13.9768V7.48944H13.9986V7.44581H13.9768V7.38037H13.9986V7.29312H13.9768V7.24404H13.9986V7.0041H14.0204V6.97683H14.6475V7.0041H14.6694V8.31289H14.6912V8.3347H15.3347V9.62168H15.3565V9.64349H15.4219V9.67076H15.9345V9.64349H15.9781V9.67076H16V10.9795H15.3565V11.0014H15.3347V11.6448H14.6912V11.6667H14.6694V12.3101H14.0204V12.3374H13.9986V12.5119H13.9768V12.5774H13.9986V12.6264H13.9768V12.7137H13.9986V12.9809H13.3551V13.0027H13.3333V13.6462H12.0027V14.3115H4.02453V13.668H4.00272V13.6462H2.68847V13.0027H2.66666V12.9809H2.02317V12.3374H2.00136V12.3101H1.35787V11.0014H1.33606V10.9795H0.687115V10.8487H0.665302V10.756H0.687115V10.6687H0.665302V10.3142H0.0218132V10.2706H0V10.1561H0.0218132V9.55624H0V9.35446H0.0218132V9.31084H0V9H0.0218132V8.3347H0.665302V7.73484H0.687115V7.51125H0.665302V5.66804H1.30879V5.64623H1.33606V5.62441H1.35787V5.00274H1.97954V4.98092H2.00136V4.95911H2.02317V2.33608H2.64485V2.31426H2.66666V2.29245H2.68847V1.67078ZM10.0013 10.3142V10.3361H10.0231V10.3142H10.0013ZM5.86774 9.62168H5.88955V9.64349H5.86774V9.62168Z" fill="#215137"/>
<path d="M2.68847 1.67078H4.00272V2.04705H3.9809V2.11249H4.00272V2.31426H3.95364V2.33608H2.68847V4.31017H3.04294V4.33744H3.06475V4.31017H3.17927V4.33744H3.33196V4.91003H3.35377V4.98092H4.33537V5.00274H4.66802V5.04636H4.68983V5.08999H4.66802V5.64623H4.62439V5.66804H4.5535V5.64623H4.1336V5.66804H4.00272V6.24609H3.95364V6.31153H3.35377V6.33334H3.33196V6.31153H3.09202V6.33334H3.04294V6.31153H2.02317V6.78051H2.00136V6.95502H2.02317V6.97683H2.3122V6.95502H2.37764V6.97683H2.66666V7.02591H2.68847V7.20041H2.66666V7.35856H2.68847V7.64758H3.93182V7.6694H3.9809V7.62577H4.04634V7.64758H4.02453V7.6694H4.00272V8.31289H3.95364V8.3347H2.7321V8.31289H2.68847V8.22563H2.66666V8.18201H2.68847V8.13293H2.66666V7.71302H2.68847V7.6694H2.66666V7.64758H2.60122V7.6694H2.26857V7.64758H1.97954V7.48944H2.00136V7.1786H2.02317V7.0041H2.00136V6.97683H1.95773V7.0041H1.91411V6.97683H1.86503V7.0041H1.8214V6.97683H1.53237V7.0041H1.35787V8.20382H1.33606V8.24745H1.35787V8.31289H1.33606V8.3347H0.665302V7.73484H0.687115V7.51125H0.665302V5.66804H1.30879V5.64623H1.33606V5.62441H1.35787V5.00274H1.97954V4.98092H2.00136V4.95911H2.02317V2.33608H2.64485V2.31426H2.66666V2.29245H2.68847V1.67078ZM0.0218132 8.3347H0.665302V9.22358H0.643488V9.31084H0.665302V9.62168H0.643488V9.67075H0.665302V10.2706H0.687115V10.2924H0.708928V10.3142H1.33606V10.3361H1.35787V10.5106H1.33606V10.8214H1.35787V10.9577H1.30879V10.9795H0.687115V10.8487H0.665302V10.756H0.687115V10.6687H0.665302V10.3142H0.0218132V10.2706H0V10.1561H0.0218132V9.55624H0V9.35446H0.0218132V9.31084H0V9H0.0218132V8.3347Z" fill="#427A40"/>
<path d="M13.7587 12.3101H13.955V12.4246H13.9986V12.5118H13.9768V12.5773H13.9986V12.6263H13.9768V12.7136H13.9986V12.9808H13.3551V13.0026H13.3333V13.6461H12.0027V14.3114H4.02454V13.6461H6.06952V13.6243H7.79821V13.6461H8.22357V13.6243H8.37626V13.6461H9.91409V13.6243H10.0886V13.6461H11.9536V13.6243H11.9809V13.6025H12.0027V13.537H12.0245V13.1335H12.0027V13.0026H12.2917V12.9808H13.2679V12.959H13.3115V12.9372H13.3333V12.6918H13.3551V12.3373H13.7587V12.3101Z" fill="#000101"/>
<path d="M13.3551 5.00269H14.6693V5.04631H14.6912V5.06813H14.6693V5.58073H14.6912V5.62436H14.6693V5.6898H14.6912V5.73343H14.6693V6.95496H14.6912V7.00404H14.6475V6.97678H14.0204V7.00404H13.9986V7.24399H13.9768V7.29307H13.9986V7.38032H13.9768V7.44576H13.9986V7.48939H13.9768V7.60391H13.9986V7.66935H13.9768V7.73478H13.9986V7.80022H13.9768V7.89293H13.9986V8.29102H13.9768V8.31283H13.955V8.33465H13.3987V8.31283H13.3551V8.26921H13.3333V7.64753H12.7116V7.66935H12.668V7.64753H12.0245V6.78046H12.0027V6.64413H12.0245V6.33329H12.0463V6.31148H12.668V6.26785H12.6898V6.24604H12.668V5.6898H12.6898V5.66799H13.3115V5.64617H13.3333V5.0245H13.3551V5.00269Z" fill="#88C34B"/>
<path d="M10.6885 7.64746H11.332V7.66927H11.3538V7.7129H11.332V7.98011H11.3538V8.24732H11.332V8.29095H11.3538V8.31276H11.381V8.33458H11.4901V8.31276H11.9536V8.33458H11.9809V8.35639H12.0245V8.95625H12.0682V8.97806H12.0463V8.99988H12.0245V9.62155H12.0682V9.64337H12.0463V9.67063H12.0245V10.3141H11.4247V10.3359H11.092V10.3141H10.8248V10.3359H10.803V10.3141H10.0232V10.2705H9.97955V10.2487H10.0014V9.71426H10.0232V9.69245H10.045V9.67063H10.0232V9.64337H10.0014V9.46886H10.0232V9.0435H10.0014V8.99988H9.79959V8.97806H9.44513V8.99988H9.35787V8.95625H9.33606V8.93444H9.35787V8.57997H9.33606V8.35639H9.42331V8.33458H10.1104V8.31276H10.4213V8.33458H10.6448V8.29095H10.6667V7.66927H10.6885V7.64746ZM10.0014 10.3141H10.0232V10.3359H10.0014V10.3141Z" fill="#437B41"/>
<path d="M1.35794 7.64746H1.9578V7.66927H2.00142V7.69109H2.02324V8.29095H2.00142V8.31276H2.02324V8.33458H2.64491V8.31276H2.66673V8.35639H2.71035V8.3782H2.68854V8.869H2.66673V8.95625H2.68854V8.99988H3.33203V9.02169H3.35384V9.24528H3.33203V9.31071H3.35384V9.59974H3.33203V9.67063H2.82487V9.64337H2.68854V9.67063H2.66673V9.69245H2.68854V9.98147H2.66673V10.3359H2.44314V10.3141H2.42133V10.3359H2.31226V10.3141H2.2032V10.3359H2.15412V10.3141H2.1323V10.3359H1.7124V10.3141H1.37975V10.3359H1.33612V10.3141H0.708994V10.2923H0.687181V10.2705H0.665368V9.67063H0.643555V9.62155H0.665368V9.31071H0.643555V9.22346H0.665368V8.33458H1.33612V8.31276H1.35794V8.24732H1.33612V8.2037H1.35794V7.64746Z" fill="#427A40"/>
<path d="M12.0245 2.97949H12.1554V3.00131H12.3353V2.97949H12.4226V3.00131H12.488V2.97949H12.5535V3.00131H12.6026V2.97949H13.3333V4.22284H13.3551V4.28828H13.3333V4.33736H13.0879V4.3101H12.8698V4.33736H12.6898V4.38099H12.668V4.51187H12.6898V4.95904H12.6462V4.98085H12.6244V5.00266H12.5535V4.98085H12.09V5.00266H12.0245V5.58071H12.0027V5.64615H11.9536V5.66797H11.8882V5.64615H11.5119V5.66797H11.3538V6.31145H10.6885V6.33327H10.6666V6.31145H10.6448V6.26783H10.6666V5.68978H10.6448V5.66797H10.6885V5.64615H11.3319V5.26987H11.3538V5.24806H11.3319V5.00266H11.3538V4.98085H11.4901V5.00266H11.9536V4.98085H12.0027V4.90996H12.0245V4.3101H12.668V4.09196H12.6898V3.66661H12.668V3.64479H12.1336V3.66661H12.0027V3.64479H12.0245V3.62298H12.0027V3.4921H12.0245V3.02312H12.0027V3.00131H12.0245V2.97949ZM9.37966 6.31145H10.6448V6.33327H10.6666V6.97676H10.0232V7.44574H10.0013V7.64751H9.95771V7.66932H9.91409V7.64751H8.75799V7.66932H8.6871V7.64751H8.66528V7.42393H8.6871V7.04765H8.66528V7.00402H8.6871V6.97676H8.86706V7.00402H9.0252V6.97676H9.17789V7.00402H9.33604V6.95494H9.35785V6.91132H9.33604V6.4696H9.35785V6.33327H9.37966V6.31145Z" fill="#88C34B"/>
<path d="M5.35518 1H7.31291V1.02181H7.33473V1.67075H5.35518V1ZM9.3579 1H10.6449V1.02181H10.6667V1.67075H9.33608V1.69257H9.3579V2.31424H9.33608V2.33606H7.35654V2.31424H7.33473V1.67075H9.31427V1.64349H9.3579V1ZM4.68988 1.67075H5.35518V1.93251H5.33337V2.31424H5.31156V2.33606H4.71169V2.29243H4.68988V1.67075ZM10.6667 1.67075H11.3102V1.69257H11.332V2.29243H11.3102V2.31424H11.2884V2.33606H10.6885V2.31424H10.6667V1.67075Z" fill="#000101"/>
<path d="M2.68854 3.62292H2.80306V3.64474H4.66808V3.68836H4.6899V3.9992H4.66808V4.2446H4.6899V4.42456H4.66808V4.44637H4.6899V4.53362H4.66808V4.55544H4.6899V4.62633H4.66808V4.7354H4.6899V4.93717H4.66808V4.95898H4.6899V4.98079H4.71171V5.00261H5.31157V4.98079H5.33338V5.00261H5.3552V6.28958H5.31157V6.3114H5.26794V6.33321H4.95711V6.3114H4.6899V6.33321H4.66808V6.3114H4.00278V5.66791H4.13366V5.6461H4.55356V5.66791H4.62446V5.6461H4.66808V5.08986H4.6899V5.04623H4.66808V5.00261H4.33543V4.98079H3.35384V4.9099H3.33203V4.33731H3.17933V4.31004H3.06481V4.33731H3.043V4.31004H2.68854V3.62292ZM5.3552 4.31004H5.99869V4.51181H6.0205V4.93717H5.99869V4.98079H5.97687V5.00261H5.51334V4.98079H5.33338V4.95898H5.3552V4.75721H5.33338V4.33731H5.3552V4.31004Z" fill="#88C34B"/>
<path d="M14.0204 6.97668H14.6476V7.00395H14.6694V8.31274H14.6912V8.33455H15.3347V9.62153H15.3565V9.64334H15.4219V9.67061H15.9345V9.64334H15.9782V9.67061H16V10.9794H15.3565V9.77968H15.3347V9.69242H15.3129V9.67061H14.8439V9.64334H14.6476V9.62153H14.6694V9.46884H14.6912V9.17981H14.6694V9.04348H14.6476V8.99986H13.5351V8.97804H13.3551V8.4927H13.3333V8.39999H13.3551V8.35637H13.3333V8.33455H12.7335V8.35637H12.668V8.33455H12.6462V8.31274H12.6244V8.2473H12.668V7.93646H12.6898V7.66925H12.7116V7.64744H13.3333V8.26911H13.3551V8.31274H13.3988V8.33455H13.955V8.31274H13.9768V8.29093H13.9986V7.89284H13.9768V7.80013H13.9986V7.73469H13.9768V7.66925H13.9986V7.60381H13.9768V7.48929H13.9986V7.44567H13.9768V7.38023H13.9986V7.29298H13.9768V7.2439H13.9986V7.00395H14.0204V6.97668Z" fill="#215137"/>
<path d="M0.665302 5.66797H1.33606V5.68978H1.35787V8.20375H1.33606V8.24738H1.35787V8.31282H1.33606V8.33463H0.665302V7.73477H0.687115V7.51118H0.665302V5.66797ZM0.0218132 8.33463H0.665302V9.22352H0.643488V9.31077H0.665302V9.62161H0.643488V9.67068H0.665302V10.2705H0.687115V10.2924H0.708928V10.3142H1.33606V10.336H1.35787V10.5105H1.33606V10.8213H1.35787V10.9577H1.30879V10.9795H0.687115V10.8486H0.665302V10.7559H0.687115V10.6686H0.665302V10.3142H0.0218132V10.2705H0V10.156H0.0218132V9.55617H0V9.35439H0.0218132V9.31077H0V8.99993H0.0218132V8.33463Z" fill="#000101"/>
<path d="M8.02181 2.33606H8.68711V2.97955H9.17791V3.00136H9.19972V2.97955H9.33605V3.00136H9.35787V3.04499H9.33605V3.22495H9.35787V3.60122H9.33605V3.64485H8.68711V4.31015H9.31424V4.33742H9.33605V4.55555H9.35787V4.95909H9.33605V4.98091H9.31424V5.00272H9.24335V4.98091H8.71438V4.95909H8.68711V4.59918H8.6653V4.51192H8.68711V4.4683H8.6653V4.44648H8.68711V4.33742H8.62167V4.31015H8.02181V4.33742H8V4.42467H7.95637V4.35923H7.91274V4.38104H7.89093V4.31015H7.97818V4.28834H8.02181V4.20109H8V4.07021H8.02181V3.0668H8V3.04499H8.02181V3.02317H8V3.00136H8.02181V2.33606ZM11.0429 4.31015H11.1575V4.33742H11.332V4.93728H11.3101V4.98091H11.2883V5.00272H11.0647V4.98091H10.9993V5.00272H10.6885V5.02453H10.6667V5.60258H10.623V5.64621H10.6012V5.62439H10.5576V5.64621H10.3122V5.66802H9.48874V5.64621H9.35787V5.04635H9.33605V4.98091H9.42331V5.00272H10.514V4.98091H10.623V4.95909H10.6667V4.35923H10.6885V4.33742H11.0429V4.31015Z" fill="#437B41"/>
<path d="M5.99866 1.67078H7.33471V2.31426H7.35653V2.33608H8.02183V3.00138H8.00002V3.02319H8.02183V3.04501H8.00002V3.06682H8.02183V4.07022H8.00002V4.2011H8.02183V4.28836H7.9782V4.31017H7.35653V4.28836H7.33471V3.66668H7.19838V3.64487H7.15476V3.62305H6.90936V3.64487H6.69123V3.60124H6.66941V2.97957H6.02047V2.31426H5.99866V2.19975H6.02047V1.7144H5.99866V1.67078ZM9.33607 1.67078H10.6667V2.31426H10.6449V2.33608H10.0232V2.3797H10.0014V2.69054H10.0232V2.97957H10.0668V3.00138H10.1541V2.97957H10.1759V3.00138H10.2904V2.97957H10.334V3.00138H10.3558V2.97957H10.6449V3.00138H10.6667V3.64487H10.623V3.66668H10.6012V3.64487H10.0232V4.28836H10.0014V4.31017H9.97956V4.33744H9.86504V4.31017H9.35788V4.33744H9.31426V4.31017H8.68713V3.64487H9.33607V3.60124H9.35788V3.22496H9.33607V3.04501H9.35788V3.00138H9.33607V2.97957H9.19974V3.00138H9.17793V2.97957H8.68713V2.33608H9.33607V2.31426H9.35788V1.69259H9.33607V1.67078Z" fill="#88C34B"/>
<path d="M13.3988 2.97957H13.4478V3.00138H13.9332V2.97957H13.9768V3.00138H13.9986V4.33744H14.6694V4.98092H14.713V5.00274H15.3347V6.97683H14.6912V6.95502H14.6694V5.73348H14.6912V5.68985H14.6694V5.62441H14.6912V5.58079H14.6694V5.06818H14.6912V5.04636H14.6694V5.00274H13.3551V4.98092H13.3333V4.28836H13.3551V4.22292H13.3333V3.00138H13.3988V2.97957ZM2.68849 1.67078H4.00274V2.04705H3.98092V2.11249H4.00274V2.31426H3.95366V2.33608H2.68849V4.9373H2.66668V4.98092H2.60124V5.00274H2.06682V4.98092H2.02319V2.33608H2.64487V2.31426H2.66668V2.29245H2.68849V1.67078Z" fill="#000101"/>
<path d="M8.02183 4.31006H8.62169V4.33733H8.68713V4.44639H8.66532V4.4682H8.68713V4.51183H8.66532V4.59908H8.68713V4.959H8.7144V4.98081H8.68713V6.31142H8.28904V6.33323H8.26723V6.31142H8.15816V6.33323H8.13635V6.31142H7.75462V6.33323H7.40016V6.31142H7.35653V5.93514H7.33472V5.68974H7.35653V5.29165H7.33472V5.00263H7.35653V4.98081H7.37834V5.00263H8.00002V4.959H8.02183V4.86629H8.00002V4.33733H8.02183V4.31006Z" fill="#88C34B"/>
<path d="M3.37561 10.9795H3.57739V11.0013H3.62101V10.9795H4.00274V11.0013H4.02456V10.9795H4.66805V11.0013H4.68986V11.2685H4.66805V11.3776H4.68986V12.201H4.66805V12.2228H4.68986V12.2665H4.66805V12.2883H4.64623V12.3101H4.58079V12.3374H4.55353V12.3101H3.31018V12.3374H3.24474V12.3101H2.82483V12.3374H2.6885V11.7375H2.66669V11.6666H3.1793V11.6448H3.3538V11.623H3.33199V11.0013H3.37561V10.9795Z" fill="#437B41"/>
<path d="M14.1786 5.64624H14.4894V5.66805H14.6694V5.68987H14.6912V5.73349H14.6694V6.95503H14.6912V7.00411H14.6476V6.97684H14.0204V7.00411H13.9986V7.24405H13.9768V7.29313H13.9986V7.38039H13.9768V7.44583H13.9986V7.48945H13.9768V7.60397H13.9986V7.66941H13.9768V7.73485H13.9986V7.80029H13.9768V7.893H13.9986V8.29109H13.9768V8.3129H13.955V8.33471H13.3988V8.3129H13.3551V8.26927H13.3333V7.35857H13.3551V6.40425H13.3333V6.33335H13.6223V6.31154H13.8023V6.33335H13.955V6.31154H13.9986V5.66805H14.1786V5.64624Z" fill="#427A40"/>
<path d="M14.5767 9.6216H14.6476V9.64341H14.8439V9.67068H15.3129V9.69249H15.3347V9.77975H15.3565V10.2924H15.3347V10.336H15.3129V10.3142H14.6912V10.3796H14.6694V10.4232H14.6912V10.6468H14.6694V10.6686H14.6912V10.9358H14.6694V10.9795H14.2222V11.0013H13.9986V10.6032H14.0205V10.5596H13.9986V10.336H13.9768V10.3142H13.3333V9.67068H13.3552V9.64341H14.5767V9.6216ZM12.0246 2.97949H12.1554V3.00131H12.3354V2.97949H12.4226V3.00131H12.4881V2.97949H12.5535V3.00131H12.6026V2.97949H13.3333V4.22284H13.3552V4.28828H13.3333V4.33736H13.0879V4.3101H12.8698V4.33736H12.6899V4.38099H12.668V4.51187H12.6899V4.95904H12.6462V4.98085H12.6244V5.00266H12.5535V4.98085H12.09V5.00266H12.0246V5.0681H11.9809V5.11173H11.9537V5.13354H11.9318V5.08992H11.91V5.0681H11.9318V5.04629H11.8882V5.02448H11.91V5.00266H11.9537V4.98085H12.0027V4.90996H12.0246V4.3101H12.668V4.09196H12.6899V3.66661H12.668V3.64479H12.1336V3.66661H12.0027V3.64479H12.0246V3.62298H12.0027V3.4921H12.0246V3.02312H12.0027V3.00131H12.0246V2.97949ZM2.02322 6.31145H3.04298V6.33327H3.09206V6.31145H3.33201V6.33327H3.35382V6.82406H3.33201V6.93313H3.35382V6.97675H4.00276V7.6257H3.98095V7.66932H3.93187V7.64751H2.68852V7.35849H2.66671V7.20034H2.68852V7.02583H2.66671V6.97675H2.37768V6.95494H2.31224V6.97675H2.02322V6.95494H2.0014V6.78044H2.02322V6.31145Z" fill="#88C34B"/>
<path d="M8.71436 4.31006H9.31422V4.33733H9.33604V4.55546H9.35785V4.959H9.33604V4.98081H9.31422V5.00263H9.24333V4.98081H8.71436V4.959H8.6871V4.59908H8.66528V4.51183H8.6871V4.4682H8.66528V4.44639H8.6871V4.33733H8.71436V4.31006ZM11.0429 4.31006H11.1574V4.33733H11.3319V4.93719H11.3101V4.98081H11.2883V5.00263H11.0647V4.98081H10.9993V5.00263H10.6885V5.02444H10.6666V5.60249H10.623V5.64612H10.6012V5.6243H10.5576V5.64612H10.3122V5.66793H9.48873V5.64612H9.35785V5.04625H9.33604V4.98081H9.42329V5.00263H10.5139V4.98081H10.623V4.959H10.6666V4.35914H10.6885V4.33733H11.0429V4.31006Z" fill="#215137"/>
<path d="M5.04437 8.31287H5.10981V8.33468H6.64764V8.35649H6.66945V8.53645H6.69126V8.97817H6.64764V8.99998H6.62037V8.97817H6.02051V9.57803H5.99869V9.67074H5.91144V9.64347H5.88963V9.67074H5.80238V9.64347H5.78056V9.62166H5.70967V9.64347H5.73148V9.67074H5.42065V9.64347H5.37702V9.62166H5.35521V9.15813H5.33339V8.99998H5.24614V8.97817H4.6899V8.84729H4.66809V8.78185H4.6899V8.33468H5.04437V8.31287ZM5.86782 9.62166V9.64347H5.88963V9.62166H5.86782Z" fill="#437B41"/>
<path d="M14.6912 8.33459H15.3347V9.62157H15.3565V9.64338H15.422V9.67065H15.9346V9.64338H15.9782V9.67065H16V10.9794H15.3565V9.77972H15.3347V9.69246H15.3129V9.67065H14.8439V9.64338H14.6476V9.62157H14.6694V9.46888H14.6912V9.17985H14.6694V9.04352H14.6476V8.9999H14.6694V8.68906H14.6912V8.37822H14.6694V8.35641H14.6912V8.33459Z" fill="#000101"/>
<path d="M4.84259 7.62573H5.18069V7.64755H5.31157V7.66936H5.3552V8.29103H5.33339V8.33466H5.1098V8.31285H5.04436V8.33466H4.6899V8.78183H4.66808V8.84727H4.6899V8.97815H4.66808V8.99996H4.48813V8.97815H4.17729V8.99996H4.0246V8.97815H4.00278V7.66936H4.0246V7.64755H4.58083V7.66936H4.62446V7.64755H4.84259V7.62573ZM0.665368 8.33466H2.02324V8.97815H1.97961V8.99996H1.35794V9.28899H1.33612V9.44713H1.35794V9.59982H1.37975V9.64345H1.35794V9.67072H0.888953V9.64345H0.687181V9.62164H0.665368V9.3108H0.643555V9.22355H0.665368V8.33466ZM7.33474 8.33466H8.68716V9.64345H8.64353V9.67072H8.15819V9.64345H8.00005V8.99996H7.79827V8.97815H7.422V8.99996H7.40018V8.97815H7.35656V8.95634H7.33474V8.33466ZM10.1105 8.31285H10.4213V8.33466H10.6449V8.35647H10.6667V9.64345H10.6231V9.67072H10.0232V9.64345H10.0014V9.46894H10.0232V9.04359H10.0014V8.99996H9.79963V8.97815H9.44517V8.99996H9.35792V8.95634H9.3361V8.93452H9.35792V8.58006H9.3361V8.35647H9.42335V8.33466H10.1105V8.31285Z" fill="#88C34B"/>
<path d="M11.332 2.33606H13.3333V2.97955H12.6026V3.00136H12.5535V2.97955H12.4881V3.00136H12.4226V2.97955H12.3354V3.00136H12.1554V2.97955H12.0245V3.00136H12.0027V2.97955H11.5992V3.00136H11.5337V2.97955H11.3538V2.93592H11.332V2.33606Z" fill="#000101"/>
<path d="M2.68854 4.31006H3.043V4.33733H3.06481V4.31006H3.17933V4.33733H3.33203V4.90992H3.35384V4.98081H3.31021V4.959H3.2884V4.98081H3.22296V5.00263H2.91212V4.98081H2.89031V4.959H3.02119V4.93719H2.99938V4.90992H2.97756V4.88811H2.93394V4.86629H2.91212V4.84448H2.89031V4.82267H2.91212V4.80085H2.89031V4.77904H2.91212V4.69179H2.89031V4.64816H2.80306V4.59908H2.75398V4.57727H2.71035V4.59908H2.68854V4.31006ZM3.35384 4.98081H4.33543V5.00263H4.66808V5.04625H4.6899V5.08988H4.66808V5.64612H4.62446V5.66793H4.55356V5.64612H4.13366V5.66793H3.98097V5.64612H3.84464V5.66793H3.80101V5.64612H3.44655V5.66793H3.42473V5.64612H3.35384V5.6243H3.33203V5.06807H3.35384V4.98081Z" fill="#437B41"/>
<path d="M14.0204 6.97668H14.6476V7.00395H14.6694V8.31274H14.6203V8.33455H14.0204V8.29093H13.9986V7.89284H13.9768V7.80013H13.9986V7.73469H13.9768V7.66925H13.9986V7.60381H13.9768V7.48929H13.9986V7.44567H13.9768V7.38023H13.9986V7.29298H13.9768V7.2439H13.9986V7.00395H14.0204V6.97668Z" fill="#000101"/>
<path d="M11.332 11.6447H11.7137V11.6665H12.0245V12.9807H11.4029V13.0026H11.3538V12.9371H11.332V12.4027H11.3538V12.3373H11.332V12.2882H11.3538V12.2227H11.332V12.1791H11.3538V12.1355H11.332V11.6447ZM7.37833 10.3141H8.00001V10.3359H8.02182V10.3795H8.00001V10.6686H8.02182V11.5574H8.00001V11.5793H8.02182V11.6447H7.95638V11.6665H7.40014V11.6447H7.35652V11.6011H7.3347V11.5574H7.35652V10.3359H7.37833V10.3141ZM3.37561 10.9794H3.57739V11.0012H3.62101V10.9794H4.00274V11.0012H4.02456V11.0448H4.00274V11.6229H3.98093V11.6447H3.82278V11.6665H3.75735V11.6447H3.49013V11.6665H3.3538V12.2664H3.33199V12.31H3.31018V12.3373H3.24474V12.31H2.82483V12.3373H2.6885V11.7374H2.66669V11.6665H3.1793V11.6447H3.3538V11.6229H3.33199V11.0012H3.37561V10.9794Z" fill="#88C34B"/>
<path d="M2.68854 12.9808H3.98097V13.0026H4.00278V13.199H4.02459V13.6025H4.00278V13.6461H2.68854V12.9808Z" fill="#000101"/>
<path d="M3.28836 4.95911H3.31018V4.98092H3.3538V5.06817H3.33199V5.62441H3.3538V5.64622H3.42469V5.66803H3.44651V5.64622H3.80097V5.66803H3.8446V5.64622H3.98093V5.66803H4.00274V6.24608H3.95366V6.31152H3.3538V6.33334H3.33199V6.18064H3.3538V5.97887H3.33199V5.68985H3.31018V5.66803H2.84665V5.64622H2.73213V5.66803H2.71031V5.64622H2.66669V5.53716H2.6885V5.33538H2.66669V5.06817H2.6885V5.02455H2.66669V5.00273H3.22292V4.98092H3.28836V4.95911Z" fill="#215137"/>
<path d="M1.35785 10.9795H1.88682V11.0013H2.00134V11.1813H2.02315V11.9993H2.00134V12.2883H1.97952V12.3101H1.35785V10.9795Z" fill="#000101"/>
<path d="M12.6244 11.6229H12.668V11.6447H12.6898V11.7374H12.668V11.7593H12.6898V12.7136H12.668V12.9808H12.2917V13.0026H12.1118V12.9808H12.0245V11.6666H12.6462V11.6447H12.6244V11.6229Z" fill="#437B41"/>
<path d="M10.6884 7.64746H11.3319V7.66927H11.3537V7.7129H11.3319V7.98011H11.3537V8.24732H11.3319V8.29095H11.2883V8.31276H11.3101V8.33458H10.7539V8.31276H10.6884V8.29095H10.6666V7.66927H10.6884V7.64746ZM11.4901 8.31276H11.9536V8.33458H11.9809V8.35639H12.0245V8.95625H12.0027V8.99988H11.3537V8.95625H11.3319V8.89081H11.3537V8.869H11.3319V8.84719H11.3537V8.68904H11.3319V8.44364H11.3537V8.40002H11.3319V8.35639H11.3537V8.33458H11.4901V8.31276Z" fill="#88C34B"/>
<path d="M1.35787 7.64746H1.95773V7.66927H2.00136V7.69109H2.02317V8.29095H2.00136V8.31276H2.02317V8.33458H1.33606V8.31276H1.35787V8.24732H1.33606V8.2037H1.35787V7.64746ZM2.02317 8.33458H2.04499V8.35639H2.02317V8.33458Z" fill="#437B41"/>
<path d="M6.02043 10.3142H6.59848V10.336H6.66937V10.3796H6.69118V10.8704H6.66937V10.9795H6.64756V11.0013H6.13495V10.9795H5.99861V10.9577H6.02043V10.6032H5.99861V10.336H6.02043V10.3142ZM11.3537 9.64343H11.8445V9.6707H12.0245V10.3142H11.3537V10.2924H11.3319V9.6707H11.3537V9.64343ZM5.35513 10.9795H5.93318V11.0013H5.99861V11.0231H6.02043V11.6012H5.99861V11.6448H5.91136V11.6666H5.35513V11.3776H5.33331V11.3558H5.35513V10.9795Z" fill="#88C34B"/>
<path d="M4.00277 2.33606H4.66807V2.35787H4.68988V2.95773H4.66807V2.97955H4.00277V2.8214H3.98096V2.37969H4.00277V2.33606Z" fill="#000101"/>
<path d="M15.3347 10.2924H15.3565V11.0013H15.3129V10.9795H14.8657V11.0013H14.713V10.9795H14.6694V10.9358H14.6912V10.6686H14.6694V10.6468H14.6912V10.4232H14.6694V10.3796H14.6912V10.3142H15.3129V10.336H15.3347V10.2924Z" fill="#427A40"/>
<path d="M6.69124 6.31145H7.06752V6.33327H7.31292V6.31145H7.33473V6.33327H7.35654V6.4696H7.31292V6.49141H7.35654V6.51322H7.31292V6.55685H7.35654V6.93313H7.33473V6.97675H7.26929V7.00402H7.15477V6.97675H7.08933V7.00402H7.04571V6.97675H6.71306V6.95494H6.66943V6.33327H6.69124V6.31145ZM4.00277 6.31145H4.58082V6.33327H4.55355V6.35508H4.66807V6.62229H4.68988V6.6441H4.66807V6.95494H4.68988V6.97675H4.64626V7.00402H4.48811V6.97675H4.00277V6.8895H3.98096V6.62229H4.00277V6.31145ZM4.66807 2.97949H5.20249V3.00131H5.26793V2.97949H5.31156V3.00131H5.35519V3.2467H5.33337V3.26852H5.35519V3.64479H5.33337V3.62298H5.31156V3.55754H5.28975V3.60117H5.24612V3.62298H5.28975V3.64479H5.26793V3.66661H5.24612V3.64479H4.7117V3.62298H4.66807V3.18126H4.68988V3.11037H4.66807V3.06674H4.68988V3.02312H4.66807V2.97949ZM13.1098 4.98085H13.2243V5.00266H13.2679V4.98085H13.3552V5.02448H13.3334V5.64615H13.3115V5.66796H12.6681V5.00266H13.1098V4.98085Z" fill="#215137"/>
<path d="M6.38039 4.98083H6.57671V5.00265H6.66941V5.02446H6.69123V5.64614H6.6476V5.66795H6.42401V5.64614H6.33131V5.66795H6.30949V5.64614H6.11318V5.66795H6.02047V5.46618H5.99866V5.44436H6.02047V5.35711H5.99866V5.3353H6.02047V5.22623H5.99866V5.00265H6.38039V4.98083Z" fill="#88C34B"/>
<path d="M4.6899 9.64343H5.1807V9.6707H5.28977V9.69251H5.33339V9.71433H5.31158V9.80158H5.35521V10.2706H5.33339V10.3142H5.31158V10.2924H5.26795V10.3142H5.28977V10.336H5.22433V10.3142H4.6899V10.2706H4.66809V10.0906H4.6899V10.0252H4.66809V9.6707H4.6899V9.64343Z" fill="#4D8C45"/>
<path d="M6.90934 3.62292H7.15474V3.64474H7.19837V3.66655H7.3347V4.28823H7.31288V4.31004H7.29107V4.33731H6.95842V4.31004H6.69121V3.84651H6.6694V3.68836H6.64758V3.64474H6.90934V3.62292Z" fill="#215137"/>
<path d="M3.02115 10.9795H3.33199V11.623H3.3538V11.6448H3.1793V11.6666H2.66669V11.2031H2.6885V11.0013H3.02115V10.9795Z" fill="#437B41"/>
<path d="M14.424 11.6229H14.4676V11.6447H14.6203V11.6666H14.6694V12.31H14.0477V12.2882H13.9768V12.2664H13.9986V11.6666H14.0204V11.6447H14.424V11.6229Z" fill="#000101"/>
<path d="M11.2883 11.6448H11.3319V12.1356H11.3537V12.1792H11.3319V12.2228H11.3537V12.2883H11.3319V12.3373H11.3537V12.4028H11.3101V12.3592H11.2883V12.3373H11.0211V12.3101H10.6884V12.2883H10.6666V11.6666H11.2883V11.6448Z" fill="#437B41"/>
<path d="M11.3538 2.97949H11.5337V3.00131H11.5992V2.97949H12.0027V3.02312H12.0245V3.4921H12.0027V3.62298H11.9809V3.64479H11.3538V3.57935H11.332V3.51391H11.3538V3.22489H11.332V3.20308H11.3538V3.02312H11.332V3.00131H11.3538V2.97949Z" fill="#215137"/>
<path d="M5.35513 6.31152H5.9768V6.33334H5.99861V6.5133H6.02043V6.9332H5.99861V6.95501H6.02043V6.97682H5.33331V6.95501H5.35513V6.35515H5.33331V6.33334H5.35513V6.31152ZM7.17653 11.6448H7.24742V11.6667H7.31286V11.6448H7.33467V11.6667H7.35648V11.7103H7.33467V12.0702H7.31286V12.2665H7.35648V12.3101H7.31286V12.3374H7.17653V12.3101H7.04565V12.3374H6.713V12.3101H6.66937V11.6667H7.17653V11.6448Z" fill="#88C34B"/>
<path d="M14.8657 10.9795H15.3128V11.0013H15.3346V11.6448H14.6911V11.623H14.6693V11.6012H14.6475V11.5139H14.6693V11.4921H14.6911V11.4703H14.6693V11.0449H14.6911V11.0013H14.8657V10.9795ZM1.35785 5.00269H2.00134V5.0245H2.02315V5.40078H2.00134V5.55892H2.02315V5.64617H2.00134V5.66799H1.37966V5.64617H1.35785V5.00269Z" fill="#000101"/>
<path d="M6.69119 9.64343H6.75663V9.6707H7.35649V9.73614H7.33467V9.91064H7.35649V10.2215H7.33467V10.2924H7.31286V10.3142H6.713V10.2924H6.69119V10.2487H6.66937V9.82339H6.69119V9.77976H6.66937V9.6707H6.69119V9.64343Z" fill="#88C34B"/>
<path d="M12.8698 4.31006H13.0879V4.33733H13.3333V4.98081H13.2679V5.00263H13.2243V4.98081H13.1097V5.00263H12.6244V4.98081H12.6462V4.959H12.6898V4.51183H12.668V4.38095H12.6898V4.33733H12.8698V4.31006Z" fill="#437B41"/>
<path d="M2.68854 2.33606H3.35384V2.4015H3.33203V2.60327H3.35384V2.91411H3.33203V2.97955H3.31021V3.00136H2.93394V2.97955H2.89031V3.00136H2.84668V2.97955H2.71035V3.00136H2.68854V2.33606Z" fill="#88C34B"/>
<path d="M2.57943 12.3101H2.68849V12.9372H2.66668V12.959H2.64487V12.9808H2.02319V12.3373H2.57943V12.3101Z" fill="#000101"/>
<path d="M12.3354 8.9563H12.3572V8.97811H12.4226V8.9563H12.4444V8.97811H12.6026V8.99993H12.668V9.51253H12.6898V9.64341H12.668V9.67068H12.6462V9.64341H12.2427V9.67068H12.1336V9.64341H12.0682V9.6216H12.0245V8.99993H12.0463V8.97811H12.1118V8.99993H12.1336V8.97811H12.1772V8.99993H12.2917V8.97811H12.3354V8.9563Z" fill="#88C34B"/>
<path d="M8.02185 2.33606H8.68715V2.95773H8.64353V3.00136H8.57809V2.97955H8.02185V2.33606Z" fill="#215137"/>
<path d="M2.68854 4.31006H3.043V4.33733H3.06481V4.31006H3.17933V4.33733H3.33203V4.90992H3.35384V4.98081H3.31021V4.959H3.2884V4.98081H3.22296V5.00263H2.91212V4.98081H2.89031V4.959H3.02119V4.93719H2.99938V4.90992H2.97756V4.88811H2.93394V4.86629H2.91212V4.84448H2.89031V4.82267H2.91212V4.80085H2.89031V4.77904H2.91212V4.69179H2.89031V4.64816H2.80306V4.59908H2.75398V4.57727H2.71035V4.59908H2.68854V4.31006ZM3.35384 4.98081H3.37565V5.00263H3.35384V4.98081ZM5.08799 9.73608H5.1098V9.7579H5.13161V9.73608H5.24613V9.80152H5.22432V9.84515H5.20251V9.88878H5.18069V9.9324H5.15343V9.98148H5.13161V10.0251H5.1098V10.0687H5.06617V10.0905H5.04436V10.1124H5.00073V10.1342H4.97892V10.156H5.00073V10.1778H4.95711V10.156H4.86985V10.0905H4.82077V9.95967H4.84259V9.9324H4.82077V9.88878H4.86985V9.86696H4.89167V9.84515H4.91348V9.82334H4.95711V9.80152H4.93529V9.77971H4.97892V9.82334H5.00073V9.7579H5.02255V9.77971H5.04436V9.7579H5.08799V9.73608ZM4.84259 9.82334H4.86985V9.86696H4.84259V9.82334Z" fill="#437B41"/>
<path d="M12.0245 2.97949H12.1554V3.00131H12.3353V2.97949H12.4226V3.00131H12.488V2.97949H12.5535V3.00131H12.6025V2.97949H13.3333V3.42121H13.2897V3.31214H13.2678V3.29033H13.2897V3.2467H13.2678V3.20308H13.2242V3.13218H13.2024V3.11037H13.1806V3.08856H13.1588V3.06674H13.1315V3.04493H12.0899V3.02312H12.0027V3.00131H12.0245V2.97949Z" fill="#9FD862"/>
<path d="M3.49017 11.6447H3.75738V11.6884H3.7792V11.7102H3.73557V11.7374H3.75738V11.7593H3.64286V11.7811H3.62105V11.7593H3.59924V11.7811H3.55561V11.8029H3.5338V11.8247H3.51198V11.8683H3.49017V11.8901H3.46836V11.9119H3.44655V11.9774H3.42473V12.0265H3.40292V12.201H3.46836V12.2228H3.49017V12.2446H3.51198V12.2882H3.5338V12.31H3.33203V12.2664H3.35384V11.6665H3.49017V11.6447ZM3.49017 11.7811V11.8029H3.5338V11.7811H3.49017ZM3.51198 12.2228H3.5338V12.2446H3.51198V12.2228ZM2.71035 4.57727H2.75398V4.59908H2.80306V4.64816H2.89031V4.69179H2.91212V4.77904H2.89031V4.80086H2.91212V4.82267H2.89031V4.84448H2.91212V4.86629H2.93394V4.88811H2.97756V4.90992H2.99938V4.93719H3.02119V4.959H2.89031V4.98081H2.91212V5.00263H2.73216V4.98081H2.71035V4.959H2.68854V4.59908H2.71035V4.57727Z" fill="#4D8C45"/>
<path d="M15.2474 10.6687H15.2692V10.6905H15.291V10.6687H15.3565V11.0014H15.3128V10.9795H14.8657V11.0014H14.7566V10.9359H14.8438V10.9141H14.9366V10.8923H15.1547V10.8487H15.1329V10.8214H15.1765V10.7996H15.2256V10.756H15.2474V10.7123H15.2256V10.6905H15.2474V10.6687Z" fill="#4B8A44"/>
<path d="M9.33606 1.67078H10.6012V1.69259H10.5794V1.7144H10.5576V1.69259H10.4431V1.7144H10.3558V1.69259H9.84322V1.7144H9.6469V1.73622H9.62508V1.7144H9.48875V1.73622H9.46694V1.77984H9.44513V1.80166H9.46694V1.82347H9.44513V1.88891H9.42331V1.93253H9.4015V1.95435H9.37969V2.00343H9.4015V2.02524H9.37969V2.06887H9.35787V1.69259H9.33606V1.67078ZM10.514 1.7144H10.5576V1.75803H10.4922V1.73622H10.514V1.7144Z" fill="#9FD862"/>
<path d="M4.13361 2.97949H4.64622V3.00131H4.66803V3.02312H4.68984V3.06674H4.66803V3.08856H4.6244V3.15945H4.58078V3.13218H4.50988V3.11037H4.46626V3.13218H4.42263V3.11037H4.35719V3.08856H4.31356V3.06674H4.26448V3.04493H4.24267V3.02312H4.15542V3.00131H4.13361V2.97949Z" fill="#4D8C45"/>
<path d="M2.68854 3.62304H2.71035V3.64485H2.73216V3.66666H2.77579V4.04839H2.75398V4.2229H2.77579V4.26652H2.80306V4.28834H2.82487V4.31015H2.68854V3.62304ZM8.68716 2.33606H9.31429V2.35787H9.26521V2.37969H9.19977V2.4015H9.17795V2.42331H8.77986V2.44513H8.73624V2.46694H8.71442V2.48875H8.68716V2.33606Z" fill="#9FD862"/>
<path d="M2.68854 4.31006H3.043V4.38095H2.99938V4.40276H2.95575V4.42458H2.93394V4.4682H2.89031V4.49002H2.75398V4.4682H2.73216V4.44639H2.68854V4.31006Z" fill="#215137"/>
<path d="M10.6884 2.33606H11.1792V2.35787H11.1574V2.37969H11.1356V2.42331H11.092V2.44513H11.0647V2.42331H11.0429V2.44513H10.8248V2.42331H10.7321V2.4015H10.7103V2.37969H10.6666V2.35787H10.6884V2.33606Z" fill="#4D8C45"/>
<path d="M4.02459 8.84715H4.04641V8.86896H4.06822V8.89078H4.13366V8.9344H4.48812V8.91259H4.50994V8.9344H4.53175V8.91259H4.55356V8.9344H4.64627V8.95622H4.62446V8.97803H4.64627V8.99984H4.48812V8.97803H4.17729V8.99984H4.02459V8.97803H4.00278V8.86896H4.02459V8.84715ZM4.46631 8.89078H4.48812V8.91259H4.46631V8.89078ZM4.50994 8.89078H4.53175V8.91259H4.50994V8.89078ZM2.68854 12.1573H2.71035V12.1791H2.73216V12.2009H2.75398V12.2227H2.82487V12.2664H3.2884V12.2882H3.33203V12.31H3.31021V12.3373H3.24477V12.31H2.82487V12.3373H2.68854V12.1573ZM13.2679 3.80286H13.2897V3.91192H13.3334V4.22276H13.3552V4.2882H13.3334V4.33728H13.2679V4.31001H13.2461V4.2882H13.2025V4.26639H13.2243V4.24457H13.2025V4.22276H13.2243V4.17913H13.2461V4.07007H13.2679V3.80286Z" fill="#9FD862"/>
<path d="M12.668 10.7341H12.7335V10.7559H12.7553V10.7778H12.7771V10.7996H12.7989V10.8486H12.8207V10.8923H12.8425V10.9359H12.8698V10.9577H12.8916V10.9795H12.8425V11.0013H12.6898V10.9795H12.668V10.7341Z" fill="#4D8C45"/>
<path d="M3.20112 7.57666H3.22294V7.60393H3.26656V7.57666H3.28838V7.60393H3.31019V7.57666H3.332V7.60393H3.35382V7.57666H3.4029V7.60393H3.42471V7.57666H3.44652V7.60393H3.46834V7.57666H3.49015V7.60393H3.71373V7.62574H3.73555V7.64755H2.97754V7.62574H2.95573V7.60393H3.20112V7.57666ZM3.73555 7.60393H3.75736V7.62574H3.73555V7.60393ZM3.75736 7.62574H3.77917V7.64755H3.75736V7.62574ZM0.665344 8.33467H1.22158V8.37829H1.19977V8.35648H1.17795V8.37829H0.867116V8.35648H0.779863V8.37829H0.75805V8.40011H0.736237V8.42192H0.708971V8.44373H0.736237V8.49281H0.708971V8.68913H0.687157V8.62369H0.665344V8.33467Z" fill="#9FD862"/>
<path d="M4.75531 2.33606H5.28973V2.35787H5.26792V2.37969H5.24611V2.4015H5.22429V2.42331H5.13159V2.44513H5.08796V2.42331H5.06615V2.44513H5.04433V2.42331H4.9789V2.4015H4.86983V2.37969H4.82075V2.35787H4.75531V2.33606Z" fill="#4D8C45"/>
<path d="M7.3783 2.33606H8.02178V2.48875H7.97816V2.42331H7.93453V2.4015H7.84728V2.37969H7.77639V2.4015H7.75457V2.37969H7.71095V2.4015H7.66732V2.37969H7.50917V2.35787H7.3783V2.33606Z" fill="#9FD862"/>
<path d="M3.02114 10.9795H3.33198V11.0886H3.28835V11.1104H3.22291V11.1595H3.2011V11.1104H3.17929V11.0886H3.11385V11.0449H3.02114V11.0231H2.99933V11.0013H3.02114V10.9795ZM3.28835 11.1104H3.33198V11.1376H3.28835V11.1104Z" fill="#4C8B44"/>
<path d="M13.846 5.00269H14.6694V5.04631H14.6912V5.06813H14.6694V5.24808H14.6203V5.17719H14.5985V5.08994H14.5767V5.06813H14.5985V5.0245H14.5331V5.04631H14.424V5.0245H13.846V5.00269ZM13.3552 5.00269H13.8023V5.0245H13.4697V5.04631H13.4479V5.06813H13.4206V5.11175H13.3988V5.53711H13.377V5.51529H13.3552V5.42259H13.377V5.37896H13.3552V5.29171H13.377V5.24808H13.3552V5.04631H13.377V5.0245H13.3552V5.00269ZM13.4206 5.0245V5.04631H13.4479V5.0245H13.4206Z" fill="#9FD862"/>
<path d="M13.955 10.7996H13.9987V10.9795H13.955V11.0013H13.7805V10.9795H13.7096V10.9577H13.666V10.9359H13.7315V10.9141H13.8023V10.8923H13.9114V10.9141H13.9332V10.8923H13.955V10.8705H13.9332V10.8486H13.955V10.7996Z" fill="#4D8C45"/>
<path d="M10.5575 5.62439H10.6012V5.6462H10.6666V5.66802H10.6448V5.68983H10.6666V5.77708H10.5357V5.75527H10.4921V5.73346H10.4212V5.68983H10.3558V5.66802H10.4212V5.6462H10.5575V5.62439Z" fill="#4C8B44"/>
<path d="M10.623 1.6925H10.6667V2.31418H10.6448V2.33599H10.6012V2.31418H10.5794V2.27055H10.623V1.6925ZM14.6694 9.6434H14.8439V9.67067H15.3129V9.69248H15.2474V9.7143H14.7566V9.67067H14.6694V9.6434Z" fill="#9FD862"/>
<path d="M10.7539 12.2665H11.2229V12.3101H11.2447V12.3374H11.0211V12.3101H10.7539V12.2665Z" fill="#4D8C45"/>
<path d="M11.332 11.6447H11.6646V11.6665H11.6919V11.6884H11.4901V11.7102H11.4465V11.7374H11.4247V11.7593H11.4029V11.7811H11.381V11.8247H11.3538V11.7811H11.332V11.6447ZM5.95502 4.31006H5.99864V4.51183H6.02046V4.86629H5.97683V4.84448H5.95502V4.82267H5.97683V4.53364H5.95502V4.31006Z" fill="#9FD862"/>
<path d="M3.31016 9.44713H3.35379V9.59982H3.33198V9.67072H3.17928V9.64345H3.15747V9.59982H3.22291V9.57801H3.24472V9.5562H3.26654V9.49076H3.28835V9.53438H3.31016V9.44713ZM3.98092 7.62573H4.04636V7.64755H4.02454V7.66936H4.00273V8.06745H3.95365V7.93657H3.93184V7.80024H3.95365V7.77842H3.93184V7.75661H3.95365V7.66936H3.98092V7.62573Z" fill="#4D8C45"/>
<path d="M14.3803 6.88945H14.4239V6.91126H14.3803V6.88945ZM14.6203 6.84583H14.6693V6.95489H14.6911V7.00397H14.6475V6.9767H14.5112V6.95489H14.4894V6.93308H14.4239V6.91126H14.4457V6.88945H14.4894V6.86764H14.5112V6.88945H14.5766V6.91126H14.6203V6.84583ZM14.3803 6.93308H14.4239V6.95489H14.4457V6.9767H14.4021V6.95489H14.3803V6.93308Z" fill="#215137"/>
<path d="M13.2024 4.33734H13.3333V4.51185H13.2897V4.53366H13.2242V4.4246H13.2024V4.33734ZM11.6646 3.64478H11.8882V3.66659H11.9809V3.6884H11.9536V3.71021H11.9809V3.73203H11.9318V3.71021H11.8227V3.73203H11.8009V3.71021H11.5991V3.6884H11.5773V3.66659H11.6646V3.64478ZM13.2897 10.2214H13.3333V10.3142H13.5787V10.336H13.5133V10.3578H13.4914V10.4014H13.3551V10.3796H13.3115V10.336H13.2897V10.2214Z" fill="#4D8C45"/>
<path d="M4.0682 7.64746H4.58081V7.66927H4.4881V7.69109H4.33541V7.7129H4.3136V7.69109H4.24271V7.7129H4.22089V7.69109H4.17727V7.66927H4.15545V7.69109H4.13364V7.66927H4.11183V7.69109H4.09001V7.66927H4.0682V7.64746ZM4.04639 7.66927H4.0682V7.7129H4.04639V7.66927ZM15.2911 9.73607H15.3347V9.7797H15.3565V10.0687H15.3129V10.0469H15.2911V9.73607Z" fill="#9FD862"/>
<path d="M1.37966 6.53503H1.40148V6.75862H1.42329V6.78043H1.40148V6.80225H1.42329V6.95494H1.35785V6.66591H1.37966V6.53503ZM6.69117 6.97675H6.75661V7.00402H6.88749V7.02583H6.84386V7.04764H6.80023V7.06946H6.77842V7.09127H6.75661V7.1349H6.71298V7.11308H6.69117V7.06946H6.66935V7.00402H6.69117V6.97675ZM3.71367 8.22555H3.7573V8.24737H3.80092V8.22555H3.84455V8.24737H3.86636V8.26918H3.88818V8.24737H3.90999V8.26918H3.9318V8.29099H3.62097V8.26918H3.66459V8.24737H3.71367V8.22555Z" fill="#4D8C45"/>
<path d="M10.6449 5.66797H10.8248V5.68978H10.803V5.7116H10.7758V5.73341H10.7539V5.75522H10.7321V5.77703H10.6885V5.82611H10.6667V5.68978H10.6449V5.66797ZM5.24612 7.64751H5.31156V7.66933H5.35518V7.75658H5.24612V7.71295H5.2243V7.66933H5.24612V7.64751Z" fill="#9FD862"/>
<path d="M11.2884 2.44507H11.332V2.71228H11.2884V2.55959H11.2665V2.53232H11.2884V2.44507Z" fill="#215137"/>
<path d="M14.5985 5.53711H14.6203V5.55892H14.6694V5.58073H14.6912V5.62436H14.6694V5.66799H14.6203V5.64617H14.5985V5.62436H14.533V5.60255H14.5548V5.55892H14.5985V5.53711ZM13.3551 10.1997H13.3769V10.2215H13.3987V10.2488H13.4206V10.2706H13.4915V10.2924H13.5133V10.3142H13.3333V10.2488H13.3551V10.1997ZM13.3551 9.64344H13.6223V9.6707H13.4696V9.69252H13.4478V9.71433H13.3987V9.73614H13.3769V9.69252H13.3551V9.64344ZM11.91 5.00269H12.0245V5.06813H11.9809V5.11175H11.9536V5.13356H11.9318V5.08994H11.91V5.06813H11.9318V5.04631H11.8882V5.0245H11.91V5.00269Z" fill="#9FD862"/>
<path d="M7.97818 4.28833H8.04362V4.31014H8.02181V4.33741H8V4.42466H7.95637V4.35922H7.91274V4.38104H7.89093V4.31014H7.97818V4.28833Z" fill="#4D8C45"/>
<path d="M1.37966 6.53503H1.40148V6.75862H1.42329V6.78043H1.40148V6.80225H1.37966V6.82406H1.35785V6.66591H1.37966V6.53503Z" fill="#4C8A44"/>
<path d="M11.3538 12.8664H11.4028V12.8882H11.4247V12.9373H11.4465V12.9591H11.4683V12.9809H11.4028V13.0027H11.3538V12.8664ZM13.9986 10.8487H14.0695V10.9141H14.0913V10.9359H14.1349V10.9577H13.9986V10.8487ZM3.15747 6.31152H3.33198V6.33334H3.35379V6.35515H3.31016V6.37696H3.28835V6.40423H3.26654V6.37696H3.24472V6.35515H3.22291V6.33334H3.15747V6.31152ZM3.24472 6.40423H3.26654V6.42604H3.24472V6.40423Z" fill="#9FD862"/>
<path d="M6.66938 4.93726H6.69119V4.95907H6.71301V5.19901H6.69119V5.02451H6.66938V5.0027H6.64757V4.98088H6.6203V4.95907H6.66938V4.93726Z" fill="#4D8C45"/>
<path d="M7.35651 4.98083H7.37832V5.00265H7.53646V5.02446H7.42195V5.04627H7.40013V5.0899H7.37832V5.11171H7.35651V4.98083Z" fill="#9FD862"/>
</svg>
