<svg width="64" height="64" viewBox="0 0 64 64" fill="none" xmlns="http://www.w3.org/2000/svg">
<mask id="mask0_170_66" style="mask-type:luminance" maskUnits="userSpaceOnUse" x="1" y="0" width="62" height="64">
<path d="M1 0H62.4806V63.9999H1V0Z" fill="white"/>
</mask>
<g mask="url(#mask0_170_66)">
<path d="M25.3462 0.346191H37.1346V0.423114H37.4423V0.500037H37.5192V1.36542H40.2884V1.44234H40.3654V1.59619H40.4423V2.15388H40.3654V2.30773H40.4423V2.38465H43.1923V2.46157H43.2692V2.53849H43.3461V3.32695H44.0384V3.40388H44.1153V3.4808H44.1923V3.55772H44.2692V4.34618H45.1153V4.42311H45.1923V4.65387H45.25V4.80772H45.1923V5.28849H45.25V5.36541H46.0961V5.51926H46.173V6.30772H48.0192V6.38464H48.0961V7.25002H48.25V7.32694H49.9999V8.1731H50.0769V8.26925H51.7692V8.34617H51.923V8.65386H51.9999V8.88463H51.923V9.1154H51.9999V9.19233H52.1538V9.26925H52.7692V9.3654H52.8461V9.51925H52.923V10.2116H53.7499V10.2885H53.8269V11.2308H54.7499V11.3077H54.8269V12.0962H54.7499V12.3269H54.8269V13.1923H55.673V13.2692H55.7499V15.1538H56.0576V15.2308H56.7499V17.1154H57.5192V17.1923H57.5961V17.2692H57.673V17.3462H57.7499V20.0961H58.2692V20.1731H58.4999V20.25H58.5769V20.3269H58.6538V21.0385H58.8076V21.1154H59.5768V21.2692H59.6538V24.0192H59.8076V24.0961H60.5768V30.75H60.4999V30.8269H59.7307V30.9038H59.6538V31.923H59.5768V32.4038H59.6538V33.5769H59.5768V33.8077H58.8845V33.8846H58.6538V34.5961H58.5769V34.673H58.4999V34.75H58.1922V34.8269H57.7499V35.2884H57.673V35.6153H57.5961V35.6923H57.5192V35.7692H56.9807V35.8461H56.7499V37.6538H56.673V37.7307H56.5961V37.8076H55.8269V37.8846H55.7499V39.673H55.5961V39.7692H54.8269V39.8461H54.7499V40.0769H54.8269V41.5576H54.7499V41.6346H54.673V41.7115H53.8269V42.5769H53.7499V42.6538H53.4615V42.7307H52.923V43.2884H52.8461V43.5961H52.7692V43.673H51.9999V43.7499H51.923V44.4615H51.8461V44.5384H51.7692V44.6153H51.3846V44.6922H50.9999V45.4038H50.923V45.6345H49.0961V46.423H49.0192V46.5769H48.9423V46.6538H47.173V46.7307H47.0961V47.5192H47.0192V47.5961H46.0961V47.673H45.1923V48.4615H45.1153V48.5384H45.0384V48.6153H41.423V48.6922H41.3461V49.3268H41.2692V49.4807H41.1923V49.5576H40.9807V49.6345H39.4423V50.423H39.3654V50.4999H39.2884V50.5768H37.5192V53.6345H37.9038V53.7115H38.2115V53.7884H38.3654V53.9422H38.4423V54.173H38.5192V54.5768H38.6731V54.6538H39.2115V54.7307H39.3654V54.8076H39.4423V57.3076H39.3654V57.3845H39.2884V57.4614H38.8269V57.5576H38.5192V58.0191H38.4423V58.2499H38.3654V58.4038H38.1346V58.4807H35.6923V58.5576H35.6154V59.1922H35.5384V59.3461H35.4615V59.423H34.7692V59.4999H33.6923V59.7499H33.6154V60.2114H33.5384V60.3653H33.3077V60.4422H32.7692V60.5191H32.6923V60.9999H32.6154V61.3076H32.5577V61.3845H32.3269V61.4614H30.0962V61.3845H29.9423V61.0768H29.8654V60.5191H29.7885V60.4422H29.0962V60.3653H29.0192V60.2114H28.9423V59.4999H28.4808V59.423H26.1923V59.4999H24.5769V59.423H24.2115V59.2691H24.1346V58.5576H24.0577V58.4807H23.2885V58.4038H23.2116V58.2499H23.1346V56.923H23.2116V56.6922H23.2885V56.6153H24.0577V56.5384H24.1346V55.7499H24.2115V55.673H24.2692V55.5961H25.0385V54.0961H25.1154V53.7115H25.1923V53.6345H25.9615V53.5576H26.0385V51.5961H23.2885V51.5192H23.2116V51.3653H23.1346V50.5768H20.2885V49.6345H18.6154V49.5576H18.4616V49.4807H18.3846V48.6922H18.3077V48.6153H17.5385V48.5384H17.4616V48.3845H17.3846V47.673H17.3077V47.5961H16.6923V47.673H15.9231V47.5961H15.5577V47.5192H15.4808V46.7307H15.4039V46.6538H14.7116V46.5769H14.5577V45.7115H14.4808V45.6345H13.6347V45.7115H13.25V45.6345H12.6347V45.4038H12.5577V44.6922H11.8654V44.6153H11.6347V43.7499H11.5V43.673H10.7308V43.3653H10.6539V42.9807H10.7308V42.8076H10.6539V42.7307H9.88466V42.6538H9.80774V42.5769H9.73081V41.8076H9.65389V41.7115H8.80774V41.6346H8.73082V39.7692H7.88466V39.673H7.80774V37.8846H7.73082V37.8076H6.9039V37.7307H6.82697V35.8461H6.36544V35.7692H5.98082V35.6923H5.9039V35.4423H5.82698V34.8269H5.21159V34.75H4.98083V34.673H4.9039V33.8846H4.67313V33.8077H3.98083V33.6538H3.90391V30.9038H3.82698V30.8269H3.07698V30.75H3.00006V24.1731H3.07698V24.0961H3.82698V24.0192H3.90391V21.4231H3.98083V21.1154H4.82698V21.0385H4.9039V20.3269H4.98083V20.25H5.05775V20.1731H5.44236V20.0961H5.82698V17.5H5.9039V17.1923H6.13467V17.1154H6.82697V15.2308H7.21159V15.1538H7.80774V13.2692H7.88466V13.1923H8.73082V11.4039H8.80774V11.2308H9.65389V11.1539H9.73081V10.3846H9.80774V10.2885H9.96158V10.2116H10.6539V9.51925H10.7308V9.3654H10.8077V9.26925H11.5V9.19233H11.577V9.1154H11.6347V8.4231H11.7116V8.34617H13.327V8.26925H13.5577V7.40387H13.6347V7.32694H15.4039V7.25002H15.4808V6.38464H15.5577V6.30772H17.3846V5.44233H17.4616V5.36541H18.3077V5.28849H18.3846V4.42311H18.4616V4.34618H19.3077V3.94234H19.3846V3.4808H19.4616V3.40388H19.5385V3.32695H20.2116V2.61542H20.2885V2.46157H20.3654V2.38465H22.1346V2.30773H22.2116V1.44234H22.2885V1.36542H25.0385V0.500037H25.1154V0.423114H25.3462V0.346191Z" fill="#295159"/>
<path d="M25.3462 0.346191H37.1346V0.423114H37.4423V0.500037H37.5192V1.36542H40.2884V1.44234H40.3654V1.59619H40.4423V2.15388H40.3654V2.30773H40.4423V2.38465H43.1923V2.46157H43.2692V2.53849H43.3461V3.32695H44.0384V3.40388H44.1153V3.4808H44.1923V3.55772H44.2692V4.34618H45.1153V4.42311H45.1923V4.65387H45.25V4.80772H45.1923V5.28849H45.25V5.36541H46.0961V5.51926H46.173V6.30772H48.0192V6.38464H48.0961V7.25002H47.9423V7.32694H47.7115V7.25002H47.25V7.32694H47.173V9.19233H48.0192V9.26925H48.0961V11.0769H48.173V11.2308H49.0961V14.1346H49.9999V14.2115H50.0769V18.0577H49.9999V18.1346H49.0961V20.0961H48.173V20.1731H48.0961V22.0577H47.25V22.1346H47.173V23.0769H46.25V23.1538H46.173V23.4615H46.25V23.6154H46.173V23.6923H46.25V23.7692H46.173V24.0192H45.3269V24.0961H45.25V24.9423H45.1153V25.0384H43.3461V25.9615H42.8077V26.0384H42.6538V25.9615H42.2692V26.0384H41.9615V25.9615H40.8269V26.0384H40.4423V26.9807H38.5192V27.9231H38.4423V28H37.5192V28.9423H35.6923V29.0192H35.6154V29.3461H35.6923V29.7307H35.6154V29.9615H33.7692V30.0384H33.6923V30.9038H31.4038V30.9807H31.0192V30.9038H26.9615V29.9615H25.0385V29.0192H24.9615V28.9423H24.1346V28H24.0577V27.9231H23.3654V28H23.2885V27.9231H23.1346V25.0384H22.9808V24.9423H22.5192V25.0384H19.4616V24.9423H19.3846V24.8654H19.3077V24.0961H19.2308V24.0192H18.3077V23.1538H18.2308V23.0769H17.3846V22.1346H17.3077V22.0577H16.3846V19.1538H15.4808V17.1923H15.4039V17.1154H15.4808V13.1154H15.7116V13.1923H16.3846V10.9231H16.3077V10.7692H16.3846V10.3846H16.3077V10.0577H16.3846V9.26925H16.4616V9.19233H17.3077V9.26925H17.3846V12.25H18.9231V12.1731H19.1539V12.25H19.3077V12.5769H19.3846V12.9615H19.3077V13.1923H17.3846V15.1538H17.2308V15.2308H16.3846V17.9038H16.4616V18.1346H17.3077V18.2115H17.3846V19.0769H18.3077V19.1538H18.3846V20.6346H18.3077V20.8846H18.3846V21.0385H18.5385V21.1154H18.7693V21.0385H19.5385V21.1154H20.2116V21.1923H20.2885V21.3461H20.2116V21.9808H20.2885V22.0577H21.1346V22.1346H21.2116V23H21.3654V23.0769H22.1346V22.1346H22.2116V22.0577H23.0577V22.1346H23.1346V23.9231H23.2116V24.0192H23.5192V24.0961H23.75V24.0192H24.0577V24.0961H24.1346V25.9615H24.5769V26.0384H24.7308V25.9615H25.0385V26.9807H26.0385V27.9231H26.3462V28H26.4231V27.9231H27.4231V28H27.9615V28.9423H30.7885V26.9807H34.6154V26.8269H34.6923V26.3654H34.6154V26.2115H34.6923V25.9615H35.6154V25.0384H35.6923V24.9423H35.8461V25.0384H38.3654V24.9423H38.4423V24.7884H38.5192V23.0769H39.4423V21.1154H39.3654V21.0385H38.5192V20.5577H38.4423V19.2308H38.3654V19.1538H37.8269V19.0769H37.5961V19H37.5192V18.2115H37.4423V18.1346H36.6154V17.9038H36.5384V17.8269H36.6154V17.75H36.5384V17.6538H36.6154V17.1154H37.5961V17.8269H37.5192V17.9038H37.5961V18.0577H37.6731V18.1346H38.5192V19.0769H39.4423V19.2308H39.5192V19.6154H39.4423V20.0192H39.5192V20.0961H40.4423V21.0385H40.5961V21.1154H40.75V21.0385H40.9038V21.1154H41.0384V21.0385H41.2692V21.1154H41.423V23.6923H41.3461V23.8461H41.423V24.0192H43.2692V23.8461H43.3461V23.4615H43.2692V22.1346H43.3461V22.0577H44.1923V22.1346H44.2692V23H44.3461V23.0769H45.1923V22.1346H45.25V22.0577H46.173V20.0961H47.0961V19.9423H47.173V18.6731H47.0961V18.2885H47.0192V18.1346H46.3269V18.0577H46.25V17.9808H46.173V17.1923H46.25V17.1154H48.0961V13.1923H47.173V9.3654H47.0961V9.26925H46.8653V9.19233H46.173V7.32694H45.4807V7.25002H45.25V6.30772H44.2692V6.23079H44.1923V6.05772H44.2692V5.36541H44.1923V5.28849H43.3461V4.42311H43.2692V4.34618H42.3461V3.40388H42.2692V3.32695H39.4423V2.38465H37.9807V2.30773H37.5961V2.38465H37.1346V2.30773H36.6154V1.44234H36.5384V1.36542H26.0385V2.30773H24.7308V2.38465H24.5V2.30773H24.2115V2.38465H23.3654V2.30773H23.2116V2.38465H23.1346V2.46157H23.2116V3.01926H23.1346V3.32695H21.2885V3.40388H21.2116V4.34618H20.2116V5.28849H19.8462V5.36541H19.3077V5.82695H19.3846V6.13464H19.3077V6.30772H18.3846V8.09617H18.3077V8.26925H17.3846V7.32694H17.2308V7.25002H16.9231V7.32694H16.3846V7.78848H16.4616V8.26925H13.6347V8.34617H13.5577V9.19233H13.327V9.26925H12.5577V10.2116H11.6347V10.2885H11.577V10.6154H11.6347V11.0769H11.577V11.2308H10.6539V12.25H9.73081V12.3269H9.65389V12.5H9.73081V14.1346H9.65389V14.2115H8.73082V16.1731H7.80774V17.1154H8.73082V17.9038H8.80774V18.1346H10.577V18.2115H10.6539V19.0769H9.88466V19.1538H8.26928V19.0769H7.80774V19.1538H7.73082V19.3846H7.80774V19.9423H7.73082V20.0961H6.82697V21.0385H6.67313V21.1154H6.59621V21.0385H5.9039V21.1923H5.82698V22.0577H4.98083V22.1346H4.9039V25.9615H4.44237V26.0384H3.90391V27.9231H4.82698V28H4.9039V30.9038H5.13467V30.9807H5.36544V30.9038H5.75005V30.9807H5.82698V32.7884H5.9039V32.8653H6.05775V32.9423H6.82697V33.8846H7.73082V32.9423H7.80774V32.8653H8.03851V32.9423H8.96159V32.8653H9.65389V31.923H10.5V31.8461H10.577V31.7692H10.6539V30.9038H11.577V30.9807H11.6347V31.8461H11.577V31.923H10.7308V32H10.6539V32.8653H10.3462V32.9423H9.73081V35.6153H9.65389V35.7692H9.73081V35.923H9.65389V37.0961H9.73081V38.0384H9.65389V38.1153H9.73081V38.2692H9.65389V38.673H9.73081V38.8269H10.577V38.9038H10.6539V39.7692H11.1923V39.8461H11.577V40.6923H11.6347V40.7884H11.7116V40.8653H12.25V40.7884H12.5577V40.8653H12.6347V41.7115H13.0193V41.8076H13.4808V41.8846H13.5577V42.2692H13.4808V42.423H13.5577V42.7307H15.4808V39.8461H16.2308V39.7692H16.3846V36.8653H16.4616V36.7884H16.6923V36.8653H17.3077V36.7115H17.3846V34.9807H17.3077V34.9038H17.7693V34.8269H18.3077V33.9615H18.3846V33.8846H19.3077V34.8269H19.3846V34.9038H18.4616V34.9807H18.3846V40.6153H18.3077V40.7884H17.6923V40.8653H17.3846V44.6922H18.3077V44.7692H18.3846V45.7115H19.3077V46.6538H19.4616V46.7307H20.2116V46.8076H20.2885V47.673H23.1346V48.5384H23.2116V48.6922H25.0385V48.7692H25.1154V49.2499H25.0385V49.4807H25.1154V49.6345H32.6923V48.6922H35.4615V48.6153H35.6154V47.7499H35.6923V47.673H37.5192V46.7307H37.5961V46.6538H37.75V46.7307H38.3654V46.6538H38.4423V46.5769H38.5192V45.7115H39.4423V40.7884H38.5192V40.0769H38.4423V39.923H38.5192V39.7692H38.9038V39.8461H39.4423V40.6153H39.5192V40.6923H39.5961V40.7884H42.3461V41.7115H42.5V41.8076H43.3461V43.673H43.423V43.7499H46.0961V43.673H46.173V42.8076H46.25V42.7307H47.0961V42.5769H47.173V41.8076H47.9423V41.7115H48.4807V41.8076H49.0192V41.6346H49.0961V40.7884H49.9999V39.8461H50.8461V39.7692H50.923V39.673H50.9999V38.8269H51.923V38.5769H51.9999V38.3461H51.923V38.1923H51.9999V37.8846H51.923V37.7307H51.9999V37.4807H51.923V36.6346H51.9999V36.3076H51.923V35.923H51.9999V35.8461H51.923V33.8846H50.9999V32.9423H50.6153V32.8653H50.4615V32.9423H50.1538V32.8653H49.9999V30.9807H49.6923V30.9038H49.5384V30.9807H49.4038V30.9038H49.0961V29.9615H49.9999V30.0384H50.0769V30.9038H50.923V30.9807H50.9999V32.7884H51.0769V32.8653H51.2307V32.9423H51.6923V32.8653H52.8461V32.7884H52.923V31.923H53.9038V32.8653H53.7499V32.9423H52.9999V33.0192H52.923V34.8269H53.0769V34.9038H55.5192V34.8269H55.673V34.9038H56.673V34.8269H56.7499V34.1923H56.8269V34.1153H56.7499V32.9423H56.8269V32.8653H57.7499V30.9807H57.8269V30.9038H58.6538V28H58.7307V27.9231H59.5768V27.8461H59.6538V26.0384H58.7307V25.9615H58.6538V22.1346H58.5769V22.0577H57.7499V21.1154H57.673V21.0385H56.7499V20.0961H55.8269V19.9423H55.7499V19.5385H55.8269V19.1538H55.7499V19.0769H54.7499V18.9231H54.8269V18.2115H54.7499V18.0577H54.8269V17.1923H54.7499V16.8846H54.8269V15.2308H54.7499V15.1538H54.8269V14.2115H54.673V14.1346H54.4422V14.2115H53.9038V14.1346H53.8269V12.5H53.9038V12.25H53.0769V12.1731H52.923V11.2308H51.9999V11.1539H51.923V10.0577H51.9999V9.44232H51.923V9.3654H51.8461V9.26925H51.6923V9.19233H50.9999V9.26925H50.3076V9.19233H50.0769V9.1154H49.9999V8.26925H51.7692V8.34617H51.923V8.65386H51.9999V8.88463H51.923V9.1154H51.9999V9.19233H52.1538V9.26925H52.7692V9.3654H52.8461V9.51925H52.923V10.2116H53.7499V10.2885H53.8269V11.2308H54.7499V11.3077H54.8269V12.0962H54.7499V12.3269H54.8269V13.1923H55.673V13.2692H55.7499V15.1538H56.0576V15.2308H56.7499V17.1154H57.5192V17.1923H57.5961V17.2692H57.673V17.3462H57.7499V20.0961H58.2692V20.1731H58.4999V20.25H58.5769V20.3269H58.6538V21.0385H58.8076V21.1154H59.5768V21.2692H59.6538V24.0192H59.8076V24.0961H60.5768V30.75H60.4999V30.8269H59.7307V30.9038H59.6538V31.923H59.5768V32.4038H59.6538V33.5769H59.5768V33.8077H58.8845V33.8846H58.6538V34.5961H58.5769V34.673H58.4999V34.75H58.1922V34.8269H57.7499V35.2884H57.673V35.6153H57.5961V35.6923H57.5192V35.7692H56.9807V35.8461H56.7499V37.6538H56.673V37.7307H56.5961V37.8076H55.8269V37.8846H55.7499V39.673H55.5961V39.7692H54.8269V39.8461H54.7499V40.0769H54.8269V41.5576H54.7499V41.6346H54.673V41.7115H53.8269V42.5769H53.7499V42.6538H53.4615V42.7307H52.923V43.2884H52.8461V43.5961H52.7692V43.673H51.9999V43.7499H51.923V44.4615H51.8461V44.5384H51.7692V44.6153H51.3846V44.6922H50.9999V45.4038H50.923V45.6345H49.0961V46.423H49.0192V46.5769H48.9423V46.6538H47.173V46.7307H47.0961V47.5192H47.0192V47.5961H46.0961V47.673H45.1923V48.4615H45.1153V48.5384H45.0384V48.6153H41.423V48.6922H41.3461V49.3268H41.2692V49.4807H41.1923V49.5576H40.9807V49.6345H39.4423V50.423H39.3654V50.4999H39.2884V50.5768H37.5192V53.6345H37.9038V53.7115H38.2115V53.7884H38.3654V53.9422H38.4423V54.173H38.5192V54.5768H38.6731V54.6538H39.2115V54.7307H39.3654V54.8076H39.4423V57.3076H39.3654V57.3845H39.2884V57.4614H38.8269V57.5576H38.5192V58.0191H38.4423V58.2499H38.3654V58.4038H38.1346V58.4807H35.6923V58.5576H35.6154V59.1922H35.5384V59.3461H35.4615V59.423H34.7692V59.4999H33.6923V59.7499H33.6154V60.2114H33.5384V60.3653H33.3077V60.4422H32.7692V60.5191H32.6923V60.9999H32.6154V61.3076H32.5577V61.3845H32.3269V61.4614H30.0962V61.3845H29.9423V61.0768H29.8654V60.5191H29.7885V60.4422H29.0962V60.3653H29.0192V60.2114H28.9423V59.4999H28.4808V59.423H26.1923V59.4999H24.5769V59.423H24.2115V59.2691H24.1346V58.5576H24.0577V58.4807H23.2885V58.4038H23.2116V58.2499H23.1346V56.923H23.2116V56.6922H23.2885V56.6153H24.0577V56.5384H24.1346V55.7499H24.2115V55.673H24.2692V55.5961H25.0385V54.0961H25.1154V53.7115H25.1923V53.6345H25.9615V53.5576H26.0385V51.5961H23.2885V51.5192H23.2116V51.3653H23.1346V50.5768H20.2885V49.6345H18.6154V49.5576H18.4616V49.4807H18.3846V48.6922H18.3077V48.6153H17.5385V48.5384H17.4616V48.3845H17.3846V47.673H17.3077V47.5961H16.6923V47.673H15.9231V47.5961H15.5577V47.5192H15.4808V46.7307H15.4039V46.6538H14.7116V46.5769H14.5577V45.7115H14.4808V45.6345H13.6347V45.7115H13.25V45.6345H12.6347V45.4038H12.5577V44.6922H11.8654V44.6153H11.6347V43.7499H11.5V43.673H10.7308V43.3653H10.6539V42.9807H10.7308V42.8076H10.6539V42.7307H9.88466V42.6538H9.80774V42.5769H9.73081V41.8076H9.65389V41.7115H8.80774V41.6346H8.73082V39.7692H7.88466V39.673H7.80774V37.8846H7.73082V37.8076H6.9039V37.7307H6.82697V35.8461H6.36544V35.7692H5.98082V35.6923H5.9039V35.4423H5.82698V34.8269H5.21159V34.75H4.98083V34.673H4.9039V33.8846H4.67313V33.8077H3.98083V33.6538H3.90391V30.9038H3.82698V30.8269H3.07698V30.75H3.00006V24.1731H3.07698V24.0961H3.82698V24.0192H3.90391V21.4231H3.98083V21.1154H4.82698V21.0385H4.9039V20.3269H4.98083V20.25H5.05775V20.1731H5.44236V20.0961H5.82698V17.5H5.9039V17.1923H6.13467V17.1154H6.82697V15.2308H7.21159V15.1538H7.80774V13.2692H7.88466V13.1923H8.73082V11.4039H8.80774V11.2308H9.65389V11.1539H9.73081V10.3846H9.80774V10.2885H9.96158V10.2116H10.6539V9.51925H10.7308V9.3654H10.8077V9.26925H11.5V9.19233H11.577V9.1154H11.6347V8.4231H11.7116V8.34617H13.327V8.26925H13.5577V7.40387H13.6347V7.32694H15.4039V7.25002H15.4808V6.38464H15.5577V6.30772H17.3846V5.44233H17.4616V5.36541H18.3077V5.28849H18.3846V4.42311H18.4616V4.34618H19.3077V3.94234H19.3846V3.4808H19.4616V3.40388H19.5385V3.32695H20.2116V2.61542H20.2885V2.46157H20.3654V2.38465H22.1346V2.30773H22.2116V1.44234H22.2885V1.36542H25.0385V0.500037H25.1154V0.423114H25.3462V0.346191Z" fill="#000001"/>
</g>
<path d="M26.0382 1.36572H36.5382V1.44265H36.6151V2.30803H37.1344V2.38495H37.5959V2.30803H37.9805V2.38495H39.442V3.32726H42.269V3.40418H42.3459V4.34648H43.269V4.42341H43.3459V5.28879H44.192V5.36571H44.269V6.05802H44.192V6.2311H44.269V6.30802H45.2497V7.25032H45.4805V7.32725H46.1728V9.19263H46.8651V9.26955H47.0959V9.3657H47.1728V13.1926H48.0959V17.1157H46.2497V17.1926H46.1728V17.9811H46.2497V18.058H46.3266V18.1349H47.0189V18.2888H47.0959V18.6734H47.1728V19.9426H47.0959V20.0964H46.1728V22.058H45.2497V22.1349H45.192V23.0772H44.3459V23.0003H44.269V22.1349H44.192V22.058H43.3459V22.1349H43.269V23.4618H43.3459V23.8464H43.269V24.0195H41.4228V23.8464H41.3459V23.6926H41.4228V21.1157H41.269V21.0388H41.0382V21.1157H40.9036V21.0388H40.7497V21.1157H40.5959V21.0388H40.442V20.0964H39.519V20.0195H39.442V19.6157H39.519V19.2311H39.442V19.0772H38.519V18.1349H37.6728V18.058H37.5959V17.9041H37.519V17.8272H37.5959V17.1157H36.6151V17.6541H36.5382V17.7503H36.6151V17.8272H36.5382V17.9041H36.6151V18.1349H37.442V18.2118H37.519V19.0003H37.5959V19.0772H37.8267V19.1541H38.3651V19.2311H38.442V20.558H38.519V21.0388H39.3651V21.1157H39.442V23.0772H38.519V24.7887H38.442V24.9426H38.3651V25.0387H35.8459V24.9426H35.692V25.0387H35.6151V25.9618H34.692V26.2118H34.6151V26.3657H34.692V26.8272H34.6151V26.981H30.7882V28.9426H27.9613V28.0003H27.4228V27.9234H26.4228V28.0003H26.3459V27.9234H26.0382V26.981H25.0382V25.9618H24.7305V26.0387H24.5767V25.9618H24.1344V24.0964H24.0575V24.0195H23.7498V24.0964H23.519V24.0195H23.2113V23.9234H23.1344V22.1349H23.0575V22.058H22.2113V22.1349H22.1344V23.0772H21.3652V23.0003H21.2113V22.1349H21.1344V22.058H20.2882V21.9811H20.2113V21.3464H20.2882V21.1926H20.2113V21.1157H19.5382V21.0388H18.769V21.1157H18.5382V21.0388H18.3844V20.8849H18.3075V20.6349H18.3844V19.1541H18.3075V19.0772H17.3844V18.2118H17.3075V18.1349H16.4613V17.9041H16.3844V15.2311H17.2306V15.1542H17.3844V13.1926H19.3075V12.9618H19.3844V12.5772H19.3075V12.2503H19.1536V12.1734H18.9229V12.2503H17.3844V9.26955H17.3075V9.19263H16.4613V9.1157H16.3844V8.26955H16.4613V7.78878H16.3844V7.32725H16.9229V7.25032H17.2306V7.32725H17.3844V8.26955H18.3075V8.09648H18.3844V6.30802H19.3075V6.13494H19.3844V5.82725H19.3075V5.36571H19.8459V5.28879H20.2113V4.34648H21.2113V3.40418H21.2882V3.32726H23.1344V3.01956H23.2113V2.46187H23.1344V2.38495H23.2113V2.30803H23.3652V2.38495H24.2113V2.30803H24.4998V2.38495H24.7305V2.30803H26.0382V1.36572Z" fill="#1E3347"/>
<mask id="mask1_170_66" style="mask-type:luminance" maskUnits="userSpaceOnUse" x="13" y="4" width="50" height="36">
<path d="M13.8459 4.92322H62.4805V39.3847H13.8459V4.92322Z" fill="white"/>
</mask>
<g mask="url(#mask1_170_66)">
<path d="M47.2497 7.25024H47.7113V7.32717H47.942V7.25024H48.2497V7.32717H49.9997V8.17332H50.0767V8.26947H49.9997V9.11562H50.0767V9.19255H50.3074V9.26947H50.9997V9.19255H51.692V9.26947H51.8459V9.36562H51.9228V9.44255H51.9997V10.0579H51.9228V11.1541H51.9997V11.231H52.9228V12.1733H53.0767V12.2502H53.9036V12.5002H53.8267V14.1348H53.9036V14.2118H54.442V14.1348H54.6728V14.2118H54.8266V15.1541H54.7497V15.231H54.8266V16.8848H54.7497V17.1925H54.8266V18.0579H54.7497V18.2118H54.8266V18.9233H54.7497V19.0771H55.7497V19.1541H55.8266V19.5387H55.7497V19.9425H55.8266V20.0964H56.7497V21.0387H57.6728V21.1156H57.7497V22.0579H58.5766V22.1348H58.6536V25.9617H58.7305V26.0387H59.6536V27.8464H59.5766V27.9233H58.7305V28.0002H58.6536V30.904H57.8266V30.981H57.7497V32.8656H56.8266V32.9425H56.7497V34.1156H56.8266V34.1925H56.7497V34.8271H56.6728V34.904H55.6728V34.8271H55.519V34.904H53.0767V34.8271H52.9228V33.0194H52.9997V32.9425H53.7497V32.8656H53.9036V31.9233H52.9228V32.7886H52.8459V32.8656H51.692V32.9425H51.2305V32.8656H51.0767V32.7886H50.9997V30.981H50.9228V30.904H50.0767V30.0387H49.9997V29.9617H47.3267V29.8848H47.1728V29.0194H47.0959V28.9425H45.2497V28.7887H45.1921V28.0771H45.2497V28.0002H45.1921V27.9233H44.7305V27.8464H44.4998V27.9233H44.3459V28.0002H44.269V28.9425H43.3459V29.8848H43.1921V29.9617H40.4421V30.5963H40.3651V30.8271H40.2113V30.904H38.7498V30.981H38.519V31.7694H38.4421V31.8463H37.9805V31.9233H37.519V32.8656H33.769V32.9425H33.6921V33.731H33.6152V33.8848H27.0383V33.8079H26.9613V32.9425H26.8844V32.8656H26.269V32.9425H26.1152V32.8656H25.4998V32.9425H25.3459V32.8656H25.0383V32.154H24.9613V31.9233H23.2883V31.8463H23.1344V31.0579H23.0575V30.904H22.2113V29.9617H21.519V29.8848H20.2883V29.731H20.2113V28.9425H19.3844V28.7887H19.3075V27.9233H18.3844V27.8464H18.3075V26.981H17.4614V26.904H17.3844V26.0387H17.3075V25.9617H16.3844V25.0387H15.6344V24.9425H15.4806V23.0771H14.5575V23.0002H14.4806V22.9041H14.5575V22.8271H14.4806V17.2695H14.5575V17.1925H14.6344V17.1156H15.4037V17.1925H15.4806V19.1541H16.3844V22.0579H17.3075V22.1348H17.3844V23.0771H18.2306V23.1541H18.3075V24.0194H19.2306V24.0964H19.3075V24.8656H19.3844V24.9425H19.4613V25.0387H22.519V24.9425H22.9806V25.0387H23.1344V27.9233H23.2883V28.0002H23.3652V27.9233H24.0575V28.0002H24.1344V28.9425H24.9613V29.0194H25.0383V29.9617H26.9613V30.904H31.019V30.981H31.4036V30.904H33.6921V30.0387H33.769V29.9617H35.6152V29.731H35.6921V29.3463H35.6152V29.0194H35.6921V28.9425H37.519V28.0002H38.4421V27.9233H38.519V26.981H40.4421V26.0387H40.8267V25.9617H41.9613V26.0387H42.269V25.9617H42.6536V26.0387H42.8074V25.9617H43.3459V25.0387H45.1151V24.9425H45.2497V24.0964H45.3267V24.0194H46.1728V23.7694H46.2497V23.6925H46.1728V23.6156H46.2497V23.4617H46.1728V23.1541H46.2497V23.0771H47.1728V22.1348H47.2497V22.0579H48.0959V20.1733H48.1728V20.0964H49.0959V18.1348H49.9997V18.0579H50.0767V14.2118H49.9997V14.1348H49.0959V11.231H48.1728V11.0772H48.0959V9.26947H48.019V9.19255H47.1728V7.32717H47.2497V7.25024Z" fill="#211F3B"/>
</g>
<path d="M49.096 30.9041H49.4037V30.981H49.5384V30.9041H49.6922V30.981H49.9999V32.8656H50.1537V32.9425H50.4614V32.8656H50.6153V32.9425H50.9999V33.8848H51.923V35.8463H51.9999V35.9233H51.923V36.3079H51.9999V36.6348H51.923V37.481H51.9999V37.731H51.923V37.8848H51.9999V38.1925H51.923V38.3463H51.9999V38.5771H51.923V38.8271H50.9999V39.6733H50.923V39.7694H50.846V39.8463H49.9999V40.7886H49.096V41.6348H49.0191V41.8079H48.4807V41.7117H47.9422V41.8079H47.173V42.5771H47.0961V42.7309H46.2499V42.8079H46.173V43.6733H46.0961V43.7502H43.423V43.6733H43.3461V41.8079H42.4999V41.7117H42.3461V40.7886H39.5961V40.6925H39.5191V40.6156H39.4422V39.8463H38.9038V39.7694H38.5191V39.9233H38.4422V40.0771H38.5191V40.7886H39.4422V45.7117H38.5191V46.5771H38.4422V46.654H38.3653V46.7309H37.7499V46.654H37.5961V46.7309H37.5191V47.6732H35.6922V47.7502H35.6153V48.6156H35.4615V48.6925H32.6922V49.6348H25.1153V49.4809H25.0384V49.2502H25.1153V48.7694H25.0384V48.6925H23.2115V48.5386H23.1346V47.6732H20.2884V46.8079H20.2115V46.7309H19.4615V46.654H19.3077V45.7117H18.3846V44.7694H18.3077V44.6925H17.3846V40.8656H17.6923V40.7886H18.3077V40.6156H18.3846V34.981H18.4615V34.904H20.2115V35.7694H20.2884V35.8463H21.1346V35.9233H21.2115V36.8656H22.1346V36.9425H22.2115V37.8079H22.2884V37.8848H24.0576V37.9617H24.1346V38.0387H24.0576V38.1925H24.1346V38.3463H24.0576V38.6733H24.1346V38.8271H25.0384V39.7694H25.2692V39.8463H28.8653V40.7886H29.0192V40.8656H31.0961V40.7886H31.2499V40.8656H31.6345V40.7886H31.7884V39.8463H34.6153V39.6733H34.6922V39.5194H34.6153V39.4425H34.6922V39.2117H34.6153V38.981H34.6922V38.8271H36.5384V38.7502H36.6153V35.8463H39.4422V36.0002H39.5191V36.154H39.4422V36.6348H39.5191V36.8656H40.4422V38.8271H42.2691V38.7502H42.3461V37.8848H42.2691V37.8079H41.7307V37.8848H41.5768V37.8079H41.423V37.404H41.3461V36.9425H41.423V36.8656H42.3461V35.9233H42.423V35.8463H44.1922V35.7694H44.2691V33.9617H44.3461V33.8848H45.1922V34.0387H45.2499V34.1925H45.1922V34.2694H45.2499V34.5194H45.1922V34.6733H45.2499V34.904H47.0961V34.981H47.173V35.8463H48.096V33.8848H47.173V32.9425H48.4037V32.8656H48.5576V32.9425H48.9422V32.8656H49.0191V32.7887H49.096V30.9041Z" fill="#1E3347"/>
<path d="M26.0383 1.36572H36.5383V1.44265H36.6152V2.30803H37.1344V2.38495H37.5191V2.46187H37.596V2.61572H37.5191V3.25033H37.596V3.32726H39.4421V4.26956H39.596V4.34649H41.346V5.21187H41.4229V5.28879H42.346V8.26955H43.269V8.34648H43.346V9.19263H43.269V9.26955H42.346V12.1734H42.1921V12.2503H41.4229V12.8849H41.346V13.1926H40.4421V14.058H40.3652V14.2118H39.8267V14.1349H39.596V14.2118H39.4421V16.1734H37.6729V16.0965H37.5191V15.2311H36.1537V15.1542H35.9229V15.2311H35.6152V16.0965H35.6921V16.1734H36.5383V16.2503H36.6152V16.9618H36.5383V17.0388H36.4614V17.1157H31.8652V17.1926H31.7883V18.058H31.7114V18.1349H28.9421V17.9811H28.8652V17.1157H27.9614V16.2503H27.8845V16.1734H24.1345V14.6926H24.0575V14.4426H24.1345V14.2888H24.0575V14.2118H23.2883V14.1349H23.1345V13.1926H22.2883V13.1157H22.2114V13.0388H22.1345V12.6542H22.2114V12.4042H22.1345V12.2503H21.2883V12.1734H21.2114V11.2311H19.3076V9.26955H19.3845V9.19263H19.7691V9.26955H19.9229V9.19263H20.2114V6.30802H20.9806V6.2311H21.2114V5.28879H22.1345V5.13494H22.2114V4.34649H23.9037V4.26956H24.0575V4.19264H24.1345V3.32726H26.0383V2.5388H25.8845V2.46187H25.8075V2.38495H25.8845V2.30803H26.0383V1.36572Z" fill="#295159"/>
<mask id="mask2_170_66" style="mask-type:luminance" maskUnits="userSpaceOnUse" x="1" y="14" width="18" height="31">
<path d="M1 14.7692H18.7692V44.3076H1V14.7692Z" fill="white"/>
</mask>
<g mask="url(#mask2_170_66)">
<path d="M7.80758 19.0768H8.26912V19.1537H9.73066V19.8652H9.65373V20.0191H9.73066V20.1729H9.65373V20.3268H9.73066V20.5575H9.65373V20.6345H9.73066V20.8845H9.65373V21.0383H8.8845V21.1152H8.73066V23.0768H9.65373V23.1537H9.73066V24.4806H9.65373V24.8652H9.73066V24.9422H9.80758V25.0383H10.5768V25.1152H10.6537V26.9806H11.5768V27.6921H11.6345V27.9229H12.4037V27.9998H12.5576V28.8652H12.4807V28.9421H11.6345V29.0191H11.5768V29.8075H11.6345V29.9614H13.4806V30.0383H13.5576V30.9037H12.7114V30.9806H12.5576V32.8652H12.7114V32.9421H14.4806V33.8844H14.6345V33.9614H15.4806V34.8267H15.5576V34.9037H17.3076V34.9806H17.3845V36.7114H17.3076V36.8652H16.6922V36.7883H16.4614V36.8652H16.3845V39.769H16.2306V39.846H15.4806V42.7306H13.5576V42.4229H13.4806V42.269H13.5576V41.8844H13.4806V41.8075H13.0191V41.7113H12.6345V40.8652H12.5576V40.7883H12.2499V40.8652H11.7114V40.7883H11.6345V40.6921H11.5768V39.846H11.1922V39.769H10.6537V38.9037H10.5768V38.8267H9.73066V38.6729H9.65373V38.269H9.73066V38.1152H9.65373V38.0383H9.73066V37.096H9.65373V35.9229H9.73066V35.7691H9.65373V35.6152H9.73066V32.9421H10.346V32.8652H10.6537V31.9998H10.7307V31.9229H11.5768V31.846H11.6345V30.9806H11.5768V30.9037H10.6537V31.7691H10.5768V31.846H10.4999V31.9229H9.65373V32.8652H8.96143V32.9421H8.03835V32.8652H7.80758V32.9421H7.73066V33.8844H6.82682V32.9421H6.05759V32.8652H5.90374V32.7883H5.82682V30.9806H5.7499V30.9037H5.36528V30.9806H5.13451V30.9037H4.90375V27.9998H4.82682V27.9229H3.90375V26.0383H4.44221V25.9614H4.90375V22.1345H4.98067V22.0575H5.82682V21.1922H5.90374V21.0383H6.59605V21.1152H6.67297V21.0383H6.82682V20.096H7.73066V19.9422H7.80758V19.3845H7.73066V19.1537H7.80758V19.0768Z" fill="#1E3347"/>
</g>
<path d="M37.5959 37.808H38.442V37.8849H38.519V37.808H39.442V39.8464H38.9036V39.7695H38.519V39.9233H38.442V40.0772H38.519V40.7887H39.442V45.7118H38.519V46.5772H38.442V46.6541H38.3651V46.731H37.7497V46.6541H37.5959V46.731H37.519V47.6733H35.692V47.7502H35.6151V48.6156H35.4613V48.6925H32.6921V49.6349H25.1151V49.481H25.0382V49.2502H25.1151V48.7695H25.0382V48.6925H23.2113V48.5387H23.1344V47.6733H20.2882V46.8079H20.2113V46.731H19.4613V46.6541H19.3075V45.7118H18.3844V44.7695H18.3075V44.6926H17.3844V40.8656H17.6921V40.7887H18.3075V40.6156H18.3844V38.8272H19.2305V38.9041H19.3075V40.7887H20.1344V40.8656H20.2113V41.7118H20.3652V41.8079H21.1344V41.8849H21.2113V42.6541H21.2882V42.731H22.1344V42.9041H22.2113V43.1349H22.1344V43.2118H22.2113V43.4426H22.1344V43.5195H22.2113V43.6733H22.3652V43.7502H23.5959V43.6733H23.8267V43.7502H25.0382V44.6156H25.1151V44.6926H29.6344V44.7695H29.7113V44.6926H29.8651V43.7502H34.6151V43.5195H34.692V42.731H36.6151V41.8079H37.519V39.7695H37.5959V39.6733H37.519V37.8849H37.5959V37.808ZM39.519 39.7695H40.2113V39.8464H41.3459V40.7887H39.5959V40.6926H39.519V40.6156H39.442V39.8464H39.519V39.7695ZM17.3844 13.1926H18.3075V16.0195H18.3844V16.1734H19.2305V16.2503H19.3075V17.0388H19.3844V17.1157H20.1344V17.1926H20.2113V18.058H20.2882V18.1349H21.1344V18.2118H21.2113V19.0772H21.3652V19.1542H21.5959V19.0772H21.8267V19.1542H22.6728V19.0772H24.1344V18.1349H24.8075V18.058H24.9613V17.9042H25.0382V17.1926H24.9613V17.1157H25.9613V17.1926H26.0382V18.058H25.9613V18.1349H25.1151V18.4426H25.0382V18.7695H25.1151V19.6926H25.0382V21.0388H25.4998V21.1157H25.9613V21.1926H26.0382V21.6541H25.9613V21.9041H26.0382V22.058H26.8844V22.1349H26.9613V23.0772H27.8844V23.1541H27.9613V24.0195H33.4613V24.0964H33.5382V24.0195H33.6921V22.1349H33.769V22.058H36.5382V21.9811H36.6151V21.4234H36.5382V21.2695H36.6151V21.0388H37.2882V21.1157H37.442V21.0388H37.519V19.1542H37.6728V19.0772H37.8267V19.1542H38.3651V19.2311H38.442V20.558H38.519V21.0388H39.3651V21.1157H39.442V23.0772H38.519V24.7888H38.442V24.9426H38.3651V25.0388H35.8459V24.9426H35.692V25.0388H35.6151V25.9618H34.692V26.2118H34.6151V26.3657H34.692V26.8272H34.6151V26.9811H30.7882V28.9426H27.9613V28.0003H27.4228V27.9234H26.4228V28.0003H26.3459V27.9234H26.0382V26.9811H25.0382V25.9618H24.7305V26.0388H24.5767V25.9618H24.1344V24.0964H24.0575V24.0195H23.7498V24.0964H23.519V24.0195H23.2113V23.9234H23.1344V22.1349H23.0575V22.058H22.2113V22.1349H22.1344V23.0772H21.3652V23.0003H21.2113V22.1349H21.1344V22.058H20.2882V21.9811H20.2113V21.3465H20.2882V21.1926H20.2113V21.1157H19.5382V21.0388H18.769V21.1157H18.5382V21.0388H18.3844V20.8849H18.3075V20.6349H18.3844V19.1542H18.3075V19.0772H17.3844V18.2118H17.3075V18.1349H16.4613V17.9042H16.3844V15.2311H17.2306V15.1542H17.3844V13.1926Z" fill="#261836"/>
<path d="M47.2497 7.25024H47.7113V7.32717H47.942V7.25024H48.2497V7.32717H49.9997V8.17332H50.0766V8.26947H49.9997V9.11562H50.0766V9.19255H50.3074V9.26947H50.9997V9.19255H51.692V9.26947H51.8459V9.36562H51.9228V9.44255H51.9997V10.0579H51.9228V11.1541H51.9997V11.231H52.9228V12.1733H53.0766V12.2502H53.9036V12.5002H53.8266V14.1348H53.9036V14.2118H54.442V14.1348H54.6728V14.2118H54.8266V15.1541H54.7497V15.231H54.8266V16.8848H54.7497V17.1925H54.8266V18.0579H54.7497V18.2118H54.8266V18.9233H54.7497V19.0771H54.8266V22.0579H54.6728V22.1348H54.5959V22.0579H53.9036V22.1348H53.8266V24.0194H52.9997V24.0964H52.9228V24.9425H52.7689V25.0387H52.3843V24.9425H52.0766V25.0387H51.9997V25.1925H51.9228V27.9233H50.9997V29.8079H50.9228V29.9617H50.0766V29.0194H49.9997V28.9425H49.0959V28.0771H49.019V28.0002H48.2497V27.9233H46.1728V26.8271H46.0959V26.3656H46.1728V26.0387H46.2497V25.9617H47.1728V25.0387H48.019V24.9425H48.0959V24.0964H48.1728V24.0194H48.4805V23.9233H49.0959V22.0579H50.0766V21.731H49.9997V18.0579H50.0766V14.2118H49.9997V14.1348H49.0959V11.231H48.1728V11.0772H48.0959V9.26947H48.019V9.19255H47.1728V7.32717H47.2497V7.25024Z" fill="#285058"/>
<mask id="mask3_170_66" style="mask-type:luminance" maskUnits="userSpaceOnUse" x="43" y="14" width="20" height="26">
<path d="M43.3843 14.7692H62.4804V39.3845H43.3843V14.7692Z" fill="white"/>
</mask>
<g mask="url(#mask3_170_66)">
<path d="M54.8265 19.0768H55.7496V19.1537H55.8265V19.5383H55.7496V19.9422H55.8265V20.096H56.7496V21.0383H57.6727V21.1152H57.7496V22.0575H58.5765V22.1345H58.6535V25.9614H58.7304V26.0383H59.6535V27.846H59.5765V27.9229H58.7304V27.9998H58.6535V30.9037H57.8265V30.9806H57.7496V32.8652H56.8265V32.9421H56.7496V34.1152H56.8265V34.1921H56.7496V34.8267H56.6727V34.9037H55.6727V34.8267H55.5189V34.9037H53.0766V34.8267H52.9227V33.0191H52.9996V32.9421H53.7496V32.8652H53.9035V31.9229H52.9227V32.7883H52.8458V32.8652H51.6919V32.9421H51.2304V32.8652H51.0766V32.7883H50.9996V30.9806H50.9227V30.9037H50.0766V30.0383H49.9996V29.9614H47.3266V29.8844H47.1727V29.0191H47.0958V28.9421H45.2496V28.7883H45.192V28.0768H45.2496V27.9229H48.2496V27.9998H49.0189V28.0768H49.0958V28.9421H49.9996V29.0191H50.0766V29.9614H50.9227V29.8075H50.9996V27.9229H51.9227V25.1922H51.9996V25.0383H52.0766V24.9422H52.3842V25.0383H52.7689V24.9422H52.9227V24.096H52.9996V24.0191H53.8266V22.1345H53.9035V22.0575H54.5958V22.1345H54.6727V22.0575H54.8265V19.0768Z" fill="#1E3347"/>
</g>
<mask id="mask4_170_66" style="mask-type:luminance" maskUnits="userSpaceOnUse" x="23" y="4" width="40" height="60">
<path d="M23.6922 4.92322H62.4806V64H23.6922V4.92322Z" fill="white"/>
</mask>
<g mask="url(#mask4_170_66)">
<path d="M35.923 51.5963H36.3846V51.6732H36.5384V51.904H36.6153V52.0578H36.5384V52.5386H36.6153V52.6924H36.5384V52.7694H36.6153V53.404H36.5384V54.1732H36.6153V54.2501H36.5384V54.4232H36.6153V54.5771H37.4422V54.654H37.5192V55.5963H38.5192V55.904H38.4422V57.3847H38.3653V57.4617H38.2115V57.5578H35.6922V57.3847H35.6153V56.8463H35.6922V56.7694H35.6153V56.6155H35.5384V56.5386H34.6923V56.6924H34.6153V58.4809H33.7692V58.5578H33.6923V59.1155H33.6153V59.4232H33.5384V59.5001H32.7692V59.6732H32.6923V60.2886H32.6153V60.3655H32.5576V60.4424H32.0192V60.5194H30.0961V60.4424H29.9423V60.1347H29.8653V58.5578H29.7115V58.4809H29.5576V58.5578H29.0192V58.4809H28.8653V57.5578H28.423V57.4617H27.9615V57.5578H27.8846V58.4809H27.1153V58.5578H26.2692V58.4809H26.1153V58.5578H25.8077V58.4809H25.1153V58.5578H24.6538V58.4809H24.2692V58.404H24.1346V58.3271H24.2115V58.2501H24.1346V56.7694H24.2115V56.6924H24.1346V56.6155H24.8846V56.5386H25.0384V56.6155H25.1153V56.4424H25.0384V56.3655H25.1153V56.2886H25.0384V55.8271H25.1153V55.6732H25.0384V55.5963H25.1153V55.5194H25.2692V55.5963H26.0384V55.5194H25.9615V55.4424H26.0384V54.654H26.2692V54.5771H26.9615V54.4232H27.0384V53.4809H26.9615V52.6924H27.8846V52.6155H27.9615V51.6732H28.8653V51.8271H28.9423V52.1348H28.8653V52.4617H28.9423V52.6155H34.3846V52.6924H34.4615V52.6155H34.6923V51.6732H35.923V51.5963ZM25.0384 55.3463H25.1153V55.5194H25.0384V55.3463ZM29.7115 60.3655H29.8653V60.4424H29.9423V60.5963H29.8653V60.5194H29.7884V60.4424H29.7115V60.3655ZM45.2499 7.25024H45.4807V7.32717H46.173V9.19255H46.8653V9.26947H47.0961V9.36562H47.173V13.1925H48.0961V17.1156H46.2499V17.1925H46.173V17.981H46.2499V18.0579H46.3268V18.1348H47.0191V18.2887H47.0961V18.6733H47.173V19.9425H47.0961V20.0964H46.173V22.0579H45.2499V22.1348H45.1922V23.0771H44.3461V23.0002H44.2692V22.1348H44.1922V22.0579H43.3461V22.1348H43.2692V23.4617H43.3461V23.8464H43.2692V24.0194H41.423V23.8464H41.3461V23.6925H41.423V21.1156H41.2692V21.0387H41.0384V21.1156H40.9038V21.0387H40.7499V21.1156H40.5961V21.0387H40.4422V20.0964H39.5192V20.0194H39.4422V19.6156H39.5192V19.231H39.4422V19.1541H39.9807V19.0771H40.1345V19.1541H40.5192V19.0771H40.8269V19.1541H40.9038V19.0771H41.1153V19.1541H41.1922V19.0771H41.3461V18.2118H41.423V18.1348H43.2692V17.981H43.3461V17.1925H43.423V17.1156H44.1922V16.9618H44.2692V16.1733H45.1922V15.9425H45.2499V15.8656H45.1922V15.7118H45.2499V15.5387H45.1922V15.3848H45.2499V15.1541H46.173V13.1925H45.2499V12.4041H45.1922V12.3272H45.2499V12.0964H45.1922V11.231H45.2499V7.63486H45.1922V7.32717H45.2499V7.25024ZM50.923 33.8848H51.923V35.8463H51.9999V35.9233H51.923V36.3079H51.9999V36.6348H51.923V37.4809H51.9999V37.7309H51.923V37.8848H51.9999V38.1925H51.923V38.3463H51.9999V38.5771H51.923V38.8271H50.9999V39.6732H50.923V39.7694H50.8461V39.8463H49.9999V40.7886H49.0961V41.6348H49.0191V41.8079H48.4807V41.7117H47.9422V41.8079H47.173V42.5771H47.0961V42.7309H46.2499V42.8079H46.173V43.6732H46.0961V43.7502H43.423V43.6732H43.3461V41.8079H42.4999V41.7117H42.3461V40.7886H44.2692V39.8463H45.1153V39.7694H45.4807V39.8463H46.0191V39.7694H46.173V38.904H46.2499V38.8271H48.0961V37.8848H48.173V37.8079H49.0961V36.9425H49.173V36.8656H49.9999V36.6348H50.0768V36.2309H49.9999V36.154H50.0768V35.8463H50.9999V33.9617H50.923V33.8848ZM57.7499 22.0579H58.5768V22.1348H58.6537V25.9617H58.7307V26.0387H59.6537V27.8464H59.5768V27.9233H58.7307V28.0002H58.6537V30.904H57.8268V30.981H57.7499V32.8656H56.8268V32.9425H56.7499V34.1156H56.8268V34.1925H56.7499V34.8271H56.673V34.904H55.673V34.8271H55.5191V34.904H53.0768V34.8271H52.923V33.0194H52.9999V32.9425H53.7499V32.8656H53.9037V31.8463H53.8268V31.7694H53.9037V30.981H53.9807V30.904H54.7499V30.7502H54.8268V29.9617H55.7499V29.731H55.8268V29.0194H55.9037V28.9425H56.7499V27.0579H56.8268V26.981H57.7499V22.0579Z" fill="#261836"/>
</g>
<path d="M23.2113 2.30774H23.3652V2.38466H24.2113V2.30774H24.4998V2.38466H24.7305V2.30774H25.8844V2.38466H25.8075V2.46159H25.8844V2.53851H26.0382V3.32697H24.1344V4.19235H24.0575V4.26927H23.9036V4.3462H22.2113V5.13466H22.1344V5.2885H21.2113V6.23081H20.9805V6.30773H20.2113V9.19234H19.9229V9.26926H19.769V9.19234H19.3844V9.26926H19.3075V11.2308H21.2113V12.1731H20.9036V12.25H20.5959V12.1731H19.4613V12.25H19.3844V12.3269H19.3075V12.25H19.1536V12.1731H18.9229V12.25H17.3844V9.26926H17.3075V9.19234H16.4613V9.11542H16.3844V8.26926H16.4613V7.7885H16.3844V7.32696H16.9229V7.25004H17.2306V7.32696H17.3844V8.26926H18.3075V8.09619H18.3844V6.30773H19.3075V6.13465H19.3844V5.82696H19.3075V5.36542H19.8459V5.2885H20.2113V4.3462H21.2113V3.40389H21.2882V3.32697H23.1344V3.01928H23.2113V2.46159H23.1344V2.38466H23.2113V2.30774Z" fill="#1E3347"/>
<mask id="mask5_170_66" style="mask-type:luminance" maskUnits="userSpaceOnUse" x="1" y="19" width="18" height="26">
<path d="M1 19.6924H18.7692V44.3077H1V19.6924Z" fill="white"/>
</mask>
<g mask="url(#mask5_170_66)">
<path d="M4.98067 22.0577H5.82682V26.9808H6.74989V27.0577H6.82682V28.25H6.74989V28.6346H6.82682V28.9423H7.65374V29.0193H7.73066V29.8077H7.80758V29.9616H8.65374V30.0385H8.73066V31.8462H8.88451V31.9231H9.65373V32.8654H8.96143V32.9423H8.03835V32.8654H7.80758V32.9423H7.73066V33.8846H6.82682V32.9423H6.05759V32.8654H5.90374V32.7885H5.82682V30.9808H5.7499V30.9039H5.36528V30.9808H5.13451V30.9039H4.90375V28H4.82682V27.9231H3.90375V26.0385H4.44221V25.9616H4.90375V22.1347H4.98067V22.0577ZM9.73066 35.8462H11.5768V37.7308H11.6345V37.8077H12.4037V37.8846H12.5576V38.75H12.6345V38.8269H15.4037V38.75H15.4806V36.9423H15.5576V36.8654H16.3845V39.7692H16.2306V39.8462H15.4806V42.7308H13.5576V42.4231H13.4806V42.2692H13.5576V41.8846H13.4806V41.8077H13.0191V41.7115H12.6345V40.8654H12.5576V40.7885H12.2499V40.8654H11.7114V40.7885H11.6345V40.6923H11.5768V39.8462H11.1922V39.7692H10.6537V38.9039H10.5768V38.8269H9.73066V38.6731H9.65373V38.2692H9.73066V38.1154H9.65373V38.0385H9.73066V37.0962H9.65373V35.9231H9.73066V35.8462Z" fill="#261836"/>
</g>
<path d="M9.73075 12.2501H10.6538V14.1347H10.9615V14.2117H11.0384V14.1347H11.2692V14.2117H11.5769V16.0193H11.6346V16.1732H12.4807V16.2501H12.5577V17.1155H11.6346V17.1924H11.5769V17.5001H11.6346V17.904H11.5769V18.0578H11.5V18.1347H8.80768V17.904H8.73075V17.1155H7.80768V16.1732H8.73075V14.2117H9.65383V14.1347H9.73075V12.5001H9.65383V12.327H9.73075V12.2501Z" fill="#1E3347"/>
<path d="M30.8652 53.5577H31.0959V53.6347H31.7883V54.577H32.6921V55.1154H32.769V55.1924H32.6921V55.3462H32.769V58.25H32.6921V58.5577H32.019V58.4808H31.8652V58.5577H31.7883V59.5H31.0959V59.577H31.019V59.5H30.7883V58.5577H30.2498V58.4808H29.9421V58.5577H29.8652V54.6539H29.9421V54.577H30.7883V53.6347H30.8652V53.5577ZM27.0383 53.6347H27.9613V54.577H28.8652V55.5962H27.9613V56.5385H27.8075V56.6154H27.7306V56.5385H27.0383V56.6154H26.9613V57.1539H27.0383V57.5577H25.1921V57.4616H25.1152V57.3847H25.0383V56.6154H25.1152V56.4423H25.0383V56.3654H25.1152V56.2885H25.0383V55.827H25.1152V55.6731H25.0383V55.5962H25.1152V55.5193H25.269V55.5962H26.0383V55.5193H25.9613V55.4424H26.0383V54.6539H26.269V54.577H26.9613V54.4231H27.0383V53.6347ZM25.0383 55.3462H25.1152V55.5193H25.0383V55.3462Z" fill="#50353E"/>
<path d="M24.9613 17.1156H25.9613V17.1925H26.0382V18.0579H25.9613V18.1348H25.1152V18.4425H25.0382V18.7694H25.1152V19.6925H25.0382V20.0964H24.1344V22.0579H23.2113V21.9041H23.1344V19.0771H24.1344V18.1348H24.8075V18.0579H24.9613V17.9041H25.0382V17.1925H24.9613V17.1156Z" fill="#000001"/>
<path d="M20.2113 13.1926H22.1344V13.2695H22.2113V15.0772H22.1344V15.1542H20.519V15.2311H20.4421V15.1542H20.2113V15.0003H20.1344V13.6734H20.2113V13.1926Z" fill="#295159"/>
<path d="M52.0766 15.1541H52.2305V15.231H52.3074V15.1541H52.8459V15.231H52.9228V15.1541H54.7497V15.231H54.8266V16.8848H54.7497V17.1156H53.9036V17.0387H53.7497V16.9617H53.8266V16.1733H51.9997V16.0194H51.9228V15.9425H51.9997V15.6348H51.9228V15.4617H51.9997V15.231H52.0766V15.1541Z" fill="#201F3B"/>
<path d="M50.9997 30.9041H51.692V30.981H51.9228V31.7694H51.9997V31.8464H52.0766V31.9233H52.4612V31.8464H52.9228V32.7887H52.8459V32.8656H51.692V32.9425H51.2305V32.8656H51.0766V32.7887H50.9997V30.9041ZM26.269 54.5771H26.9613V55.5963H26.0382V55.5194H25.9613V55.4425H26.0382V54.654H26.269V54.5771ZM25.0382 55.3463H25.1151V55.5194H25.0382V55.3463ZM25.1151 55.5194H25.269V55.5963H26.0382V56.5386H25.3459V56.6155H25.1151V56.4425H25.0382V56.3655H25.1151V56.2886H25.0382V55.8271H25.1151V55.6732H25.0382V55.5963H25.1151V55.5194ZM16.3844 34.904H17.3075V34.981H17.3844V36.7117H17.3075V36.8656H16.6921V36.7887H16.4613V36.7117H16.3844V36.154H16.4613V35.7694H16.3844V34.904Z" fill="#261836"/>
<path d="M16.9229 7.25024H17.2306V7.32717H17.3844V8.26947H17.3075V8.3464H17.3844V9.19255H16.4613V9.11562H16.3844V8.26947H16.4613V7.7887H16.3844V7.32717H16.9229V7.25024Z" fill="#1E3347"/>
<path d="M19.3076 11.2311H21.2115V12.1734H20.9038V12.2503H20.5961V12.1734H19.3846V12.2503H19.3076V12.1734H19.2307V12.0965H19.3076V11.2311Z" fill="#251836"/>
<path d="M39.596 39.7693H40.2114V39.8462H41.346V40.7885H39.596V40.6924H39.5191V40.6154H39.4421V39.9231H39.5191V39.8462H39.596V39.7693Z" fill="#261836"/>
<path d="M37.5961 2.30774H37.9807V2.38466H39.4422V3.32697H37.5961V3.25004H37.5192V2.61543H37.5961V2.46159H37.5192V2.38466H37.5961V2.30774ZM39.4422 3.32697H39.5192V3.40389H39.4422V3.32697Z" fill="#1E3347"/>
<path d="M48.0959 7.3269H49.9998V8.17306H49.9229V8.34613H49.8459V8.26921H48.0959V7.3269Z" fill="#000001"/>
<path d="M15.4807 11.2311H16.3846V13.1926H15.7115V13.1157H15.4807V11.2311Z" fill="#211F3B"/>
<path d="M26.0384 1.36572H27.8845V1.82726H27.9615V2.15418H27.8845V2.30803H27.8076V2.38495H27.4999V2.30803H26.0384V1.36572Z" fill="#1E3347"/>
<path d="M37.5961 17.1156H38.3653V17.1925H38.4422V17.3464H38.5192V17.7502H38.4422V17.8271H38.5192V17.9041H38.4422V18.0579H38.5192V18.1348H37.673V18.0579H37.5961V17.9041H37.5192V17.8271H37.5961V17.1156ZM38.5192 18.1348H39.4422V19.0771H38.5192V18.1348Z" fill="#261836"/>
<path d="M37.5961 37.8077H38.4422V37.8847H38.5192V38.75H38.4422V38.827H37.5192V37.8847H37.5961V37.8077Z" fill="#000001"/>
<path d="M48.0959 10.2116H49.019V10.2885H49.0959V11.2308H48.1729V11.077H48.0959V10.2116ZM50.9998 9.19238H51.6921V9.26931H51.8459V9.36546H51.9229V9.44238H51.9998V10.0578H51.9229V10.2116H50.9998V9.51931H50.9229V9.36546H50.9998V9.19238Z" fill="#1E3347"/>
<path d="M53.8267 18.1348H54.7497V18.2117H54.8267V18.9232H54.7497V19.0771H54.0574V19.154H53.9805V19.0771H53.8267V18.1348Z" fill="#261836"/>
<path d="M47.2498 7.25024H47.7114V7.32717H47.9421V7.25024H48.2498V7.32717H48.096V8.26947H47.1729V7.32717H47.2498V7.25024Z" fill="#1E3246"/>
<path d="M18.3846 32.9423H19.3077V33.8846H18.3846V33.8076H18.3077V33.6538H18.3846V33.5769H18.3077V33.0192H18.3846V32.9423Z" fill="#1E3347"/>
<path d="M9.80765 30.9041H10.6538V31.7694H10.5769V31.8464H10.5V31.9233H9.73073V31.8464H9.65381V31.7694H9.73073V30.981H9.80765V30.9041Z" fill="#261836"/>
<path d="M35.6921 1.36572H36.5383V1.44265H36.6152V2.30803H35.6152V1.51957H35.6921V1.36572ZM10.6537 11.2311H11.5768V11.308H11.6345V11.6349H11.5768V12.1734H10.9614V12.2503H10.8076V12.1734H10.6537V11.2311Z" fill="#1E3347"/>
<path d="M24.2115 17.1156H24.9615V17.1925H25.0384V17.9041H24.9615V18.0579H24.8077V18.1348H24.1346V17.1925H24.2115V17.1156Z" fill="#261836"/>
<path d="M17.4615 33.8846H18.3077V34.8269H17.7692V34.9039H17.3846V33.9616H17.4615V33.8846Z" fill="#1E3347"/>
<path d="M17.3075 8.26941H18.3075V8.34633H18.3844V8.42325H18.3075V9.19248H17.4613V9.26941H17.3075V9.19248H17.3844V8.34633H17.3075V8.26941ZM18.4613 34.904H19.3075V35.8463H18.3844V34.9809H18.4613V34.904Z" fill="#261836"/>
<path d="M13.6344 8.26941H14.4806V9.19248H13.5575V8.34633H13.6344V8.26941Z" fill="#1E3347"/>
</svg>
