<svg width="64" height="80" viewBox="0 0 64 80" fill="none" xmlns="http://www.w3.org/2000/svg">
<g opacity="255">
<path d="M15.9792 0H14.7083V1.26984H15.9792V0Z" fill="#544430"/>
<path d="M17.25 1.26984H15.9792V2.53968H17.25V1.26984Z" fill="#544430"/>
<path d="M40.125 1.26984H38.8542V2.53968H40.125V1.26984Z" fill="#544430"/>
<path d="M41.3958 1.26984H40.125V2.53968H41.3958V1.26984Z" fill="#40311F"/>
<path d="M17.25 2.53968H15.9792V3.80952H17.25V2.53968Z" fill="#544431"/>
<path d="M41.3958 2.53968H40.125V3.80952H41.3958V2.53968Z" fill="#40311F"/>
<path d="M17.25 3.80952H15.9792V5.07937H17.25V3.80952Z" fill="#544430"/>
<path d="M18.5208 3.80952H17.25V5.07937H18.5208V3.80952Z" fill="#544430"/>
<path d="M41.3958 3.80952H40.125V5.07937H41.3958V3.80952Z" fill="#544430"/>
<path d="M49.0208 3.80952H47.75V5.07937H49.0208V3.80952Z" fill="#4C3C29"/>
<path d="M50.2917 3.80952H49.0208V5.07937H50.2917V3.80952Z" fill="#40311F"/>
<path d="M13.4375 5.07937H12.1667V6.34921H13.4375V5.07937Z" fill="#40311F"/>
<path d="M14.7083 5.07937H13.4375V6.34921H14.7083V5.07937Z" fill="#40311F"/>
<path d="M15.9792 5.07937H14.7083V6.34921H15.9792V5.07937Z" fill="#40311F"/>
<path d="M17.25 5.07937H15.9792V6.34921H17.25V5.07937Z" fill="#4C3C29"/>
<path d="M18.5208 5.07937H17.25V6.34921H18.5208V5.07937Z" fill="#544430"/>
<path d="M33.7708 5.07937H32.5V6.34921H33.7708V5.07937Z" fill="#544430"/>
<path d="M41.3958 5.07937H40.125V6.34921H41.3958V5.07937Z" fill="#544430"/>
<path d="M47.75 5.07937H46.4792V6.34921H47.75V5.07937Z" fill="#4C3C29"/>
<path d="M49.0208 5.07937H47.75V6.34921H49.0208V5.07937Z" fill="#40311F"/>
<path d="M17.25 6.34921H15.9792V7.61905H17.25V6.34921Z" fill="#40311F"/>
<path d="M18.5208 6.34921H17.25V7.61905H18.5208V6.34921Z" fill="#4C3C29"/>
<path d="M19.7917 6.34921H18.5208V7.61905H19.7917V6.34921Z" fill="#544430"/>
<path d="M35.0417 6.34921H33.7708V7.61905H35.0417V6.34921Z" fill="#544430"/>
<path d="M40.125 6.34921H38.8542V7.61905H40.125V6.34921Z" fill="#40311E"/>
<path d="M41.3958 6.34921H40.125V7.61905H41.3958V6.34921Z" fill="#544430"/>
<path d="M43.9375 6.34921H42.6667V7.61905H43.9375V6.34921Z" fill="#4C3C29"/>
<path d="M45.2083 6.34921H43.9375V7.61905H45.2083V6.34921Z" fill="#4C3C29"/>
<path d="M46.4792 6.34921H45.2083V7.61905H46.4792V6.34921Z" fill="#40311F"/>
<path d="M47.75 6.34921H46.4792V7.61905H47.75V6.34921Z" fill="#40311E"/>
<path d="M49.0208 6.34921H47.75V7.61905H49.0208V6.34921Z" fill="#40311F"/>
<path d="M17.25 7.61905H15.9792V8.88889H17.25V7.61905Z" fill="#597048"/>
<path d="M18.5208 7.61905H17.25V8.88889H18.5208V7.61905Z" fill="#40311F"/>
<path d="M19.7917 7.61905H18.5208V8.88889H19.7917V7.61905Z" fill="#4C3C29"/>
<path d="M35.0417 7.61905H33.7708V8.88889H35.0417V7.61905Z" fill="#40311F"/>
<path d="M36.3125 7.61905H35.0417V8.88889H36.3125V7.61905Z" fill="#544430"/>
<path d="M40.125 7.61905H38.8542V8.88889H40.125V7.61905Z" fill="#4C3C29"/>
<path d="M41.3958 7.61905H40.125V8.88889H41.3958V7.61905Z" fill="#40311F"/>
<path d="M42.6667 7.61905H41.3958V8.88889H42.6667V7.61905Z" fill="#4C3C29"/>
<path d="M43.9375 7.61905H42.6667V8.88889H43.9375V7.61905Z" fill="#40311F"/>
<path d="M45.2083 7.61905H43.9375V8.88889H45.2083V7.61905Z" fill="#40311F"/>
<path d="M17.25 8.88889H15.9792V10.1587H17.25V8.88889Z" fill="#6A8159"/>
<path d="M18.5208 8.88889H17.25V10.1587H18.5208V8.88889Z" fill="#40311F"/>
<path d="M19.7917 8.88889H18.5208V10.1587H19.7917V8.88889Z" fill="#40311F"/>
<path d="M21.0625 8.88889H19.7917V10.1587H21.0625V8.88889Z" fill="#544431"/>
<path d="M36.3125 8.88889H35.0417V10.1587H36.3125V8.88889Z" fill="#544430"/>
<path d="M38.8542 8.88889H37.5833V10.1587H38.8542V8.88889Z" fill="#544430"/>
<path d="M40.125 8.88889H38.8542V10.1587H40.125V8.88889Z" fill="#40311F"/>
<path d="M41.3958 8.88889H40.125V10.1587H41.3958V8.88889Z" fill="#40311F"/>
<path d="M42.6667 8.88889H41.3958V10.1587H42.6667V8.88889Z" fill="#40311F"/>
<path d="M17.25 10.1587H15.9792V11.4286H17.25V10.1587Z" fill="#6A8159"/>
<path d="M18.5208 10.1587H17.25V11.4286H18.5208V10.1587Z" fill="#597048"/>
<path d="M19.7917 10.1587H18.5208V11.4286H19.7917V10.1587Z" fill="#40311F"/>
<path d="M21.0625 10.1587H19.7917V11.4286H21.0625V10.1587Z" fill="#4C3C28"/>
<path d="M22.3333 10.1587H21.0625V11.4286H22.3333V10.1587Z" fill="#4C3C29"/>
<path d="M23.6042 10.1587H22.3333V11.4286H23.6042V10.1587Z" fill="#544430"/>
<path d="M36.3125 10.1587H35.0417V11.4286H36.3125V10.1587Z" fill="#40311F"/>
<path d="M37.5833 10.1587H36.3125V11.4286H37.5833V10.1587Z" fill="#4C3C29"/>
<path d="M38.8542 10.1587H37.5833V11.4286H38.8542V10.1587Z" fill="#4C3C29"/>
<path d="M40.125 10.1587H38.8542V11.4286H40.125V10.1587Z" fill="#40311E"/>
<path d="M17.25 11.4286H15.9792V12.6984H17.25V11.4286Z" fill="#6A8159"/>
<path d="M18.5208 11.4286H17.25V12.6984H18.5208V11.4286Z" fill="#6A8159"/>
<path d="M21.0625 11.4286H19.7917V12.6984H21.0625V11.4286Z" fill="#597048"/>
<path d="M22.3333 11.4286H21.0625V12.6984H22.3333V11.4286Z" fill="#40311F"/>
<path d="M23.6042 11.4286H22.3333V12.6984H23.6042V11.4286Z" fill="#40311F"/>
<path d="M24.875 11.4286H23.6042V12.6984H24.875V11.4286Z" fill="#4C3C29"/>
<path d="M26.1458 11.4286H24.875V12.6984H26.1458V11.4286Z" fill="#544430"/>
<path d="M36.3125 11.4286H35.0417V12.6984H36.3125V11.4286Z" fill="#40311F"/>
<path d="M37.5833 11.4286H36.3125V12.6984H37.5833V11.4286Z" fill="#40311F"/>
<path d="M38.8542 11.4286H37.5833V12.6984H38.8542V11.4286Z" fill="#40311F"/>
<path d="M40.125 11.4286H38.8542V12.6984H40.125V11.4286Z" fill="#6A8159"/>
<path d="M17.25 12.6984H15.9792V13.9683H17.25V12.6984Z" fill="#799B60"/>
<path d="M22.3333 12.6984H21.0625V13.9683H22.3333V12.6984Z" fill="#597048"/>
<path d="M23.6042 12.6984H22.3333V13.9683H23.6042V12.6984Z" fill="#597048"/>
<path d="M24.875 12.6984H23.6042V13.9683H24.875V12.6984Z" fill="#40311F"/>
<path d="M26.1458 12.6984H24.875V13.9683H26.1458V12.6984Z" fill="#40311F"/>
<path d="M27.4167 12.6984H26.1458V13.9683H27.4167V12.6984Z" fill="#40311F"/>
<path d="M28.6875 12.6984H27.4167V13.9683H28.6875V12.6984Z" fill="#4C3C29"/>
<path d="M36.3125 12.6984H35.0417V13.9683H36.3125V12.6984Z" fill="#4C3C29"/>
<path d="M37.5833 12.6984H36.3125V13.9683H37.5833V12.6984Z" fill="#40311F"/>
<path d="M17.25 13.9683H15.9792V15.2381H17.25V13.9683Z" fill="#799B60"/>
<path d="M26.1458 13.9683H24.875V15.2381H26.1458V13.9683Z" fill="#597048"/>
<path d="M27.4167 13.9683H26.1458V15.2381H27.4167V13.9683Z" fill="#597048"/>
<path d="M28.6875 13.9683H27.4167V15.2381H28.6875V13.9683Z" fill="#4C3C29"/>
<path d="M29.9583 13.9683H28.6875V15.2381H29.9583V13.9683Z" fill="#4C3C29"/>
<path d="M31.2292 13.9683H29.9583V15.2381H31.2292V13.9683Z" fill="#4C3C29"/>
<path d="M33.7708 13.9683H32.5V15.2381H33.7708V13.9683Z" fill="#544430"/>
<path d="M35.0417 13.9683H33.7708V15.2381H35.0417V13.9683Z" fill="#544430"/>
<path d="M36.3125 13.9683H35.0417V15.2381H36.3125V13.9683Z" fill="#4C3C29"/>
<path d="M37.5833 13.9683H36.3125V15.2381H37.5833V13.9683Z" fill="#597048"/>
<path d="M27.4167 15.2381H26.1458V16.5079H27.4167V15.2381Z" fill="#597048"/>
<path d="M29.9583 15.2381H28.6875V16.5079H29.9583V15.2381Z" fill="#40311F"/>
<path d="M31.2292 15.2381H29.9583V16.5079H31.2292V15.2381Z" fill="#40311F"/>
<path d="M32.5 15.2381H31.2292V16.5079H32.5V15.2381Z" fill="#4C3C28"/>
<path d="M33.7708 15.2381H32.5V16.5079H33.7708V15.2381Z" fill="#4C3C29"/>
<path d="M35.0417 15.2381H33.7708V16.5079H35.0417V15.2381Z" fill="#544430"/>
<path d="M36.3125 15.2381H35.0417V16.5079H36.3125V15.2381Z" fill="#40311F"/>
<path d="M37.5833 15.2381H36.3125V16.5079H37.5833V15.2381Z" fill="#789B60"/>
<path d="M27.4167 16.5079H26.1458V17.7778H27.4167V16.5079Z" fill="#6A8159"/>
<path d="M31.2292 16.5079H29.9583V17.7778H31.2292V16.5079Z" fill="#597048"/>
<path d="M32.5 16.5079H31.2292V17.7778H32.5V16.5079Z" fill="#40311F"/>
<path d="M33.7708 16.5079H32.5V17.7778H33.7708V16.5079Z" fill="#40311F"/>
<path d="M35.0417 16.5079H33.7708V17.7778H35.0417V16.5079Z" fill="#4C3C29"/>
<path d="M36.3125 16.5079H35.0417V17.7778H36.3125V16.5079Z" fill="#40311F"/>
<path d="M37.5833 16.5079H36.3125V17.7778H37.5833V16.5079Z" fill="#6A8159"/>
<path d="M27.4167 17.7778H26.1458V19.0476H27.4167V17.7778Z" fill="#6A8159"/>
<path d="M31.2292 17.7778H29.9583V19.0476H31.2292V17.7778Z" fill="#6A8159"/>
<path d="M33.7708 17.7778H32.5V19.0476H33.7708V17.7778Z" fill="#41311F"/>
<path d="M35.0417 17.7778H33.7708V19.0476H35.0417V17.7778Z" fill="#4C3C29"/>
<path d="M36.3125 17.7778H35.0417V19.0476H36.3125V17.7778Z" fill="#544430"/>
<path d="M27.4167 19.0476H26.1458V20.3175H27.4167V19.0476Z" fill="#799B60"/>
<path d="M35.0417 19.0476H33.7708V20.3175H35.0417V19.0476Z" fill="#40311F"/>
<path d="M36.3125 19.0476H35.0417V20.3175H36.3125V19.0476Z" fill="#4C3C29"/>
<path d="M37.5833 19.0476H36.3125V20.3175H37.5833V19.0476Z" fill="#4C3C29"/>
<path d="M27.4167 20.3175H26.1458V21.5873H27.4167V20.3175Z" fill="#799B60"/>
<path d="M36.3125 20.3175H35.0417V21.5873H36.3125V20.3175Z" fill="#544430"/>
<path d="M37.5833 20.3175H36.3125V21.5873H37.5833V20.3175Z" fill="#4C3C29"/>
<path d="M38.8542 20.3175H37.5833V21.5873H38.8542V20.3175Z" fill="#40311F"/>
<path d="M52.8333 20.3175H51.5625V21.5873H52.8333V20.3175Z" fill="#544430"/>
<path d="M9.625 21.5873H8.35417V22.8571H9.625V21.5873Z" fill="#544430"/>
<path d="M36.3125 21.5873H35.0417V22.8571H36.3125V21.5873Z" fill="#544430"/>
<path d="M37.5833 21.5873H36.3125V22.8571H37.5833V21.5873Z" fill="#4C3C29"/>
<path d="M38.8542 21.5873H37.5833V22.8571H38.8542V21.5873Z" fill="#40311F"/>
<path d="M51.5625 21.5873H50.2917V22.8571H51.5625V21.5873Z" fill="#544430"/>
<path d="M52.8333 21.5873H51.5625V22.8571H52.8333V21.5873Z" fill="#4C3C29"/>
<path d="M56.6458 21.5873H55.375V22.8571H56.6458V21.5873Z" fill="#40311F"/>
<path d="M57.9167 21.5873H56.6458V22.8571H57.9167V21.5873Z" fill="#40301F"/>
<path d="M9.625 22.8571H8.35417V24.127H9.625V22.8571Z" fill="#544430"/>
<path d="M10.8958 22.8571H9.625V24.127H10.8958V22.8571Z" fill="#544430"/>
<path d="M36.3125 22.8571H35.0417V24.127H36.3125V22.8571Z" fill="#544430"/>
<path d="M37.5833 22.8571H36.3125V24.127H37.5833V22.8571Z" fill="#4C3C29"/>
<path d="M38.8542 22.8571H37.5833V24.127H38.8542V22.8571Z" fill="#40311F"/>
<path d="M50.2917 22.8571H49.0208V24.127H50.2917V22.8571Z" fill="#544430"/>
<path d="M51.5625 22.8571H50.2917V24.127H51.5625V22.8571Z" fill="#4C3C29"/>
<path d="M52.8333 22.8571H51.5625V24.127H52.8333V22.8571Z" fill="#4C3C29"/>
<path d="M54.1042 22.8571H52.8333V24.127H54.1042V22.8571Z" fill="#40311F"/>
<path d="M55.375 22.8571H54.1042V24.127H55.375V22.8571Z" fill="#40311F"/>
<path d="M10.8958 24.127H9.625V25.3968H10.8958V24.127Z" fill="#544430"/>
<path d="M36.3125 24.127H35.0417V25.3968H36.3125V24.127Z" fill="#544430"/>
<path d="M37.5833 24.127H36.3125V25.3968H37.5833V24.127Z" fill="#40311F"/>
<path d="M38.8542 24.127H37.5833V25.3968H38.8542V24.127Z" fill="#40301F"/>
<path d="M47.75 24.127H46.4792V25.3968H47.75V24.127Z" fill="#544430"/>
<path d="M49.0208 24.127H47.75V25.3968H49.0208V24.127Z" fill="#4C3C29"/>
<path d="M50.2917 24.127H49.0208V25.3968H50.2917V24.127Z" fill="#40311F"/>
<path d="M51.5625 24.127H50.2917V25.3968H51.5625V24.127Z" fill="#40311F"/>
<path d="M52.8333 24.127H51.5625V25.3968H52.8333V24.127Z" fill="#40311F"/>
<path d="M54.1042 24.127H52.8333V25.3968H54.1042V24.127Z" fill="#40311F"/>
<path d="M55.375 24.127H54.1042V25.3968H55.375V24.127Z" fill="#597048"/>
<path d="M5.8125 25.3968H4.54167V26.6667H5.8125V25.3968Z" fill="#40311F"/>
<path d="M7.08333 25.3968H5.8125V26.6667H7.08333V25.3968Z" fill="#40311F"/>
<path d="M8.35417 25.3968H7.08333V26.6667H8.35417V25.3968Z" fill="#40311F"/>
<path d="M9.625 25.3968H8.35417V26.6667H9.625V25.3968Z" fill="#40311F"/>
<path d="M10.8958 25.3968H9.625V26.6667H10.8958V25.3968Z" fill="#4C3C29"/>
<path d="M12.1667 25.3968H10.8958V26.6667H12.1667V25.3968Z" fill="#544430"/>
<path d="M18.5208 25.3968H17.25V26.6667H18.5208V25.3968Z" fill="#554430"/>
<path d="M35.0417 25.3968H33.7708V26.6667H35.0417V25.3968Z" fill="#544430"/>
<path d="M36.3125 25.3968H35.0417V26.6667H36.3125V25.3968Z" fill="#4C3C29"/>
<path d="M37.5833 25.3968H36.3125V26.6667H37.5833V25.3968Z" fill="#40311F"/>
<path d="M38.8542 25.3968H37.5833V26.6667H38.8542V25.3968Z" fill="#40311F"/>
<path d="M46.4792 25.3968H45.2083V26.6667H46.4792V25.3968Z" fill="#544430"/>
<path d="M47.75 25.3968H46.4792V26.6667H47.75V25.3968Z" fill="#544430"/>
<path d="M49.0208 25.3968H47.75V26.6667H49.0208V25.3968Z" fill="#40311F"/>
<path d="M52.8333 25.3968H51.5625V26.6667H52.8333V25.3968Z" fill="#597048"/>
<path d="M54.1042 25.3968H52.8333V26.6667H54.1042V25.3968Z" fill="#6A8159"/>
<path d="M55.375 25.3968H54.1042V26.6667H55.375V25.3968Z" fill="#6A8159"/>
<path d="M5.8125 26.6667H4.54167V27.9365H5.8125V26.6667Z" fill="#6A8159"/>
<path d="M7.08333 26.6667H5.8125V27.9365H7.08333V26.6667Z" fill="#587048"/>
<path d="M8.35417 26.6667H7.08333V27.9365H8.35417V26.6667Z" fill="#597148"/>
<path d="M9.625 26.6667H8.35417V27.9365H9.625V26.6667Z" fill="#40311F"/>
<path d="M10.8958 26.6667H9.625V27.9365H10.8958V26.6667Z" fill="#40311F"/>
<path d="M12.1667 26.6667H10.8958V27.9365H12.1667V26.6667Z" fill="#4C3C29"/>
<path d="M13.4375 26.6667H12.1667V27.9365H13.4375V26.6667Z" fill="#4C3C29"/>
<path d="M19.7917 26.6667H18.5208V27.9365H19.7917V26.6667Z" fill="#544430"/>
<path d="M32.5 26.6667H31.2292V27.9365H32.5V26.6667Z" fill="#544430"/>
<path d="M33.7708 26.6667H32.5V27.9365H33.7708V26.6667Z" fill="#544430"/>
<path d="M35.0417 26.6667H33.7708V27.9365H35.0417V26.6667Z" fill="#544430"/>
<path d="M36.3125 26.6667H35.0417V27.9365H36.3125V26.6667Z" fill="#40311E"/>
<path d="M37.5833 26.6667H36.3125V27.9365H37.5833V26.6667Z" fill="#40311F"/>
<path d="M38.8542 26.6667H37.5833V27.9365H38.8542V26.6667Z" fill="#40311F"/>
<path d="M46.4792 26.6667H45.2083V27.9365H46.4792V26.6667Z" fill="#544430"/>
<path d="M47.75 26.6667H46.4792V27.9365H47.75V26.6667Z" fill="#4C3C29"/>
<path d="M49.0208 26.6667H47.75V27.9365H49.0208V26.6667Z" fill="#40311F"/>
<path d="M55.375 26.6667H54.1042V27.9365H55.375V26.6667Z" fill="#6A8159"/>
<path d="M5.8125 27.9365H4.54167V29.2064H5.8125V27.9365Z" fill="#799B60"/>
<path d="M8.35417 27.9365H7.08333V29.2064H8.35417V27.9365Z" fill="#6A8159"/>
<path d="M10.8958 27.9365H9.625V29.2064H10.8958V27.9365Z" fill="#597048"/>
<path d="M12.1667 27.9365H10.8958V29.2064H12.1667V27.9365Z" fill="#40311F"/>
<path d="M13.4375 27.9365H12.1667V29.2064H13.4375V27.9365Z" fill="#4C3C29"/>
<path d="M19.7917 27.9365H18.5208V29.2064H19.7917V27.9365Z" fill="#544430"/>
<path d="M31.2292 27.9365H29.9583V29.2064H31.2292V27.9365Z" fill="#544430"/>
<path d="M32.5 27.9365H31.2292V29.2064H32.5V27.9365Z" fill="#544430"/>
<path d="M33.7708 27.9365H32.5V29.2064H33.7708V27.9365Z" fill="#4C3C29"/>
<path d="M35.0417 27.9365H33.7708V29.2064H35.0417V27.9365Z" fill="#4C3D29"/>
<path d="M36.3125 27.9365H35.0417V29.2064H36.3125V27.9365Z" fill="#40311F"/>
<path d="M37.5833 27.9365H36.3125V29.2064H37.5833V27.9365Z" fill="#40311F"/>
<path d="M46.4792 27.9365H45.2083V29.2064H46.4792V27.9365Z" fill="#544530"/>
<path d="M47.75 27.9365H46.4792V29.2064H47.75V27.9365Z" fill="#4C3C29"/>
<path d="M49.0208 27.9365H47.75V29.2064H49.0208V27.9365Z" fill="#40311F"/>
<path d="M55.375 27.9365H54.1042V29.2064H55.375V27.9365Z" fill="#799B60"/>
<path d="M5.8125 29.2064H4.54167V30.4762H5.8125V29.2064Z" fill="#799B60"/>
<path d="M10.8958 29.2064H9.625V30.4762H10.8958V29.2064Z" fill="#6A8159"/>
<path d="M13.4375 29.2064H12.1667V30.4762H13.4375V29.2064Z" fill="#40311F"/>
<path d="M14.7083 29.2064H13.4375V30.4762H14.7083V29.2064Z" fill="#4C3C29"/>
<path d="M15.9792 29.2064H14.7083V30.4762H15.9792V29.2064Z" fill="#544430"/>
<path d="M17.25 29.2064H15.9792V30.4762H17.25V29.2064Z" fill="#544430"/>
<path d="M19.7917 29.2064H18.5208V30.4762H19.7917V29.2064Z" fill="#544430"/>
<path d="M21.0625 29.2064H19.7917V30.4762H21.0625V29.2064Z" fill="#544430"/>
<path d="M29.9583 29.2064H28.6875V30.4762H29.9583V29.2064Z" fill="#40311F"/>
<path d="M31.2292 29.2064H29.9583V30.4762H31.2292V29.2064Z" fill="#544430"/>
<path d="M32.5 29.2064H31.2292V30.4762H32.5V29.2064Z" fill="#4C3C29"/>
<path d="M33.7708 29.2064H32.5V30.4762H33.7708V29.2064Z" fill="#40311F"/>
<path d="M35.0417 29.2064H33.7708V30.4762H35.0417V29.2064Z" fill="#40311F"/>
<path d="M46.4792 29.2064H45.2083V30.4762H46.4792V29.2064Z" fill="#544430"/>
<path d="M47.75 29.2064H46.4792V30.4762H47.75V29.2064Z" fill="#4C3C29"/>
<path d="M49.0208 29.2064H47.75V30.4762H49.0208V29.2064Z" fill="#41311F"/>
<path d="M50.2917 29.2064H49.0208V30.4762H50.2917V29.2064Z" fill="#40311F"/>
<path d="M55.375 29.2064H54.1042V30.4762H55.375V29.2064Z" fill="#799B60"/>
<path d="M5.8125 30.4762H4.54167V31.746H5.8125V30.4762Z" fill="#799B60"/>
<path d="M10.8958 30.4762H9.625V31.746H10.8958V30.4762Z" fill="#799B60"/>
<path d="M14.7083 30.4762H13.4375V31.746H14.7083V30.4762Z" fill="#40311F"/>
<path d="M15.9792 30.4762H14.7083V31.746H15.9792V30.4762Z" fill="#4C3C29"/>
<path d="M17.25 30.4762H15.9792V31.746H17.25V30.4762Z" fill="#544430"/>
<path d="M18.5208 30.4762H17.25V31.746H18.5208V30.4762Z" fill="#544430"/>
<path d="M21.0625 30.4762H19.7917V31.746H21.0625V30.4762Z" fill="#544430"/>
<path d="M29.9583 30.4762H28.6875V31.746H29.9583V30.4762Z" fill="#40311F"/>
<path d="M31.2292 30.4762H29.9583V31.746H31.2292V30.4762Z" fill="#4C3C29"/>
<path d="M32.5 30.4762H31.2292V31.746H32.5V30.4762Z" fill="#4C3C29"/>
<path d="M33.7708 30.4762H32.5V31.746H33.7708V30.4762Z" fill="#41311F"/>
<path d="M47.75 30.4762H46.4792V31.746H47.75V30.4762Z" fill="#544430"/>
<path d="M49.0208 30.4762H47.75V31.746H49.0208V30.4762Z" fill="#4C3C29"/>
<path d="M50.2917 30.4762H49.0208V31.746H50.2917V30.4762Z" fill="#40311F"/>
<path d="M14.7083 31.746H13.4375V33.0159H14.7083V31.746Z" fill="#40311F"/>
<path d="M15.9792 31.746H14.7083V33.0159H15.9792V31.746Z" fill="#40311F"/>
<path d="M17.25 31.746H15.9792V33.0159H17.25V31.746Z" fill="#4C3C29"/>
<path d="M18.5208 31.746H17.25V33.0159H18.5208V31.746Z" fill="#4C3C29"/>
<path d="M19.7917 31.746H18.5208V33.0159H19.7917V31.746Z" fill="#544430"/>
<path d="M21.0625 31.746H19.7917V33.0159H21.0625V31.746Z" fill="#544430"/>
<path d="M29.9583 31.746H28.6875V33.0159H29.9583V31.746Z" fill="#41311F"/>
<path d="M31.2292 31.746H29.9583V33.0159H31.2292V31.746Z" fill="#4C3C29"/>
<path d="M32.5 31.746H31.2292V33.0159H32.5V31.746Z" fill="#544430"/>
<path d="M33.7708 31.746H32.5V33.0159H33.7708V31.746Z" fill="#40311F"/>
<path d="M49.0208 31.746H47.75V33.0159H49.0208V31.746Z" fill="#544430"/>
<path d="M50.2917 31.746H49.0208V33.0159H50.2917V31.746Z" fill="#4C3C29"/>
<path d="M15.9792 33.0159H14.7083V34.2857H15.9792V33.0159Z" fill="#40311F"/>
<path d="M17.25 33.0159H15.9792V34.2857H17.25V33.0159Z" fill="#40311F"/>
<path d="M18.5208 33.0159H17.25V34.2857H18.5208V33.0159Z" fill="#40311F"/>
<path d="M19.7917 33.0159H18.5208V34.2857H19.7917V33.0159Z" fill="#544430"/>
<path d="M21.0625 33.0159H19.7917V34.2857H21.0625V33.0159Z" fill="#544430"/>
<path d="M22.3333 33.0159H21.0625V34.2857H22.3333V33.0159Z" fill="#597048"/>
<path d="M23.6042 33.0159H22.3333V34.2857H23.6042V33.0159Z" fill="#799B60"/>
<path d="M29.9583 33.0159H28.6875V34.2857H29.9583V33.0159Z" fill="#40311F"/>
<path d="M31.2292 33.0159H29.9583V34.2857H31.2292V33.0159Z" fill="#4C3C29"/>
<path d="M32.5 33.0159H31.2292V34.2857H32.5V33.0159Z" fill="#544430"/>
<path d="M33.7708 33.0159H32.5V34.2857H33.7708V33.0159Z" fill="#40311F"/>
<path d="M50.2917 33.0159H49.0208V34.2857H50.2917V33.0159Z" fill="#544430"/>
<path d="M51.5625 33.0159H50.2917V34.2857H51.5625V33.0159Z" fill="#4C3C29"/>
<path d="M8.35417 34.2857H7.08333V35.5556H8.35417V34.2857Z" fill="#544430"/>
<path d="M9.625 34.2857H8.35417V35.5556H9.625V34.2857Z" fill="#544430"/>
<path d="M10.8958 34.2857H9.625V35.5556H10.8958V34.2857Z" fill="#544430"/>
<path d="M12.1667 34.2857H10.8958V35.5556H12.1667V34.2857Z" fill="#4C3C29"/>
<path d="M13.4375 34.2857H12.1667V35.5556H13.4375V34.2857Z" fill="#544430"/>
<path d="M14.7083 34.2857H13.4375V35.5556H14.7083V34.2857Z" fill="#544430"/>
<path d="M15.9792 34.2857H14.7083V35.5556H15.9792V34.2857Z" fill="#4C3C29"/>
<path d="M17.25 34.2857H15.9792V35.5556H17.25V34.2857Z" fill="#4C3C29"/>
<path d="M18.5208 34.2857H17.25V35.5556H18.5208V34.2857Z" fill="#40311F"/>
<path d="M19.7917 34.2857H18.5208V35.5556H19.7917V34.2857Z" fill="#4C3C29"/>
<path d="M21.0625 34.2857H19.7917V35.5556H21.0625V34.2857Z" fill="#4C3C29"/>
<path d="M22.3333 34.2857H21.0625V35.5556H22.3333V34.2857Z" fill="#4C3C29"/>
<path d="M23.6042 34.2857H22.3333V35.5556H23.6042V34.2857Z" fill="#597048"/>
<path d="M24.875 34.2857H23.6042V35.5556H24.875V34.2857Z" fill="#544430"/>
<path d="M26.1458 34.2857H24.875V35.5556H26.1458V34.2857Z" fill="#544430"/>
<path d="M29.9583 34.2857H28.6875V35.5556H29.9583V34.2857Z" fill="#40311F"/>
<path d="M31.2292 34.2857H29.9583V35.5556H31.2292V34.2857Z" fill="#4C3C29"/>
<path d="M32.5 34.2857H31.2292V35.5556H32.5V34.2857Z" fill="#544430"/>
<path d="M33.7708 34.2857H32.5V35.5556H33.7708V34.2857Z" fill="#544430"/>
<path d="M35.0417 34.2857H33.7708V35.5556H35.0417V34.2857Z" fill="#544430"/>
<path d="M50.2917 34.2857H49.0208V35.5556H50.2917V34.2857Z" fill="#544430"/>
<path d="M51.5625 34.2857H50.2917V35.5556H51.5625V34.2857Z" fill="#544430"/>
<path d="M3.27083 35.5556H2V36.8254H3.27083V35.5556Z" fill="#40311F"/>
<path d="M4.54167 35.5556H3.27083V36.8254H4.54167V35.5556Z" fill="#40311F"/>
<path d="M5.8125 35.5556H4.54167V36.8254H5.8125V35.5556Z" fill="#40311F"/>
<path d="M7.08333 35.5556H5.8125V36.8254H7.08333V35.5556Z" fill="#41311F"/>
<path d="M8.35417 35.5556H7.08333V36.8254H8.35417V35.5556Z" fill="#4C3C29"/>
<path d="M9.625 35.5556H8.35417V36.8254H9.625V35.5556Z" fill="#4C3C29"/>
<path d="M10.8958 35.5556H9.625V36.8254H10.8958V35.5556Z" fill="#40311F"/>
<path d="M12.1667 35.5556H10.8958V36.8254H12.1667V35.5556Z" fill="#40311F"/>
<path d="M13.4375 35.5556H12.1667V36.8254H13.4375V35.5556Z" fill="#40311F"/>
<path d="M14.7083 35.5556H13.4375V36.8254H14.7083V35.5556Z" fill="#4C3C29"/>
<path d="M15.9792 35.5556H14.7083V36.8254H15.9792V35.5556Z" fill="#4C3D29"/>
<path d="M17.25 35.5556H15.9792V36.8254H17.25V35.5556Z" fill="#40311F"/>
<path d="M18.5208 35.5556H17.25V36.8254H18.5208V35.5556Z" fill="#41311F"/>
<path d="M19.7917 35.5556H18.5208V36.8254H19.7917V35.5556Z" fill="#40301F"/>
<path d="M21.0625 35.5556H19.7917V36.8254H21.0625V35.5556Z" fill="#4C3C29"/>
<path d="M22.3333 35.5556H21.0625V36.8254H22.3333V35.5556Z" fill="#40311F"/>
<path d="M23.6042 35.5556H22.3333V36.8254H23.6042V35.5556Z" fill="#40311F"/>
<path d="M24.875 35.5556H23.6042V36.8254H24.875V35.5556Z" fill="#4C3C29"/>
<path d="M26.1458 35.5556H24.875V36.8254H26.1458V35.5556Z" fill="#544430"/>
<path d="M27.4167 35.5556H26.1458V36.8254H27.4167V35.5556Z" fill="#544430"/>
<path d="M29.9583 35.5556H28.6875V36.8254H29.9583V35.5556Z" fill="#40311F"/>
<path d="M31.2292 35.5556H29.9583V36.8254H31.2292V35.5556Z" fill="#4C3D29"/>
<path d="M32.5 35.5556H31.2292V36.8254H32.5V35.5556Z" fill="#4C3C29"/>
<path d="M33.7708 35.5556H32.5V36.8254H33.7708V35.5556Z" fill="#544430"/>
<path d="M35.0417 35.5556H33.7708V36.8254H35.0417V35.5556Z" fill="#544430"/>
<path d="M36.3125 35.5556H35.0417V36.8254H36.3125V35.5556Z" fill="#544430"/>
<path d="M50.2917 35.5556H49.0208V36.8254H50.2917V35.5556Z" fill="#544430"/>
<path d="M51.5625 35.5556H50.2917V36.8254H51.5625V35.5556Z" fill="#40311F"/>
<path d="M4.54167 36.8254H3.27083V38.0952H4.54167V36.8254Z" fill="#40311F"/>
<path d="M5.8125 36.8254H4.54167V38.0952H5.8125V36.8254Z" fill="#40311F"/>
<path d="M7.08333 36.8254H5.8125V38.0952H7.08333V36.8254Z" fill="#40311F"/>
<path d="M8.35417 36.8254H7.08333V38.0952H8.35417V36.8254Z" fill="#40311F"/>
<path d="M13.4375 36.8254H12.1667V38.0952H13.4375V36.8254Z" fill="#40311F"/>
<path d="M14.7083 36.8254H13.4375V38.0952H14.7083V36.8254Z" fill="#40311F"/>
<path d="M15.9792 36.8254H14.7083V38.0952H15.9792V36.8254Z" fill="#40311F"/>
<path d="M17.25 36.8254H15.9792V38.0952H17.25V36.8254Z" fill="#40311F"/>
<path d="M18.5208 36.8254H17.25V38.0952H18.5208V36.8254Z" fill="#40311F"/>
<path d="M23.6042 36.8254H22.3333V38.0952H23.6042V36.8254Z" fill="#40311F"/>
<path d="M24.875 36.8254H23.6042V38.0952H24.875V36.8254Z" fill="#40311F"/>
<path d="M26.1458 36.8254H24.875V38.0952H26.1458V36.8254Z" fill="#4C3C29"/>
<path d="M27.4167 36.8254H26.1458V38.0952H27.4167V36.8254Z" fill="#4C3C29"/>
<path d="M28.6875 36.8254H27.4167V38.0952H28.6875V36.8254Z" fill="#4C3C29"/>
<path d="M29.9583 36.8254H28.6875V38.0952H29.9583V36.8254Z" fill="#40311F"/>
<path d="M31.2292 36.8254H29.9583V38.0952H31.2292V36.8254Z" fill="#40311F"/>
<path d="M32.5 36.8254H31.2292V38.0952H32.5V36.8254Z" fill="#4C3C29"/>
<path d="M33.7708 36.8254H32.5V38.0952H33.7708V36.8254Z" fill="#544430"/>
<path d="M35.0417 36.8254H33.7708V38.0952H35.0417V36.8254Z" fill="#544430"/>
<path d="M36.3125 36.8254H35.0417V38.0952H36.3125V36.8254Z" fill="#544430"/>
<path d="M46.4792 36.8254H45.2083V38.0952H46.4792V36.8254Z" fill="#544430"/>
<path d="M47.75 36.8254H46.4792V38.0952H47.75V36.8254Z" fill="#544430"/>
<path d="M49.0208 36.8254H47.75V38.0952H49.0208V36.8254Z" fill="#544430"/>
<path d="M50.2917 36.8254H49.0208V38.0952H50.2917V36.8254Z" fill="#4C3C29"/>
<path d="M51.5625 36.8254H50.2917V38.0952H51.5625V36.8254Z" fill="#40311F"/>
<path d="M4.54167 38.0952H3.27083V39.3651H4.54167V38.0952Z" fill="#597148"/>
<path d="M5.8125 38.0952H4.54167V39.3651H5.8125V38.0952Z" fill="#597048"/>
<path d="M7.08333 38.0952H5.8125V39.3651H7.08333V38.0952Z" fill="#587048"/>
<path d="M8.35417 38.0952H7.08333V39.3651H8.35417V38.0952Z" fill="#6A8159"/>
<path d="M24.875 38.0952H23.6042V39.3651H24.875V38.0952Z" fill="#597048"/>
<path d="M26.1458 38.0952H24.875V39.3651H26.1458V38.0952Z" fill="#40311F"/>
<path d="M27.4167 38.0952H26.1458V39.3651H27.4167V38.0952Z" fill="#40311F"/>
<path d="M28.6875 38.0952H27.4167V39.3651H28.6875V38.0952Z" fill="#4C3C28"/>
<path d="M29.9583 38.0952H28.6875V39.3651H29.9583V38.0952Z" fill="#40311F"/>
<path d="M31.2292 38.0952H29.9583V39.3651H31.2292V38.0952Z" fill="#40311F"/>
<path d="M32.5 38.0952H31.2292V39.3651H32.5V38.0952Z" fill="#40311F"/>
<path d="M33.7708 38.0952H32.5V39.3651H33.7708V38.0952Z" fill="#4C3C29"/>
<path d="M35.0417 38.0952H33.7708V39.3651H35.0417V38.0952Z" fill="#4C3C29"/>
<path d="M36.3125 38.0952H35.0417V39.3651H36.3125V38.0952Z" fill="#544430"/>
<path d="M37.5833 38.0952H36.3125V39.3651H37.5833V38.0952Z" fill="#554430"/>
<path d="M42.6667 38.0952H41.3958V39.3651H42.6667V38.0952Z" fill="#544430"/>
<path d="M43.9375 38.0952H42.6667V39.3651H43.9375V38.0952Z" fill="#544430"/>
<path d="M45.2083 38.0952H43.9375V39.3651H45.2083V38.0952Z" fill="#554430"/>
<path d="M46.4792 38.0952H45.2083V39.3651H46.4792V38.0952Z" fill="#4C3C29"/>
<path d="M47.75 38.0952H46.4792V39.3651H47.75V38.0952Z" fill="#4C3C29"/>
<path d="M49.0208 38.0952H47.75V39.3651H49.0208V38.0952Z" fill="#544430"/>
<path d="M50.2917 38.0952H49.0208V39.3651H50.2917V38.0952Z" fill="#40311F"/>
<path d="M51.5625 38.0952H50.2917V39.3651H51.5625V38.0952Z" fill="#40311F"/>
<path d="M59.1875 38.0952H57.9167V39.3651H59.1875V38.0952Z" fill="#544430"/>
<path d="M5.8125 39.3651H4.54167V40.6349H5.8125V39.3651Z" fill="#6A8158"/>
<path d="M7.08333 39.3651H5.8125V40.6349H7.08333V39.3651Z" fill="#597048"/>
<path d="M8.35417 39.3651H7.08333V40.6349H8.35417V39.3651Z" fill="#6A8159"/>
<path d="M26.1458 39.3651H24.875V40.6349H26.1458V39.3651Z" fill="#6A8159"/>
<path d="M27.4167 39.3651H26.1458V40.6349H27.4167V39.3651Z" fill="#597148"/>
<path d="M28.6875 39.3651H27.4167V40.6349H28.6875V39.3651Z" fill="#4C3C29"/>
<path d="M29.9583 39.3651H28.6875V40.6349H29.9583V39.3651Z" fill="#4C3C29"/>
<path d="M31.2292 39.3651H29.9583V40.6349H31.2292V39.3651Z" fill="#40311F"/>
<path d="M32.5 39.3651H31.2292V40.6349H32.5V39.3651Z" fill="#40311F"/>
<path d="M33.7708 39.3651H32.5V40.6349H33.7708V39.3651Z" fill="#40311F"/>
<path d="M35.0417 39.3651H33.7708V40.6349H35.0417V39.3651Z" fill="#40311F"/>
<path d="M36.3125 39.3651H35.0417V40.6349H36.3125V39.3651Z" fill="#4C3C29"/>
<path d="M37.5833 39.3651H36.3125V40.6349H37.5833V39.3651Z" fill="#544430"/>
<path d="M38.8542 39.3651H37.5833V40.6349H38.8542V39.3651Z" fill="#544530"/>
<path d="M40.125 39.3651H38.8542V40.6349H40.125V39.3651Z" fill="#544430"/>
<path d="M41.3958 39.3651H40.125V40.6349H41.3958V39.3651Z" fill="#544430"/>
<path d="M42.6667 39.3651H41.3958V40.6349H42.6667V39.3651Z" fill="#544430"/>
<path d="M43.9375 39.3651H42.6667V40.6349H43.9375V39.3651Z" fill="#4C3C29"/>
<path d="M45.2083 39.3651H43.9375V40.6349H45.2083V39.3651Z" fill="#4C3C29"/>
<path d="M46.4792 39.3651H45.2083V40.6349H46.4792V39.3651Z" fill="#40311F"/>
<path d="M47.75 39.3651H46.4792V40.6349H47.75V39.3651Z" fill="#40311F"/>
<path d="M49.0208 39.3651H47.75V40.6349H49.0208V39.3651Z" fill="#40311F"/>
<path d="M57.9167 39.3651H56.6458V40.6349H57.9167V39.3651Z" fill="#544430"/>
<path d="M59.1875 39.3651H57.9167V40.6349H59.1875V39.3651Z" fill="#4C3C28"/>
<path d="M60.4583 39.3651H59.1875V40.6349H60.4583V39.3651Z" fill="#4C3C29"/>
<path d="M5.8125 40.6349H4.54167V41.9048H5.8125V40.6349Z" fill="#6A8158"/>
<path d="M7.08333 40.6349H5.8125V41.9048H7.08333V40.6349Z" fill="#6A8159"/>
<path d="M8.35417 40.6349H7.08333V41.9048H8.35417V40.6349Z" fill="#6A8159"/>
<path d="M26.1458 40.6349H24.875V41.9048H26.1458V40.6349Z" fill="#6A8159"/>
<path d="M28.6875 40.6349H27.4167V41.9048H28.6875V40.6349Z" fill="#597048"/>
<path d="M29.9583 40.6349H28.6875V41.9048H29.9583V40.6349Z" fill="#40311F"/>
<path d="M31.2292 40.6349H29.9583V41.9048H31.2292V40.6349Z" fill="#4C3C29"/>
<path d="M32.5 40.6349H31.2292V41.9048H32.5V40.6349Z" fill="#4C3C29"/>
<path d="M33.7708 40.6349H32.5V41.9048H33.7708V40.6349Z" fill="#4C3C29"/>
<path d="M35.0417 40.6349H33.7708V41.9048H35.0417V40.6349Z" fill="#4C3C29"/>
<path d="M36.3125 40.6349H35.0417V41.9048H36.3125V40.6349Z" fill="#544430"/>
<path d="M37.5833 40.6349H36.3125V41.9048H37.5833V40.6349Z" fill="#4C3C29"/>
<path d="M38.8542 40.6349H37.5833V41.9048H38.8542V40.6349Z" fill="#4C3C29"/>
<path d="M40.125 40.6349H38.8542V41.9048H40.125V40.6349Z" fill="#4C3C29"/>
<path d="M41.3958 40.6349H40.125V41.9048H41.3958V40.6349Z" fill="#4C3C29"/>
<path d="M42.6667 40.6349H41.3958V41.9048H42.6667V40.6349Z" fill="#40311F"/>
<path d="M43.9375 40.6349H42.6667V41.9048H43.9375V40.6349Z" fill="#40311F"/>
<path d="M45.2083 40.6349H43.9375V41.9048H45.2083V40.6349Z" fill="#40311F"/>
<path d="M46.4792 40.6349H45.2083V41.9048H46.4792V40.6349Z" fill="#40311F"/>
<path d="M47.75 40.6349H46.4792V41.9048H47.75V40.6349Z" fill="#40311E"/>
<path d="M55.375 40.6349H54.1042V41.9048H55.375V40.6349Z" fill="#544430"/>
<path d="M56.6458 40.6349H55.375V41.9048H56.6458V40.6349Z" fill="#544430"/>
<path d="M57.9167 40.6349H56.6458V41.9048H57.9167V40.6349Z" fill="#4C3D29"/>
<path d="M59.1875 40.6349H57.9167V41.9048H59.1875V40.6349Z" fill="#40311F"/>
<path d="M60.4583 40.6349H59.1875V41.9048H60.4583V40.6349Z" fill="#40311F"/>
<path d="M61.7292 40.6349H60.4583V41.9048H61.7292V40.6349Z" fill="#40311F"/>
<path d="M63 40.6349H61.7292V41.9048H63V40.6349Z" fill="#40311F"/>
<path d="M5.8125 41.9048H4.54167V43.1746H5.8125V41.9048Z" fill="#6A8159"/>
<path d="M8.35417 41.9048H7.08333V43.1746H8.35417V41.9048Z" fill="#799B60"/>
<path d="M28.6875 41.9048H27.4167V43.1746H28.6875V41.9048Z" fill="#6A8159"/>
<path d="M29.9583 41.9048H28.6875V43.1746H29.9583V41.9048Z" fill="#597048"/>
<path d="M31.2292 41.9048H29.9583V43.1746H31.2292V41.9048Z" fill="#40311F"/>
<path d="M32.5 41.9048H31.2292V43.1746H32.5V41.9048Z" fill="#4C3C29"/>
<path d="M33.7708 41.9048H32.5V43.1746H33.7708V41.9048Z" fill="#554430"/>
<path d="M35.0417 41.9048H33.7708V43.1746H35.0417V41.9048Z" fill="#544430"/>
<path d="M36.3125 41.9048H35.0417V43.1746H36.3125V41.9048Z" fill="#4C3C29"/>
<path d="M37.5833 41.9048H36.3125V43.1746H37.5833V41.9048Z" fill="#40311F"/>
<path d="M38.8542 41.9048H37.5833V43.1746H38.8542V41.9048Z" fill="#40311F"/>
<path d="M40.125 41.9048H38.8542V43.1746H40.125V41.9048Z" fill="#40311E"/>
<path d="M41.3958 41.9048H40.125V43.1746H41.3958V41.9048Z" fill="#597048"/>
<path d="M43.9375 41.9048H42.6667V43.1746H43.9375V41.9048Z" fill="#597048"/>
<path d="M45.2083 41.9048H43.9375V43.1746H45.2083V41.9048Z" fill="#587048"/>
<path d="M46.4792 41.9048H45.2083V43.1746H46.4792V41.9048Z" fill="#40311F"/>
<path d="M47.75 41.9048H46.4792V43.1746H47.75V41.9048Z" fill="#40311F"/>
<path d="M49.0208 41.9048H47.75V43.1746H49.0208V41.9048Z" fill="#40311F"/>
<path d="M52.8333 41.9048H51.5625V43.1746H52.8333V41.9048Z" fill="#4C3C29"/>
<path d="M54.1042 41.9048H52.8333V43.1746H54.1042V41.9048Z" fill="#4C3C29"/>
<path d="M55.375 41.9048H54.1042V43.1746H55.375V41.9048Z" fill="#40311F"/>
<path d="M56.6458 41.9048H55.375V43.1746H56.6458V41.9048Z" fill="#40311F"/>
<path d="M57.9167 41.9048H56.6458V43.1746H57.9167V41.9048Z" fill="#40311F"/>
<path d="M59.1875 41.9048H57.9167V43.1746H59.1875V41.9048Z" fill="#597048"/>
<path d="M60.4583 41.9048H59.1875V43.1746H60.4583V41.9048Z" fill="#799B60"/>
<path d="M61.7292 41.9048H60.4583V43.1746H61.7292V41.9048Z" fill="#6A8159"/>
<path d="M5.8125 43.1746H4.54167V44.4444H5.8125V43.1746Z" fill="#799B60"/>
<path d="M8.35417 43.1746H7.08333V44.4444H8.35417V43.1746Z" fill="#799B60"/>
<path d="M29.9583 43.1746H28.6875V44.4444H29.9583V43.1746Z" fill="#6B8159"/>
<path d="M32.5 43.1746H31.2292V44.4444H32.5V43.1746Z" fill="#40311F"/>
<path d="M33.7708 43.1746H32.5V44.4444H33.7708V43.1746Z" fill="#544430"/>
<path d="M35.0417 43.1746H33.7708V44.4444H35.0417V43.1746Z" fill="#40311F"/>
<path d="M36.3125 43.1746H35.0417V44.4444H36.3125V43.1746Z" fill="#40311F"/>
<path d="M37.5833 43.1746H36.3125V44.4444H37.5833V43.1746Z" fill="#597048"/>
<path d="M38.8542 43.1746H37.5833V44.4444H38.8542V43.1746Z" fill="#597048"/>
<path d="M40.125 43.1746H38.8542V44.4444H40.125V43.1746Z" fill="#799B60"/>
<path d="M46.4792 43.1746H45.2083V44.4444H46.4792V43.1746Z" fill="#597148"/>
<path d="M47.75 43.1746H46.4792V44.4444H47.75V43.1746Z" fill="#40311F"/>
<path d="M49.0208 43.1746H47.75V44.4444H49.0208V43.1746Z" fill="#40311F"/>
<path d="M50.2917 43.1746H49.0208V44.4444H50.2917V43.1746Z" fill="#4C3C29"/>
<path d="M51.5625 43.1746H50.2917V44.4444H51.5625V43.1746Z" fill="#544430"/>
<path d="M52.8333 43.1746H51.5625V44.4444H52.8333V43.1746Z" fill="#40311F"/>
<path d="M54.1042 43.1746H52.8333V44.4444H54.1042V43.1746Z" fill="#40311F"/>
<path d="M55.375 43.1746H54.1042V44.4444H55.375V43.1746Z" fill="#40311F"/>
<path d="M56.6458 43.1746H55.375V44.4444H56.6458V43.1746Z" fill="#597048"/>
<path d="M59.1875 43.1746H57.9167V44.4444H59.1875V43.1746Z" fill="#597049"/>
<path d="M61.7292 43.1746H60.4583V44.4444H61.7292V43.1746Z" fill="#799B60"/>
<path d="M5.8125 44.4444H4.54167V45.7143H5.8125V44.4444Z" fill="#799B60"/>
<path d="M8.35417 44.4444H7.08333V45.7143H8.35417V44.4444Z" fill="#799B60"/>
<path d="M29.9583 44.4444H28.6875V45.7143H29.9583V44.4444Z" fill="#6A8159"/>
<path d="M32.5 44.4444H31.2292V45.7143H32.5V44.4444Z" fill="#40311F"/>
<path d="M33.7708 44.4444H32.5V45.7143H33.7708V44.4444Z" fill="#4C3C29"/>
<path d="M35.0417 44.4444H33.7708V45.7143H35.0417V44.4444Z" fill="#544430"/>
<path d="M36.3125 44.4444H35.0417V45.7143H36.3125V44.4444Z" fill="#40311F"/>
<path d="M37.5833 44.4444H36.3125V45.7143H37.5833V44.4444Z" fill="#40311F"/>
<path d="M38.8542 44.4444H37.5833V45.7143H38.8542V44.4444Z" fill="#40311F"/>
<path d="M40.125 44.4444H38.8542V45.7143H40.125V44.4444Z" fill="#6A8159"/>
<path d="M46.4792 44.4444H45.2083V45.7143H46.4792V44.4444Z" fill="#6A8159"/>
<path d="M47.75 44.4444H46.4792V45.7143H47.75V44.4444Z" fill="#597048"/>
<path d="M49.0208 44.4444H47.75V45.7143H49.0208V44.4444Z" fill="#40311F"/>
<path d="M50.2917 44.4444H49.0208V45.7143H50.2917V44.4444Z" fill="#40311F"/>
<path d="M51.5625 44.4444H50.2917V45.7143H51.5625V44.4444Z" fill="#4C3C29"/>
<path d="M52.8333 44.4444H51.5625V45.7143H52.8333V44.4444Z" fill="#4C3C29"/>
<path d="M59.1875 44.4444H57.9167V45.7143H59.1875V44.4444Z" fill="#6A8159"/>
<path d="M61.7292 44.4444H60.4583V45.7143H61.7292V44.4444Z" fill="#799B60"/>
<path d="M5.8125 45.7143H4.54167V46.9841H5.8125V45.7143Z" fill="#799B60"/>
<path d="M29.9583 45.7143H28.6875V46.9841H29.9583V45.7143Z" fill="#799B60"/>
<path d="M33.7708 45.7143H32.5V46.9841H33.7708V45.7143Z" fill="#4C3C29"/>
<path d="M35.0417 45.7143H33.7708V46.9841H35.0417V45.7143Z" fill="#544430"/>
<path d="M36.3125 45.7143H35.0417V46.9841H36.3125V45.7143Z" fill="#544430"/>
<path d="M37.5833 45.7143H36.3125V46.9841H37.5833V45.7143Z" fill="#40311F"/>
<path d="M38.8542 45.7143H37.5833V46.9841H38.8542V45.7143Z" fill="#40311F"/>
<path d="M40.125 45.7143H38.8542V46.9841H40.125V45.7143Z" fill="#6A8158"/>
<path d="M46.4792 45.7143H45.2083V46.9841H46.4792V45.7143Z" fill="#6A8159"/>
<path d="M50.2917 45.7143H49.0208V46.9841H50.2917V45.7143Z" fill="#597048"/>
<path d="M51.5625 45.7143H50.2917V46.9841H51.5625V45.7143Z" fill="#40311F"/>
<path d="M52.8333 45.7143H51.5625V46.9841H52.8333V45.7143Z" fill="#40311F"/>
<path d="M54.1042 45.7143H52.8333V46.9841H54.1042V45.7143Z" fill="#40311F"/>
<path d="M59.1875 45.7143H57.9167V46.9841H59.1875V45.7143Z" fill="#6A8159"/>
<path d="M5.8125 46.9841H4.54167V48.254H5.8125V46.9841Z" fill="#799B60"/>
<path d="M29.9583 46.9841H28.6875V48.254H29.9583V46.9841Z" fill="#799B60"/>
<path d="M33.7708 46.9841H32.5V48.254H33.7708V46.9841Z" fill="#41311F"/>
<path d="M35.0417 46.9841H33.7708V48.254H35.0417V46.9841Z" fill="#544430"/>
<path d="M36.3125 46.9841H35.0417V48.254H36.3125V46.9841Z" fill="#544430"/>
<path d="M37.5833 46.9841H36.3125V48.254H37.5833V46.9841Z" fill="#4C3C29"/>
<path d="M38.8542 46.9841H37.5833V48.254H38.8542V46.9841Z" fill="#40311F"/>
<path d="M40.125 46.9841H38.8542V48.254H40.125V46.9841Z" fill="#40311F"/>
<path d="M41.3958 46.9841H40.125V48.254H41.3958V46.9841Z" fill="#40311F"/>
<path d="M46.4792 46.9841H45.2083V48.254H46.4792V46.9841Z" fill="#799B60"/>
<path d="M51.5625 46.9841H50.2917V48.254H51.5625V46.9841Z" fill="#597048"/>
<path d="M52.8333 46.9841H51.5625V48.254H52.8333V46.9841Z" fill="#597048"/>
<path d="M54.1042 46.9841H52.8333V48.254H54.1042V46.9841Z" fill="#40311F"/>
<path d="M55.375 46.9841H54.1042V48.254H55.375V46.9841Z" fill="#40311F"/>
<path d="M59.1875 46.9841H57.9167V48.254H59.1875V46.9841Z" fill="#799B60"/>
<path d="M29.9583 48.254H28.6875V49.5238H29.9583V48.254Z" fill="#789B60"/>
<path d="M35.0417 48.254H33.7708V49.5238H35.0417V48.254Z" fill="#544430"/>
<path d="M36.3125 48.254H35.0417V49.5238H36.3125V48.254Z" fill="#544430"/>
<path d="M37.5833 48.254H36.3125V49.5238H37.5833V48.254Z" fill="#544430"/>
<path d="M38.8542 48.254H37.5833V49.5238H38.8542V48.254Z" fill="#4C3C29"/>
<path d="M40.125 48.254H38.8542V49.5238H40.125V48.254Z" fill="#40311F"/>
<path d="M41.3958 48.254H40.125V49.5238H41.3958V48.254Z" fill="#40311F"/>
<path d="M46.4792 48.254H45.2083V49.5238H46.4792V48.254Z" fill="#799B60"/>
<path d="M52.8333 48.254H51.5625V49.5238H52.8333V48.254Z" fill="#597048"/>
<path d="M36.3125 49.5238H35.0417V50.7937H36.3125V49.5238Z" fill="#4C3C29"/>
<path d="M37.5833 49.5238H36.3125V50.7937H37.5833V49.5238Z" fill="#544430"/>
<path d="M38.8542 49.5238H37.5833V50.7937H38.8542V49.5238Z" fill="#4C3C29"/>
<path d="M40.125 49.5238H38.8542V50.7937H40.125V49.5238Z" fill="#40311F"/>
<path d="M41.3958 49.5238H40.125V50.7937H41.3958V49.5238Z" fill="#40311F"/>
<path d="M42.6667 49.5238H41.3958V50.7937H42.6667V49.5238Z" fill="#40311F"/>
<path d="M52.8333 49.5238H51.5625V50.7937H52.8333V49.5238Z" fill="#6A8159"/>
<path d="M36.3125 50.7937H35.0417V52.0635H36.3125V50.7937Z" fill="#40311F"/>
<path d="M37.5833 50.7937H36.3125V52.0635H37.5833V50.7937Z" fill="#544430"/>
<path d="M38.8542 50.7937H37.5833V52.0635H38.8542V50.7937Z" fill="#4C3C29"/>
<path d="M40.125 50.7937H38.8542V52.0635H40.125V50.7937Z" fill="#40311F"/>
<path d="M41.3958 50.7937H40.125V52.0635H41.3958V50.7937Z" fill="#40311F"/>
<path d="M42.6667 50.7937H41.3958V52.0635H42.6667V50.7937Z" fill="#40301F"/>
<path d="M52.8333 50.7937H51.5625V52.0635H52.8333V50.7937Z" fill="#799B60"/>
<path d="M37.5833 52.0635H36.3125V53.3333H37.5833V52.0635Z" fill="#544430"/>
<path d="M38.8542 52.0635H37.5833V53.3333H38.8542V52.0635Z" fill="#544430"/>
<path d="M40.125 52.0635H38.8542V53.3333H40.125V52.0635Z" fill="#4C3C29"/>
<path d="M41.3958 52.0635H40.125V53.3333H41.3958V52.0635Z" fill="#4C3C29"/>
<path d="M42.6667 52.0635H41.3958V53.3333H42.6667V52.0635Z" fill="#40311F"/>
<path d="M43.9375 52.0635H42.6667V53.3333H43.9375V52.0635Z" fill="#40311F"/>
<path d="M37.5833 53.3333H36.3125V54.6032H37.5833V53.3333Z" fill="#544430"/>
<path d="M38.8542 53.3333H37.5833V54.6032H38.8542V53.3333Z" fill="#544430"/>
<path d="M40.125 53.3333H38.8542V54.6032H40.125V53.3333Z" fill="#544430"/>
<path d="M41.3958 53.3333H40.125V54.6032H41.3958V53.3333Z" fill="#4C3C29"/>
<path d="M42.6667 53.3333H41.3958V54.6032H42.6667V53.3333Z" fill="#4C3C29"/>
<path d="M43.9375 53.3333H42.6667V54.6032H43.9375V53.3333Z" fill="#40311F"/>
<path d="M38.8542 54.6032H37.5833V55.873H38.8542V54.6032Z" fill="#544430"/>
<path d="M40.125 54.6032H38.8542V55.873H40.125V54.6032Z" fill="#544430"/>
<path d="M41.3958 54.6032H40.125V55.873H41.3958V54.6032Z" fill="#544430"/>
<path d="M42.6667 54.6032H41.3958V55.873H42.6667V54.6032Z" fill="#4C3C29"/>
<path d="M43.9375 54.6032H42.6667V55.873H43.9375V54.6032Z" fill="#40311F"/>
<path d="M38.8542 55.873H37.5833V57.1429H38.8542V55.873Z" fill="#544430"/>
<path d="M40.125 55.873H38.8542V57.1429H40.125V55.873Z" fill="#544430"/>
<path d="M41.3958 55.873H40.125V57.1429H41.3958V55.873Z" fill="#544430"/>
<path d="M42.6667 55.873H41.3958V57.1429H42.6667V55.873Z" fill="#4C3C29"/>
<path d="M43.9375 55.873H42.6667V57.1429H43.9375V55.873Z" fill="#40311F"/>
<path d="M38.8542 57.1429H37.5833V58.4127H38.8542V57.1429Z" fill="#544430"/>
<path d="M40.125 57.1429H38.8542V58.4127H40.125V57.1429Z" fill="#544430"/>
<path d="M41.3958 57.1429H40.125V58.4127H41.3958V57.1429Z" fill="#544430"/>
<path d="M42.6667 57.1429H41.3958V58.4127H42.6667V57.1429Z" fill="#4C3C29"/>
<path d="M43.9375 57.1429H42.6667V58.4127H43.9375V57.1429Z" fill="#40311F"/>
<path d="M38.8542 58.4127H37.5833V59.6825H38.8542V58.4127Z" fill="#544430"/>
<path d="M40.125 58.4127H38.8542V59.6825H40.125V58.4127Z" fill="#544431"/>
<path d="M41.3958 58.4127H40.125V59.6825H41.3958V58.4127Z" fill="#544430"/>
<path d="M42.6667 58.4127H41.3958V59.6825H42.6667V58.4127Z" fill="#4C3D29"/>
<path d="M43.9375 58.4127H42.6667V59.6825H43.9375V58.4127Z" fill="#40311F"/>
<path d="M37.5833 59.6825H36.3125V60.9524H37.5833V59.6825Z" fill="#4D3C29"/>
<path d="M38.8542 59.6825H37.5833V60.9524H38.8542V59.6825Z" fill="#544430"/>
<path d="M40.125 59.6825H38.8542V60.9524H40.125V59.6825Z" fill="#544430"/>
<path d="M41.3958 59.6825H40.125V60.9524H41.3958V59.6825Z" fill="#4C3C29"/>
<path d="M42.6667 59.6825H41.3958V60.9524H42.6667V59.6825Z" fill="#40311F"/>
<path d="M43.9375 59.6825H42.6667V60.9524H43.9375V59.6825Z" fill="#40311F"/>
<path d="M36.3125 60.9524H35.0417V62.2222H36.3125V60.9524Z" fill="#4C3C29"/>
<path d="M37.5833 60.9524H36.3125V62.2222H37.5833V60.9524Z" fill="#544430"/>
<path d="M38.8542 60.9524H37.5833V62.2222H38.8542V60.9524Z" fill="#544430"/>
<path d="M40.125 60.9524H38.8542V62.2222H40.125V60.9524Z" fill="#544430"/>
<path d="M41.3958 60.9524H40.125V62.2222H41.3958V60.9524Z" fill="#40311F"/>
<path d="M42.6667 60.9524H41.3958V62.2222H42.6667V60.9524Z" fill="#40311F"/>
<path d="M43.9375 60.9524H42.6667V62.2222H43.9375V60.9524Z" fill="#597048"/>
<path d="M33.7708 62.2222H32.5V63.4921H33.7708V62.2222Z" fill="#40311F"/>
<path d="M35.0417 62.2222H33.7708V63.4921H35.0417V62.2222Z" fill="#4C3C29"/>
<path d="M36.3125 62.2222H35.0417V63.4921H36.3125V62.2222Z" fill="#4C3C29"/>
<path d="M37.5833 62.2222H36.3125V63.4921H37.5833V62.2222Z" fill="#544430"/>
<path d="M38.8542 62.2222H37.5833V63.4921H38.8542V62.2222Z" fill="#544430"/>
<path d="M40.125 62.2222H38.8542V63.4921H40.125V62.2222Z" fill="#4C3C29"/>
<path d="M41.3958 62.2222H40.125V63.4921H41.3958V62.2222Z" fill="#40311F"/>
<path d="M42.6667 62.2222H41.3958V63.4921H42.6667V62.2222Z" fill="#40311F"/>
<path d="M43.9375 62.2222H42.6667V63.4921H43.9375V62.2222Z" fill="#799B60"/>
<path d="M32.5 63.4921H31.2292V64.7619H32.5V63.4921Z" fill="#40311F"/>
<path d="M33.7708 63.4921H32.5V64.7619H33.7708V63.4921Z" fill="#4C3C29"/>
<path d="M35.0417 63.4921H33.7708V64.7619H35.0417V63.4921Z" fill="#544430"/>
<path d="M36.3125 63.4921H35.0417V64.7619H36.3125V63.4921Z" fill="#544430"/>
<path d="M37.5833 63.4921H36.3125V64.7619H37.5833V63.4921Z" fill="#544430"/>
<path d="M38.8542 63.4921H37.5833V64.7619H38.8542V63.4921Z" fill="#544430"/>
<path d="M40.125 63.4921H38.8542V64.7619H40.125V63.4921Z" fill="#4C3C29"/>
<path d="M41.3958 63.4921H40.125V64.7619H41.3958V63.4921Z" fill="#40311F"/>
<path d="M42.6667 63.4921H41.3958V64.7619H42.6667V63.4921Z" fill="#40311F"/>
<path d="M31.2292 64.7619H29.9583V66.0317H31.2292V64.7619Z" fill="#40311F"/>
<path d="M32.5 64.7619H31.2292V66.0317H32.5V64.7619Z" fill="#40311F"/>
<path d="M33.7708 64.7619H32.5V66.0317H33.7708V64.7619Z" fill="#544430"/>
<path d="M35.0417 64.7619H33.7708V66.0317H35.0417V64.7619Z" fill="#544430"/>
<path d="M36.3125 64.7619H35.0417V66.0317H36.3125V64.7619Z" fill="#544430"/>
<path d="M37.5833 64.7619H36.3125V66.0317H37.5833V64.7619Z" fill="#4C3C29"/>
<path d="M38.8542 64.7619H37.5833V66.0317H38.8542V64.7619Z" fill="#4C3C29"/>
<path d="M40.125 64.7619H38.8542V66.0317H40.125V64.7619Z" fill="#40311E"/>
<path d="M41.3958 64.7619H40.125V66.0317H41.3958V64.7619Z" fill="#40311F"/>
<path d="M42.6667 64.7619H41.3958V66.0317H42.6667V64.7619Z" fill="#597048"/>
<path d="M29.9583 66.0317H28.6875V67.3016H29.9583V66.0317Z" fill="#597048"/>
<path d="M31.2292 66.0317H29.9583V67.3016H31.2292V66.0317Z" fill="#40311F"/>
<path d="M32.5 66.0317H31.2292V67.3016H32.5V66.0317Z" fill="#4C3C29"/>
<path d="M33.7708 66.0317H32.5V67.3016H33.7708V66.0317Z" fill="#544430"/>
<path d="M35.0417 66.0317H33.7708V67.3016H35.0417V66.0317Z" fill="#544430"/>
<path d="M36.3125 66.0317H35.0417V67.3016H36.3125V66.0317Z" fill="#4C3C29"/>
<path d="M37.5833 66.0317H36.3125V67.3016H37.5833V66.0317Z" fill="#4C3C29"/>
<path d="M38.8542 66.0317H37.5833V67.3016H38.8542V66.0317Z" fill="#4C3C29"/>
<path d="M40.125 66.0317H38.8542V67.3016H40.125V66.0317Z" fill="#40311F"/>
<path d="M41.3958 66.0317H40.125V67.3016H41.3958V66.0317Z" fill="#2A4628"/>
<path d="M42.6667 66.0317H41.3958V67.3016H42.6667V66.0317Z" fill="#6A8159"/>
<path d="M29.9583 67.3016H28.6875V68.5714H29.9583V67.3016Z" fill="#6A8159"/>
<path d="M31.2292 67.3016H29.9583V68.5714H31.2292V67.3016Z" fill="#40311F"/>
<path d="M32.5 67.3016H31.2292V68.5714H32.5V67.3016Z" fill="#4C3C29"/>
<path d="M33.7708 67.3016H32.5V68.5714H33.7708V67.3016Z" fill="#544430"/>
<path d="M35.0417 67.3016H33.7708V68.5714H35.0417V67.3016Z" fill="#544430"/>
<path d="M36.3125 67.3016H35.0417V68.5714H36.3125V67.3016Z" fill="#4C3C29"/>
<path d="M37.5833 67.3016H36.3125V68.5714H37.5833V67.3016Z" fill="#4C3C29"/>
<path d="M38.8542 67.3016H37.5833V68.5714H38.8542V67.3016Z" fill="#40311F"/>
<path d="M40.125 67.3016H38.8542V68.5714H40.125V67.3016Z" fill="#2A4628"/>
<path d="M42.6667 67.3016H41.3958V68.5714H42.6667V67.3016Z" fill="#799B60"/>
<path d="M29.9583 68.5714H28.6875V69.8413H29.9583V68.5714Z" fill="#40311F"/>
<path d="M31.2292 68.5714H29.9583V69.8413H31.2292V68.5714Z" fill="#40311F"/>
<path d="M32.5 68.5714H31.2292V69.8413H32.5V68.5714Z" fill="#40311F"/>
<path d="M33.7708 68.5714H32.5V69.8413H33.7708V68.5714Z" fill="#4C3C29"/>
<path d="M35.0417 68.5714H33.7708V69.8413H35.0417V68.5714Z" fill="#544430"/>
<path d="M36.3125 68.5714H35.0417V69.8413H36.3125V68.5714Z" fill="#4C3C29"/>
<path d="M37.5833 68.5714H36.3125V69.8413H37.5833V68.5714Z" fill="#4C3C29"/>
<path d="M38.8542 68.5714H37.5833V69.8413H38.8542V68.5714Z" fill="#40311F"/>
<path d="M28.6875 69.8413H27.4167V71.1111H28.6875V69.8413Z" fill="#597048"/>
<path d="M29.9583 69.8413H28.6875V71.1111H29.9583V69.8413Z" fill="#597048"/>
<path d="M31.2292 69.8413H29.9583V71.1111H31.2292V69.8413Z" fill="#40301F"/>
<path d="M32.5 69.8413H31.2292V71.1111H32.5V69.8413Z" fill="#40311F"/>
<path d="M33.7708 69.8413H32.5V71.1111H33.7708V69.8413Z" fill="#40311F"/>
<path d="M35.0417 69.8413H33.7708V71.1111H35.0417V69.8413Z" fill="#4C3C29"/>
<path d="M36.3125 69.8413H35.0417V71.1111H36.3125V69.8413Z" fill="#4C3C29"/>
<path d="M37.5833 69.8413H36.3125V71.1111H37.5833V69.8413Z" fill="#4D3C29"/>
<path d="M38.8542 69.8413H37.5833V71.1111H38.8542V69.8413Z" fill="#40311F"/>
<path d="M27.4167 71.1111H26.1458V72.381H27.4167V71.1111Z" fill="#2A4628"/>
<path d="M28.6875 71.1111H27.4167V72.381H28.6875V71.1111Z" fill="#6A8159"/>
<path d="M29.9583 71.1111H28.6875V72.381H29.9583V71.1111Z" fill="#40311F"/>
<path d="M31.2292 71.1111H29.9583V72.381H31.2292V71.1111Z" fill="#40311F"/>
<path d="M32.5 71.1111H31.2292V72.381H32.5V71.1111Z" fill="#4C3C29"/>
<path d="M33.7708 71.1111H32.5V72.381H33.7708V71.1111Z" fill="#544430"/>
<path d="M35.0417 71.1111H33.7708V72.381H35.0417V71.1111Z" fill="#544430"/>
<path d="M36.3125 71.1111H35.0417V72.381H36.3125V71.1111Z" fill="#544431"/>
<path d="M37.5833 71.1111H36.3125V72.381H37.5833V71.1111Z" fill="#4D3C29"/>
<path d="M38.8542 71.1111H37.5833V72.381H38.8542V71.1111Z" fill="#40311F"/>
<path d="M40.125 71.1111H38.8542V72.381H40.125V71.1111Z" fill="#597048"/>
<path d="M41.3958 71.1111H40.125V72.381H41.3958V71.1111Z" fill="#597048"/>
<path d="M24.875 72.381H23.6042V73.6508H24.875V72.381Z" fill="#544430"/>
<path d="M26.1458 72.381H24.875V73.6508H26.1458V72.381Z" fill="#4D3C29"/>
<path d="M27.4167 72.381H26.1458V73.6508H27.4167V72.381Z" fill="#284026"/>
<path d="M28.6875 72.381H27.4167V73.6508H28.6875V72.381Z" fill="#799B60"/>
<path d="M29.9583 72.381H28.6875V73.6508H29.9583V72.381Z" fill="#40311F"/>
<path d="M31.2292 72.381H29.9583V73.6508H31.2292V72.381Z" fill="#4C3C29"/>
<path d="M32.5 72.381H31.2292V73.6508H32.5V72.381Z" fill="#544430"/>
<path d="M33.7708 72.381H32.5V73.6508H33.7708V72.381Z" fill="#554430"/>
<path d="M35.0417 72.381H33.7708V73.6508H35.0417V72.381Z" fill="#544430"/>
<path d="M36.3125 72.381H35.0417V73.6508H36.3125V72.381Z" fill="#544430"/>
<path d="M37.5833 72.381H36.3125V73.6508H37.5833V72.381Z" fill="#4C3C29"/>
<path d="M38.8542 72.381H37.5833V73.6508H38.8542V72.381Z" fill="#4C3C29"/>
<path d="M40.125 72.381H38.8542V73.6508H40.125V72.381Z" fill="#4C3C29"/>
<path d="M41.3958 72.381H40.125V73.6508H41.3958V72.381Z" fill="#40311F"/>
<path d="M42.6667 72.381H41.3958V73.6508H42.6667V72.381Z" fill="#597148"/>
<path d="M21.0625 73.6508H19.7917V74.9206H21.0625V73.6508Z" fill="#4C3C29"/>
<path d="M22.3333 73.6508H21.0625V74.9206H22.3333V73.6508Z" fill="#4C3C29"/>
<path d="M23.6042 73.6508H22.3333V74.9206H23.6042V73.6508Z" fill="#544430"/>
<path d="M24.875 73.6508H23.6042V74.9206H24.875V73.6508Z" fill="#4C3C29"/>
<path d="M26.1458 73.6508H24.875V74.9206H26.1458V73.6508Z" fill="#40311F"/>
<path d="M27.4167 73.6508H26.1458V74.9206H27.4167V73.6508Z" fill="#40311F"/>
<path d="M28.6875 73.6508H27.4167V74.9206H28.6875V73.6508Z" fill="#284026"/>
<path d="M29.9583 73.6508H28.6875V74.9206H29.9583V73.6508Z" fill="#2A4628"/>
<path d="M31.2292 73.6508H29.9583V74.9206H31.2292V73.6508Z" fill="#544430"/>
<path d="M32.5 73.6508H31.2292V74.9206H32.5V73.6508Z" fill="#544430"/>
<path d="M33.7708 73.6508H32.5V74.9206H33.7708V73.6508Z" fill="#544430"/>
<path d="M35.0417 73.6508H33.7708V74.9206H35.0417V73.6508Z" fill="#40301F"/>
<path d="M36.3125 73.6508H35.0417V74.9206H36.3125V73.6508Z" fill="#40311F"/>
<path d="M37.5833 73.6508H36.3125V74.9206H37.5833V73.6508Z" fill="#40311F"/>
<path d="M38.8542 73.6508H37.5833V74.9206H38.8542V73.6508Z" fill="#40311F"/>
<path d="M40.125 73.6508H38.8542V74.9206H40.125V73.6508Z" fill="#40311F"/>
<path d="M41.3958 73.6508H40.125V74.9206H41.3958V73.6508Z" fill="#2A4628"/>
<path d="M42.6667 73.6508H41.3958V74.9206H42.6667V73.6508Z" fill="#6A8159"/>
<path d="M43.9375 73.6508H42.6667V74.9206H43.9375V73.6508Z" fill="#284026"/>
<path d="M18.5208 74.9206H17.25V76.1905H18.5208V74.9206Z" fill="#40311F"/>
<path d="M19.7917 74.9206H18.5208V76.1905H19.7917V74.9206Z" fill="#40311F"/>
<path d="M21.0625 74.9206H19.7917V76.1905H21.0625V74.9206Z" fill="#40311E"/>
<path d="M22.3333 74.9206H21.0625V76.1905H22.3333V74.9206Z" fill="#40311F"/>
<path d="M23.6042 74.9206H22.3333V76.1905H23.6042V74.9206Z" fill="#40311F"/>
<path d="M24.875 74.9206H23.6042V76.1905H24.875V74.9206Z" fill="#40311F"/>
<path d="M26.1458 74.9206H24.875V76.1905H26.1458V74.9206Z" fill="#41311F"/>
<path d="M29.9583 74.9206H28.6875V76.1905H29.9583V74.9206Z" fill="#294026"/>
<path d="M31.2292 74.9206H29.9583V76.1905H31.2292V74.9206Z" fill="#40311F"/>
<path d="M32.5 74.9206H31.2292V76.1905H32.5V74.9206Z" fill="#544430"/>
<path d="M33.7708 74.9206H32.5V76.1905H33.7708V74.9206Z" fill="#4C3C29"/>
<path d="M35.0417 74.9206H33.7708V76.1905H35.0417V74.9206Z" fill="#40301F"/>
<path d="M36.3125 74.9206H35.0417V76.1905H36.3125V74.9206Z" fill="#2A4628"/>
<path d="M40.125 74.9206H38.8542V76.1905H40.125V74.9206Z" fill="#2A4628"/>
<path d="M41.3958 74.9206H40.125V76.1905H41.3958V74.9206Z" fill="#284026"/>
<path d="M42.6667 74.9206H41.3958V76.1905H42.6667V74.9206Z" fill="#284026"/>
<path d="M43.9375 74.9206H42.6667V76.1905H43.9375V74.9206Z" fill="#40311F"/>
<path d="M45.2083 74.9206H43.9375V76.1905H45.2083V74.9206Z" fill="#40311F"/>
<path d="M46.4792 74.9206H45.2083V76.1905H46.4792V74.9206Z" fill="#40311F"/>
<path d="M15.9792 76.1905H14.7083V77.4603H15.9792V76.1905Z" fill="#40311F"/>
<path d="M17.25 76.1905H15.9792V77.4603H17.25V76.1905Z" fill="#40311F"/>
<path d="M18.5208 76.1905H17.25V77.4603H18.5208V76.1905Z" fill="#40311F"/>
<path d="M19.7917 76.1905H18.5208V77.4603H19.7917V76.1905Z" fill="#40311F"/>
<path d="M29.9583 76.1905H28.6875V77.4603H29.9583V76.1905Z" fill="#284026"/>
<path d="M31.2292 76.1905H29.9583V77.4603H31.2292V76.1905Z" fill="#40311F"/>
<path d="M32.5 76.1905H31.2292V77.4603H32.5V76.1905Z" fill="#4C3C29"/>
<path d="M33.7708 76.1905H32.5V77.4603H33.7708V76.1905Z" fill="#2A4628"/>
<path d="M35.0417 76.1905H33.7708V77.4603H35.0417V76.1905Z" fill="#284026"/>
<path d="M32.5 77.4603H31.2292V78.7302H32.5V77.4603Z" fill="#4C3C29"/>
<path d="M33.7708 77.4603H32.5V78.7302H33.7708V77.4603Z" fill="#284026"/>
<path d="M31.2292 78.7302H29.9583V80H31.2292V78.7302Z" fill="#40311F"/>
<path d="M32.5 78.7302H31.2292V80H32.5V78.7302Z" fill="#40311F"/>
<path d="M33.7708 78.7302H32.5V80H33.7708V78.7302Z" fill="#284026"/>
</g>
</svg>
