<svg width="16" height="16" viewBox="0 0 16 16" fill="none" xmlns="http://www.w3.org/2000/svg">
<path d="M7.23993 3H8.29387L8.31436 3.02276L8.32574 3.54405L8.85841 3.55543L8.86979 3.56453V4.10858H9.43432L9.44571 4.06533L9.45709 3.56453L9.46847 3.55543H10.5224L10.5338 3.56453L10.5429 4.07671L10.5543 4.10858L11.0983 4.11996V4.64125H10.5429V7.42522L10.0011 7.43433L9.98975 7.45709L9.97837 7.98976H9.44571L9.43432 8.00114L9.42294 8.54291L8.88117 8.55429L8.86979 9.09834L8.32574 9.10972L8.31436 10.2388L8.88117 10.2297L8.89028 9.70612L8.90166 9.68564L8.9358 9.67425H9.43432L9.44571 9.34874V9.14159L9.45709 9.1211H9.98975L10.0011 9.10972L10.0102 8.57705L10.0216 8.56567L10.5543 8.55429L10.5657 8.01024L11.1097 8.00114L11.1188 7.45709H11.6515V10.2183H11.0983V11.3269H10.5429V11.8823L10.0011 11.8914L9.98975 12.3922L9.97837 12.4468L9.43432 12.4582L9.42294 13H7.23993L7.22854 12.9909L7.21716 9.10972L6.67312 9.09834L6.66173 8.90257V8.54291H6.11996L6.10858 7.98976H5.57592L5.55315 7.97837L5.54405 7.43433L5 7.42522V6.34851L5.02049 6.33713H5.55315V4.64125H5V4.11996L5.55315 4.10858V3.56453L5.57592 3.55543H7.22854V3.01138L7.23993 3Z" fill="#E85782"/>
<path d="M11.1188 7.45703H11.6515V10.2182H11.0983V11.3268H10.5429V11.8823L10.0011 11.8914L9.98976 12.3922L9.97838 12.4468L9.43433 12.4582L9.42295 12.9999H7.23994L7.22855 12.9908L7.21717 9.10966L6.67312 9.09828L6.66174 8.90251V8.55423H8.8698V9.09828L8.32575 9.10966L8.31437 10.2387L8.88118 10.2296L8.89029 9.70606L8.90167 9.68558L8.93581 9.67419H9.43433L9.44572 9.34868V9.14153L9.4571 9.12104H9.98976L10.0011 9.10966L10.0103 8.57699L10.0216 8.56561L10.5543 8.55423L10.5657 8.01018L11.1097 8.00108L11.1188 7.45703Z" fill="#9ADE7A"/>
<path d="M5.55315 4.66394H6.0972V6.89249H6.65263V7.44564H7.21716V8.00107H8.32574V6.32567H8.88117V7.44564H9.44571V6.89249L9.98975 6.8811L10.0011 4.66394H10.5429V7.42515L10.0011 7.43426L9.98975 7.45702L9.97837 7.98969H9.44571L9.43432 8.00107L9.42294 8.54284L8.88117 8.55422H6.66173L6.11996 8.54284L6.10858 7.98969H5.57592L5.55315 7.9783L5.54405 7.43426L5 7.42515V6.34844L5.02049 6.33706H5.55315V4.66394Z" fill="#E65682"/>
<path d="M6.66174 8.5542H8.8698V9.09825L8.32575 9.10963L8.31437 10.2387H8.88118V11.3382H8.32575V12.4581H9.42295V12.9999H7.23994L7.22855 12.9908L7.21717 9.10963L6.67312 9.09825L6.66174 8.90248V8.5542Z" fill="#0A5728"/>
<path d="M5.53267 4.10857H6.65263V4.664H7.21716V5.21715H7.77259V6.32574H8.32574V8.00113H7.21716V7.4457H6.65263V6.89255H6.0972V4.664H5.55315V4.64124H5V4.11995L5.53267 4.10857ZM9.46847 3.55542H10.5224L10.5338 3.56453L10.5429 4.0767L10.5543 4.10857L11.0983 4.11995V4.64124H10.5429V4.664H10.0011V6.88116L9.98975 6.89255H9.44571V7.4457H8.88117V6.32574H8.32574V5.21715H8.88117V4.664H9.43432V4.10857L9.44571 4.06532L9.45709 3.56453L9.46847 3.55542Z" fill="#F9AFC5"/>
<path d="M10.0011 4.66394H10.5429V7.42515L10.0011 7.43426L9.98975 7.45702L9.97837 7.98969H9.44571L9.43433 8.00107L9.42294 8.54284L8.88117 8.55422H8.32574V6.32567H8.88117V7.44564H9.44571V6.89249L9.98975 6.8811L10.0011 4.66394Z" fill="#B61F57"/>
<path d="M11.1188 7.45703H11.6514V10.2182H11.1097V8.55423H10.5656V8.01018L11.1097 8.00108L11.1188 7.45703Z" fill="#095628"/>
<path d="M10.0012 4.66394H10.5429V7.42515H10.0012V4.66394Z" fill="#B51E57"/>
<path d="M5.57586 3.55542H7.21711V4.664H6.65258V4.10857H5.5531V3.56453L5.57586 3.55542Z" fill="#B71F58"/>
<path d="M9.43433 11.3383H10.5429V11.8823L10.0011 11.8914L9.98975 12.3922L9.97837 12.4468H9.43433V11.3383Z" fill="#59A250"/>
<path d="M9.98975 6.8811H10.0011V7.43426L9.98975 7.45702L9.97836 7.98969H9.4457L9.43432 8.00107H8.88116V7.44564H9.4457V6.89249L9.98975 6.8811Z" fill="#E65481"/>
<path d="M7.77258 9.10974H8.04347V12.4469H7.77258V9.10974Z" fill="#5AA251"/>
<path d="M5.5531 4.66394H6.09715V6.32567H5.5531V4.66394Z" fill="#B51E57"/>
<path d="M8.32574 11.8912H9.43433V12.458H8.32574V11.8912Z" fill="#59A24F"/>
<path d="M9.46838 3.55542H10.5223L10.5337 3.56453L10.5428 4.10857H9.44562L9.457 3.56453L9.46838 3.55542Z" fill="#B71F58"/>
<path d="M10.5543 10.2296H11.0984V11.3268H10.5543V10.2296Z" fill="#0A5728"/>
<path d="M7.2399 3H8.29385L8.31433 3.02276V3.54405H7.22852V3.01138L7.2399 3Z" fill="#B71F58"/>
<path d="M5.02049 6.33704H5.54405V7.42513H5V6.34842L5.02049 6.33704Z" fill="#B51E56"/>
<path d="M10.5429 10.2296H10.5543V11.3268L10.5429 11.3382H10.0012V10.7828H10.5429V10.2296Z" fill="#5AA351"/>
<path d="M8.88116 7.44568H9.43432V8.00111H8.88116V7.44568Z" fill="#E75582"/>
<path d="M7.77258 5.77246H8.32574V6.32561H7.77258V5.77246Z" fill="#E75783"/>
<path d="M7.77258 5.21704H8.32574V5.77247H7.77258V5.21704Z" fill="#B41F55"/>
<path d="M7.77258 4.66394H8.32574V5.21709H7.77258V4.66394Z" fill="#F9DB3E"/>
<path d="M8.32574 4.66394H8.88117V5.21709H8.32574V4.66394ZM7.21716 4.66394H7.77259V5.21709H7.21716V4.66394Z" fill="#B41F55"/>
<path d="M9.43433 11.8912H9.98975V12.392L9.97837 12.4467H9.43433V11.8912Z" fill="#0C5828"/>
<path d="M9.457 9.12109H9.98966L10.001 9.1302V9.67425H9.44562V9.14158L9.457 9.12109Z" fill="#0B5727"/>
<path d="M8.88116 4.10852L9.43432 4.1199V4.66395H8.89027L8.88116 4.65257V4.10852Z" fill="#B61F57"/>
<path d="M8.32574 3.55542H8.85841L8.86979 3.56453V4.10857H8.32574V3.55542Z" fill="#B71F57"/>
<path d="M8.93572 9.67419H9.37051L9.43424 9.68558V10.2296H8.8902V9.70606L8.90158 9.68558L8.93572 9.67419Z" fill="#095627"/>
<path d="M10.0012 11.3383H10.5429V11.8823H10.0012V11.3383Z" fill="#0B5727"/>
<path d="M9.43433 7.44568H9.98975L9.97837 7.98973H9.43433V7.44568Z" fill="#B61E58"/>
<path d="M10.0216 8.56567H10.5542V9.10972H10.0102V8.57706L10.0216 8.56567Z" fill="#095727"/>
<path d="M5.5531 7.44568H6.09715V7.98973H5.57586L5.5531 7.97834V7.44568Z" fill="#B51E57"/>
<path d="M6.10852 8.0011H6.65257V8.54287H6.1199L6.10852 8.0011Z" fill="#B51F57"/>
<path d="M5.53267 4.10852H5.54405V4.64119H5V4.1199L5.53267 4.10852Z" fill="#B61F57"/>
<path d="M10.5543 4.12H11.0984V4.64128H10.5543V4.12Z" fill="#B51F57"/>
</svg>
