<svg width="16" height="16" viewBox="0 0 16 16" fill="none" xmlns="http://www.w3.org/2000/svg">
<path d="M6.68833 4H8.93403L8.94403 4.0125V4.38262H10.0794L10.0919 4.39262L10.1044 4.75273L10.462 4.76274L10.4745 4.77524L10.4845 5.13535L10.8446 5.14536L10.8546 5.17036V5.52797H11.2372V6.29321H11.6199V8.15629L11.5949 8.1788H11.2372V8.54891L11.2147 8.56141H10.4745V8.93153L10.377 8.94403H9.45919L9.33916 8.95654L9.32665 9.73178H9.69677L9.70927 9.75679V11.2247L9.68426 11.2372L9.33916 11.2497L9.32665 11.6074L9.31415 11.6199L8.95654 11.6299L8.94403 11.9775L8.92153 12H6.69834L6.67583 11.99L6.66333 11.6299L6.30571 11.6199L6.29321 11.6074V11.2372H5.9231L5.91059 11.2247V9.73178L6.28071 9.71927V8.95654L5.18287 8.94403L5.14786 8.91903L5.13535 8.57392L4.40763 8.56141L4.38262 8.54891L4.37011 8.1913L4.0125 8.1788L4 8.16629V6.29321H4.38262V5.54048L4.39512 5.52797H4.76524V5.15786L4.77774 5.14536L5.13535 5.13535L5.14786 4.77524L5.15786 4.76274H5.52797V4.38262L6.66333 4.37011L6.67583 4.0125L6.68833 4Z" fill="#BB0502"/>
<path d="M6.68834 4H8.93404L8.94404 4.0125L8.95655 4.38262V4.75273H9.33917V5.12285L10.0669 5.13535L10.1044 5.14536V5.89809H10.4845V6.28071H10.1044V6.66333H10.8671V7.42606H10.1044V7.04594H9.72179V7.41606L9.32666 7.42606H8.95655V7.80868H6.66334V8.1788L6.65083 8.1913H5.13536V7.80868H4.75274V7.42606H4.38263V5.54048L4.39513 5.52797H4.76525V5.15786L4.77775 5.14536L5.13536 5.13535L5.14787 4.77524L5.15787 4.76274H5.52798V4.38262L6.66334 4.37011L6.67584 4.0125L6.68834 4Z" fill="#F60603"/>
<path d="M6.66332 8.57385H8.95653V10.8671H8.19129V11.2497H6.66332V10.8671H6.2807V9.71921H6.66332V8.57385Z" fill="#FEFEFD"/>
<path d="M6.25825 9.71924H6.28076V10.8671H6.66338V11.2497H8.19135V10.8671H8.95659V9.71924H9.3267L9.69682 9.73174L9.70932 9.75675V11.2247L9.68431 11.2372L9.33921 11.2497L9.3267 11.6073L9.3142 11.6198L8.95659 11.6298L8.94409 11.9774L8.92158 11.9999H6.69839L6.67588 11.9899L6.66338 11.6298L6.30577 11.6198L6.29326 11.6073V11.2372H5.92315L5.91064 11.2247V9.73174L6.25825 9.71924Z" fill="#E3C89E"/>
<path d="M4 6.29321H4.38262V7.42606H4.75273V7.80868H5.13535V8.1913L6.65082 8.1788H8.95654V8.57392H6.66333V9.71928H6.28071V8.95654L5.18287 8.94403L5.14786 8.91903L5.13535 8.57392L4.40763 8.56142L4.38262 8.54891L4.37011 8.1913L4.0125 8.1788L4 8.16629V6.29321Z" fill="#BA0604"/>
<path d="M6.28074 4.75281H7.81122V5.51554H7.04598V5.89816H6.28074V6.28078H5.51801V5.51554H5.90062V5.13543H6.28074V4.75281Z" fill="#F96B63"/>
<path d="M8.95651 9.71924H9.32663L9.69674 9.73174L9.70925 9.75675V11.2247L9.68424 11.2372L9.33913 11.2497L9.32663 11.6073L9.31412 11.6198L8.95651 11.6298H7.81116V11.2497H8.19128V10.8671H8.95651V9.71924Z" fill="#CC9D67"/>
<path d="M6.66333 8.57385H8.95654V10.8671H8.57392V9.33659H8.1913V8.95647H7.04595V9.33659H6.66333V8.57385Z" fill="#E4C79B"/>
<path d="M7.42858 6.28076H8.19131V6.66338H8.57393V7.046H8.19131V7.42612H7.42858V7.046H7.04596V6.66338H7.42858V6.28076Z" fill="#FDFBFA"/>
<path d="M5.90062 5.13538H6.66336V5.89811H6.28074V6.28073H5.51801V5.51549H5.90062V5.13538Z" fill="#FDFCFB"/>
<path d="M6.66333 8.19128H8.95654V8.5739H6.66333V8.19128Z" fill="#040101"/>
<path d="M8.9566 4.38257H10.0795L10.092 4.39257L10.1045 4.75268L10.4621 4.76269L10.4746 4.77519L10.4846 5.1353V5.51542H10.4746V5.1453H10.0669L8.9566 5.1353V5.1228H9.33922V4.75268H8.9566V4.38257Z" fill="#B80804"/>
<path d="M5.14783 8.57385H6.6633V9.71921H6.28068V8.95647L5.18284 8.94397L5.14783 8.91896V8.57385Z" fill="#030202"/>
<path d="M6.68835 4H8.93404L8.94405 4.0125V4.37011H6.67584V4.0125L6.68835 4Z" fill="#040202"/>
<path d="M6.67584 11.6299H8.94405V11.9775L8.92154 12H6.69835L6.67584 11.99V11.6299Z" fill="#020101"/>
<path d="M8.9566 8.57385H10.4746V8.93146L10.377 8.94397H9.45926L9.33922 8.95647L9.32672 9.71921H8.9566V8.57385Z" fill="#030201"/>
<path d="M5.13538 5.5155H5.51799V6.28074H6.28073V6.66336H5.13538V5.5155Z" fill="#F96B63"/>
<path d="M4 6.29321H4.37011V8.1788H4.0125L4 8.16629V6.29321ZM11.2497 6.29321H11.6199V8.15629L11.5949 8.1788H11.2497V6.29321Z" fill="#030201"/>
<path d="M6.25825 9.71924H6.28076V11.2372H5.92315L5.91064 11.2247V9.73174L6.25825 9.71924Z" fill="#020202"/>
<path d="M9.33917 9.73181H9.69678L9.70929 9.75682V11.2248L9.68428 11.2373H9.33917V9.73181Z" fill="#020201"/>
<path d="M4.37012 6.29321H4.38262V7.42606H4.75274V7.80868H5.13535V8.1913H4.37012V6.29321Z" fill="#BB0804"/>
<path d="M8.57397 9.71924H8.95659V10.8671H8.57397V9.71924Z" fill="#E4C69B"/>
<path d="M8.57397 8.57385H8.95659V9.71921H8.57397V8.57385Z" fill="#CA9D68"/>
<path d="M8.9566 5.13538H9.33922V5.51549H9.72184V5.89811H8.9566V5.13538Z" fill="#FDFAF9"/>
<path d="M5.52801 4.75281H6.28074V5.13543H5.90062V5.51554H5.51801V4.76281L5.52801 4.75281Z" fill="#F20906"/>
<path d="M5.52802 4.38257H6.66337V4.75268H5.52802V4.38257Z" fill="#040202"/>
<path d="M5.15788 4.7627H5.51799V5.51543H4.76526V5.15782L4.77776 5.14531L5.13537 5.13531L5.14788 4.7752L5.15788 4.7627Z" fill="#EF0B05"/>
<path d="M8.9566 4.38257H10.0795L10.092 4.39257V4.75268H8.9566V4.38257Z" fill="#040202"/>
<path d="M6.66333 8.57385H7.04595V9.33659H6.66333V8.57385Z" fill="#E4C69B"/>
<path d="M10.4846 6.66333H10.8672V7.42607H10.4846V6.66333Z" fill="#FDFAF8"/>
<path d="M10.1044 6.66333H10.4845V7.42607H10.1044V6.66333Z" fill="#F86E65"/>
<path d="M10.8671 5.52795H11.2372V6.28069H10.8671V5.52795Z" fill="#040101"/>
<path d="M4.39513 5.52795H4.75274V6.28069H4.38263V5.54046L4.39513 5.52795Z" fill="#050201"/>
<path d="M10.4846 8.19128H11.2373V8.5489L11.2148 8.5614H10.4846V8.19128Z" fill="#040101"/>
<path d="M4.38263 8.19128H5.13536V8.5614H4.40764L4.38263 8.5489V8.19128Z" fill="#040201"/>
<path d="M6.66333 4.37012H8.94404L8.95654 4.38262V4.75274H9.33916V4.76274H8.94404L8.58643 4.75274L8.57392 4.74023L8.56142 4.39262L6.67583 4.38262V4.75274H6.66333V4.37012Z" fill="#BC0C08"/>
<path d="M8.19135 10.8672H8.57396V11.2498H8.19135V10.8672Z" fill="#E5C89C"/>
<path d="M6.66333 8.57385H7.04595V8.95647H6.66333V8.57385Z" fill="#CB9F6A"/>
<path d="M9.33917 7.42603H9.72179V7.80864H9.33917V7.42603Z" fill="#FDF8F7"/>
<path d="M4.75275 7.42603H5.13537V7.80864H4.75275V7.42603Z" fill="#FDF9F7"/>
<path d="M7.04596 7.0459H7.42858V7.42602H7.04596V7.0459Z" fill="#F76C64"/>
<path d="M5.51801 7.0459H5.90062V7.42602H5.51801V7.0459Z" fill="#FDF8F6"/>
<path d="M5.90063 7.0459H6.28075V7.42602H5.90063V7.0459Z" fill="#F66C64"/>
<path d="M6.2807 5.89807H6.66332V6.28069H6.2807V5.89807Z" fill="#F76E65"/>
<path d="M9.33917 5.13538H9.72179V5.51549H9.33917V5.13538Z" fill="#F56D64"/>
<path d="M5.51801 5.13538H5.90062V5.51549H5.51801V5.13538Z" fill="#F76D64"/>
<path d="M7.42859 4.75281H7.81121V5.13543H7.42859V4.75281Z" fill="#FDFAF8"/>
<path d="M6.2807 10.8672H6.66332V11.2498H6.2932L6.2807 11.2373V10.8672Z" fill="#E4C9A0"/>
<path d="M8.9566 11.2498H9.32672V11.6074L9.31421 11.6199H8.9566V11.2498Z" fill="#030202"/>
<path d="M6.29327 11.2498H6.66339V11.6199H6.30578L6.29327 11.6074V11.2498Z" fill="#030302"/>
<path d="M4.77776 5.14539H5.13537V5.5155H4.76526V5.15789L4.77776 5.14539Z" fill="#060202"/>
<path d="M10.1044 4.7627H10.462L10.4745 4.7752V5.13531H10.1044V4.7627Z" fill="#050201"/>
<path d="M5.15783 4.7627H5.51794V5.13531H5.14783V4.7752L5.15783 4.7627Z" fill="#070202"/>
<path d="M10.4846 5.14539H10.8447L10.8547 5.17039V5.5155H10.4846V5.14539Z" fill="#050302"/>
</svg>
