<svg width="16" height="16" viewBox="0 0 16 16" fill="none" xmlns="http://www.w3.org/2000/svg">
<path d="M7.71523 4H10.2819V4.57997H11.1409V5.14855H11.7105V5.71808H12V6.57712H12.5695V9.72377H12V10.2924H11.7105V10.8619H11.1409V11.4305H9.71333V12H6.85619V11.4305H5.42857V10.8619H4.56953V10.2924H4V7.43616H4.56953V6.57712H4.85904V5.71808H5.42857V5.14855H6.85619V4.57997H7.71523V4Z" fill="#A2A2A2"/>
<path d="M10.2819 4.57996H11.1409V5.14854H11.7105V5.71807H12V6.57711H12.5695V9.72376H12V10.2923H11.7105V10.8619H11.1409V11.4304H9.71333V12H6.85619V11.4304H5.42857V10.8619H4.56953V10.2923H4V7.43615H4.56953V6.57711H4.85904V5.71807H5.42857V6.86757H5.1495V7.53676L5.13811 8.57426H4.57997V9.14379H5.1495V8.57426H5.99715V9.14379H6.85619V9.72376H7.42572V10.8619H9.71333V10.2923H10.5724V9.72376H11.1409V9.14379H11.4314V8.00568H10.5724V5.71807H10.2819V4.57996Z" fill="#4D4E4D"/>
<path d="M10.0028 6.8562H10.5723V8.0057H11.4314V9.14381H11.1409V9.72378H10.5723V10.2924H9.71331V10.8619H7.4257V9.72378H6.85617V9.14381H8.5752V8.57428H9.71331V8.0057H10.0028V6.8562Z" fill="#7C7D7C"/>
<path d="M5.42857 5.14856H8.28476V5.71809H8.85429V6.28667H6.85619V6.86759H5.99715V7.43617H5.14951V6.86759H5.42857V5.14856Z" fill="#CACBCA"/>
<path d="M4.85903 5.71814H5.42856V6.86764H5.14949V7.53684L5.1381 8.57433H4.57996V9.14386H5.14949V8.57433H5.99714L6.00853 9.17708V9.72383H6.56667V10.2924H5.99714V9.72383H4.56952V6.57718H4.85903V5.71814Z" fill="#7E7E7D"/>
<path d="M6.85617 9.1438H8.5752V9.72377H9.14378V10.2924H9.71331V10.8619H7.4257V9.72377H6.85617V9.1438Z" fill="#7D7E7D"/>
<path d="M12 6.57715H12.5695V9.71241H12V6.57715Z" fill="#010101"/>
<path d="M6.85617 11.4304H9.71331V11.9999H6.85617V11.4304Z" fill="#010201"/>
<path d="M8.28474 8.00574H9.42285V8.57432H8.5752V9.14385H6.85617V8.57432H8.28474V8.00574Z" fill="#CACBCA"/>
<path d="M4 7.43616H4.56953V10.2819H4V7.43616Z" fill="#010101"/>
<path d="M7.71524 4H10.2819V4.57997H7.71524V4Z" fill="#040404"/>
<path d="M8.57523 8.57446H9.71333V9.14399L9.43427 9.15443L9.42287 9.72396H9.71333V10.2925H9.14381V9.72396H8.57523V8.57446Z" fill="#4D4D4D"/>
<path d="M10.2819 4.57996H11.1409V5.71807H11.42V6.28665H10.5724V5.71807H10.2819V4.57996Z" fill="#7D7D7D"/>
<path d="M4.85906 5.71814H5.42858V6.85625H5.13813V7.43622H4.57999V6.57718H4.85906V5.71814Z" fill="#020202"/>
<path d="M9.71331 10.8618H11.1409V11.4304H9.71331V10.8618ZM5.42856 10.8618H6.85618V11.4304H5.42856V10.8618Z" fill="#010101"/>
<path d="M11.141 5.14856H11.7105V5.71809H12V6.57713H11.4314V5.71809H11.141V5.14856Z" fill="#020202"/>
<path d="M5.42856 5.14856H6.85618V5.71809H5.42856V5.14856Z" fill="#010201"/>
<path d="M4.56952 6.57715H4.57996V7.43619H5.1381V6.85622H5.42856V6.86761H5.14949V7.53681L5.1381 8.5743H4.56952V6.57715Z" fill="#7C7C7C"/>
<path d="M11.4314 9.72388H11.9896V10.282H11.7105V10.862H11.141V10.2925H11.4314V9.72388Z" fill="#010101"/>
<path d="M10.2819 4.57996H11.1409V5.14854H10.2819V4.57996ZM6.85617 4.57996H7.71521V5.14854H6.85617V4.57996Z" fill="#010202"/>
<path d="M4.57999 10.2924H5.42858V10.8619H4.57999V10.2924Z" fill="#010101"/>
<path d="M4.56952 9.16577H4.57996V9.71252H5.99714V9.17716H6.00853V9.72391H6.56667V10.2925H5.99714V9.72391H4.56952V9.16577Z" fill="#7B7B7A"/>
<path d="M5.42856 5.71814H6.85618V5.72953H5.99714V6.28672H5.42856V5.71814Z" fill="#A1A1A1"/>
<path d="M5.42856 9.1438H5.99714V9.71238H5.42856V9.1438Z" fill="#A2A2A1"/>
<path d="M8.57523 8.57446H9.14381V9.14399H8.57523V8.57446Z" fill="#7D7D7C"/>
<path d="M9.71332 8.00574H10.2819V8.57432H9.71332V8.00574Z" fill="#4C4C4C"/>
<path d="M9.71332 4.57996H10.2819V5.14854H9.71332V4.57996Z" fill="#7E7F7E"/>
<path d="M4.57999 8.57446H5.13812V9.14399H4.57999V8.57446Z" fill="#CACAC9"/>
<path d="M6.85617 5.14856H7.14663V5.71809H6.85617V5.14856Z" fill="#A3A3A3"/>
<path d="M9.43423 8.00574H9.7133V8.57432H9.43423V8.00574Z" fill="#7B7B7A"/>
</svg>
