<svg width="16" height="16" viewBox="0 0 16 16" fill="none" xmlns="http://www.w3.org/2000/svg">
<path d="M8.57468 4H9.71266V5.13798H10.2926V4.56946H11.4305V5.13798H12V5.70744H11.4305V6.27595H12.5685V7.42532H12V7.99478H12.5685V9.1432H12.0114V9.71266H9.72405V10.2812H8.57468V11.4191H8.00522V12H6.8568V10.8506H6.28734V11.4191H5.14937V10.8506H4.58085V10.2812H4V9.13276H4.58085V8.56329H5.71883V7.99478H6.28734V7.42532H6.8568V6.8568H7.43671V5.70744H8.00522V4.56946H8.57468V4Z" fill="#412B13"/>
<path d="M10.2925 4.56946H11.4305V5.13797H12V5.70743H11.4305V6.27595H12.5685V7.42531H12V7.99478H12.5685V9.14319H12.0114V9.71265H9.72403V10.2812H8.57466V11.4191H8.0052V12H6.85679V10.8506H6.28732V10.2812H6.85679V9.70126H7.43669V9.13275H8.0052V8.56329H8.57466V7.99478H9.14413V7.41392H9.71264V6.84541H10.2821V6.28734L10.2925 6.27595H10.862V5.13797H10.2925V4.56946Z" fill="#493116"/>
<path d="M10.2926 4.56946H11.4305V5.13797H12V5.70743H11.4305V6.27595H12.5685V7.42531H10.862V8.56329H12V9.13275L9.73543 9.14319L9.72404 9.15458L9.71265 9.70126L9.64527 9.71265H9.14414L8.57468 9.70126V9.13275H9.14414V7.41392H9.71265V6.84541H10.2821V6.28734L10.2926 6.27595H10.862V5.13797H10.2926V4.56946Z" fill="#3D2913"/>
<path d="M10.2925 5.13794H10.862V6.27592L10.2925 6.2873L10.2821 6.84538H9.71265V7.41389H9.14413V7.99474H8.57467V8.56326H8.00521V9.13272H7.43669V9.70123H6.85679V10.2811H6.28733V11.4191H5.14935V10.2811H5.71882V9.71262H6.28733V9.13272H6.85679V8.56326H7.43669V7.99474H8.00521V7.42528H8.57467V6.85677H9.14413V6.27592H9.71265V5.7074H10.2925V5.13794Z" fill="#825329"/>
<path d="M6.8568 6.85681H6.86724V7.42533H7.42532V7.99479H6.8568V9.13276H6.28734V9.71267H5.71883V10.2812H5.14937V10.8506H4.58085V10.2812H4V9.13276H4.58085V8.5633H5.71883V7.99479H6.28734V7.42533H6.8568V6.85681Z" fill="#805128"/>
<path d="M9.14414 7.42529H9.15458V7.99476H9.71265L9.72404 7.42529H10.862V8.56327H12V9.13273L9.73543 9.14317L9.72404 9.15456L9.71265 9.70125L9.64527 9.71263H9.14414L8.57468 9.70125V9.13273H9.14414V7.42529Z" fill="#483013"/>
<path d="M6.85679 8.56323H8.00521V9.13269H7.43669V9.70121H6.85679V10.2811H6.28733V11.4191H5.14935V10.2811H5.71882V9.7126H6.28733V9.13269H6.85679V8.56323Z" fill="#84552A"/>
<path d="M6.85679 9.70129H7.4253V9.71268H6.86723V10.2812H8.0052V12H6.85679V10.8507H6.28732V10.2812H6.85679V9.70129Z" fill="#4A3217"/>
<path d="M5.71882 9.13269H6.28734V9.71259H5.71882V10.2811H5.14936V10.8506H4.58085V10.2811H4.01138V9.14313H4.56946V9.71259L5.14936 9.7012H5.71882V9.13269Z" fill="#3E2913"/>
<path d="M8.00522 4.56946H9.14414V5.70743H8.57468V6.84541H8.00522V4.56946Z" fill="#815127"/>
<path d="M10.2821 6.28735H10.862V6.84543H11.2749V6.85682H10.862V7.42533H9.72404V7.8828L9.71265 7.99479H9.15457L9.14413 7.41394H9.71265V6.84543H10.2821V6.28735Z" fill="#4B3114"/>
<path d="M6.86725 6.85681H8.00523V7.99479H7.43671V8.5633H6.85681V7.99479H7.42532V7.42533H6.86725V6.85681Z" fill="#7E4F27"/>
<path d="M9.73542 9.13269H12V9.7012H9.71265V9.15452L9.73542 9.13269Z" fill="#25190E"/>
<path d="M10.2821 8.56323H12V9.13269H10.2821V8.56323Z" fill="#805127"/>
<path d="M9.14414 8.56323H9.71265V9.1327L9.73543 9.14314L9.72404 9.15452L9.71265 9.70121L9.64527 9.7126H9.14414L8.57468 9.70121V9.1327H9.14414V8.56323Z" fill="#482F13"/>
<path d="M4 9.13269H5.71883V9.7012L5.14937 9.71259H4.56946V9.14313H4.01139V10.2811H4V9.13269Z" fill="#81532B"/>
<path d="M9.72404 7.42529H10.862V7.99476H9.71265L9.72404 7.42529Z" fill="#825127"/>
<path d="M7.43671 9.13269L8.00522 9.14313V9.71259H7.43671V10.2365L7.42532 10.2811H6.86725V9.71259L7.42532 9.7012L7.43671 9.13269Z" fill="#25190D"/>
<path d="M7.43671 10.2811H8.00522V11.4305L7.43671 11.4191V10.2811Z" fill="#825227"/>
<path d="M5.14935 10.8506H6.28733V11.4191H5.14935V10.8506Z" fill="#2B1D0F"/>
<path d="M8.00522 10.2811H8.57468V11.4191H8.00522V10.2811Z" fill="#25190D"/>
<path d="M4.58084 8.56323H5.71882V9.13269H4.58084V8.56323Z" fill="#473014"/>
<path d="M12 7.99475H12.5685V9.13273H12V7.99475Z" fill="#24190D"/>
<path d="M10.862 7.42529H12V7.99476H10.862V7.42529Z" fill="#25190C"/>
<path d="M10.862 6.85681H12V7.42532H10.862V6.85681Z" fill="#7F5027"/>
<path d="M8.57468 4.56946H9.14414V5.70743H8.57468V4.56946Z" fill="#815228"/>
<path d="M8.00522 4.56946H8.57468V5.70743H8.00522V4.56946Z" fill="#472F13"/>
<path d="M9.2884 9.70129H9.71265V10.2708H8.57468V9.71268L9.2884 9.70129Z" fill="#25190D"/>
<path d="M12 6.28735H12.5685V7.42533H12.2449L12.0114 7.41394L12 6.84543V6.28735Z" fill="#24190D"/>
<path d="M6.85681 6.85681H6.86725V7.42533H7.42532V7.99479H6.85681V6.85681Z" fill="#815128"/>
<path d="M7.43671 11.4192H7.99479L8.00523 11.4306V11.9887H7.35889V11.9773H7.42532V11.442L7.43671 11.4192Z" fill="#251A0D"/>
<path d="M6.28732 10.2811H6.85679L6.86723 10.7614L6.85679 10.8506H6.28732V10.2811Z" fill="#25190D"/>
<path d="M10.862 5.7074H11.4305V6.27591L11.3195 6.2873H11.0965L10.862 6.27591V5.7074Z" fill="#24180C"/>
<path d="M5.14935 10.2811H5.71882V10.8506H5.14935V10.2811Z" fill="#B49355"/>
<path d="M5.71881 10.2811H6.28732V10.8506H5.71881V10.2811Z" fill="#825226"/>
<path d="M5.71881 9.71265H6.28732V10.2812H5.71881V9.71265Z" fill="#B39154"/>
<path d="M8.57468 9.13269H9.14414V9.7012H8.57468V9.13269Z" fill="#805127"/>
<path d="M7.43671 8.56323H8.00522V9.13269H7.43671V8.56323Z" fill="#825227"/>
<path d="M6.28732 8.56323H6.85679V9.13269H6.28732V8.56323Z" fill="#342212"/>
<path d="M9.14413 8.56323H9.71265V9.13269H9.14413V8.56323Z" fill="#7F5026"/>
<path d="M8.00522 8.56323H8.57468V9.13269H8.00522V8.56323Z" fill="#261A0C"/>
<path d="M5.71881 8.56323H6.28732V9.13269H5.71881V8.56323Z" fill="#805227"/>
<path d="M7.43671 7.99475H8.00522V8.56326H7.43671V7.99475Z" fill="#B49255"/>
<path d="M5.71881 7.99475H6.28732V8.56326H5.71881V7.99475Z" fill="#462F13"/>
<path d="M10.2926 7.99475H10.862V8.56326H10.2926V7.99475Z" fill="#24190C"/>
<path d="M8.57468 7.99475H9.14414V8.56326H8.57468V7.99475Z" fill="#25190D"/>
<path d="M8.00522 7.99475H8.57468V8.56326H8.00522V7.99475Z" fill="#825227"/>
<path d="M6.85681 7.99475H7.42532V8.56326H6.85681V7.99475Z" fill="#342312"/>
<path d="M8.00522 7.42529H8.57468V7.99476H8.00522V7.42529Z" fill="#B59356"/>
<path d="M8.57468 7.42529H9.14414V7.99476H8.57468V7.42529Z" fill="#835125"/>
<path d="M7.43671 7.42529H8.00522V7.99476H7.43671V7.42529Z" fill="#342212"/>
<path d="M8.57468 6.85681H9.14414V7.42532H8.57468V6.85681Z" fill="#B39153"/>
<path d="M8.00522 6.85681H8.57468V7.42532H8.00522V6.85681Z" fill="#342312"/>
<path d="M11.4305 5.13794H12V5.7074H11.4305V5.13794Z" fill="#22170C"/>
<path d="M10.2926 5.13794H10.862V5.7074H10.2926V5.13794Z" fill="#B49355"/>
<path d="M10.862 5.13794H11.4305V5.7074H10.862V5.13794Z" fill="#835229"/>
<path d="M10.2926 6.28735H10.862V6.84543L10.8393 6.85682H10.2926V6.28735Z" fill="#25190D"/>
<path d="M7.25828 8.56323H7.43671V9.13269H6.86725V8.57462L7.25828 8.56323Z" fill="#B39255"/>
<path d="M7.42532 9.13269H7.43671V9.7012H6.86725V9.14313L7.42532 9.13269Z" fill="#825126"/>
<path d="M4.58084 9.14319H5.14935V9.70126H4.58084V9.14319Z" fill="#B39154"/>
<path d="M6.29874 7.42529H6.85681V7.99476H6.29874V7.42529Z" fill="#472F13"/>
<path d="M9.15457 7.42529H9.71264V7.99476H9.15457V7.42529Z" fill="#24180C"/>
<path d="M6.86725 6.85681H7.42532V7.42532H6.86725V6.85681Z" fill="#472F13"/>
<path d="M9.72403 6.85681H10.2925V7.41394H9.72403V6.85681Z" fill="#25190D"/>
<path d="M9.72403 5.71887H10.2821L10.2925 6.276H9.72403V5.71887Z" fill="#B49355"/>
<path d="M6.29874 9.14319H6.85681V9.70126H6.29874V9.14319Z" fill="#B39255"/>
<path d="M9.72403 6.28735H10.2821V6.84543H9.72403V6.28735Z" fill="#815027"/>
<path d="M9.15457 6.28735H9.71264V6.84543H9.15457V6.28735Z" fill="#B49253"/>
</svg>
