<svg width="16" height="16" viewBox="0 0 16 16" fill="none" xmlns="http://www.w3.org/2000/svg">
<mask id="mask0_202_70" style="mask-type:luminance" maskUnits="userSpaceOnUse" x="4" y="3" width="7" height="10">
<path d="M4 3H10.9739V13H4V3Z" fill="white"/>
</mask>
<g mask="url(#mask0_202_70)">
<path d="M5.37119 3.56982H6.99888L7.00796 3.5789V4.12147H8.13622V3.5789L8.14758 3.56982H9.773L9.78435 3.5789V4.12147H10.3269L10.336 4.13282V4.68447H10.8899V6.32351L10.8672 6.33259H10.336V6.87516L10.3156 6.88651H9.78435V7.34054L9.7957 7.44951L10.3269 7.46086L10.336 7.47221V8.01477H10.8899V9.09763L10.8786 9.10898H10.336V9.65155L10.3156 9.66063H9.78435V10.2032L9.773 10.2145L8.12487 10.2259V11.3315L8.68787 11.3428V10.8002L8.69922 10.7889H10.8899V11.8831L10.3473 11.8945L10.336 12.4257L10.3269 12.437L9.7957 12.4484L9.78435 13H7.03066L7.01931 10.2259L5.37119 10.2145L5.35983 10.2032V9.66063H4.81954L4.80819 9.65155L4.79684 9.12034L4.78549 9.10898L4.25427 9.09763V8.01477H4.80819V7.48356L4.81954 7.46086L5.35075 7.44951L5.35983 7.39502V6.88651H4.82862L4.80819 6.87516V6.33259H4.29741L4.25427 6.32351V4.68447H4.80819V4.12147H5.35983V3.5789L5.37119 3.56982Z" fill="#F7B51C"/>
</g>
<mask id="mask1_202_70" style="mask-type:luminance" maskUnits="userSpaceOnUse" x="5" y="4" width="6" height="9">
<path d="M5.16235 4.16235H10.9739V13H5.16235V4.16235Z" fill="white"/>
</mask>
<g mask="url(#mask1_202_70)">
<path d="M10.3473 4.68445H10.8899V6.32349L10.8672 6.33258H10.336V6.87514L10.3155 6.88649H9.78432V7.34052L9.79567 7.44949L10.3269 7.46084L10.336 7.47219V8.01475H10.8899V9.09761L10.8785 9.10897H10.336V9.65153L10.3155 9.66061H9.78432V10.2032L9.77297 10.2145L8.12484 10.2259V11.3314L8.68784 11.3428V10.8002L8.69919 10.7889H10.8899V11.8831L10.3473 11.8944L10.336 12.4257L10.3269 12.437L9.79567 12.4484L9.78432 13H7.03063L7.01928 10.2259L5.37115 10.2145L5.3598 10.2032V9.67196H6.46763V9.12032H7.01928V8.55505H6.46763V8.0034H8.67876V7.44949L8.68784 6.33258H9.79567V5.78093H10.3473V4.68445Z" fill="#F9B51E"/>
</g>
<mask id="mask2_202_70" style="mask-type:luminance" maskUnits="userSpaceOnUse" x="6" y="9" width="5" height="4">
<path d="M6.90582 9.3927H10.9739V13H6.90582V9.3927Z" fill="white"/>
</mask>
<g mask="url(#mask2_202_70)">
<path d="M7.01929 9.672H8.12485V11.3315L8.68785 11.3428V10.8003L8.6992 10.7889H10.8899V11.8831L10.3473 11.8945L10.336 12.4257L10.3269 12.437L9.79568 12.4484L9.78433 13H7.03064L7.01929 10.2259V9.672Z" fill="#148531"/>
</g>
<path d="M6.46763 8.00342H8.67876V8.55506H8.12484V9.12033H8.67876L8.68784 9.66063L9.78432 9.67198V10.2032L9.77297 10.2145H8.12484V9.67198H7.01928V10.2145H5.37115L5.3598 10.2032V9.67198H6.46763V9.12033H7.01928V8.55506H6.46763V8.00342Z" fill="#E48506"/>
<path d="M5.37115 3.56982H6.99885L7.00793 3.5789V4.12147H8.13619V3.5789L8.14754 3.56982H9.77297L9.78432 3.5789V4.12147H8.67876V4.67539H8.12484V5.78095H7.01928V4.67539H6.46763V4.12147H5.3598V3.5789L5.37115 3.56982Z" fill="#E58605"/>
<path d="M7.0193 5.79224H8.12486V6.34388H8.67877V8.00336H7.0193V7.44944H6.46765V6.34388H7.0193V5.79224Z" fill="#FCEF08"/>
<path d="M8.67879 4.12146H10.3269L10.336 4.13281L10.3474 4.68446V5.78094H9.79571V6.33258H8.68787V5.79229H9.24179V5.22702H8.67879V5.78094H8.12488V4.67538H8.67879V4.12146Z" fill="#FBE770"/>
<path d="M4.80816 4.12146H6.46764V4.67538H7.01929V5.78094H6.46764V5.22702H5.90238V5.78094H6.44494L6.45629 5.79229V6.33258H5.35981V5.78094H4.79681V4.68446L4.80816 4.12146Z" fill="#FAE771"/>
<path d="M8.69923 10.7888H10.8899V11.883L10.3474 11.8944L10.336 12.4256L10.3269 12.4369L9.79571 12.4483H8.12488V11.8944H8.67879V11.3427L8.68787 10.8002L8.69923 10.7888Z" fill="#5EB541"/>
<path d="M8.67877 8.00342H9.79568V8.55506H10.3473V9.10898L10.336 9.65155L10.3155 9.66063H9.80476L9.78433 9.67198H8.68785L8.67877 9.66063V9.12033H8.12485V8.55506H8.67877V8.00342ZM5.35073 8.00342H6.46764V8.55506H7.01929V9.12033H6.46764V9.67198H5.35981L5.33938 9.66063H4.81952L4.80816 9.65155L4.79681 9.12033V8.55506H5.35073V8.00342Z" fill="#FAE76B"/>
<path d="M5.9024 6.34387H6.45632V8.00335H5.35075V8.555H4.79684V9.10891L4.25427 9.09756V8.0147H4.80819V7.48349L4.81954 7.46078L5.35075 7.44943L5.35983 7.39495V6.89779H5.9024V6.34387Z" fill="#F9B51E"/>
<path d="M8.67877 4.12146H9.78433V4.67538H9.24176V5.22702H8.67877V5.78094H8.12485V4.67538H8.67877V4.12146ZM4.80816 4.67538H5.35073V5.22702H5.90238V5.78094H6.44494L6.45629 5.79229V6.33258H5.35981V5.78094H4.79681V4.68446L4.80816 4.67538Z" fill="#FBE771"/>
<mask id="mask3_202_70" style="mask-type:luminance" maskUnits="userSpaceOnUse" x="6" y="9" width="3" height="4">
<path d="M6.90582 9.97388H8.06814V13H6.90582V9.97388Z" fill="white"/>
</mask>
<g mask="url(#mask3_202_70)">
<path d="M7.03064 10.2258H7.5732V13H7.03064V10.2258Z" fill="#5EB543"/>
</g>
<path d="M8.69922 10.7888H10.8899V11.883H10.3473V11.3314H8.68787V10.8002L8.69922 10.7888Z" fill="#158432"/>
<path d="M8.68784 6.34387H9.24175V6.89779H9.78432V7.44943H9.24175V8.00335H8.67876V7.44943L8.68784 6.34387ZM5.90237 6.34387H6.45628V8.00335H5.90237V7.44943H5.3598V6.89779H5.90237V6.34387Z" fill="#E58505"/>
<path d="M8.14758 3.56982H9.77301L9.78436 3.5789V4.12147H8.13623V3.5789L8.14758 3.56982Z" fill="#E48506"/>
<path d="M5.37115 3.56982H6.99885L7.00793 3.5789V4.12147H5.3598V3.5789L5.37115 3.56982Z" fill="#E58506"/>
<path d="M8.12488 9.672H9.78436V10.2032L9.773 10.2146H8.12488V9.672Z" fill="#E58606"/>
<path d="M10.3473 4.68445H10.8899V6.32349L10.8672 6.33258H10.3473V4.68445ZM4.25427 4.68445H4.79684V6.33258H4.29741L4.25427 6.32349V4.68445Z" fill="#E48605"/>
<path d="M4.80817 4.12146H5.35981V4.67538H5.90238V5.22702H5.35073V4.67538H4.80817V4.12146Z" fill="#F9B61F"/>
<path d="M9.78433 4.12146H10.3269L10.336 4.13281V4.67538H9.79568V5.22702H9.24176V4.67538H9.78433V4.12146Z" fill="#F9B71F"/>
<path d="M10.3474 8.01477H10.8899V9.09763L10.8786 9.10898H10.3474V8.01477Z" fill="#E58506"/>
<path d="M4.25427 8.01477H4.79684V9.10898L4.25427 9.09763V8.01477Z" fill="#E48506"/>
<path d="M8.67877 5.22705H9.24177V5.79232H8.68785V6.33261H8.67877V5.22705Z" fill="#F9B822"/>
<path d="M5.35071 5.78088H5.35979V6.33253H6.45627V6.34388H5.90235V6.8978H5.35979L5.35071 6.88645V5.78088Z" fill="#F9B622"/>
<path d="M5.9024 5.22705H6.46767V6.33261H6.45632L6.44497 5.79232L5.9024 5.78097V5.22705Z" fill="#F9B721"/>
<path d="M8.12486 9.12024H8.67878L8.68786 9.67189H8.12486V9.12024ZM6.46765 9.12024H7.0193V9.67189H6.46765V9.12024Z" fill="#F7B41C"/>
<path d="M8.12488 7.44946H8.67879V8.00338H8.12488V7.44946Z" fill="#F9B71B"/>
<path d="M9.79572 5.78088H10.3474V6.33253H9.79572V5.78088Z" fill="#F9B721"/>
<path d="M8.12486 4.12146H8.67877V4.67538H8.12486V4.12146ZM6.46765 4.12146H7.0193V4.67538H6.46765V4.12146Z" fill="#FAB51C"/>
<path d="M9.79572 8.00342H10.336L10.3474 8.01477V8.55506H9.79572V8.00342Z" fill="#F8B61F"/>
<path d="M4.80816 8.00342H5.35073V8.55506H4.79681V8.01477L4.80816 8.00342Z" fill="#F8B61E"/>
<path d="M9.79572 11.8831H10.3474L10.336 12.4256L10.3269 12.437H9.79572V11.8831Z" fill="#168431"/>
<path d="M4.80817 4.12146H5.35073V4.67538H4.80817V4.12146Z" fill="#E48506"/>
<path d="M9.79572 4.12146H10.3269L10.336 4.13281V4.67538H9.79572V4.12146Z" fill="#E48507"/>
<path d="M8.90581 8.55505H9.23044V9.10897H8.68788V8.5664L8.90581 8.55505ZM5.98867 8.55505H6.26109L6.45632 8.5664V9.10897H5.92511L5.91376 9.09762V8.5664L5.98867 8.55505Z" fill="#F8B61E"/>
<path d="M8.13623 8.56641H8.6788V9.10897H8.13623V8.56641Z" fill="#FAE86E"/>
<path d="M6.46765 8.56641H7.00795V9.10897H6.46765V8.56641Z" fill="#FBE86E"/>
<path d="M8.13623 5.79224H8.6788V6.33253H8.13623V5.79224Z" fill="#E58505"/>
<path d="M6.46765 5.79224H7.00795V6.33253H6.46765V5.79224Z" fill="#E58605"/>
<path d="M9.79572 7.46082H10.3269L10.336 7.47217V8.00338H9.79572V7.46082Z" fill="#E68605"/>
<path d="M4.81952 7.46082H5.35073V8.00338H4.80817V7.48352L4.81952 7.46082Z" fill="#E68505"/>
<path d="M9.79572 6.34387H10.336V6.87509L10.3156 6.88644H9.79572V6.34387Z" fill="#E48505"/>
<path d="M4.80817 6.34387H5.35073V6.88644H4.8286L4.80817 6.87509V6.34387Z" fill="#E58505"/>
<path d="M9.79572 9.12024H10.336V9.65145L10.3156 9.66053H9.79572V9.12024Z" fill="#E48507"/>
<path d="M4.80817 9.12024H5.35073V9.66053H4.81952L4.80817 9.65145V9.12024Z" fill="#E58407"/>
<path d="M7.85474 8.55505H8.12488V9.10897H7.85474V8.55505Z" fill="#F8B51D"/>
<path d="M7.01929 8.55505H7.28943V9.10897H7.01929V8.55505Z" fill="#F7B41E"/>
<path d="M7.85474 4.67542H8.12488V5.22706H7.85474V4.67542Z" fill="#FAB51C"/>
<path d="M7.01929 4.67542H7.28943V5.22706H7.01929V4.67542Z" fill="#FAB61D"/>
</svg>
