<svg width="16" height="16" viewBox="0 0 16 16" fill="none" xmlns="http://www.w3.org/2000/svg">
<g clip-path="url(#clip0_264_1794)">
<path d="M6.2965 0H9.57755V0.478648L9.63545 0.459348H10.4461L10.5194 0.497948L10.5387 0.922556L10.9788 0.937996L10.9981 0.957296V1.4012H11.4227L11.4613 1.4205V2.30446L11.442 2.32376H11.0367L10.9981 2.30446V2.59782L10.9788 2.78311L10.5927 2.80241L10.558 2.87575L10.5387 2.89505V3.18841L10.612 3.26176L10.6468 3.28106L11.9399 3.30036V3.7597H12.38L12.3993 3.779V4.68226L11.4767 4.70156V5.18021H11.9206L11.9399 5.19951L11.9554 5.63956L12.3993 5.65886V7.04076H11.9399V7.48467L11.9206 7.50397L11.496 7.51941L11.4767 7.59275L11.4613 7.98261L11.0174 7.99806L10.9981 8.44196L10.9788 8.46126H10.0408L10.0601 9.88177L10.4808 9.89721L10.5194 9.93581V10.3604L10.9788 10.3797L10.9981 10.3952V10.8391H11.4613L11.4767 11.005V11.2984L11.9206 11.3177L11.9399 11.337V12.6649L11.9206 12.6996L11.4767 12.7189V13.1049L11.442 13.1783L10.5387 13.1976L10.5194 13.6762H11.4613L11.4767 14.0082V14.1201L11.5886 14.1394H11.828L11.9399 14.1587V14.6181H12.3993V15.5213L12.38 15.5406H11.9554L11.9399 16H4.89529L4.87985 15.5406L4.43594 15.5213L4.41664 15.502V14.6374L4.43594 14.6181L4.87985 14.5988L4.89529 14.1587L5.15392 14.1394H5.3585L5.3392 13.6608L4.43594 13.6415L4.41664 13.6222V13.1783H3.49795L3.47865 13.1435L3.45935 12.7189L3.01544 12.6996L3 12.6649V11.7964L3.25477 11.7771H3.45935L3.47865 11.3177L3.938 11.2984L3.9573 10.8391H4.41664V10.3952L4.43594 10.3797L4.87985 10.3604L4.89529 9.89721H5.3585V9.43786L5.81785 9.41856L5.83715 8.97851L5.85645 8.95921L6.2965 8.93991V8.48056L5.89119 8.46126L5.83715 8.42266V7.98261H3.9573L3.938 7.51941L3.49795 7.50397L3.47865 7.48467V7.04076H3.01544L3 7.02146V6.1568L3.07334 6.1182H3.47865V3.393L3.49795 3.30036H3.938V2.91049L3.9573 2.3585L4.4012 2.3392L4.41664 1.4205L4.45524 1.4012L4.87985 1.3819L4.89529 0.937996L5.3392 0.922556L5.3585 0.478648L5.48588 0.459348H6.2965V0ZM9.33823 0.497948L8.91748 0.517249L8.7129 0.532689L8.7322 0.59059L8.91748 0.663931L9.30349 0.883955L9.43087 0.937996L9.52351 0.903255L9.54281 0.864655L9.56211 0.60989H9.59685V0.517249L9.52351 0.497948H9.33823ZM7.42364 2.70977L7.33099 2.74451L7.40434 2.80241L7.47768 2.82171L7.49698 2.72907L7.42364 2.70977ZM6.07647 3.00313L6.00313 3.07647L6.02243 3.15367H6.11507L6.13051 3.13437L6.11507 3.00313H6.07647ZM5.09988 3.3351L5.08058 3.3544V3.68636L5.02654 3.7983L4.93389 3.90639L4.89529 4.05693L4.91459 4.16501L4.95319 4.20361L5.13848 4.22291H5.3585L5.3778 3.7404L5.55922 3.72496H5.69047L5.70977 3.70566V3.42774L5.67117 3.393L5.57852 3.48178L5.52448 3.50108H5.24656L5.19252 3.44704L5.11918 3.3351H5.09988ZM11.6427 3.7983L11.4034 3.90639L11.33 4.09167L11.3493 4.16501L11.4613 4.18431H11.9013L11.9399 4.13027L11.9206 4.09167L11.9013 3.85235L11.8473 3.7983H11.6427ZM9.80144 4.86754L9.74353 4.88298V5.03353L9.78214 5.10687L9.82074 5.12617H9.96742L9.98672 5.04897L9.92882 4.90228L9.89408 4.86754H9.80144ZM9.41157 5.18021L9.24559 5.23425L9.23015 5.25355L9.21084 5.47357V5.93678L9.30349 5.97152L9.46947 5.95222L9.48877 5.93678L9.50421 5.53147L9.48877 5.19951L9.41157 5.18021ZM7.77104 13.2555L7.6977 13.2709V13.3635H7.7363L7.7556 13.6415L7.82894 13.9001L7.86368 13.9348L7.99492 13.9155L8.06827 13.7689V13.3828L7.97562 13.2902L7.92158 13.2555H7.77104ZM8.38093 14.8188L8.34233 14.8381V14.8767L8.47357 14.896L8.49287 14.8381L8.38093 14.8188Z" fill="#12A2DE"/>
<path d="M7.23835 7.06006H7.6977L7.717 7.50397L9.57755 7.51941L9.59685 7.53871V8.01735H9.67019L9.78214 7.99805H10.9981V8.44196L10.9788 8.46126H10.0408L10.0601 9.88177L10.4808 9.89721L10.5194 9.93581V10.3604L10.9788 10.3797L10.9981 10.3952V10.8391H11.4613L11.4767 11.005V11.2984L11.9206 11.3177L11.9399 11.337V12.6649L11.9206 12.6996L11.4767 12.7189V13.1049L11.442 13.1783L10.5387 13.1976L10.5194 13.6762H11.4613L11.4767 14.0082V14.1201L11.5886 14.1394H11.828L11.9399 14.1587V14.6181H12.3993V15.5213L12.38 15.5406H11.9554L11.9399 16H4.89529L4.87985 15.5406L4.43594 15.5213L4.41664 15.502V14.6374L4.43594 14.6181L4.87985 14.5988L4.89529 14.1587L5.15392 14.1394H5.3585L5.3392 13.6608L4.43594 13.6415L4.41664 13.6222V13.1783H3.49795L3.47865 13.1435L3.45935 12.7189L3.01544 12.6996L3 12.6649V11.7964L3.25477 11.7771H3.45935L3.47865 11.3177L3.938 11.2984L3.9573 10.8391H4.41664V10.3952L4.43594 10.3797L4.87985 10.3604L4.89529 9.89721H5.3585V9.43786L5.81785 9.41856L5.83715 8.97851L5.85645 8.95921L6.2965 8.93991V8.48056L5.89119 8.46126L5.83715 8.42266V7.99805H6.7597V8.48056H7.717L7.6977 7.51941H7.23835V7.06006ZM7.77104 13.2555L7.6977 13.2709V13.3635H7.7363L7.7556 13.6415L7.82894 13.9001L7.86368 13.9348L7.99492 13.9155L8.06827 13.7689V13.3828L7.97562 13.2902L7.92158 13.2555H7.77104ZM8.38093 14.8188L8.34233 14.8381V14.8767L8.47357 14.896L8.49287 14.8381L8.38093 14.8188Z" fill="#4B7DAC"/>
<path d="M6.29649 0H9.57754V0.478648L9.63544 0.459348H10.4461L10.5194 0.497948L10.5387 0.922556L10.9787 0.937996L10.998 0.957296V1.4012H11.4227L11.4613 1.4205V2.30446L11.442 2.32376H11.0366L10.998 2.30446V2.3392H8.65885V2.80241H10.0755V3.28106H7.21904V2.82171H6.29649V3.28106H6.7597V4.22291H6.29649V4.70156H5.81784V5.16091H4.87984V4.70156H4.41664V5.16091H3.93799V2.91049L3.95729 2.3585L4.4012 2.3392L4.41664 1.4205L4.45524 1.4012L4.87984 1.3819L4.89528 0.937996L5.33919 0.922556L5.35849 0.478648L5.48587 0.459348H6.29649V0ZM9.33822 0.497948L8.91747 0.517249L8.71289 0.532689L8.73219 0.59059L8.91747 0.663931L9.30348 0.883955L9.43086 0.937996L9.5235 0.903255L9.5428 0.864655L9.5621 0.60989H9.59684V0.517249L9.5235 0.497948H9.33822ZM7.42363 2.70977L7.33099 2.74451L7.40433 2.80241L7.47767 2.82171L7.49697 2.72907L7.42363 2.70977ZM6.07647 3.00313L6.00312 3.07647L6.02242 3.15367H6.11506L6.13051 3.13437L6.11506 3.00313H6.07647ZM5.09987 3.3351L5.08057 3.3544V3.68636L5.02653 3.7983L4.93389 3.90639L4.89528 4.05693L4.91458 4.16501L4.95319 4.20361L5.13847 4.22291H5.35849L5.37779 3.7404L5.55922 3.72496H5.69046L5.70976 3.70566V3.42774L5.67116 3.393L5.57852 3.48178L5.52448 3.50108H5.24655L5.19251 3.44704L5.11917 3.3351H5.09987Z" fill="#FAFAF8"/>
<path d="M8.65886 2.33923H10.9981V2.59786L10.9788 2.78314L10.5927 2.80244L10.558 2.87578L10.5387 2.89508V3.18845L10.612 3.26179L10.6468 3.28109L11.9399 3.30039V3.75974H12.38L12.3993 3.77904V4.68229L11.4767 4.70159V5.18024H11.9206L11.9399 5.19954V5.63959H10.5387V4.70159H6.7597V5.16094H6.28106V6.1028L6.26176 6.11824H5.3585L5.3392 6.1028V5.63959H3.938L3.9573 7.04079L4.4012 7.06009L4.41664 7.41136L4.45524 7.504L5.70977 7.51944L5.81785 7.53874V7.98265H3.9573L3.938 7.51944L3.49795 7.504L3.47865 7.4847V7.04079H3.01544L3 7.02149V6.15684L3.07334 6.11824H3.47865V3.39303L3.49795 3.30039H3.938V5.16094H4.41664V4.70159H4.87985V5.16094H5.81785V4.70159H6.2965V4.22295H6.7597V3.28109H6.2965V2.82174H7.21905V3.28109H10.0755V2.80244H8.65886V2.33923ZM11.6427 3.79834L11.4034 3.90642L11.33 4.0917L11.3493 4.16504L11.4613 4.18434H11.9013L11.9399 4.1303L11.9206 4.0917L11.9013 3.85238L11.8473 3.79834H11.6427Z" fill="#050808"/>
<path d="M9.59685 12.719H10.0601V14.1395H11.828L11.9399 14.1588V14.6181H12.3993V15.5214L12.38 15.5407H11.9553L11.9399 16H4.89529L4.87985 15.5407L4.43594 15.5214L4.41664 15.5021V14.6374L4.43594 14.6181L4.87985 14.5988L4.89529 14.1588L5.15391 14.1395H7.6977V14.5988H8.63955V13.1976H9.59685V12.719ZM8.38093 14.8189L8.34233 14.8382V14.8768L8.47357 14.8961L8.49287 14.8382L8.38093 14.8189Z" fill="#DCDDD8"/>
<path d="M6.7597 9.88184H7.23835V10.4531L7.21905 10.4145H6.96043L6.83304 10.4531L6.81375 10.8391H7.23835V11.2985H6.779L6.79444 11.7424L6.779 11.7771H7.23835V12.719H6.7597V13.1783L6.59372 13.1976H6.2965V13.6608H5.81785V14.1395H5.3585L5.3392 13.6608L4.43594 13.6415L4.41664 13.6222V13.1783H3.49795L3.47865 13.1436L3.45935 12.719L3.01544 12.6997L3 12.6649V11.7964L3.25477 11.7771H3.45935L3.47865 11.3178L3.938 11.2985L3.9573 10.8391H4.41664V10.3952L4.43594 10.3798L4.87985 10.3605L4.89529 9.89728H5.3392V10.8391H4.87985V11.2985L4.41664 11.3178L4.4012 11.7617L3.99204 11.7964L3.9573 11.8543L3.938 12.4256L3.9573 12.6649H4.28926L4.3819 12.6263L4.4012 12.2403H4.86055L4.87985 12.2596V13.1436H5.09988L5.3392 13.1783V12.2596L5.3585 12.2403H6.13051L6.2965 12.2596V11.2985H5.81785V10.8391H6.2965V10.3605H6.7597V9.88184Z" fill="#072338"/>
<path d="M7.69769 8.95923H8.65884V9.41858H9.59684V10.3604H7.23834V9.88178H6.75969V10.3604H6.29649V10.8391H5.81784V11.2984H6.29649V12.2596H5.35849V13.1435L5.33919 13.1783H5.15391L5.09986 13.1628L4.87984 13.1435L4.86054 12.2596L4.40119 12.2403V12.6263L4.36259 12.6649L4.28925 12.6803H3.93799L3.91869 12.4063L3.93799 11.8543L3.99203 11.7771L4.14257 11.7616H4.40119V11.3177L4.41663 11.2984H4.87984V10.8391L5.09986 10.8198H5.30445L5.33919 10.8391V9.89722L5.35849 9.88178L5.87574 9.86248V9.73124L5.85644 9.6772L5.87574 9.47648L5.91048 9.45718L6.28105 9.43788H6.31579L6.35439 9.05187L6.38913 8.99397L6.70179 8.97853L6.74039 9.06731V9.39928L7.69769 9.41858V8.95923Z" fill="#10A1DD"/>
<path d="M5.48587 0.459351H6.29649V1.40121H5.81784V1.87985H5.35849V2.82171H4.87984V4.22291H5.35849V3.74041H5.81784V3.28106H6.28105V2.80241H7.23834V3.28106H7.21904V2.82171H6.29649V3.28106H6.7597V4.22291H6.29649V4.70156H5.81784V5.16091H4.87984V4.70156H4.41664V5.16091H3.93799V2.91049L3.95729 2.3585L4.4012 2.3392L4.41664 1.42051L4.45524 1.40121L4.87984 1.38191L4.89528 0.937999L5.33919 0.922558L5.35849 0.478651L5.48587 0.459351Z" fill="#C6C8C3"/>
<path d="M7.23836 7.06006H7.6977L7.717 7.50397L9.57756 7.51941L9.59686 7.53871V8.01735H9.6702L9.78214 7.99805H10.9981V8.44196L10.9788 8.46126H10.0408V9.88177H9.59686V9.41856H8.65886V8.95921H7.6977V9.41856H6.74041L6.72111 9.39926V9.05185L6.70181 8.99395L6.38914 9.01325L6.3544 9.19853L6.3351 9.43786L6.28106 9.47646V9.43786L6.14982 9.45716L5.87575 9.47646V9.67718L5.85645 9.71578L5.8912 9.73122V9.86247L5.87575 9.88177H5.35851V9.43786L5.81785 9.41856L5.83715 8.97851L5.85645 8.95921L6.2965 8.93991V8.48056L5.8912 8.46126L5.83715 8.42266V7.99805H6.75971V8.48056H7.717L7.6977 7.51941H7.23836V7.06006Z" fill="#040608"/>
<path d="M10.0601 9.89722H10.4808L10.5194 9.93582V10.3604L10.9787 10.3797L10.9981 10.3952V10.8391H11.4613L11.4767 11.0051V11.2984L11.9206 11.3177L11.9399 11.337V12.6649L11.9206 12.6996L11.4767 12.7189V13.1049L11.442 13.1783L10.5387 13.1976L10.5194 13.6762H11.4613L11.4767 14.0082V14.1394H10.0601V12.7189H9.59685V12.2403H10.0601V9.89722Z" fill="#040607"/>
<path d="M5.11917 14.1394H7.6977V14.5988H8.65885V15.5406H4.87985L4.43594 15.5213L4.41664 15.502V14.6374L4.43594 14.6181L4.87985 14.5988L4.89529 14.1587L5.11917 14.1394ZM8.38093 14.8188L8.34233 14.8381V14.8767L8.47357 14.896L8.49287 14.8381L8.38093 14.8188Z" fill="#E8E9E5"/>
<path d="M9.63546 0.459351H10.4461L10.5194 0.497951L10.5387 0.922558L10.9788 0.937999L10.9981 0.957299V1.40121H11.4227L11.4613 1.42051V2.30446L11.442 2.32376H11.0367L10.9981 2.30446V2.3392H8.65887V2.80241H10.0755V3.28106H9.59686V2.82171H7.69771V1.86055H10.5387V1.42051L10.0601 1.40121L10.0408 0.937999L9.59686 0.922558V0.478651L9.63546 0.459351Z" fill="#C1C2BE"/>
<path d="M8.65886 14.5988H9.1182V15.5406H11.9399V16H4.89529V15.5406H8.65886V14.5988Z" fill="#050605"/>
<path d="M6.94498 4.68225H7.79033V4.70155H7.23834V5.1609H6.779L6.79444 5.40022L6.779 5.43882V5.62025L6.7597 5.63955L6.33509 5.65885L6.35439 5.71289V5.97151L6.33509 6.1182L6.26175 6.19154H6.07647L6.04172 6.1761H5.47043L5.43183 6.19154L5.39323 6.39612V6.5428L5.50517 6.5235L5.81784 6.5428L5.87574 6.63544V6.91337L5.89118 6.98671L5.87574 7.06005H5.81784V7.5194H4.41664V7.46536L4.4012 7.41132V7.06005H4.08467L3.95729 7.04075L3.93799 6.96741V5.63955H5.33919L5.35849 6.10275H6.26175L6.28105 5.1609H6.7597V4.70155L6.94498 4.68225Z" fill="#1A87BE"/>
<path d="M7.6977 8.95923H8.65886V9.41858H9.59686V10.3604H7.23836V9.78914L7.25766 9.6965H7.23836V9.41858H7.6977V8.95923Z" fill="#7A9FBF"/>
<path d="M7.69771 4.70154H10.5387V5.63953H10.0601V5.16089H9.59686V6.11818H9.11821V5.16089H8.63957V6.10274H7.69771V4.70154ZM9.80144 4.86752L9.74354 4.88296V5.0335L9.78215 5.10684L9.82074 5.12615H9.96743L9.98673 5.04894L9.92883 4.90226L9.89409 4.86752H9.80144ZM9.41158 5.18019L9.2456 5.23423L9.23015 5.25353L9.21085 5.47355V5.93676L9.3035 5.9715L9.46948 5.9522L9.48878 5.93676L9.50422 5.53145L9.48878 5.19949L9.41158 5.18019Z" fill="#F8FBF6"/>
<path d="M6.28106 2.80237H7.23835V3.28102H7.21905V2.82167H6.2965V3.28102H6.7597V4.22287H6.2965V4.70152H5.81785V5.16087H4.87985V4.22287H5.3585V3.74036H5.81785V3.28102H6.28106V2.80237Z" fill="#8C6314"/>
<path d="M7.71701 12.719H9.59686V13.1976H8.63956V14.5988H7.6977V14.1395H7.23836V13.1976H7.6977V14.1202H8.18021V13.1783H7.71701V12.719Z" fill="#030506"/>
<path d="M10.5387 10.8198H10.9981L11.4613 10.8391L11.4767 11.0051V11.2985L11.9206 11.3178L11.9399 11.3371V12.6649L11.9206 12.6997L11.4767 12.719H10.5387V12.2403H10.9981V11.7771H10.5387V10.8198Z" fill="#166C9B"/>
<path d="M3.07334 6.11829H3.938L3.9573 7.04084L4.4012 7.06014L4.41664 7.41141L4.45524 7.50405L5.70977 7.51949L5.81785 7.53879V7.9827H3.9573L3.938 7.51949L3.49795 7.50405L3.47865 7.48475V7.04084H3.01544L3 7.02154V6.15689L3.07334 6.11829Z" fill="#0E5180"/>
<path d="M7.23836 3.75964H11.9554V4.22285H7.23836V3.75964ZM11.6427 3.79824L11.4034 3.90633L11.33 4.09161L11.3493 4.16495L11.4613 4.18425H11.9013L11.9399 4.13021L11.9206 4.09161L11.9013 3.85229L11.8473 3.79824H11.6427Z" fill="#FAFAF7"/>
<path d="M10.0601 14.1394H11.828L11.9399 14.1587V15.0967L11.8473 15.062L11.828 15.0774H9.59685V14.5988H10.0601V14.1394Z" fill="#E1E3DE"/>
<path d="M4.89528 9.89722H5.33919V10.8391H4.87984V11.2984L4.41663 11.3177L4.40119 11.7616L3.99203 11.7964L3.95729 11.8543L3.93799 12.4256V12.6803H3.57128L3.51338 12.6649L3.49794 12.441L3.51338 12.3329L3.49794 12.0936V11.9431L3.55198 11.7964H3.93799V11.7616H3.47864V11.3177L3.93799 11.2984L3.95729 10.8391H4.41663V10.3952L4.43593 10.3797L4.87984 10.3604L4.89528 9.89722Z" fill="#0C4B78"/>
<path d="M6.29649 0H9.57755V0.443908H6.29649V0Z" fill="#020502"/>
<path d="M9.09891 9.89722H9.11821V10.3604H9.59686V11.2984H9.11821V10.8391H8.18022V11.2984H7.69771V10.3604H9.09891V9.89722Z" fill="#265076"/>
<path d="M5.3585 12.2402H6.13052L6.2965 12.2595V12.7189H6.75971V13.1782L6.59372 13.1975H6.2965V13.6607H5.81785V13.1975H5.3392V12.2595L5.3585 12.2402Z" fill="#164165"/>
<path d="M6.2965 8.93994H6.75971V9.39929H7.23836V8.93994H9.59686V9.41859H8.65886V8.95924H7.6977V9.41859H6.74041L6.72111 9.39929V9.05188L6.70181 8.99398L6.38914 9.01328L6.3544 9.19857L6.3351 9.43789L6.28106 9.47649V9.43789L6.14982 9.45719L5.87575 9.47649V9.67721L5.85645 9.71581L5.8912 9.73125V9.8625L5.87575 9.8818H5.35851V9.43789L5.81785 9.41859L5.83715 8.97854L5.85645 8.95924L6.2965 8.93994Z" fill="#12293E"/>
<path d="M7.25765 7.00598H7.7363L7.77104 7.11406L7.7556 7.50393L7.93702 7.46533H8.41953L8.52761 7.48463L8.58551 7.46533H9.52351L9.57755 7.48463V7.51937H7.717L7.6977 7.50393V7.06002H7.23835V7.51937H7.6977L7.717 7.77799V8.48053H6.7597V7.99802H5.83714L5.81784 7.98258V7.53867H5.70976V7.51937H5.81784V7.06002H6.29649V7.51937H6.779V7.99802H7.23835L7.25765 8.42263H7.31169L7.35029 8.38788L7.47767 8.40719L7.68226 8.44193L7.66296 8.27594L7.62435 8.09066L7.64366 8.01732V7.63131L7.66296 7.57727L7.33099 7.59271L7.29239 7.61201L7.21905 7.57727L7.18431 7.42673V7.06002L7.25765 7.00598Z" fill="#1872AC"/>
<path d="M9.59685 12.719H10.0601V13.6609H9.1182V14.1395H8.65886V14.5988H8.63956V13.1976H9.59685V12.719Z" fill="#487BAD"/>
<path d="M7.69771 8.95923H8.65887V9.41858H9.15681L9.13751 9.45718L9.11821 9.84318L9.08347 9.88178H7.73631L7.69771 9.7158V8.95923Z" fill="#10A2DE"/>
<path d="M10.0601 7.06006H11.9399V7.48467L11.9206 7.50397L11.496 7.51941L11.4767 7.59275L11.4613 7.98261H11.0174V7.51941H10.0601V7.06006Z" fill="#030708"/>
<path d="M6.7597 9.88184H7.23835V10.4531L7.21905 10.4145H6.96043L6.83304 10.4531L6.81375 10.8391H7.23835V11.2985H6.779L6.79445 11.7424L6.779 11.7771H7.23835V12.719H6.7597V9.88184Z" fill="#15304B"/>
<path d="M9.57754 7.79736H9.59684V8.01739H9.67018L9.78213 7.99809H10.998V8.44199L10.9787 8.46129H10.0755L10.0408 8.48059H9.11819V7.99809H9.57754V7.79736Z" fill="#1267A2"/>
<path d="M4.41664 6.11829H5.3392V6.58149H5.79854L5.81784 6.60079V7.06014H4.89529L4.87985 7.04084V6.58149L4.54788 6.60079L4.45524 6.61623L4.4012 6.58149L4.41664 6.11829Z" fill="#04090C"/>
<path d="M3.95731 7.51941H5.70978L5.81786 7.53871V7.98262H3.95731V7.51941Z" fill="#050708"/>
<path d="M4.41664 13.1975H5.81784V14.1394H5.3585L5.3392 13.6607L4.43594 13.6414L4.41664 13.6221V13.1975Z" fill="#040606"/>
<path d="M5.81784 13.6608H7.23834V14.1394H5.81784V13.6608Z" fill="#6E9DC5"/>
<path d="M9.59685 5.16089H10.0601V5.63954H10.5387V6.10274L10.5194 6.11818H9.59685V5.16089Z" fill="#05090A"/>
<path d="M4.41664 7.06006H5.81784V7.51941H4.41664V7.06006Z" fill="#17A0DD"/>
<path d="M11.4767 11.3177H11.9206L11.9399 11.337V12.6649L11.9206 12.6997H11.496L11.4767 12.6649V11.3177Z" fill="#040608"/>
<path d="M4.89529 9.89722H5.3392V10.8391H4.64052L4.41664 10.8198V10.3952L4.43594 10.3797L4.87985 10.3604L4.89529 9.89722Z" fill="#082A43"/>
<path d="M11.9554 5.65881H12.3993V7.04072H11.9554V5.65881Z" fill="#030504"/>
<path d="M7.25766 3.77905H8.65886L8.63956 4.20366H7.25766V3.77905Z" fill="#CFD0CD"/>
<path d="M6.94498 4.68225H7.79034V4.70155H7.23835V5.1609H6.779L6.79444 5.40022L6.779 5.43882V5.62025L6.7597 5.63955H6.33509L6.31579 5.54691L6.29649 6.10275H6.28105V5.1609H6.7597V4.70155L6.94498 4.68225Z" fill="#12679F"/>
<path d="M7.69771 8.93994H9.59686V9.41859H8.65887V8.95924H7.69771V8.93994Z" fill="#165A90"/>
<path d="M6.7597 11.2983H6.779L6.79445 11.7422L6.779 11.777H7.23835V12.7188H6.7597V11.2983Z" fill="#28527A"/>
<path d="M8.63956 13.1975H9.1182V14.1394H8.65886V14.5987H8.63956V13.1975Z" fill="#274F75"/>
<path d="M9.11819 13.6608H10.0601V14.1394H9.11819V13.6608Z" fill="#81ABD0"/>
<path d="M7.717 7.99805H8.65885V8.48056H7.717V7.99805Z" fill="#DB231C"/>
<path d="M10.0601 4.70154H10.5387V5.63953H10.0601V4.70154Z" fill="#77C1DF"/>
<path d="M8.18021 11.2983H9.0989L9.1182 11.3176V11.777H8.18021V11.2983Z" fill="#234D76"/>
<path d="M8.65886 5.16089H9.11821V6.10274H8.65886V5.16089Z" fill="#050605"/>
<path d="M7.23836 4.70154H7.6977V5.63953H7.23836V4.70154Z" fill="#75C5E4"/>
<path d="M4.45524 1.40125H4.87985V2.33924H4.41664V1.42055L4.45524 1.40125Z" fill="#030404"/>
<path d="M10.0601 7.99805H10.9981V8.44195L10.9788 8.46125H10.0601V7.99805Z" fill="#030709"/>
<path d="M5.48589 0.459351H6.2965V0.922558H5.35851V0.478651L5.48589 0.459351Z" fill="#050604"/>
<path d="M6.29649 3.28113H6.7597V4.22298H6.28105L6.31579 4.18438V3.90646L6.29649 3.75978V3.28113Z" fill="#E2B78C"/>
<path d="M6.14982 9.43787H6.28106L6.2965 9.47647V9.88177L5.87575 9.91651L5.83715 9.97056L5.81785 10.3604L5.45114 10.3797L5.3392 10.4685V9.89721L5.3585 9.88177L5.87575 9.86247V9.73123L5.85645 9.67719L5.87575 9.47647L5.91049 9.45717L6.14982 9.43787Z" fill="#0F6BAC"/>
<path d="M9.63545 0.459351H10.4461L10.5194 0.497951V0.922558H9.59685V0.478651L9.63545 0.459351Z" fill="#040503"/>
<path d="M3.07334 6.11829H3.45935V7.04084H3.01544L3 7.02154V6.15689L3.07334 6.11829Z" fill="#030606"/>
<path d="M3.18142 11.7771H3.36671L3.45935 11.7964V12.6997H3.01544L3 12.6649V11.7964L3.18142 11.7771Z" fill="#040606"/>
<path d="M3.47864 12.719H4.40119V13.1783H3.49794L3.47864 13.1436V12.719Z" fill="#03060A"/>
<path d="M4.43594 14.618H4.87985V15.5213H4.43594L4.41664 15.502V14.6373L4.43594 14.618Z" fill="#040503"/>
<path d="M3.95729 2.35852H4.4012V3.28108H3.93799V2.91051L3.95729 2.35852Z" fill="#030502"/>
<path d="M11.0173 1.40125H11.4227L11.4613 1.42055V2.3045L11.442 2.3238H11.0366L11.0173 2.3045V1.40125Z" fill="#040404"/>
<path d="M11.9554 14.618H12.3993V15.5213L12.38 15.5406H12.1792L11.9554 15.5213V14.618Z" fill="#030603"/>
<path d="M6.66706 8.97852L6.72111 8.99396L6.7404 9.0673V9.39926L7.23835 9.41856L7.25765 9.67719L7.27695 9.73123V9.78913H7.23835V9.88177H6.75971V10.3604H6.2965V10.8391H5.81785V11.2984H6.2965V11.9816L6.26176 12.0357L6.22316 11.8543V11.669L6.24246 11.3563H5.79855L5.76381 11.2444L5.78311 10.8005L5.87575 10.785L6.22316 10.7657L6.24246 10.4531L6.2965 10.3218L6.50108 10.3025H6.70181L6.72111 9.89721L6.7404 9.86247L6.96043 9.84317L6.99903 9.82387H7.16501L7.19975 9.76983L7.21905 9.43786L6.77901 9.45716L6.66706 9.43786L6.3351 9.41856V9.19854L6.3737 9.01326L6.38914 8.99396L6.66706 8.97852Z" fill="#217EB4"/>
<path d="M11.0174 11.337H11.442L11.4613 11.6497V12.2403L11.2374 12.2596H11.0521L11.0174 12.221H11.0521V11.835L10.9981 11.669L11.0174 11.337Z" fill="#15A1DB"/>
<path d="M11.4767 5.63953H11.9554V7.04073L11.9399 7.06003H10.0755V7.04073L11.442 7.02143L11.4613 6.93265L11.4767 6.58138L11.8473 6.56208L11.9013 6.46944L11.882 6.13747L11.9013 6.01009V5.69743L11.4767 5.71287V5.63953Z" fill="#1A71A5"/>
<path d="M4.47454 5.67822H5.24656L5.30446 5.69752V6.02949L5.28516 6.06423H5.09987V6.02949L5.04583 6.06423L4.76791 6.08353L4.69457 6.06423H4.41664V5.73226L4.47454 5.67822Z" fill="#109EDC"/>
</g>
<defs>
<clipPath id="clip0_264_1794">
<rect width="16" height="16" fill="white"/>
</clipPath>
</defs>
</svg>
