<svg width="16" height="16" viewBox="0 0 16 16" fill="none" xmlns="http://www.w3.org/2000/svg">
<g clip-path="url(#clip0_196_341)">
<path d="M6.54657 0H9.41539L9.56172 0.0192536L9.58097 0.462093L10.4821 0.481347L10.5013 0.49675V0.958843H10.9788L10.9981 1.39783L11.437 1.41709L11.4563 1.471V2.29891L11.437 2.33742H10.9788V2.79566L10.0431 2.81492V3.29241L10.9788 3.31167V3.76991H11.437L11.4563 3.80842V4.2474H11.9184V4.69024L11.4563 4.7095V5.18699H11.9184V5.66449L12.3227 5.64524L12.3766 5.66449V6.56557L11.9184 6.58482L11.9338 7.00841L11.9531 7.04307L12.3574 7.06232L12.3766 7.08157V7.98266L11.9723 8.00191L11.9338 8.10973L11.9184 8.46015H11.437L11.4563 8.90299L11.437 8.91839L10.9981 8.93765L10.9788 9.39974L10.0431 9.41514V9.87724L10.4821 9.89649L10.5013 9.91189L10.5206 10.3547L10.9788 10.374V10.8322H11.437L11.4563 10.8515V11.2943L11.9184 11.3097V12.6883H11.4563V13.1504L11.437 13.1696L10.9981 13.1851L10.9788 13.6664H11.437L11.4563 13.7935V14.1246L11.9184 14.1439V14.6021H12.3766V15.5225L11.9338 15.5417L11.9184 15.9807L11.7528 16L4.89073 15.9807L4.87533 15.5417L4.41323 15.5225V14.6021L4.87533 14.5829V14.2363L4.90998 14.1246H5.83032V13.6664H6.28856V13.1851L5.79181 13.1696V13.6279H4.41323L4.39398 13.1851L3.4775 13.1696V12.6883H3V11.7872L3.07317 11.7718H3.4775V11.3097H3.93574V10.9439L3.95499 10.8322H4.41323V10.374H4.87533L4.89073 9.89649H5.35282V9.4344L5.83032 9.41514L5.81107 8.47941L5.37208 8.46015L5.35282 8.4409V7.98266H3.95499L3.93574 7.52441L3.4775 7.50516L3.45824 7.06232L3 7.04307V6.12658L3.45824 6.10733L3.4775 3.31167L3.91649 3.29241L3.93574 2.81492V2.37208L4.39398 2.35667L4.41323 1.43634L4.43249 1.41709H4.89073V0.958843L5.33357 0.939588L5.35282 0.481347H6.28856V0.0192536L6.54657 0Z" fill="#050404"/>
<path d="M6.54656 0H9.41539L9.56172 0.0192536L9.58097 0.462093L10.4821 0.481347L10.5013 0.49675V0.958843H10.9788L10.9981 1.39783L11.437 1.41709L11.4563 1.471V2.29891L11.437 2.33742H10.9788V2.79566L10.0431 2.81492V3.29241L10.9788 3.31167V3.76991H11.437L11.4563 3.80842V4.2474H11.9184V4.69024L11.4563 4.7095V5.18699H11.9184V5.64524H10.5206V4.7095H10.0431V4.232H9.12273L9.10348 3.76991L8.62598 3.7545V4.232L7.68639 4.2474H7.2474L7.22815 4.7095H6.75065V5.64524H5.81107V6.10733H6.28856V6.58482H5.81107V7.06232H5.33357V7.98266H3.95499L3.93574 7.52441L3.4775 7.50516L3.45824 7.06232L3 7.04307V6.12658L3.45824 6.10733L3.4775 3.31167L3.91649 3.29241L3.93574 2.81492V2.37208L4.39398 2.35667L4.41323 1.43634L4.43249 1.41709H4.89073V0.958843L5.33357 0.939588L5.35282 0.481347H6.28856V0.0192536L6.54656 0Z" fill="#591512"/>
<path d="M8.62597 3.75452H9.10347L9.12272 3.76992V4.23201H10.0431V4.70951H10.5206V5.64525H12.3227L12.3766 5.6645V6.56558L11.9184 6.58484L11.9338 7.00842L11.953 7.04308L12.3574 7.06233L12.3766 7.08159V7.98267L11.9723 8.00192L11.9338 8.10974L11.9184 8.46016H11.437L11.4563 8.903L11.437 8.9184L10.998 8.93766H6.75064V8.46016H5.37206L5.35281 8.44091L5.33356 7.98267V7.06233H5.81105V6.58484H6.28855V6.10734H5.81105V5.64525H6.75064V4.70951H7.22814V4.28592L7.24739 4.24742L7.68638 4.23201H8.62597V3.75452Z" fill="#14A3DF"/>
<path d="M6.54656 0H9.41538L9.56171 0.0192536L9.60022 0.939588L10.0431 0.958843V1.41709H10.5206V1.87533L8.64523 1.89458L7.68639 1.87533V2.79566L6.89698 2.83417L6.75065 2.81492V3.2385L6.73139 3.25776H6.30781L6.28855 3.78916L6.7699 3.76991L6.80456 3.73525L6.7699 3.51191V3.29241H7.18963L7.22814 3.31167L9.9853 3.33092L10.0046 3.34632V3.73525H8.60672L7.20889 3.7545L7.17423 3.88158H7.13572L7.15498 3.93549L7.13572 4.19349L6.97014 4.21275H6.75065L6.73139 4.232H6.28855V4.65559L6.21539 4.7095H5.81106V5.16774H3.93573V2.37208L4.39397 2.35667L4.41323 1.43634L4.43248 1.41709H4.89072V0.958843L5.33356 0.939588L5.35282 0.481347H6.28855V0.0192536L6.54656 0Z" fill="#DE2825"/>
<path d="M5.81105 5.64526H6.75064V6.12661H7.22814V6.58485H7.68638V7.06235H9.58096V7.53984H11.4563V7.06235H11.9338V8.00194H11.4563V8.90302L11.437 8.91842L10.998 8.93768H6.75064V8.46018H5.37206L5.35281 8.44093L5.33356 7.98268V7.06235H5.81105V6.58485H6.28855V6.10736H5.81105V5.64526Z" fill="#F7F8F5"/>
<path d="M6.28855 9.41516H9.58097V10.3548H10.0431V11.2943H6.7699V10.374L6.80456 10.3933H7.22814V9.858H6.73139V10.1892L6.69288 10.3162H6.47339L6.28855 10.3355L6.27315 10.3548L6.2539 10.7591L6.19613 10.7783L6.04981 10.7976H5.7918V11.3097H6.27315V12.2301L5.35282 12.2493L5.33356 13.1697H4.87532V12.2301H4.39397V12.6883H3.95498L3.93573 12.6729V11.7718L4.39397 11.7526L4.41323 11.2943H4.87532V10.8862L4.90998 10.8322L5.31431 10.7976L5.33356 10.4279L5.35282 10.3548H5.81106V9.87725H6.28855V9.41516Z" fill="#04A0E1"/>
<path d="M6.75062 11.7719H10.043V12.2301H9.58094V12.7076H9.10345V13.1697H8.16386V12.6729L7.68636 12.6883L7.67096 12.7076V13.1851L8.14846 13.2043V14.1054L8.03678 14.0862H7.3552L7.26278 14.0708L7.20887 14.1054L7.18961 14.4173L7.17421 14.4751L7.22812 14.6214L7.37445 14.6407H9.10345V15.0604H9.43461L9.52703 15.1182V15.484L9.48852 15.5033H6.51188L5.99587 15.484L5.8688 15.5033L5.81104 15.484V14.1247L5.83029 13.6664H6.28853V12.7076H6.75062V11.7719Z" fill="#F02721"/>
<path d="M5.81107 8.46021H6.75066V8.9377H10.9788V9.39979L10.0431 9.4152V9.87729L10.0585 9.89654V11.3098H6.75066V10.3548H6.28856V10.8323H5.81107V11.2944H6.28856V13.1697H5.79181V13.6279H4.41323L4.39398 13.1851L3.4775 13.1697V12.6884H3V11.7873L3.07317 11.7719H3.4775V11.3098H3.93574V10.944L3.95499 10.8323H4.41323V10.374H4.87533L4.89073 9.89654H5.35282V9.43445L5.83032 9.4152L5.81107 8.46021ZM6.28856 9.4152V9.87729H5.81107V10.3548H5.35282L5.33357 10.428L5.31432 10.7976L4.90998 10.8323L4.87533 10.8862V11.2944H4.41323L4.39398 11.7526L3.93574 11.7719V12.673L3.98965 12.6884H4.39398V12.2301H4.87533V13.1697H5.33357L5.35282 12.2494L6.27316 12.2301V11.3098H5.79181V10.7976H6.04981L6.23465 10.7784L6.2539 10.7591L6.27316 10.3548L6.28856 10.3355L6.58507 10.3163H6.69289L6.7314 10.1892V9.85804H7.22815V10.3933H6.82382L6.80457 10.374H6.76991V11.2944H10.0431V10.3548H9.58097V9.4152H6.28856Z" fill="#05385C"/>
<path d="M8.01753 12.6537L8.16386 12.6729V13.1697H9.10345V12.7076H9.58095V13.1851H9.10345V13.6472H8.64521V14.1247H9.58095V14.5829H10.043L10.0584 15.5225L11.9184 15.5418V15.9808L11.7528 16L4.8907 15.9808L4.8753 15.5418L4.41321 15.5225V14.6022L4.8753 14.5829V14.2364L4.90996 14.1247H5.81104V15.484L6.0883 15.4686L6.52728 15.484H9.52704L9.50778 15.1182L9.43462 15.0797L9.10345 15.0604V14.6407L8.64521 14.6561H7.30129L7.20887 14.6407L7.15496 14.4558L7.17421 14.3442L7.18962 14.1054L7.28204 14.0515L7.46687 14.0708H7.98288L8.03679 14.0515V14.0862L8.14846 14.1054V13.2043H7.67096L7.65171 13.1851V12.7076L7.68637 12.6729L8.01753 12.6537Z" fill="#A8222D"/>
<path d="M9.58097 0.481323H10.4821L10.5013 0.496726V0.95882H10.9788L10.9981 1.39781L11.437 1.41706L11.4563 1.47097V2.29889L11.437 2.3374H10.9788V2.79564L10.0431 2.81489L10.0238 3.29239H7.22815V2.81489H8.64523V2.35665H8.16389V1.8753H10.5206V1.41706H10.0431V0.95882H9.60023L9.58097 0.939565V0.481323Z" fill="#86161E"/>
<path d="M3.93574 5.64526H5.33357L5.35282 5.66452V6.10736H6.28856V6.58485H5.81107V7.06235H5.33357V7.98268H3.95499L3.93574 7.52444L3.4775 7.50519L3.45824 7.06235L3 7.0431V6.12661H3.93574V5.64526Z" fill="#020405"/>
<path d="M9.58094 12.7075H10.043L10.0584 13.1696L10.5205 13.185V13.6471H10.043L10.0584 14.1054L11.5679 14.1246L11.9184 14.1439V14.6021H12.3766V15.5224L11.9338 15.5417H10.0584L10.043 15.5224V14.5828H9.58094V14.1246H8.6452V13.6471H9.10345V13.185H9.58094V12.7075Z" fill="#812025"/>
<path d="M9.58093 14.5829H10.043L10.0584 15.5225L11.9184 15.5417V15.9807L11.7528 16L4.89069 15.9807V15.5417H9.58093V14.5829Z" fill="#040202"/>
<path d="M3.91643 3.29236H3.93569V5.16769H6.28851V4.70944H6.7506V5.64518H5.81101V6.10728H5.35277L5.33352 5.66444L3.93569 5.64518V6.12653H3.45819L3.47744 3.31161L3.91643 3.29236Z" fill="#050404"/>
<path d="M6.54654 0H9.41536L9.56169 0.0192536L9.58095 0.481347L6.30779 0.49675L6.32704 0.958843L6.28854 0.974246L5.84955 0.993499L5.83029 1.01275L5.81104 1.41709L5.37205 1.43634L5.26038 1.471H4.92921L4.90996 1.52876L4.8907 2.35667H4.41321V1.43634L4.43246 1.41709H4.8907V0.958843L5.33354 0.939588L5.3528 0.481347H6.28854V0.0192536L6.54654 0Z" fill="#030302"/>
<path d="M4.39397 2.35669H4.87532V4.70951L5.00239 4.69026L5.33356 4.70951L5.35282 5.1331L5.33356 5.16776H3.93573V2.37209L4.39397 2.35669Z" fill="#AD1C27"/>
<path d="M7.68634 4.70947H10.5205V5.64521H10.043V5.16771H9.56167V6.1073H9.12268V5.16771H8.62593V6.1073H7.68634V4.70947Z" fill="#FAFCF9"/>
<path d="M7.68636 1.87537H8.16386V2.35671H8.64521V2.81496H7.22812V3.29245H10.043V3.75454H8.62595V4.23204L7.68636 4.24744H7.24737L7.22812 4.70954H6.28853V5.16778H5.81104V4.70954L6.21537 4.69028L6.27313 4.65563L6.28853 4.23204L6.73137 4.21279L6.82379 4.19353H7.1357V3.88162H7.17421L7.18961 3.75454L7.20887 3.73529L8.6067 3.71604H9.14196L10.0045 3.73529L9.98527 3.34636L7.22812 3.33096L7.18961 3.31171L6.76988 3.29245L6.80453 3.66213L6.82379 3.73529L6.76988 3.7892H6.28853V3.25779L6.3617 3.23854H6.73137L6.75062 2.81496L7.18961 2.7957H7.68636V1.87537Z" fill="#AD1B25"/>
<path d="M8.62594 3.75452H9.10343L9.12269 3.76992V4.23201H10.043V4.70951H7.68635V6.10734H7.22811V5.64525H6.75061V4.70951H7.22811V4.28592L7.24736 4.24742L7.68635 4.23201H8.62594V3.75452Z" fill="#47B7E5"/>
<path d="M6.73134 9.85803H7.22809V10.3933L7.17418 10.4087H6.82376L6.78525 10.4819V10.3933L6.76985 10.374V11.2944H10.043V10.3548H9.58091V9.87729H10.043L10.0584 9.89654V11.3098H6.75059V10.3548H6.2885V10.8323H5.81101V11.2944H6.2885V13.1697H5.79175V13.6279H4.41317L4.39392 13.1851V12.2301H4.87527V13.1697H5.33351V12.2494L5.35276 12.2301H6.2731V11.3098H5.79175V10.7976L6.23459 10.7591L6.25384 10.3548L6.2885 10.3163L6.58501 10.3009H6.69283L6.71209 10.1892L6.73134 9.85803Z" fill="#084570"/>
<path d="M8.64523 2.35669H10.9788V2.79568L10.0431 2.81493L10.0238 3.29243H7.22815V2.81493H8.64523V2.35669Z" fill="#050201"/>
<path d="M7.68639 12.7075H8.16389V13.1696H9.10348V12.7075H9.58097V13.185H9.10348V13.6471H8.64523V14.1246H9.58097V14.5828H7.22815V14.1246H8.16389V13.185H7.70565L7.68639 13.1696V12.7075Z" fill="#090302"/>
<path d="M6.75061 8.93762H10.9788V9.39972L10.043 9.41512L10.0238 9.87721H9.58093V9.41512H6.75061V8.93762Z" fill="#030506"/>
<path d="M10.5206 10.8322H11.4371L11.4563 10.8514V11.2942L11.9184 11.3096V12.6882L11.4563 12.7075H10.5206V12.23H10.9788V11.7717H10.5206V10.8322Z" fill="#08699B"/>
<path d="M5.81107 8.46021H6.75066V9.4152H6.28857V9.87729H5.81107V10.3548H5.35283L5.33358 10.7976L5.31432 10.813L4.90999 10.8515L4.89074 10.8862L4.87533 11.2944H4.4325V10.8515H4.80217L4.85608 10.8323L4.89074 9.89654H5.35283V9.43445L5.83033 9.4152L5.81107 8.46021Z" fill="#064572"/>
<path d="M10.043 14.1439H10.998V14.5829H11.437L11.4563 14.6022L11.8991 14.6214L11.9184 14.6561V15.5225H10.6861L10.482 15.5032H10.1316L10.0777 15.4108V14.9718L10.0584 14.6561L10.043 14.6022V14.1439Z" fill="#AA242D"/>
<path d="M3.93573 5.64526H5.33356L5.35282 5.66452V6.10736H6.28855V6.58485H5.33356V6.12661H4.41323V6.58485H4.87532V7.52444H4.39397L4.37857 7.06235H3.97424L3.93573 7.04309V5.64526Z" fill="#0D5F8F"/>
<path d="M6.75066 11.7719H10.0431V12.2301H9.58098V12.7076H9.10348V12.6729L9.50781 12.6537L9.52707 12.6344L9.54632 12.2301L9.56172 12.2108H10.0238V11.7873H7.22815V13.6472H6.75066V14.1247H5.83032V13.6664H6.28856V12.7076H6.75066V11.7719Z" fill="#A6232C"/>
<path d="M10.043 4.23206H10.9788L10.998 4.24746V4.70955H11.437L11.4563 4.89439V5.18705H11.9184V5.64529H10.5205V4.70955H10.043V4.23206Z" fill="#020506"/>
<path d="M11.4563 7.06238H11.9338V8.00197H11.4563V8.46021L10.7401 8.47946H10.1162L10.0585 8.46021V8.00197H10.5206V7.53987H11.4563V7.06238Z" fill="#FCFCF9"/>
<path d="M6.28854 0.462036H9.58095V0.48129L6.30779 0.496693L6.32704 0.958786L6.28854 0.974189L5.84955 0.993443L5.83029 1.0127L5.81104 1.41703L5.37205 1.43628L5.26038 1.47094H4.92921L4.90996 1.5287L4.8907 2.35662H4.41321V1.43628L4.43246 1.41703H4.8907V0.958786L5.33354 0.939531L5.3528 0.48129L6.28854 0.462036Z" fill="#67181B"/>
<path d="M3 6.12659H3.93574V7.04307H4.39398V7.52442H3.90108L3.4775 7.50516L3.45824 7.06233L3 7.04307V6.12659Z" fill="#064F83"/>
<path d="M9.10345 13.1851H10.043L10.5013 13.2043V13.6279L10.0238 13.6472L10.0045 14.1054L9.98527 14.1246H8.6452V13.6472H9.10345V13.1851Z" fill="#D42625"/>
<path d="M10.043 14.1439H10.998V14.5829H11.3292L11.437 14.6214L11.8799 14.6407L11.8991 14.8409V15.0604H10.5205L10.5013 14.6022H10.1894L10.0969 14.6214L10.043 14.5829V14.1439Z" fill="#F02923"/>
<path d="M8.62593 3.75452H9.10343L9.12268 3.76992V4.23201H10.043V4.70951H8.64518V4.24742H7.68634V4.23201H8.62593V3.75452Z" fill="#27A2D7"/>
<path d="M8.16388 7.52441H8.64523V8.00191H10.0431V8.47941H8.62597V8.00191H8.16388V7.52441Z" fill="#070807"/>
<path d="M7.68634 6.58484H9.58092V7.06233H7.68634V6.58484Z" fill="#050809"/>
<path d="M9.58093 7.06238H11.4563V7.53987H9.58093V7.06238Z" fill="#060808"/>
<path d="M7.22811 3.7699H8.62594V4.23199L7.68635 4.24739H7.24736L7.22811 4.70949H6.75061V4.23199H7.22811V3.7699Z" fill="#060406"/>
<path d="M10.043 3.31165H10.9788V3.76989H10.043V4.23198H9.12271L9.10345 3.75448H10.043V3.31165Z" fill="#090504"/>
<path d="M7.68634 9.41516H9.58092V9.87725H7.72485L7.70559 9.858L7.68634 9.41516Z" fill="#0667AA"/>
<path d="M5.35283 9.8772H5.81107V10.3547H5.35283L5.33358 10.7975L5.31432 10.8129L4.90999 10.8514L4.89074 10.8861L4.87533 11.2943H4.4325V10.8514H4.80217L4.85608 10.8322L4.89074 9.89645L5.35283 9.8772Z" fill="#054F82"/>
<path d="M11.4563 6.58484H11.9184L11.9338 7.00842L11.953 7.04308L12.3574 7.06233L12.3766 7.08159V7.98267L11.9723 8.00192L11.9338 8.10975L11.9184 8.46017H11.4563V8.00192H11.9338V7.06233H11.4563V6.58484Z" fill="#030504"/>
<path d="M10.043 4.23206H10.9788L10.998 4.24746V5.16779H10.5205V4.70955H10.043V4.23206Z" fill="#09243B"/>
<path d="M9.58093 5.16772H10.043V5.64522H10.5205V6.12657H9.58093V5.16772Z" fill="#030607"/>
<path d="M3.93573 6.12659H4.39397L4.41323 6.65799V7.04307H4.87532V7.52442H4.39397L4.37857 7.06233H3.97424L3.93573 7.04307V6.12659Z" fill="#0A9EDF"/>
<path d="M6.28853 4.70947H6.75062V5.64521H5.81104V5.16771H6.28853V4.70947Z" fill="#050202"/>
<path d="M5.33356 7.06238H5.68398L5.81105 7.08163V8.46021H5.37206L5.35281 8.44096L5.33356 7.98271V7.06238Z" fill="#999A97"/>
<path d="M7.2474 4.24731H8.64523V4.70941H7.22815V4.28582L7.2474 4.24731Z" fill="#47A2CF"/>
<path d="M5.81104 8.46021H6.75062V8.9377L6.28853 8.95696L6.27313 9.39979H5.83029L5.81104 8.46021Z" fill="#040505"/>
<path d="M6.30782 13.1851H6.75066V14.1246H5.83032V13.6664H6.28856L6.30782 13.1851Z" fill="#3D0E10"/>
<path d="M11.4563 11.3097H11.9184V12.6883H11.4563V11.3097Z" fill="#020506"/>
<path d="M10.74 8.46021H11.437L11.4563 8.90305L11.437 8.91845L10.9788 8.9377L10.043 8.91845V8.49871L10.0584 8.47946L10.74 8.46021Z" fill="#999A97"/>
<path d="M6.7699 10.374L6.80455 10.3933H7.22814V10.8323H7.68638V11.2944H6.7699V10.374Z" fill="#0569AD"/>
<path d="M4.41321 13.1851H5.79179V13.6279H4.41321V13.1851Z" fill="#020303"/>
<path d="M7.68634 1.87537H8.16383V2.35671L8.27551 2.39137L8.58742 2.41062L8.60667 2.7957H7.68634V1.87537Z" fill="#AE1A25"/>
<path d="M6.75061 2.81494H7.18959V3.29244H6.76986L6.80452 3.66211L6.82377 3.73528L6.76986 3.78919H6.28851V3.25778L6.36168 3.23853H6.73135L6.75061 2.81494Z" fill="#671215"/>
<path d="M6.75061 5.64526H7.22811V6.10736H7.68635V6.58485H7.22811V6.12661H6.75061V5.64526Z" fill="#03070A"/>
<path d="M10.043 4.70947H10.5205V5.64521H10.043V4.70947Z" fill="#68C1E5"/>
<path d="M6.75061 4.70947H7.22811V5.64521H6.75061V4.70947Z" fill="#0C80C1"/>
<path d="M5.33356 5.16772H5.81105V6.10731H5.35281L5.33356 5.66447V5.16772Z" fill="#5C1016"/>
<path d="M8.6452 5.16772H9.10345V6.12657H8.6452V5.16772Z" fill="#040505"/>
<path d="M8.16388 12.7075H9.10347V13.1696H8.16388V12.7075Z" fill="#A8232A"/>
<path d="M5.81104 8.00183H6.75062V8.46007H5.81104V8.00183Z" fill="#E1E2DE"/>
<path d="M7.22815 7.06238H7.68639V8.00197H7.22815V7.06238Z" fill="#020202"/>
<path d="M5.3528 0.481323H6.28854V0.939565H5.3528V0.481323ZM4.43246 1.41706H4.8753V2.35665H4.41321V1.43632L4.43246 1.41706Z" fill="#070302"/>
<path d="M6.84303 8.46021H7.7056V8.90305L7.68635 8.91845L6.75061 8.9377V8.47946L6.82378 8.51412L6.84303 8.46021Z" fill="#E2E2DF"/>
<path d="M4.90996 14.1246H5.81104V14.5829H4.89071L4.87531 14.5482V14.2363L4.90996 14.1246Z" fill="#040202"/>
<path d="M4.41321 14.6022H4.8753V15.5225H4.41321V14.6022Z" fill="#050302"/>
<path d="M3.47748 12.7075H4.39396V13.1696H3.47748V12.7075Z" fill="#010406"/>
<path d="M10.998 11.3097H11.4563V12.23H10.998V11.3097Z" fill="#08A3E0"/>
<path d="M3 6.12659H3.45824V7.04307H3V6.12659Z" fill="#020405"/>
<path d="M9.58093 0.481323H10.482L10.5013 0.496726V0.939565H9.58093V0.481323Z" fill="#070302"/>
<path d="M10.998 1.41711H11.437L11.4563 1.47102V2.29894L11.437 2.33745H10.998V1.41711Z" fill="#030202"/>
<path d="M3.05391 11.7719H3.45824V12.6883H3V11.7873L3.05391 11.7719Z" fill="#020404"/>
<path d="M3.93573 2.37207H4.39397V3.2924H3.93573V2.37207Z" fill="#050301"/>
<path d="M7.22812 14.6022H9.54629V14.8987L9.56169 15.0604V15.5225H5.81104V15.484L6.08829 15.4686L6.52728 15.484H9.52703L9.50778 15.1182L9.43461 15.0797L9.10345 15.0604V14.6407L8.6452 14.6561H7.30128L7.20887 14.6407L7.22812 14.6022Z" fill="#BB2D2D"/>
<path d="M11.9338 14.6022H12.3766V15.5225H11.9338V14.6022Z" fill="#040402"/>
<path d="M12.2649 5.64526L12.3766 5.66452V6.5656L11.9338 6.58485V5.66452L12.2649 5.64526Z" fill="#010303"/>
<path d="M4.92919 1.45557H5.33353L5.35278 1.54413L5.33353 2.35665H4.89069V1.52873L4.92919 1.45557Z" fill="#AC1C26"/>
<path d="M8.01754 12.6537L8.16387 12.6729V12.7076H7.68637L7.70562 13.1697L8.16387 13.1851V14.1247H7.22813V14.5829H9.58095V15.5418H4.87531V14.5829H5.81104V14.6214L5.6108 14.6561L5.49913 14.6407L5.26038 14.6561L5.16796 14.6407H4.89071L4.90996 15.5033L5.55304 15.484H5.75713L5.81104 15.5033L9.5617 15.5225L9.54629 15.0604L9.52704 14.7485V14.6214H9.10346L7.20887 14.6022L7.15496 14.4558L7.17422 14.3442L7.18962 14.1054L7.28204 14.0515L7.46688 14.0708H7.98288L8.03679 14.0515V14.0862L8.14846 14.1054V13.2043H7.67097L7.65171 13.1851V12.7076L7.68637 12.6729L8.01754 12.6537Z" fill="#953030"/>
<path d="M8.20235 2.35669H8.64519V2.81493H7.2281V3.29243H10.043V3.75452L8.62593 3.76992H7.2281V4.23202H6.75061V4.70951H6.28851V4.69026L6.60428 4.67101L6.69284 4.63635V4.50542L6.7121 4.32444L6.73135 4.21276L6.82377 4.19351H7.13568V3.8816H7.17419L7.18959 3.75452L7.20885 3.73527L8.60668 3.71601H9.14194L10.0045 3.73527L9.98526 3.34634L7.2281 3.33094L7.18959 3.31168L7.17419 2.86884L7.18959 2.79568H8.60668L8.58743 2.70326V2.4106H8.27551L8.20235 2.35669Z" fill="#A03332"/>
<path d="M10.0585 3.78918H10.9596V4.21277H10.7786L10.4821 4.19352H10.1162L10.0585 4.1011V3.78918Z" fill="#DD2623"/>
<path d="M4.52488 5.66455H4.72512L5.20647 5.6838H5.31429V6.01497L5.29503 6.08814H4.8907L4.80214 6.04963L4.78288 6.08814H4.41321V5.72231L4.45172 5.6838L4.52488 5.66455Z" fill="#079FE0"/>
<path d="M6.75064 0.481323H9.58096V0.920311H9.56171V0.827892L9.48854 0.885654V0.51598L6.7853 0.535233L6.76989 0.608399L6.75064 0.920311L6.73139 0.939565H6.3078V0.496726L6.75064 0.481323Z" fill="#B6272C"/>
</g>
<defs>
<clipPath id="clip0_196_341">
<rect width="16" height="16" fill="white"/>
</clipPath>
</defs>
</svg>
