<svg width="16" height="16" viewBox="0 0 16 16" fill="none" xmlns="http://www.w3.org/2000/svg">
<path d="M8.04257 0H10.2925V0.426766L10.2213 0.445484L10.2925 0.572765L10.3299 0.445484H10.7417L10.7604 0.464201V0.894711L11.2059 0.909685L11.2246 1.35891L11.6701 1.37389V1.8044H11.2957L11.2583 1.91296L11.2246 1.98409L11.2059 2.24988H10.7604V2.71782L11.0262 2.7328H12.1006L12.1156 2.75152L12.1343 3.02105V3.18203L12.5835 3.20074V3.66494H13.029L13.0477 4.11043H13.4745L13.4932 4.12915V5.00514H13.0477V5.43565L12.9204 5.46934H12.5835L12.5985 7.75665L13.029 7.77537L13.0477 8.23957H13.4932V9.57977H13.0477L13.029 10.4932H12.5835V10.9574H12.1343V11.4403H12.5835V12.3163L12.1343 12.335V12.7805L11.6888 12.7992L11.6701 13.2447H11.2059V13.7276H11.6701L11.6888 14.1769H12.1156L12.1343 14.2106L12.153 14.5138L12.2428 14.6223L12.5648 14.6411L12.5835 14.6598V15.5358L12.1343 15.5507V15.9813L12.0632 16H11.2957L9.86569 15.9813V15.5358L9.40149 15.5507L9.38277 15.9813L6.00233 16L5.73654 15.9813V15.5358H5.28731V14.6598L5.30603 14.6411H5.73654V14.2106L5.75152 14.1769H6.20074V13.7276H7.11043V13.2634L6.71735 13.2447L6.66494 13.211V12.7992H6.18203V13.211L6.16331 13.2447H5.28731V12.7805H4.84183L4.82311 12.335L4.37763 12.3163V11.4403H4.82311V10.9574H3.91343V10.4932H3.4642L3.44548 9.57977H3.01872L3 9.56479V8.23957H3.44548L3.4642 7.77537H3.91343V7.32989L3.94712 7.31117H4.82311V6.86569H5.28731V5.91482H4.82311V3.66494L5.2686 3.64623L5.28731 2.75152L5.30603 2.7328H5.73654V2.0028L5.75152 1.82311H6.20074V1.37389L6.61254 1.35891L6.64623 1.34019L6.66494 0.909685H7.11043V0.482919L7.18156 0.445484L8.00514 0.426766L8.02386 0.303228L8.04257 0Z" fill="#061823"/>
<path d="M8.04258 0H10.2925V0.426766L10.2213 0.445484L10.2925 0.572765L10.3299 0.445484H10.7417L10.7604 0.464201V0.894711L11.2059 0.909685L11.2246 1.35891L11.6701 1.37389V1.8044H11.2957L11.2583 1.91296L11.2246 1.98409L11.2059 2.24988H10.7604V2.71782L11.0262 2.7328H12.1006L12.1156 2.75152L12.1343 3.02105V3.18203L12.5835 3.20074V3.66494H13.029L13.0477 4.11043H13.4745L13.4932 4.12915V5.00514H13.0477V5.43565L12.9204 5.46934H12.1343V5.02386H11.6888V4.55965H7.55967V5.02386H7.11044V6.39774H7.55967V8.6888H7.11044V9.13428H6.64624V9.57977L6.18204 9.59848H5.26861V8.6888H4.82312V9.13428H4.35892V8.67008L4.12682 8.6888H3.89472V9.50864H3.50165V8.3107L3.53534 8.27701H3.76744L3.89472 8.25829L3.91344 8.23957L3.92841 7.79409L4.82312 7.77537H5.26861V6.86569L5.28733 5.91482H4.82312V3.66494L5.26861 3.64623L5.28733 2.75152L5.30604 2.7328H5.73655V2.0028L5.75153 1.82311H6.20075V1.37389L6.61255 1.35891L6.64624 1.34019L6.66495 0.909685H7.11044V0.482919L7.18157 0.445484L8.00515 0.426766L8.02387 0.303228L8.04258 0Z" fill="#CBA210"/>
<path d="M9.84701 9.13428H10.3112V10.0477H10.7604V11.4216H11.2246V11.8858H11.6888V12.7992L11.6701 13.2447H11.2059V13.7276H11.6701L11.6888 14.1769H12.1156L12.1343 14.2105L12.153 14.5138L12.2429 14.6223L12.5648 14.6411L12.5835 14.6598V15.5358L12.1343 15.5507V15.9812L12.0632 16H11.2958L9.86573 15.9812V15.5358L9.40152 15.5507L9.38281 15.9812L6.00237 16L5.73658 15.9812V15.5358H5.28735V14.6598L5.30607 14.6411H5.73658V14.2105L5.75155 14.1769H6.20078V13.7276H7.11047V13.2634L6.71739 13.2447L6.66498 13.211L6.64627 12.7992V12.335H7.11047V10.9761H7.55969V10.5119H8.0239V10.0477H8.4881V9.153H8.93358V9.59848H9.84701V9.13428Z" fill="#333737"/>
<path d="M8.04259 0H10.2925V0.426766L10.2213 0.445484L10.2925 0.572765L10.3299 0.445484H10.7417L10.7604 0.464201V0.894711L11.2059 0.909685L11.2246 1.35891V1.82311H8.93356V2.2686H10.3112V2.7328H9.38279V3.18203H8.02387V3.64623H7.11045V4.09171L7.09547 4.11043H6.64625V4.55965H6.18204V5.02386H5.73656V5.46934H5.26862V3.64623L5.28733 2.75152L5.30605 2.7328H5.73656V2.0028L5.75153 1.82311H6.20076V1.37389L6.61255 1.35891L6.64625 1.34019L6.66496 0.909685H7.11045V0.482919L7.18157 0.445484L8.00516 0.426766L8.02387 0.303228L8.04259 0Z" fill="#FBFCF8"/>
<path d="M9.84695 4.55969H11.6888V5.46938H12.1155L12.1343 5.48809V7.31121H11.6888V7.70428L11.6364 7.77541V8.11607L11.5989 8.1872L11.3855 8.20592H11.2246L11.1684 8.22089H10.7941V8.07864L10.8128 8.00751L10.7941 7.723L9.91807 7.74172L9.45387 7.723L9.43515 7.70428V7.3449L9.45387 7.29249H8.95223L8.93352 7.75669H9.38274L9.40146 7.77541V8.22089H10.7604V8.67012H8.02383V6.34537L7.79173 6.36409L7.59332 6.34537V6.20311L7.63076 6.06086V5.7202L7.59332 5.66779L7.61204 5.52179L7.59332 5.43569V4.68323L7.63076 4.63082L7.91527 4.64579L7.9864 4.66451V4.91533H8.00511V5.02389H9.84695V4.55969Z" fill="#0C9CDA"/>
<path d="M9.84698 9.13428H10.3112V10.0477H10.7604V11.4216H11.2246V11.8858H11.6888V12.7992H11.2246V12.335H10.3112V12.7992H9.4015V12.335H8.02387V12.7992H6.64624V12.335H7.11044V10.9761H7.55967V10.5119H8.02387V10.0477H8.48807V9.153H8.93355V9.59848H9.84698V9.13428Z" fill="#F4F5F1"/>
<path d="M6.64624 5.02393H7.09546L7.11044 5.0389V6.39781H7.55967V8.68887H7.11044V9.13435H6.64624V9.57984L6.18204 9.59855H5.26861V8.68887H4.82312V9.13435H4.35892V8.67015L4.12682 8.68887H3.89472V9.50871H3.50165V8.31077L3.53534 8.27708H3.76744L3.89472 8.25836L3.91344 8.23964L3.92841 7.79416L4.82312 7.77544H5.26861V6.86576L5.28733 6.84704H5.73655V5.93361H6.18204V5.72023L6.20075 5.52182L6.23445 5.48813L6.39542 5.46941H6.64624V5.02393Z" fill="#E1CA43"/>
<path d="M6.66498 12.7992H8.46938V13.7126H8.02389V14.1768H8.46938V14.6223H9.38281L9.40152 14.641V15.5507L9.38281 15.9812L6.00237 15.9999L5.73658 15.9812V15.5357H5.28735V14.6597L5.30607 14.641H5.73658V14.2105L5.75155 14.1768H6.20078V13.7276H7.11047V13.2634L6.71739 13.2447L6.66498 13.211V12.7992Z" fill="#0D96D4"/>
<path d="M12.1343 7.75659H12.5985L13.029 7.77531L13.0477 8.23951H13.4932V9.5797H13.0477L13.029 10.4931H12.5835V10.9573H12.1343V11.4403H12.5835V12.3162L12.1343 12.335V12.7804H11.6888V11.8857H11.2246V11.4215H10.7604V9.13422H11.2246V8.67002H11.6701V8.22079H12.1343V7.75659Z" fill="#B18409"/>
<path d="M4.82311 6.86572H5.2686V7.77541L4.82311 7.79413H3.9284V8.23961L3.85728 8.27704L3.75246 8.29576H3.53533L3.51661 8.31074L3.50164 9.50868H3.89471V8.68884L4.12681 8.67012H4.35891V9.13432H4.82311V8.68884H5.2686V9.59852H6.18203V10.0477H5.73654V10.9574H3.91343V10.4932H3.4642L3.44548 9.5798H3.01872L3 9.56483V8.23961H3.44548L3.4642 7.77541H3.91343V7.32992L3.94712 7.31121H4.82311V6.86572Z" fill="#B98B07"/>
<path d="M6.39542 5.46936H6.64624V7.75667H6.18204V8.22088H5.26861V8.68882H4.82312V9.1343H4.35892V8.6701L4.12682 8.68882H3.89472V9.50866H3.50165V8.31072L3.53534 8.27703H3.76744L3.89472 8.25831L3.91344 8.23959L3.92841 7.79411L4.82312 7.77539H5.26861V6.86571L5.28733 6.84699H5.73655V5.93356H6.18204V5.72018L6.20075 5.52177L6.23445 5.48808L6.39542 5.46936Z" fill="#EDD846"/>
<path d="M7.64952 9.13428H7.98644V10.0103L7.93403 10.029H7.54096L7.52224 10.0477L7.11045 10.0814V10.4033L7.07675 10.4558V10.7964L7.0206 10.9237L6.77353 10.9387H6.64625V12.7992H5.73656V11.8858H5.26862V11.4403H5.73656V11.0098L6.18204 10.9948L6.20076 10.9761L6.21948 10.5643L6.29061 10.5119L6.62753 10.4932L6.64625 10.1001L6.73609 10.0627L6.77353 10.0477H7.09547L7.11045 9.59848H7.55967V9.17171L7.64952 9.13428Z" fill="#0A8EC9"/>
<path d="M12.1343 7.75659H12.5985L13.029 7.77531L13.0478 8.23951H13.4932V9.57971L13.0478 9.59842H12.5836V10.0626H12.1343V9.33263L12.153 9.13422H11.6888V8.22079H12.1343V7.75659Z" fill="#E6C716"/>
<path d="M5.75155 14.1769H6.18206V15.0866H6.64627V15.5508H9.38281V15.9813L6.00237 16L5.73658 15.9813V15.5358H5.28735V14.6598L5.30607 14.6411H5.73658V14.2106L5.75155 14.1769Z" fill="#030403"/>
<path d="M6.64622 9.59851H7.11042V9.97287L7.09545 10.0477L6.7735 10.0627L6.66494 10.1001L6.64622 10.4932L6.6275 10.5119L6.27187 10.5307L6.23443 10.5643L6.21946 10.9761L6.18202 11.0098H5.73654V11.4403H5.26859V11.8858H5.73654V12.7993H6.1633L6.18202 12.8704V13.211L6.1633 13.2447H5.28731V12.7805H4.84183L4.82311 12.3351L4.37762 12.3163V11.4403H4.82311V10.9574H6.18202V10.5119L6.20074 10.0627L6.23443 10.0477H6.64622V9.59851Z" fill="#085A8C"/>
<path d="M8.46936 5.02393H9.86571L9.88442 5.45069L10.3112 5.46941V5.02393H11.2246V5.93361H10.7604V5.48813H10.3112V6.39781H11.2246V6.84704H10.7604L10.7417 6.52509L10.723 6.45397H10.3486L10.2775 6.43525H9.70473L9.52504 6.45397L9.41648 6.43525L8.93356 6.41653L8.89987 6.38284L8.88115 5.05762L8.59664 5.07634L8.52551 5.09505L8.5068 5.07634L8.48808 5.23731H8.46936V5.02393Z" fill="#61ADC8"/>
<path d="M11.2247 1.3739H11.6701V1.80441H11.2958L11.2583 1.91297L11.2247 1.9841L11.2059 2.24989H10.7605V2.71784L11.0262 2.73281H12.1006L12.1156 2.75153L12.1343 3.02107L12.1156 3.18204H9.40154V2.73281H10.3112V2.26861H8.93359V1.82313H11.2247V1.3739Z" fill="#030402"/>
<path d="M5.30605 2.73279H5.73656L5.75153 2.75151H6.16333L6.18204 2.77022V4.11042L6.59383 4.0917H7.09547V4.11042H6.64625V4.55964H6.18204V5.02385H5.73656V5.46933H5.26862V3.64622L5.28733 2.75151L5.30605 2.73279Z" fill="#D8D9D3"/>
<path d="M10.7604 10.0477H11.2246V10.5119H11.6701V10.9574L12.1343 10.9761V11.4403H12.5835V12.3163L12.1343 12.335V12.7805H11.6888V11.8858H11.2246V11.4216H10.7604V10.0477Z" fill="#0D4C69"/>
<path d="M9.86572 14.641H10.3112V15.0865H11.6888V14.641H12.1343V15.9812L12.0632 15.9999H11.2958L9.86572 15.9812V14.641Z" fill="#F1F5F0"/>
<path d="M12.1343 3.66492H12.5648L12.5836 3.76974L12.5985 4.18153H12.9766V4.96768L12.9392 4.98639H12.5985V4.55963H12.1531V5.46931H12.1343V5.02383H11.6889V4.55963H8.93359V4.1104L12.1343 4.09168V3.66492Z" fill="#F1E14D"/>
<path d="M10.3112 12.7992H10.7604V13.7126H10.3112V14.1768L10.9551 14.1955L11.1684 14.2105L11.1872 14.2292L11.2059 14.6597L11.6514 14.6747L11.6364 14.963L11.599 15.0528L11.4567 15.0715H11.2583L11.1872 15.0528L10.3299 15.0715V14.6036H9.41646L9.40149 14.1768V13.7126H9.84697V13.2634H10.3112V12.7992Z" fill="#0A9EDD"/>
<path d="M6.18207 14.1769H6.64627V14.6224H7.11047V15.0866H8.93358V14.6411H9.40153V15.5508H6.64627V15.0866H6.18207V14.1769Z" fill="#F4F8F4"/>
<path d="M8.04259 0H10.2925V0.426766L10.2064 0.445484H8.02387V0.909685H7.55967V1.35891H6.64624L6.66496 0.909685H7.11044V0.482919L7.18157 0.445484L8.00515 0.426766L8.02387 0.303228L8.04259 0Z" fill="#020402"/>
<path d="M4.82311 6.86572H5.2686V7.77541L4.82311 7.79413H3.9284V8.23961L3.85728 8.27704L3.75246 8.29576H3.53533L3.51661 8.31074L3.50164 9.50868H3.89471V9.5798H3.01872L3 9.56483V8.23961H3.44548L3.4642 7.77541H3.91343V7.32992L3.94712 7.31121H4.82311V6.86572Z" fill="#6B5A14"/>
<path d="M10.3112 12.3351H11.2246V12.7993H11.6701V13.2448H11.2059V13.7277H11.6701V14.1769H10.3112V13.7127H10.7604V12.7993H10.3112V12.3351Z" fill="#030607"/>
<path d="M6.66495 12.7992H8.02386V13.6939L8.00514 13.7276L7.66448 13.7126L7.6495 13.765H7.59335L7.55966 14.1768H6.20074V13.7276H7.11043V13.2634L6.71736 13.2447L6.66495 13.211V12.7992Z" fill="#0D66A6"/>
<path d="M4.82312 3.66492H5.2686V5.48803H5.73655V6.84694H5.28732V5.9148H4.82312V3.66492Z" fill="#030302"/>
<path d="M9.84698 4.55969H11.6888V5.46938H12.1156L12.1343 5.48809V5.93358H11.6888L11.6701 5.57794L11.6514 5.48809H11.2246V5.02389H10.3112V5.46938H9.88442L9.8657 5.45066L9.84698 5.02389V4.55969Z" fill="#0E72AD"/>
<path d="M7.55967 10.512H8.02387V11.8858H7.55967V12.3351L7.11044 12.3538V12.7993H6.64624V12.3351H7.11044V10.9762H7.55967V10.512Z" fill="#D7D8D2"/>
<path d="M8.89986 1.80432H11.2246V1.82304H8.93355V2.26852H10.3112V2.73272H8.02386V2.26852H8.46935V1.82304L8.89986 1.80432Z" fill="#D5D6D0"/>
<path d="M12.5985 3.66492H13.029L13.0477 4.1104H13.4745L13.4932 4.12912V5.00511H13.0477V5.43562L12.9204 5.46931H12.153V4.55963H12.5985V4.98639L12.9766 4.96768V4.18153H12.5985V3.66492Z" fill="#826C0F"/>
<path d="M6.64624 5.02393H7.09547L7.11044 5.0389V7.72303L7.07675 7.75672H6.64624V5.02393Z" fill="#F3DE4A"/>
<path d="M6.39544 5.46936H6.64626V7.75667H6.18206V6.39776H5.84139L5.77026 6.34535V5.971L5.87883 5.93356H6.18206V5.72018L6.20077 5.52177L6.23447 5.48808L6.39544 5.46936Z" fill="#DCB40A"/>
<path d="M12.5835 9.59851H13.0477L13.029 10.4932H12.5835V10.9574L12.1343 10.9761H11.2246V10.9574H11.6701V10.5119L11.6888 10.029H11.7974L11.8498 10.0477L12.5835 10.0627V9.59851Z" fill="#CBA211"/>
<path d="M11.6888 5.02393H12.1343V5.46941H12.5836V7.75672H12.1343L12.1156 5.48813L11.6888 5.46941V5.02393Z" fill="#030506"/>
<path d="M12.1343 3.66492H12.5648L12.5836 3.76974L12.5985 4.18153H12.9766V4.96768L12.9392 4.98639H12.5985V4.55963H12.153V5.46931H12.1343V5.02383H11.6888V4.09168H12.1343V3.66492Z" fill="#F2E049"/>
<path d="M6.64623 9.59851H7.11043V9.97287L7.09546 10.0477L6.77351 10.0627L6.66495 10.1001L6.64623 10.4932L6.62752 10.5119L6.27188 10.5307L6.23444 10.5643L6.21947 10.9761L6.18203 11.0098H5.73655V11.4403H5.2686V11.8858H4.82312V10.9574H6.18203V10.5119L6.20075 10.0627L6.23444 10.0477H6.64623V9.59851Z" fill="#0F65A0"/>
<path d="M3.92841 7.79407H4.82312V8.22083H4.35892V8.67006L4.12682 8.68878H3.89472V9.50862H3.50165V8.31068L3.53534 8.27699H3.76744L3.89472 8.25827L3.91344 8.23955L3.92841 7.79407Z" fill="#DBB107"/>
<path d="M8.02386 12.3351H9.40149V12.7993H8.93355V13.7127H8.46935V12.7993H8.02386V12.3351Z" fill="#040606"/>
<path d="M7.11046 8.68872H7.55969V9.15292H7.11046V9.59841H6.64626V10.0476L6.20077 10.0626V10.5118L6.18206 10.9573H5.73657V10.0476H6.18206V9.57969H6.64626V9.1342H7.11046V8.68872Z" fill="#060708"/>
<path d="M9.40149 3.20068H11.6888V3.64617H9.40149V3.20068Z" fill="#F7F19A"/>
<path d="M9.40149 14.1769H9.41646V14.6036L10.0791 14.5887L10.3299 14.6036V15.0716L10.401 15.0529L11.2059 15.0342L11.2583 15.0529H11.4567L11.599 15.0342L11.6177 14.963L11.6364 14.7309L11.6514 14.6748H11.277L11.2059 14.6598L11.1872 14.6224L11.1684 14.2293L10.9551 14.2106L10.2775 14.1956V14.1769H12.1156L12.1343 14.2106L12.153 14.5138L12.2429 14.6224L12.5648 14.6411L12.5835 14.6598V15.5358H12.1343V14.6411H11.6888V15.0866H10.3112V14.6411H9.86569V15.5358H9.84697V14.6224H9.40149V14.1769Z" fill="#62818A"/>
<path d="M5.75155 14.1769H6.18206V15.5358H5.28735V14.6598L5.30607 14.6411H5.73658V14.2106L5.75155 14.1769Z" fill="#92948F"/>
<path d="M12.5985 7.77539H13.029L13.0477 8.23959H13.4932V9.57979H13.0477V8.68882H12.9205L12.8868 8.6701H12.5985V7.77539Z" fill="#020303"/>
<path d="M9.86572 15.5507H12.1156L12.1343 15.6068V15.9812L12.0632 15.9999H11.2958L9.86572 15.9812V15.5507Z" fill="#030403"/>
<path d="M7.57837 6.39771H8.00513V8.67005H7.57837V6.39771Z" fill="#020304"/>
<path d="M7.63076 4.63086L7.91527 4.64583L7.9864 4.66455V4.91537H8.00511V5.02393H8.46932V5.48813H8.02383V6.34541L7.79173 6.36413L7.59332 6.34541V6.20315L7.63076 6.0609V5.72024L7.59332 5.66783L7.61204 5.52183L7.59332 5.43572V4.68327L7.63076 4.63086Z" fill="#0B6AAA"/>
<path d="M10.3112 12.7992H10.7604V13.7126H10.3112V14.1768H10.2925V13.7276L9.86569 13.7463L9.84697 14.1768H9.43518L9.4539 14.4801V14.5699L9.57744 14.5886V14.6036H9.41646L9.40149 14.1768V13.7126H9.84697V13.2634H10.3112V12.7992Z" fill="#0E73B1"/>
<path d="M6.18204 4.55969H6.64625V5.46938L6.23445 5.50681L6.21948 5.52179L6.18204 5.93358H5.73656V5.48809H5.26862V5.46938H5.73656V5.02389H6.18204V4.55969Z" fill="#5A4408"/>
<path d="M7.11044 10.512H7.55967V10.9762H7.11044V12.3351H6.64624V10.9574H7.11044V10.512Z" fill="#04070A"/>
<path d="M8.02386 4.55969H9.84698V5.02389H8.02386V4.55969Z" fill="#050505"/>
<path d="M10.7604 10.0477H11.2246V10.5119H11.6701V10.9574H11.2246V11.4216H10.7604V10.0477Z" fill="#050605"/>
<path d="M8.93359 7.31116H9.40154V7.75664H10.7605V8.22084H9.40154L9.38282 7.77536L8.93359 7.75664V7.31116Z" fill="#03070D"/>
<path d="M10.3112 5.48804H10.7604V5.93352H11.2246V6.38275H11.6701L11.6888 6.39772V6.84695H11.2246V6.39772H10.3112V5.48804Z" fill="#030609"/>
<path d="M6.61257 1.35889H6.64626V2.26857H6.20077V2.73277H5.73657V2.00278L5.75155 1.82309H6.20077V1.37386L6.61257 1.35889Z" fill="#6F716D"/>
<path d="M8.93359 5.02393H9.84702V5.46941H9.38282V6.38284H8.93359V5.02393Z" fill="#F7FDF8"/>
<path d="M6.66498 12.7992H8.02389V13.2634H7.55969V13.7126H7.11046V13.2634L6.71739 13.2447L6.66498 13.211V12.7992Z" fill="#020405"/>
<path d="M12.1343 11.4403H12.5836V12.3163L12.1343 12.335V12.7805H11.6888V11.8858H12.1343V11.4403Z" fill="#020404"/>
<path d="M11.2059 4.55969H11.6888V5.46938H12.1156L12.1343 5.48809V5.93358H11.6888L11.6701 5.57794L11.6514 5.48809H11.2246L11.2059 4.55969Z" fill="#0A476F"/>
<path d="M7.11044 3.64624H8.02387V4.11044H7.11044V4.55967H6.64624V4.11044L7.09547 4.09172L7.11044 3.64624Z" fill="#060503"/>
<path d="M5.26862 8.68872H5.73656V9.1342H6.18204V9.59841H5.26862V8.68872Z" fill="#F3DE48"/>
<path d="M6.64624 6.39771H7.11044V7.72292L7.07675 7.75662H6.64624V6.39771Z" fill="#F9F39D"/>
<path d="M9.40149 12.7992H10.3112V13.2634H9.84697V13.7126H9.40149V12.7992Z" fill="#020407"/>
<path d="M10.3112 5.02393H11.2246V5.93361H10.7604V5.46941H10.3112V5.02393Z" fill="#F7FCF8"/>
<path d="M11.6888 3.20068H12.5836L12.5985 3.66488V4.11037H12.5836L12.5648 3.7697L12.5461 3.6836L12.1343 3.66488V4.09165H11.6888V3.20068Z" fill="#A79E4D"/>
<path d="M8.02386 7.75659H8.46935V8.22079H8.93355V8.67002H8.02386V7.75659Z" fill="#0967A6"/>
<path d="M7.11041 5.02393H7.55964V6.38284H7.11041V5.02393Z" fill="#020304"/>
<path d="M8.02386 3.20068H9.38278V3.64617H8.02386V3.20068Z" fill="#040401"/>
<path d="M3 8.2395H3.44548V9.5797H3.01872L3 9.56472V8.2395Z" fill="#040403"/>
<path d="M7.64949 9.13428H7.98641V10.0103L7.934 10.029H7.54092L7.5222 10.0477L7.11041 10.0814V9.59848H7.55964V9.17171L7.64949 9.13428Z" fill="#0D9BDA"/>
<path d="M7.98643 9.13428H8.02387V10.5119H7.11044V10.9574H6.64624L6.71737 10.9237H6.89706L7.0206 10.905L7.05803 10.7964V10.4558L7.09547 10.4033L7.11044 10.0814L7.14788 10.0627L7.52223 10.029L7.55967 10.0103H7.98643V9.13428Z" fill="#0D4264"/>
<path d="M8.46936 9.13428H9.84699V9.59848H8.93356V9.153H8.48808V10.0477H8.46936V9.13428Z" fill="#12619A"/>
<path d="M12.1343 7.75659H12.5985V8.67002L12.5836 8.68874H12.1343V7.75659Z" fill="#F1E25E"/>
<path d="M8.02385 12.7992H8.46933V13.7126H8.02385V14.1768L7.98641 14.1394L7.97144 13.926V13.7276H8.00513L8.02385 12.7992Z" fill="#107FBC"/>
<path d="M8.93359 12.7992H9.40154V13.7126H8.93359V12.7992Z" fill="#F8F9F4"/>
<path d="M11.6701 10.512H12.5835V10.9574L12.1343 10.9762H11.2246V10.9574H11.6701V10.512Z" fill="#57420B"/>
<path d="M10.3112 6.84692H11.2246V7.31113H10.3112V6.84692Z" fill="#03080E"/>
<path d="M11.6888 4.11047H12.1343L12.153 4.5597V5.46939H12.1343V5.0239H11.6888V4.11047Z" fill="#BC930D"/>
<path d="M12.5985 7.77539H13.029L13.0665 8.23959V9.57979H13.0477V8.68882H12.9205L12.8868 8.6701H12.5985V7.77539Z" fill="#6F5C0C"/>
<path d="M7.11044 0.894653H8.02387V0.909628H7.55967V1.35885H6.64624L6.66496 0.909628L7.11044 0.894653Z" fill="#6E6F6C"/>
<path d="M7.55964 8.68872H8.02384V9.1342L7.64949 9.15292L7.57836 9.17164L7.55964 9.59841H7.11041V9.15292H7.55964V8.68872Z" fill="#0E66A6"/>
<path d="M11.6701 11.8859H11.6888V12.7993H11.2246V11.9046L11.6701 11.9233V11.8859Z" fill="#E6E8E2"/>
<path d="M6.20074 13.7277H7.11043V14.1769H6.20074V13.7277Z" fill="#030607"/>
<path d="M3.91345 10.512H4.82314V10.9574H3.91345V10.512Z" fill="#060502"/>
<path d="M3.91345 9.59851H4.35894V10.5119H3.91345V9.59851Z" fill="#E1BF0F"/>
<path d="M9.40149 5.48804H9.84697V6.39772H9.40149V5.48804Z" fill="#020404"/>
<path d="M9.40149 3.20068H10.3112V3.64617H9.40149V3.20068Z" fill="#F0D846"/>
<path d="M5.30607 2.73279H5.73658V3.64622H5.28735V2.75151L5.30607 2.73279Z" fill="#030403"/>
<path d="M3.94715 7.31116H4.82314V7.75664H3.91345V7.32988L3.94715 7.31116Z" fill="#040403"/>
<path d="M10.3299 0.445435H10.7417L10.7604 0.464152V0.894662L11.2059 0.909636V1.35886H10.7604V0.909636H10.3112V0.497844L10.3299 0.445435Z" fill="#060806"/>
<path d="M5.75155 1.82312H6.18206V2.7328H5.73657V2.00281L5.75155 1.82312Z" fill="#030402"/>
<path d="M9.40149 14.641H9.84697V15.5357H9.40149V14.641Z" fill="#030403"/>
<path d="M4.82312 10.9762H5.71783V11.4217H4.82312V10.9762Z" fill="#030406"/>
<path d="M12.5985 8.68872H13.0477V9.57969H12.5985V8.68872Z" fill="#F5ED82"/>
<path d="M12.1343 14.641H12.5648L12.5836 14.6597V15.5357H12.1343V14.641Z" fill="#040604"/>
<path d="M5.30607 14.641H5.73658V15.5357H5.28735V14.6597L5.30607 14.641Z" fill="#030402"/>
<path d="M13.0477 4.11047H13.4745L13.4932 4.12919V5.00518H13.0477V4.11047Z" fill="#060604"/>
<path d="M5.28735 12.7992H6.16335L6.18206 12.8703V13.211L6.16335 13.2447H5.28735V12.7992Z" fill="#020406"/>
<path d="M4.37762 11.4403H4.82311V12.335L4.37762 12.3163V11.4403Z" fill="#030506"/>
<path d="M12.5985 9.59851H13.0477L13.029 10.4932H12.5985V9.59851Z" fill="#030402"/>
<path d="M3.4455 9.59851H3.89472V10.4932H3.46421L3.4455 9.59851Z" fill="#030403"/>
<path d="M9.86572 5.48804H10.2925V6.38275H9.86572V5.48804Z" fill="#FAFDF7"/>
<path d="M12.5836 4.11047L12.5985 4.1816H12.9766V4.96775L12.9392 4.98647H12.5985L12.5836 4.5597V4.11047Z" fill="#EECD13"/>
<path d="M7.55964 4.55969H8.02384V5.02389L7.97143 4.95277V4.66451H7.79174L7.63077 4.64579L7.61205 4.68323V5.46938L7.59333 5.50681L7.63077 5.52179L7.61205 5.66779L7.64949 5.7202V6.09455L7.61205 6.20311L7.59333 6.34537H8.02384V8.67012H8.93352V8.68884H7.55964V6.39778H7.11041V6.38281H7.55964V4.55969ZM7.57836 6.39778V8.67012H8.00512V6.39778H7.57836Z" fill="#274D62"/>
</svg>
