<svg width="16" height="16" viewBox="0 0 16 16" fill="none" xmlns="http://www.w3.org/2000/svg">
<path d="M6.29942 0H9.58002V0.442223L9.63647 0.461041H10.5209V0.922081L11.0008 0.939331V1.40037H11.4602V2.30363L11.3505 2.32245H11.0008V2.78349L10.0787 2.80231L10.0599 2.81956V3.29942L10.2998 3.2806L11.0008 3.29942L11.018 3.74164L11.4602 3.76046V4.14779L11.4242 4.2215L11.4791 4.33127L11.4979 4.24032H11.9401V4.68254H11.4979L11.4791 4.66372V5.16083L11.9401 5.17965V5.65951H12.4011V7.04106L11.9589 7.05988L11.9401 7.5021L11.4979 7.52092L11.4791 7.64951L11.4602 7.98196L11.018 8.00077L11.0008 8.443L10.9443 8.46025H10.0787L10.0599 8.49788V9.881L10.5021 9.89825L10.5209 9.91707L10.5397 10.3593L10.982 10.3781L11.0008 10.3969V10.8392H11.4602L11.4791 10.9317V11.3002L11.9401 11.319V12.7006L11.4791 12.7194L11.4602 13.1616L11.3865 13.1804H11.0008V13.6775H11.4602L11.4791 14.0649L11.5904 14.1386L11.9401 14.1574V14.5996L11.9213 14.6545H11.9589V14.6184H12.4011L12.42 14.6357V14.9869L12.4011 15.5389H11.9401V16H4.89905L4.88023 15.5578L4.43801 15.5389L4.41919 15.5217V14.6357L4.43801 14.6184L4.88023 14.5996L4.89905 14.1574L5.83838 14.1386V13.6775H6.29942V13.1804H5.80231V13.6226L5.76467 13.6415H4.41919V13.1804H3.55199L3.47829 13.1428V12.7006H3.01882L3 12.6645V11.7973L3.46104 11.7785L3.47829 11.319L3.93933 11.3002L3.95815 10.8392H4.41919V10.3781L4.88023 10.3593L4.89905 9.89825H5.35852V9.43878L5.83838 9.41996V8.97774L5.8572 8.95892H6.29942V8.47906L6.24453 8.46025H5.94972L5.83838 8.42418V7.98196H3.95815L3.93933 7.52092L3.47829 7.5021V7.04106H3V6.1378L3.01882 6.12055L3.46104 6.10173L3.47829 3.29942H3.93933L3.95815 2.36009L3.99578 2.34127H4.41919V1.40037H4.88023L4.89905 0.939331L5.34127 0.922081L5.35852 0.461041H6.29942V0ZM7.25757 11.7612L7.2215 11.7973V12.0733L7.27638 12.1298L7.38772 11.9086L7.40497 11.7612H7.25757ZM11.8664 14.6357L11.8852 14.6921L11.904 14.6357H11.8664Z" fill="#069DDE"/>
<path d="M6.29942 8.94006H9.59884V9.88096H10.0599L10.5021 9.89821L10.5209 9.91703L10.5397 10.3593L10.982 10.3781L11.0008 10.3969V10.8391H11.4602L11.4791 10.9316V11.3002L11.9401 11.319V12.7005L11.4791 12.7193L11.4602 13.1616L11.3865 13.1804H11.0008V13.6775H11.4602L11.4791 14.0648L11.5904 14.1385L11.9401 14.1573V14.5996L11.9213 14.6545H11.9589V14.6184H12.4011L12.42 14.6356V14.9869L12.4011 15.5389H11.9401V15.9999H4.89905L4.88023 15.5577L4.43801 15.5389L4.41919 15.5217V14.6356L4.43801 14.6184L4.88023 14.5996L4.89905 14.1573L5.83838 14.1385V13.6775H6.29942V13.1804H5.80231V13.6226L5.76467 13.6414H4.41919V13.1804H3.55199L3.47829 13.1427V12.7005H3.01882L3 12.6645V11.7973L3.46104 11.7784L3.47829 11.319L3.93933 11.3002L3.95815 10.8391H4.41919V10.3781L4.88023 10.3593L4.89905 9.89821H5.35852V9.43874L5.83838 9.41992V8.9777L5.8572 8.95888L6.29942 8.94006ZM7.25757 11.7612L7.2215 11.7973V12.0733L7.27638 12.1297L7.38772 11.9086L7.40497 11.7612H7.25757ZM11.8664 14.6356L11.8852 14.6921L11.904 14.6356H11.8664Z" fill="#03A5E8"/>
<path d="M6.29939 0H9.57999V0.442223L9.63644 0.461041H10.5209V0.922081L11.0007 0.939331V1.40037H11.4602V2.30363L11.3504 2.32245H11.0007V2.78349L10.0787 2.80231L10.0598 2.81956V3.74164H7.23872V4.2215H6.76043V4.69979H6.28057V5.16083H5.81953V5.64069H5.34124V5.16083H3.9393V3.09712L3.95812 2.36009L3.99575 2.34127H4.41916V1.40037H4.8802L4.89902 0.939331L5.34124 0.922081L5.35849 0.461041H6.29939V0Z" fill="#FBFBFB"/>
<path d="M6.76046 11.7784H7.23875V12.0733L7.25757 12.1109L7.36891 11.9086L7.40498 11.7784H10.0599V12.2395H9.59884V12.7193H10.0599V13.1992H10.5397V13.6587H10.0599V14.1385H11.4791V14.5996H11.904L11.9213 14.6545H11.9589V14.6184H12.4011L12.42 14.6356V14.9869L12.4011 15.5389H11.9401V15.9999H4.89905L4.88023 15.5577L4.43801 15.5389L4.41919 15.5217V14.6356L4.43801 14.6184L4.88023 14.5996L4.89905 14.1573L5.83838 14.1385V13.6775H6.29942V12.7193H6.76046V11.7784ZM11.8664 14.6356L11.8852 14.6921L11.904 14.6356H11.8664Z" fill="#EDEDEB"/>
<path d="M6.76046 11.7784H7.23875V12.0733L7.25756 12.1109L7.3689 11.9086L7.40497 11.7784H10.0599V12.2395H9.59883V12.7193H9.12054V13.1804H8.17964V12.7193H7.69979V13.1992H8.17964V14.1385H7.23875V14.6184H9.12054V15.0794H9.58002V15.5389H5.81956L5.80231 14.6184L5.83837 13.6775H6.29942V12.7193H6.76046V11.7784Z" fill="#F6F6F5"/>
<path d="M10.0599 9.89832H10.5021L10.5209 9.91713L10.5397 10.3594L10.9819 10.3782L11.0008 10.397V10.8392H11.4602L11.4791 10.9317V11.3003L11.9401 11.3191V12.7006L11.4791 12.7194L11.4602 13.1617L11.3865 13.1805H11.0008V13.6776H11.4602L11.4791 14.0649L11.5904 14.1386L11.9401 14.1575V14.5997H11.4791V14.1386H10.0599V13.6588H10.5397V13.1993H10.0599V12.7194H9.59883V12.2396H10.0599V11.7785H6.76045V12.7194H6.29941V11.3003H5.81955V10.8392H6.29941V10.3594H6.76045V11.3003H10.0599V9.89832Z" fill="#030405"/>
<path d="M7.2215 7.04114H7.69979V7.521H9.59884V8.00085H11.0008V8.44308L10.9443 8.46033H10.0787L10.0599 8.49796L10.0411 9.88108H9.59884V8.94018H6.29942V8.47914L6.24453 8.46033H5.94972L5.83838 8.42426V8.00085H6.76046V8.47914H7.69979V7.53981H7.2215V7.04114Z" fill="#030406"/>
<path d="M3.47829 3.29944H3.93933V5.16085H5.34127V5.64071H5.81956V5.16085H6.2806V4.69981H6.76046V5.17967L6.31824 5.19849V5.64071L6.29942 6.12057H5.34127V6.58004H5.81956V7.0599H4.88023V6.58004H4.40037V6.12057L3.60845 6.13782L3.51593 6.17545L3.49711 6.19427V7.00501L3.6257 7.02383L3.93933 7.04108V7.50212H3.47829V7.04108H3V6.13782L3.01882 6.12057L3.46104 6.10175L3.47829 3.29944Z" fill="#09304B"/>
<path d="M10.1712 3.28064L11.0008 3.29946L11.018 3.74168L11.4602 3.7605V4.14783L11.4242 4.22154L11.4791 4.33131L11.4979 4.24036H11.9401V4.68258H11.4979L11.4791 4.66376V5.16087L11.9401 5.17969V5.64073H10.5397V4.69983H10.0599V4.22154H9.12054V3.7605H8.64068V4.22154H7.23874V3.74168H10.0599V3.29946L10.1712 3.28064Z" fill="#595958"/>
<path d="M9.59884 14.6184H10.0599V15.5577H11.9401V16H4.89905V15.5577H9.59884V14.6184Z" fill="#010201"/>
<path d="M3.60846 6.12048H4.40038V6.57996H4.88024V7.05981H6.29943V7.52085H6.76047V8.00071H5.83839L3.95816 7.98189L3.93934 7.52085V7.041H3.62571L3.49712 7.02375L3.4783 7.00493V6.19419L3.53476 6.13773L3.60846 6.12048Z" fill="#0695D8"/>
<path d="M4.41916 1.40039H4.8802V4.69981H5.34124V5.1436L4.82531 5.16085H3.9393V3.09714L3.95812 2.36011L3.99575 2.34129H4.41916V1.40039Z" fill="#E1E1E0"/>
<path d="M7.7186 4.69983H10.5397V5.64073H10.0599V5.16087H9.58001V6.10177H9.13779V5.16087H8.64068V6.10177H7.7186V4.69983Z" fill="#FCFDFC"/>
<path d="M8.6595 2.34131H11.0008V2.78353L10.0787 2.80235L10.0599 2.8196V3.28064H7.23874V2.80235H8.6595V2.34131Z" fill="#020202"/>
<path d="M4.41919 10.3782H4.88023V11.3003H4.40037V11.7785H3.93933V12.7194H4.40037V13.1805H3.55199L3.47829 13.1428V12.7006H3.01882L3 12.6646V11.7974L3.46104 11.7785L3.47829 11.3191L3.93933 11.3003L3.95815 10.8392H4.41919V10.3782Z" fill="#066CB3"/>
<path d="M7.69978 12.7194H8.17964V13.1804H9.12054V12.7194H9.59883V13.1992H9.12054V13.6587H8.6595V14.1385H9.59883V14.5996H7.23874V14.1385H8.17964V13.1992H7.69978V12.7194Z" fill="#020202"/>
<path d="M10.5397 0.922119L11.0008 0.939369V1.40041H11.4602V2.30367L11.3505 2.32249H11.0008L10.9819 2.34131H8.17963V1.86145H10.5397V0.922119Z" fill="#A8A8A8"/>
<path d="M10.5397 10.8391H11.4602L11.4791 10.9316V11.3002L11.9401 11.319V12.7005L11.4791 12.7193H10.5397V12.2395H11.0008V11.7784H10.5397V10.8391Z" fill="#076FA4"/>
<path d="M3.4783 3.29944H3.93934V5.16085H5.34128V5.64071H3.92209V6.10175H3.4783V3.29944Z" fill="#040405"/>
<path d="M5.76468 14.1387H5.81956V15.539H4.43801L4.41919 15.5218V14.6358L4.43801 14.6185L4.88023 14.5997L4.89905 14.1575L5.76468 14.1387Z" fill="#E0E1DF"/>
<path d="M7.23874 4.69983H7.7186V6.10177H8.64068V5.16087H9.13779V6.10177H9.58001V5.16087H10.0599V5.64073H10.5397V6.12059L9.41535 6.13784H7.69978V5.64073H7.23874V4.69983Z" fill="#6EC3E6"/>
<path d="M8.64068 3.7605H9.12054V4.22154H10.0599V4.69983H7.23874V4.22154H8.64068V3.7605Z" fill="#4FADDB"/>
<path d="M9.59885 12.7194H10.0599V13.1992H10.5397V13.6587H10.0599V14.1385H9.61766V14.5808L9.67255 14.5996H9.59885V14.1385H8.65952V13.6587H9.12056V13.1992H9.59885V12.7194Z" fill="#F0F1EF"/>
<path d="M6.76045 11.7784H7.23874V13.6587L6.79652 13.6775L6.77927 13.7151L6.76045 14.1385H6.31823L6.29941 13.6775V12.7193H6.76045V11.7784Z" fill="#C2C2C1"/>
<path d="M6.29941 0H9.58001V0.330883L9.56276 0.442223H6.29941V0Z" fill="#020202"/>
<path d="M5.35852 12.2584H5.81956V12.7195H6.2806V13.1805H5.80231V13.6227L5.76467 13.6415H4.41919V13.1805H5.34127V12.7195L5.35852 12.2584Z" fill="#052842"/>
<path d="M4.4192 10.3782H4.88024V11.3003H4.40038V11.7785H3.4783V11.3191L3.93934 11.3003L3.95816 10.8392H4.4192V10.3782Z" fill="#032842"/>
<path d="M5.8572 8.95898H6.29942V9.88107H5.81956V10.3594H4.89905V9.89831H5.35852V9.43884L5.83838 9.42002V8.9778L5.8572 8.95898Z" fill="#042741"/>
<path d="M10.0599 7.05994H11.9401V7.50216L11.4979 7.52098L11.4791 7.64957L11.4602 7.98202H11.018V7.52098H10.0599V7.05994Z" fill="#020304"/>
<path d="M6.76044 9.88098H7.23873V10.8391H7.69977V11.3002H6.76044V9.88098Z" fill="#055287"/>
<path d="M9.12054 8.00073H11.0008V8.44295L10.9443 8.4602H10.0787L10.0599 8.47902H9.12054V8.00073Z" fill="#066BAE"/>
<path d="M4.41919 6.12048H5.34127V6.57996H5.81956V7.05981H4.88023V6.57996H4.41919V6.12048Z" fill="#020406"/>
<path d="M5.35851 0.46106H6.29941V0.9221H5.81955V1.40039H4.88022L4.89904 0.93935L5.34126 0.9221L5.35851 0.46106Z" fill="#787877"/>
<path d="M11.018 4.69983H11.4602L11.4791 5.16087L11.9401 5.17969V5.64073H10.5397V5.16087H11.018V4.69983Z" fill="#020305"/>
<path d="M3.95812 7.521H5.81953V7.98204H3.95812L3.9393 7.53981L3.95812 7.521Z" fill="#030406"/>
<path d="M6.29941 8.94006H9.59883V9.88096H10.0599V10.3593H9.59883L9.58001 9.99073V9.41992H9.12054V8.95888H6.76045V9.41992H6.29941V8.94006Z" fill="#086CB0"/>
<path d="M9.59885 5.16089H10.0599V5.64075H10.5397V6.12061H9.59885V5.16089Z" fill="#030506"/>
<path d="M5.81955 7.05994H6.29941V7.52098H6.76045V8.00084H5.83837L5.81955 7.98202V7.05994Z" fill="#056CB2"/>
<path d="M7.69977 1.86145H8.17963V2.34131H8.65948V2.80235H7.7374L7.69977 2.78353V1.86145Z" fill="#E1E1DF"/>
<path d="M8.64069 3.7605H9.12054V4.22154H10.0599V4.69983H9.59883V4.24036H9.12054V4.68258H8.6595L8.64069 4.24036V3.7605Z" fill="#0DA1E0"/>
<path d="M7.23874 3.7605H8.64068V4.22154H7.23874V3.7605Z" fill="#020303"/>
<path d="M11.4791 11.3191H11.9401V12.7006H11.4791V11.3191Z" fill="#020406"/>
<path d="M5.81956 5.17957H6.2806V6.10165H5.35852V5.64061H5.81956V5.17957Z" fill="#030203"/>
<path d="M11.9589 5.65955H12.4011V7.0411H11.9589V5.65955Z" fill="#020303"/>
<path d="M4.41919 13.1992H5.80231V13.6226L5.76468 13.6414H4.41919V13.1992Z" fill="#020202"/>
<path d="M7.69977 12.7194H8.17963V13.1804H9.12053V12.7194H9.59882V13.1992H7.69977V12.7194Z" fill="#0D0D0D"/>
<path d="M7.71859 8.00073H8.65948V8.47902H7.69977L7.71859 8.00073Z" fill="#E02221"/>
<path d="M4.40036 12.2395H4.88022V13.1804H4.40036V12.2395Z" fill="#046BB4"/>
<path d="M10.0599 4.69983H10.5397V5.64073H10.0599V4.69983Z" fill="#65C2E9"/>
<path d="M8.65952 5.16089H9.12056V6.12061H8.65952V5.16089Z" fill="#040505"/>
<path d="M3.93934 11.3002H4.40038V11.7785H3.4783V11.319L3.93934 11.3002Z" fill="#04395F"/>
<path d="M4.40036 5.64062H5.34126V6.10167H4.40036V5.64062Z" fill="#07A5E5"/>
<path d="M10.0787 3.7605H11.018V4.22154H10.0787V3.7605Z" fill="#FBFBFA"/>
<path d="M9.12054 3.7605H10.0599V4.22154H9.12054V3.7605Z" fill="#020405"/>
<path d="M4.41919 1.40039H4.88023V2.34129H4.41919V1.40039Z" fill="#030403"/>
<path d="M5.35852 0.46106H6.29942V0.9221H5.35852V0.46106Z" fill="#030303"/>
<path d="M5.85719 8.95898H6.29941V9.88107H5.81955V9.42002L5.83837 8.9778L5.85719 8.95898Z" fill="#04395F"/>
<path d="M10.0599 8.00073H11.0008V8.44295L10.9443 8.4602H10.0599V8.00073Z" fill="#020405"/>
<path d="M6.29941 4.22156H6.74163L6.76045 4.69985H6.28059V5.16089H6.00459L5.81955 5.14364V4.69985L6.28059 4.6826V4.44267L6.29941 4.22156Z" fill="#DFDFDE"/>
<path d="M8.17963 12.7194H9.10171V13.1804H8.17963V12.7194Z" fill="#E2E1E1"/>
<path d="M10.0787 4.22156H11.0008V4.6826H10.0787V4.22156Z" fill="#030303"/>
<path d="M3.01882 6.12048H3.46104V7.041H3V6.13773L3.01882 6.12048Z" fill="#020304"/>
<path d="M4.43801 14.6184H4.88023V15.5389H4.43801L4.41919 15.5217V14.6357L4.43801 14.6184Z" fill="#020202"/>
<path d="M9.63648 0.46106H10.5209V0.9221H9.59885V0.479878L9.63648 0.46106Z" fill="#020201"/>
<path d="M3.4783 12.7194H4.40038V13.1804H3.55201L3.4783 13.1428V12.7194Z" fill="#020305"/>
<path d="M7.23874 14.5996H10.0787V15.5389H11.9401V15.5578H10.0599V14.6184H9.59883V15.5578H4.88022V15.5389H9.58001V15.0795H9.12054V14.6184H7.23874V14.5996Z" fill="#B5B5B4"/>
<path d="M3.99575 2.34131H4.40034V3.28064H3.9393L3.95812 2.36013L3.99575 2.34131Z" fill="#020202"/>
<path d="M11.018 11.3191H11.479V12.2396H11.0368L11.018 11.8162V11.3191Z" fill="#05A7E8"/>
<path d="M3 11.7974H3.46104V12.7006H3.01882L3 12.6646V11.7974Z" fill="#020203"/>
<path d="M11.9589 14.6184H12.4011L12.42 14.6357V14.9869L12.4011 15.5389H11.9589V14.6184Z" fill="#020202"/>
<path d="M3.60846 6.12048H3.93934V7.041H3.62571L3.49712 7.02375L3.4783 7.00493V6.19419L3.53476 6.13773L3.60846 6.12048Z" fill="#046DB4"/>
<path d="M10.1712 3.28064L11.0008 3.29946V3.74168H10.0787V3.29946L10.1712 3.28064ZM5.76467 14.1386H5.81956V14.5997H4.89905V14.1574L5.76467 14.1386Z" fill="#020202"/>
<path d="M4.89905 1.41919H5.34127L5.35852 2.32245L5.34127 2.34127H4.89905V1.41919Z" fill="#E0E0DF"/>
<path d="M11.018 1.40039H11.4602V2.30365L11.3505 2.32247H11.0368L11.018 2.30365V1.40039Z" fill="#020202"/>
<path d="M10.0599 3.29944H10.0787V3.74166H11.018V3.76048H10.0787V4.68256H11.0008V4.22152H11.018V5.16085H10.5397V4.69981H10.0599V3.76048H7.23874V3.74166H10.0599V3.29944Z" fill="#246897"/>
<path d="M6.28061 10.3593H6.29943V10.8391H5.81957V11.3002H6.29943V13.1804H6.28061V12.7193H5.81957V12.2583H5.35853V12.7193H5.34128V12.2395H6.28061V11.319H5.80232V10.8203H6.28061V10.3593Z" fill="#0E6AA5"/>
</svg>
